<svg xmlns="http://www.w3.org/2000/svg" xmlns:xlink="http://www.w3.org/1999/xlink">
  <defs/>
  <g>
    <path stroke="none" fill="#FFCC00" d="M51.55 40 L156.45 40 Q168 40 168 51.55 L168 156.45 Q168 168 156.45 168 L51.55 168 Q40 168 40 156.45 L40 51.55 Q40 40 51.55 40 M158 55.45 L158 51.55 Q158 50 156.45 50 L51.55 50 Q50 50 50 51.55 L50 55.45 50 156.55 Q50.05 158 51.55 158 L156.45 158 Q157.95 158 158 156.55 L158 55.45"/>
    <path stroke="none" fill="#E2E2E2" d="M158 55.45 Q157.95 54 156.45 54 L51.55 54 Q50.05 54 50 55.45 L50 51.55 Q50 50 51.55 50 L156.45 50 Q158 50 158 51.55 L158 55.45"/>
    <path stroke="none" fill="#FFFFFF" d="M158 55.45 L158 156.55 Q157.95 158 156.45 158 L51.55 158 Q50.05 158 50 156.55 L50 55.45 Q50.05 54 51.55 54 L156.45 54 Q157.95 54 158 55.45"/>
    <path stroke="none" fill="#E2E2E2" d="M200 55.45 L200 51.55 Q200 50 201.55 50 L306.45 50 Q308 50 308 51.55 L308 55.45 Q307.95 54 306.45 54 L201.55 54 Q200.05 54 200 55.45"/>
    <path stroke="none" fill="#FFFFFF" d="M200 55.45 Q200.05 54 201.55 54 L306.45 54 Q307.95 54 308 55.45 L308 156.55 Q307.95 158 306.45 158 L201.55 158 Q200.05 158 200 156.55 L200 55.45"/>
    <path stroke="none" fill="#FFCC00" d="M200 55.45 L200 156.55 Q200.05 158 201.55 158 L306.45 158 Q307.95 158 308 156.55 L308 55.45 308 51.55 Q308 50 306.45 50 L201.55 50 Q200 50 200 51.55 L200 55.45 M201.55 40 L306.45 40 Q318 40 318 51.55 L318 156.45 Q318 168 306.45 168 L201.55 168 Q190 168 190 156.45 L190 51.55 Q190 40 201.55 40"/>
    <path stroke="none" fill="#9F8312" d="M201.55 40 Q190 40 190 51.55 L190 156.45 Q190 168 201.55 168 L306.45 168 Q318 168 318 156.45 L318 51.55 Q318 40 306.45 40 L201.55 40 M306.45 35 Q323 35 323 51.55 L323 156.45 Q323 173 306.45 173 L201.55 173 Q185 173 185 156.45 L185 51.55 Q185 35 201.55 35 L306.45 35"/>
    <path stroke="none" fill="#FFCC00" d="M447 65.35 L447 62.25 Q447 61 445.75 61 L362.25 61 Q361 61 361 62.25 L361 65.35 361 145.85 Q361.05 147 362.25 147 L445.75 147 Q446.95 147 447 145.85 L447 65.35 M351.55 40 L456.45 40 Q468 40 468 51.55 L468 156.45 Q468 168 456.45 168 L351.55 168 Q340 168 340 156.45 L340 51.55 Q340 40 351.55 40"/>
    <path stroke="none" fill="#E2E2E2" d="M447 65.35 Q446.95 64.2 445.75 64.2 L362.25 64.2 Q361.05 64.2 361 65.35 L361 62.25 Q361 61 362.25 61 L445.75 61 Q447 61 447 62.25 L447 65.35"/>
    <path stroke="none" fill="#FFFFFF" d="M447 65.35 L447 145.85 Q446.95 147 445.75 147 L362.25 147 Q361.05 147 361 145.85 L361 65.35 Q361.05 64.2 362.25 64.2 L445.75 64.2 Q446.95 64.2 447 65.35"/>
    <path stroke="none" fill="#FFCC00" d="M597 65.35 L597 62.25 Q597 61 595.75 61 L512.25 61 Q511 61 511 62.25 L511 65.35 511 145.85 Q511.05 147 512.25 147 L595.75 147 Q596.95 147 597 145.85 L597 65.35 M501.55 40 L606.45 40 Q618 40 618 51.55 L618 156.45 Q618 168 606.45 168 L501.55 168 Q490 168 490 156.45 L490 51.55 Q490 40 501.55 40"/>
    <path stroke="none" fill="#E2E2E2" d="M597 65.35 Q596.95 64.2 595.75 64.2 L512.25 64.2 Q511.05 64.2 511 65.35 L511 62.25 Q511 61 512.25 61 L595.75 61 Q597 61 597 62.25 L597 65.35"/>
    <path stroke="none" fill="#FFFFFF" d="M597 65.35 L597 145.85 Q596.95 147 595.75 147 L512.25 147 Q511.05 147 511 145.85 L511 65.35 Q511.05 64.2 512.25 64.2 L595.75 64.2 Q596.95 64.2 597 65.35"/>
    <path stroke="none" fill="#9F8312" d="M501.55 40 Q490 40 490 51.55 L490 156.45 Q490 168 501.55 168 L606.45 168 Q618 168 618 156.45 L618 51.55 Q618 40 606.45 40 L501.55 40 M606.45 35 Q623 35 623 51.55 L623 156.45 Q623 173 606.45 173 L501.55 173 Q485 173 485 156.45 L485 51.55 Q485 35 501.55 35 L606.45 35"/>
    <path stroke="none" fill="#E2E2E2" d="M50 505.45 L50 501.55 Q50 500 51.55 500 L156.45 500 Q158 500 158 501.55 L158 505.45 Q157.95 504 156.45 504 L51.55 504 Q50.05 504 50 505.45"/>
    <path stroke="none" fill="#FFFFFF" d="M158 505.45 L158 606.55 Q157.95 608 156.45 608 L51.55 608 Q50.05 608 50 606.55 L50 505.45 Q50.05 504 51.55 504 L156.45 504 Q157.95 504 158 505.45"/>
    <path stroke="none" fill="#CCCCCC" d="M158 505.45 L158 501.55 Q158 500 156.45 500 L51.55 500 Q50 500 50 501.55 L50 505.45 50 606.55 Q50.05 608 51.55 608 L156.45 608 Q157.95 608 158 606.55 L158 505.45 M51.55 490 L156.45 490 Q168 490 168 501.55 L168 606.45 Q168 618 156.45 618 L51.55 618 Q40 618 40 606.45 L40 501.55 Q40 490 51.55 490"/>
    <path stroke="none" fill="#E2E2E2" d="M200 505.45 L200 501.55 Q200 500 201.55 500 L306.45 500 Q308 500 308 501.55 L308 505.45 Q307.95 504 306.45 504 L201.55 504 Q200.05 504 200 505.45"/>
    <path stroke="none" fill="#FFFFFF" d="M200 505.45 Q200.05 504 201.55 504 L306.45 504 Q307.95 504 308 505.45 L308 606.55 Q307.95 608 306.45 608 L201.55 608 Q200.05 608 200 606.55 L200 505.45"/>
    <path stroke="none" fill="#CCCCCC" d="M200 505.45 L200 606.55 Q200.05 608 201.55 608 L306.45 608 Q307.95 608 308 606.55 L308 505.45 308 501.55 Q308 500 306.45 500 L201.55 500 Q200 500 200 501.55 L200 505.45 M201.55 490 L306.45 490 Q318 490 318 501.55 L318 606.45 Q318 618 306.45 618 L201.55 618 Q190 618 190 606.45 L190 501.55 Q190 490 201.55 490"/>
    <path stroke="none" fill="#707070" d="M201.55 490 Q190 490 190 501.55 L190 606.45 Q190 618 201.55 618 L306.45 618 Q318 618 318 606.45 L318 501.55 Q318 490 306.45 490 L201.55 490 M306.45 485 Q323 485 323 501.55 L323 606.45 Q323 623 306.45 623 L201.55 623 Q185 623 185 606.45 L185 501.55 Q185 485 201.55 485 L306.45 485"/>
    <path stroke="none" fill="#CCCCCC" d="M361 515.35 L361 595.85 Q361.05 597 362.25 597 L445.75 597 Q446.95 597 447 595.85 L447 515.35 447 512.25 Q447 511 445.75 511 L362.25 511 Q361 511 361 512.25 L361 515.35 M351.55 490 L456.45 490 Q468 490 468 501.55 L468 606.45 Q468 618 456.45 618 L351.55 618 Q340 618 340 606.45 L340 501.55 Q340 490 351.55 490"/>
    <path stroke="none" fill="#E2E2E2" d="M447 515.35 Q446.95 514.2 445.75 514.2 L362.25 514.2 Q361.05 514.2 361 515.35 L361 512.25 Q361 511 362.25 511 L445.75 511 Q447 511 447 512.25 L447 515.35"/>
    <path stroke="none" fill="#FFFFFF" d="M361 515.35 Q361.05 514.2 362.25 514.2 L445.75 514.2 Q446.95 514.2 447 515.35 L447 595.85 Q446.95 597 445.75 597 L362.25 597 Q361.05 597 361 595.85 L361 515.35"/>
    <path stroke="none" fill="#CCCCCC" d="M597 515.35 L597 512.25 Q597 511 595.75 511 L512.25 511 Q511 511 511 512.25 L511 515.35 511 595.85 Q511.05 597 512.25 597 L595.75 597 Q596.95 597 597 595.85 L597 515.35 M501.55 490 L606.45 490 Q618 490 618 501.55 L618 606.45 Q618 618 606.45 618 L501.55 618 Q490 618 490 606.45 L490 501.55 Q490 490 501.55 490"/>
    <path stroke="none" fill="#E2E2E2" d="M597 515.35 Q596.95 514.2 595.75 514.2 L512.25 514.2 Q511.05 514.2 511 515.35 L511 512.25 Q511 511 512.25 511 L595.75 511 Q597 511 597 512.25 L597 515.35"/>
    <path stroke="none" fill="#FFFFFF" d="M597 515.35 L597 595.85 Q596.95 597 595.75 597 L512.25 597 Q511.05 597 511 595.85 L511 515.35 Q511.05 514.2 512.25 514.2 L595.75 514.2 Q596.95 514.2 597 515.35"/>
    <path stroke="none" fill="#707070" d="M501.55 490 Q490 490 490 501.55 L490 606.45 Q490 618 501.55 618 L606.45 618 Q618 618 618 606.45 L618 501.55 Q618 490 606.45 490 L501.55 490 M606.45 485 Q623 485 623 501.55 L623 606.45 Q623 623 606.45 623 L501.55 623 Q485 623 485 606.45 L485 501.55 Q485 485 501.55 485 L606.45 485"/>
    <path stroke="none" fill="#E2E2E2" d="M511 365.35 L511 362.25 Q511 361 512.25 361 L595.75 361 Q597 361 597 362.25 L597 365.35 Q596.95 364.2 595.75 364.2 L512.25 364.2 Q511.05 364.2 511 365.35"/>
    <path stroke="none" fill="#FFFFFF" d="M511 365.35 Q511.05 364.2 512.25 364.2 L595.75 364.2 Q596.95 364.2 597 365.35 L597 445.85 Q596.95 447 595.75 447 L512.25 447 Q511.05 447 511 445.85 L511 365.35"/>
    <path stroke="none" fill="#80BE1F" d="M511 365.35 L511 445.85 Q511.05 447 512.25 447 L595.75 447 Q596.95 447 597 445.85 L597 365.35 597 362.25 Q597 361 595.75 361 L512.25 361 Q511 361 511 362.25 L511 365.35 M501.55 340 L606.45 340 Q618 340 618 351.55 L618 456.45 Q618 468 606.45 468 L501.55 468 Q490 468 490 456.45 L490 351.55 Q490 340 501.55 340"/>
    <path stroke="none" fill="#649517" d="M501.55 340 Q490 340 490 351.55 L490 456.45 Q490 468 501.55 468 L606.45 468 Q618 468 618 456.45 L618 351.55 Q618 340 606.45 340 L501.55 340 M606.45 335 Q623 335 623 351.55 L623 456.45 Q623 473 606.45 473 L501.55 473 Q485 473 485 456.45 L485 351.55 Q485 335 501.55 335 L606.45 335"/>
    <path stroke="none" fill="#E2E2E2" d="M361 365.35 L361 362.25 Q361 361 362.25 361 L445.75 361 Q447 361 447 362.25 L447 365.35 Q446.95 364.2 445.75 364.2 L362.25 364.2 Q361.05 364.2 361 365.35"/>
    <path stroke="none" fill="#FFFFFF" d="M361 365.35 Q361.05 364.2 362.25 364.2 L445.75 364.2 Q446.95 364.2 447 365.35 L447 445.85 Q446.95 447 445.75 447 L362.25 447 Q361.05 447 361 445.85 L361 365.35"/>
    <path stroke="none" fill="#80BE1F" d="M361 365.35 L361 445.85 Q361.05 447 362.25 447 L445.75 447 Q446.95 447 447 445.85 L447 365.35 447 362.25 Q447 361 445.75 361 L362.25 361 Q361 361 361 362.25 L361 365.35 M351.55 340 L456.45 340 Q468 340 468 351.55 L468 456.45 Q468 468 456.45 468 L351.55 468 Q340 468 340 456.45 L340 351.55 Q340 340 351.55 340"/>
    <path stroke="none" fill="#80BE1F" d="M308 355.45 L308 351.55 Q308 350 306.45 350 L201.55 350 Q200 350 200 351.55 L200 355.45 200 456.55 Q200.05 458 201.55 458 L306.45 458 Q307.95 458 308 456.55 L308 355.45 M201.55 340 L306.45 340 Q318 340 318 351.55 L318 456.45 Q318 468 306.45 468 L201.55 468 Q190 468 190 456.45 L190 351.55 Q190 340 201.55 340"/>
    <path stroke="none" fill="#E2E2E2" d="M308 355.45 Q307.95 354 306.45 354 L201.55 354 Q200.05 354 200 355.45 L200 351.55 Q200 350 201.55 350 L306.45 350 Q308 350 308 351.55 L308 355.45"/>
    <path stroke="none" fill="#FFFFFF" d="M308 355.45 L308 456.55 Q307.95 458 306.45 458 L201.55 458 Q200.05 458 200 456.55 L200 355.45 Q200.05 354 201.55 354 L306.45 354 Q307.95 354 308 355.45"/>
    <path stroke="none" fill="#649517" d="M201.55 340 Q190 340 190 351.55 L190 456.45 Q190 468 201.55 468 L306.45 468 Q318 468 318 456.45 L318 351.55 Q318 340 306.45 340 L201.55 340 M306.45 335 Q323 335 323 351.55 L323 456.45 Q323 473 306.45 473 L201.55 473 Q185 473 185 456.45 L185 351.55 Q185 335 201.55 335 L306.45 335"/>
    <path stroke="none" fill="#80BE1F" d="M158 355.45 L158 351.55 Q158 350 156.45 350 L51.55 350 Q50 350 50 351.55 L50 355.45 50 456.55 Q50.05 458 51.55 458 L156.45 458 Q157.95 458 158 456.55 L158 355.45 M51.55 340 L156.45 340 Q168 340 168 351.55 L168 456.45 Q168 468 156.45 468 L51.55 468 Q40 468 40 456.45 L40 351.55 Q40 340 51.55 340"/>
    <path stroke="none" fill="#E2E2E2" d="M158 355.45 Q157.95 354 156.45 354 L51.55 354 Q50.05 354 50 355.45 L50 351.55 Q50 350 51.55 350 L156.45 350 Q158 350 158 351.55 L158 355.45"/>
    <path stroke="none" fill="#FFFFFF" d="M158 355.45 L158 456.55 Q157.95 458 156.45 458 L51.55 458 Q50.05 458 50 456.55 L50 355.45 Q50.05 354 51.55 354 L156.45 354 Q157.95 354 158 355.45"/>
    <path stroke="none" fill="#1EA7E1" d="M51.55 190 L156.45 190 Q168 190 168 201.55 L168 306.45 Q168 318 156.45 318 L51.55 318 Q40 318 40 306.45 L40 201.55 Q40 190 51.55 190 M158 205.45 L158 201.55 Q158 200 156.45 200 L51.55 200 Q50 200 50 201.55 L50 205.45 50 306.55 Q50.05 308 51.55 308 L156.45 308 Q157.95 308 158 306.55 L158 205.45"/>
    <path stroke="none" fill="#E2E2E2" d="M158 205.45 Q157.95 204 156.45 204 L51.55 204 Q50.05 204 50 205.45 L50 201.55 Q50 200 51.55 200 L156.45 200 Q158 200 158 201.55 L158 205.45"/>
    <path stroke="none" fill="#FFFFFF" d="M158 205.45 L158 306.55 Q157.95 308 156.45 308 L51.55 308 Q50.05 308 50 306.55 L50 205.45 Q50.05 204 51.55 204 L156.45 204 Q157.95 204 158 205.45"/>
    <path stroke="none" fill="#187DA8" d="M306.45 185 Q323 185 323 201.55 L323 306.45 Q323 323 306.45 323 L201.55 323 Q185 323 185 306.45 L185 201.55 Q185 185 201.55 185 L306.45 185 M201.55 190 Q190 190 190 201.55 L190 306.45 Q190 318 201.55 318 L306.45 318 Q318 318 318 306.45 L318 201.55 Q318 190 306.45 190 L201.55 190"/>
    <path stroke="none" fill="#1EA7E1" d="M201.55 190 L306.45 190 Q318 190 318 201.55 L318 306.45 Q318 318 306.45 318 L201.55 318 Q190 318 190 306.45 L190 201.55 Q190 190 201.55 190 M308 205.45 L308 201.55 Q308 200 306.45 200 L201.55 200 Q200 200 200 201.55 L200 205.45 200 306.55 Q200.05 308 201.55 308 L306.45 308 Q307.95 308 308 306.55 L308 205.45"/>
    <path stroke="none" fill="#E2E2E2" d="M308 205.45 Q307.95 204 306.45 204 L201.55 204 Q200.05 204 200 205.45 L200 201.55 Q200 200 201.55 200 L306.45 200 Q308 200 308 201.55 L308 205.45"/>
    <path stroke="none" fill="#FFFFFF" d="M308 205.45 L308 306.55 Q307.95 308 306.45 308 L201.55 308 Q200.05 308 200 306.55 L200 205.45 Q200.05 204 201.55 204 L306.45 204 Q307.95 204 308 205.45"/>
    <path stroke="none" fill="#1EA7E1" d="M351.55 190 L456.45 190 Q468 190 468 201.55 L468 306.45 Q468 318 456.45 318 L351.55 318 Q340 318 340 306.45 L340 201.55 Q340 190 351.55 190 M447 215.35 L447 212.25 Q447 211 445.75 211 L362.25 211 Q361 211 361 212.25 L361 215.35 361 295.85 Q361.05 297 362.25 297 L445.75 297 Q446.95 297 447 295.85 L447 215.35"/>
    <path stroke="none" fill="#E2E2E2" d="M447 215.35 Q446.95 214.2 445.75 214.2 L362.25 214.2 Q361.05 214.2 361 215.35 L361 212.25 Q361 211 362.25 211 L445.75 211 Q447 211 447 212.25 L447 215.35"/>
    <path stroke="none" fill="#FFFFFF" d="M447 215.35 L447 295.85 Q446.95 297 445.75 297 L362.25 297 Q361.05 297 361 295.85 L361 215.35 Q361.05 214.2 362.25 214.2 L445.75 214.2 Q446.95 214.2 447 215.35"/>
    <path stroke="none" fill="#187DA8" d="M606.45 185 Q623 185 623 201.55 L623 306.45 Q623 323 606.45 323 L501.55 323 Q485 323 485 306.45 L485 201.55 Q485 185 501.55 185 L606.45 185 M501.55 190 Q490 190 490 201.55 L490 306.45 Q490 318 501.55 318 L606.45 318 Q618 318 618 306.45 L618 201.55 Q618 190 606.45 190 L501.55 190"/>
    <path stroke="none" fill="#1EA7E1" d="M501.55 190 L606.45 190 Q618 190 618 201.55 L618 306.45 Q618 318 606.45 318 L501.55 318 Q490 318 490 306.45 L490 201.55 Q490 190 501.55 190 M597 215.35 L597 212.25 Q597 211 595.75 211 L512.25 211 Q511 211 511 212.25 L511 215.35 511 295.85 Q511.05 297 512.25 297 L595.75 297 Q596.95 297 597 295.85 L597 215.35"/>
    <path stroke="none" fill="#E2E2E2" d="M597 215.35 Q596.95 214.2 595.75 214.2 L512.25 214.2 Q511.05 214.2 511 215.35 L511 212.25 Q511 211 512.25 211 L595.75 211 Q597 211 597 212.25 L597 215.35"/>
    <path stroke="none" fill="#FFFFFF" d="M597 215.35 L597 295.85 Q596.95 297 595.75 297 L512.25 297 Q511.05 297 511 295.85 L511 215.35 Q511.05 214.2 512.25 214.2 L595.75 214.2 Q596.95 214.2 597 215.35"/>
    <path stroke="none" fill="#C9C9C9" d="M775.95 40 L759.95 56 663.95 56 647.95 40 775.95 40"/>
    <path stroke="none" fill="#ECECEC" d="M775.95 40 L775.95 168 759.95 152 759.95 56 775.95 40 M647.95 40 L663.95 56 663.95 152 647.95 168 647.95 40"/>
    <path stroke="none" fill="#FFFFFF" d="M759.95 152 L775.95 168 647.95 168 663.95 152 759.95 152"/>
    <path stroke="none" fill="#D9D9D9" d="M759.95 152 L663.95 152 663.95 56 759.95 56 759.95 152"/>
    <path stroke="none" fill="#999999" d="M930.95 40 L930.95 168 Q930.95 170.05 929.5 171.55 928 173 925.95 173 L797.95 173 Q795.9 173 794.45 171.55 792.95 170.05 792.95 168 L792.95 40 Q792.95 37.95 794.45 36.5 795.9 35 797.95 35 L925.95 35 Q928 35 929.5 36.5 930.95 37.95 930.95 40 M925.95 40 L797.95 40 797.95 168 925.95 168 925.95 40"/>
    <path stroke="none" fill="#C9C9C9" d="M925.95 40 L909.95 56 813.95 56 797.95 40 925.95 40"/>
    <path stroke="none" fill="#ECECEC" d="M925.95 40 L925.95 168 909.95 152 909.95 56 925.95 40 M797.95 40 L813.95 56 813.95 152 797.95 168 797.95 40"/>
    <path stroke="none" fill="#FFFFFF" d="M909.95 152 L925.95 168 797.95 168 813.95 152 909.95 152"/>
    <path stroke="none" fill="#D9D9D9" d="M909.95 152 L813.95 152 813.95 56 909.95 56 909.95 152"/>
  </g>
</svg>