<svg xmlns="http://www.w3.org/2000/svg" xmlns:xlink="http://www.w3.org/1999/xlink">
  <defs/>
  <g>
    <path stroke="none" fill="#9DE0FC" d="M1011.6 67.3 Q1021 76.7 1021 89.95 L1021 90.4 Q1020.85 103.35 1011.6 112.55 1002.25 121.95 989 121.95 975.8 121.95 966.4 112.55 957 103.2 957 89.95 L957 89.8 Q957.05 76.65 966.4 67.3 975.8 57.95 989 57.95 1002.25 57.95 1011.6 67.3 M1021 180.4 Q1020.85 193.35 1011.6 202.55 1002.25 211.95 989 211.95 975.8 211.95 966.4 202.55 957 193.2 957 179.95 L957 179.8 Q957.05 166.65 966.4 157.3 975.8 147.95 989 147.95 1002.25 147.95 1011.6 157.3 1021 166.7 1021 179.95 L1021 180.4 M921.6 67.3 Q931 76.7 931 89.95 931 103.2 921.6 112.55 912.25 121.95 899 121.95 885.8 121.95 876.4 112.55 867 103.2 867 89.95 867 76.7 876.4 67.3 885.8 57.95 899 57.95 912.25 57.95 921.6 67.3 M841 89.95 L841 90.4 Q840.85 103.35 831.6 112.55 822.25 121.95 809 121.95 795.8 121.95 786.4 112.55 777 103.2 777 89.95 L777 89.8 Q777.05 76.65 786.4 67.3 795.8 57.95 809 57.95 822.25 57.95 831.6 67.3 841 76.7 841 89.95 M841 179.95 L841 180.4 Q840.85 193.35 831.6 202.55 822.25 211.95 809 211.95 795.8 211.95 786.4 202.55 777 193.2 777 179.95 L777 179.8 Q777.05 166.65 786.4 157.3 795.8 147.95 809 147.95 822.25 147.95 831.6 157.3 841 166.7 841 179.95 M876.4 157.3 Q885.8 147.95 899 147.95 912.25 147.95 921.6 157.3 931 166.7 931 179.95 931 193.2 921.6 202.55 912.25 211.95 899 211.95 885.8 211.95 876.4 202.55 867 193.2 867 179.95 867 166.7 876.4 157.3 M751 89.95 Q751 103.2 741.6 112.55 732.25 121.95 719 121.95 705.8 121.95 696.4 112.55 687 103.2 687 89.95 687 76.7 696.4 67.3 705.8 57.95 719 57.95 732.25 57.95 741.6 67.3 751 76.7 751 89.95 M661 89.95 Q661 103.2 651.6 112.55 642.25 121.95 629 121.95 615.8 121.95 606.4 112.55 597 103.2 597 89.95 597 76.7 606.4 67.3 615.8 57.95 629 57.95 642.25 57.95 651.6 67.3 661 76.7 661 89.95 M661 179.95 Q661 193.2 651.6 202.55 642.25 211.95 629 211.95 615.8 211.95 606.4 202.55 597 193.2 597 179.95 597 166.7 606.4 157.3 615.8 147.95 629 147.95 642.25 147.95 651.6 157.3 661 166.7 661 179.95 M696.4 157.3 Q705.8 147.95 719 147.95 732.25 147.95 741.6 157.3 751 166.7 751 179.95 751 193.2 741.6 202.55 732.25 211.95 719 211.95 705.8 211.95 696.4 202.55 687 193.2 687 179.95 687 166.7 696.4 157.3"/>
    <path stroke="none" fill="#5CB2D7" d="M696.4 157.3 Q687 166.7 687 179.95 687 193.2 696.4 202.55 705.8 211.95 719 211.95 732.25 211.95 741.6 202.55 751 193.2 751 179.95 751 166.7 741.6 157.3 732.25 147.95 719 147.95 705.8 147.95 696.4 157.3 M1026 179.95 L1026 180.4 1026 180.45 Q1025.85 195.45 1015.15 206.1 1004.3 216.95 989 216.95 973.75 216.95 962.9 206.1 952 195.3 952 179.95 L952 179.8 Q952.05 164.6 962.9 153.8 L962.9 153.75 Q973.75 142.95 989 142.95 1004.3 142.95 1015.15 153.8 1026 164.65 1026 179.95 M1021 180.4 L1021 179.95 Q1021 166.7 1011.6 157.3 1002.25 147.95 989 147.95 975.8 147.95 966.4 157.3 957.05 166.65 957 179.8 L957 179.95 Q957 193.2 966.4 202.55 975.8 211.95 989 211.95 1002.25 211.95 1011.6 202.55 1020.85 193.35 1021 180.4 M841 179.95 Q841 166.7 831.6 157.3 822.25 147.95 809 147.95 795.8 147.95 786.4 157.3 777.05 166.65 777 179.8 L777 179.95 Q777 193.2 786.4 202.55 795.8 211.95 809 211.95 822.25 211.95 831.6 202.55 840.85 193.35 841 180.4 L841 179.95 M846 179.95 L846 180.4 846 180.45 Q845.85 195.45 835.15 206.1 824.3 216.95 809 216.95 793.75 216.95 782.9 206.1 772 195.3 772 179.95 L772 179.8 Q772.05 164.6 782.9 153.8 L782.9 153.75 Q793.75 142.95 809 142.95 824.3 142.95 835.15 153.8 846 164.65 846 179.95 M872.9 153.8 L872.9 153.75 Q883.75 142.95 899 142.95 914.3 142.95 925.15 153.8 936 164.65 936 179.95 936 195.25 925.15 206.1 914.3 216.95 899 216.95 883.75 216.95 872.9 206.1 862 195.3 862 179.95 862 164.65 872.9 153.8 M876.4 157.3 Q867 166.7 867 179.95 867 193.2 876.4 202.55 885.8 211.95 899 211.95 912.25 211.95 921.6 202.55 931 193.2 931 179.95 931 166.7 921.6 157.3 912.25 147.95 899 147.95 885.8 147.95 876.4 157.3 M666 179.95 Q666 195.25 655.15 206.1 644.3 216.95 629 216.95 613.75 216.95 602.9 206.1 592 195.3 592 179.95 592 164.65 602.9 153.8 L602.9 153.75 Q613.75 142.95 629 142.95 644.3 142.95 655.15 153.8 666 164.65 666 179.95 M661 179.95 Q661 166.7 651.6 157.3 642.25 147.95 629 147.95 615.8 147.95 606.4 157.3 597 166.7 597 179.95 597 193.2 606.4 202.55 615.8 211.95 629 211.95 642.25 211.95 651.6 202.55 661 193.2 661 179.95 M692.9 153.75 Q703.75 142.95 719 142.95 734.3 142.95 745.15 153.8 756 164.65 756 179.95 756 195.25 745.15 206.1 734.3 216.95 719 216.95 703.75 216.95 692.9 206.1 682 195.3 682 179.95 682 164.65 692.9 153.8 L692.9 153.75"/>
    <path stroke="none" fill="#333333" d="M1021 330.4 Q1020.85 343.35 1011.6 352.55 1002.25 361.95 989 361.95 975.8 361.95 966.4 352.55 957 343.2 957 329.95 L957 329.8 Q957.05 316.65 966.4 307.3 975.8 297.95 989 297.95 1002.25 297.95 1011.6 307.3 1021 316.7 1021 329.95 L1021 330.4 M719 297.95 Q732.25 297.95 741.6 307.3 751 316.7 751 329.95 751 343.2 741.6 352.55 732.25 361.95 719 361.95 705.8 361.95 696.4 352.55 687 343.2 687 329.95 687 316.7 696.4 307.3 705.8 297.95 719 297.95 M661 329.95 Q661 343.2 651.6 352.55 642.25 361.95 629 361.95 615.8 361.95 606.4 352.55 597 343.2 597 329.95 597 316.7 606.4 307.3 615.8 297.95 629 297.95 642.25 297.95 651.6 307.3 661 316.7 661 329.95 M777 329.8 Q777.05 316.65 786.4 307.3 795.8 297.95 809 297.95 822.25 297.95 831.6 307.3 841 316.7 841 329.95 L841 330.4 Q840.85 343.35 831.6 352.55 822.25 361.95 809 361.95 795.8 361.95 786.4 352.55 777 343.2 777 329.95 L777 329.8 M876.4 307.3 Q885.8 297.95 899 297.95 912.25 297.95 921.6 307.3 931 316.7 931 329.95 931 343.2 921.6 352.55 912.25 361.95 899 361.95 885.8 361.95 876.4 352.55 867 343.2 867 329.95 867 316.7 876.4 307.3 M957 419.95 L957 419.8 Q957.05 406.65 966.4 397.3 975.8 387.95 989 387.95 1002.25 387.95 1011.6 397.3 1021 406.7 1021 419.95 L1021 420.4 Q1020.85 433.35 1011.6 442.55 1002.25 451.95 989 451.95 975.8 451.95 966.4 442.55 957 433.2 957 419.95 M921.6 442.55 Q912.25 451.95 899 451.95 885.8 451.95 876.4 442.55 867 433.2 867 419.95 867 406.7 876.4 397.3 885.8 387.95 899 387.95 912.25 387.95 921.6 397.3 931 406.7 931 419.95 931 433.2 921.6 442.55 M831.6 442.55 Q822.25 451.95 809 451.95 795.8 451.95 786.4 442.55 777 433.2 777 419.95 L777 419.8 Q777.05 406.65 786.4 397.3 795.8 387.95 809 387.95 822.25 387.95 831.6 397.3 841 406.7 841 419.95 L841 420.4 Q840.85 433.35 831.6 442.55 M741.6 442.55 Q732.25 451.95 719 451.95 705.8 451.95 696.4 442.55 687 433.2 687 419.95 687 406.7 696.4 397.3 705.8 387.95 719 387.95 732.25 387.95 741.6 397.3 751 406.7 751 419.95 751 433.2 741.6 442.55 M651.6 442.55 Q642.25 451.95 629 451.95 615.8 451.95 606.4 442.55 597 433.2 597 419.95 597 406.7 606.4 397.3 615.8 387.95 629 387.95 642.25 387.95 651.6 397.3 661 406.7 661 419.95 661 433.2 651.6 442.55"/>
    <path stroke="none" fill="#252525" d="M651.6 442.55 Q661 433.2 661 419.95 661 406.7 651.6 397.3 642.25 387.95 629 387.95 615.8 387.95 606.4 397.3 597 406.7 597 419.95 597 433.2 606.4 442.55 615.8 451.95 629 451.95 642.25 451.95 651.6 442.55 M1015.15 393.8 Q1026 404.65 1026 419.95 L1026 420.4 1026 420.45 Q1025.85 435.45 1015.15 446.1 1004.3 456.95 989 456.95 973.75 456.95 962.9 446.1 952 435.3 952 419.95 L952 419.8 Q952.05 404.6 962.9 393.8 L962.9 393.75 Q973.75 382.95 989 382.95 1004.3 382.95 1015.15 393.8 M719 382.95 Q734.3 382.95 745.15 393.8 756 404.65 756 419.95 756 435.25 745.15 446.1 734.3 456.95 719 456.95 703.75 456.95 692.9 446.1 682 435.3 682 419.95 682 404.65 692.9 393.8 L692.9 393.75 Q703.75 382.95 719 382.95 M809 382.95 Q824.3 382.95 835.15 393.8 846 404.65 846 419.95 L846 420.4 846 420.45 Q845.85 435.45 835.15 446.1 824.3 456.95 809 456.95 793.75 456.95 782.9 446.1 772 435.3 772 419.95 L772 419.8 Q772.05 404.6 782.9 393.8 L782.9 393.75 Q793.75 382.95 809 382.95 M872.9 393.75 Q883.75 382.95 899 382.95 914.3 382.95 925.15 393.8 936 404.65 936 419.95 936 435.25 925.15 446.1 914.3 456.95 899 456.95 883.75 456.95 872.9 446.1 862 435.3 862 419.95 862 404.65 872.9 393.8 L872.9 393.75 M741.6 442.55 Q751 433.2 751 419.95 751 406.7 741.6 397.3 732.25 387.95 719 387.95 705.8 387.95 696.4 397.3 687 406.7 687 419.95 687 433.2 696.4 442.55 705.8 451.95 719 451.95 732.25 451.95 741.6 442.55 M831.6 442.55 Q840.85 433.35 841 420.4 L841 419.95 Q841 406.7 831.6 397.3 822.25 387.95 809 387.95 795.8 387.95 786.4 397.3 777.05 406.65 777 419.8 L777 419.95 Q777 433.2 786.4 442.55 795.8 451.95 809 451.95 822.25 451.95 831.6 442.55 M921.6 442.55 Q931 433.2 931 419.95 931 406.7 921.6 397.3 912.25 387.95 899 387.95 885.8 387.95 876.4 397.3 867 406.7 867 419.95 867 433.2 876.4 442.55 885.8 451.95 899 451.95 912.25 451.95 921.6 442.55 M957 419.95 Q957 433.2 966.4 442.55 975.8 451.95 989 451.95 1002.25 451.95 1011.6 442.55 1020.85 433.35 1021 420.4 L1021 419.95 Q1021 406.7 1011.6 397.3 1002.25 387.95 989 387.95 975.8 387.95 966.4 397.3 957.05 406.65 957 419.8 L957 419.95 M655.15 446.1 Q644.3 456.95 629 456.95 613.75 456.95 602.9 446.1 592 435.3 592 419.95 592 404.65 602.9 393.8 L602.9 393.75 Q613.75 382.95 629 382.95 644.3 382.95 655.15 393.8 666 404.65 666 419.95 666 435.25 655.15 446.1"/>
    <path stroke="none" fill="#E5E5E5" d="M491 90.4 Q490.85 103.35 481.6 112.55 472.25 121.95 459 121.95 445.8 121.95 436.4 112.55 427 103.2 427 89.95 L427 89.8 Q427.05 76.65 436.4 67.3 445.8 57.95 459 57.95 472.25 57.95 481.6 67.3 491 76.7 491 89.95 L491 90.4 M491 180.4 Q490.85 193.35 481.6 202.55 472.25 211.95 459 211.95 445.8 211.95 436.4 202.55 427 193.2 427 179.95 L427 179.8 Q427.05 166.65 436.4 157.3 445.8 147.95 459 147.95 472.25 147.95 481.6 157.3 491 166.7 491 179.95 L491 180.4 M346.4 67.3 Q355.8 57.95 369 57.95 382.25 57.95 391.6 67.3 401 76.7 401 89.95 401 103.2 391.6 112.55 382.25 121.95 369 121.95 355.8 121.95 346.4 112.55 337 103.2 337 89.95 337 76.7 346.4 67.3 M346.4 157.3 Q355.8 147.95 369 147.95 382.25 147.95 391.6 157.3 401 166.7 401 179.95 401 193.2 391.6 202.55 382.25 211.95 369 211.95 355.8 211.95 346.4 202.55 337 193.2 337 179.95 337 166.7 346.4 157.3 M256.4 67.3 Q265.8 57.95 279 57.95 292.25 57.95 301.6 67.3 311 76.7 311 89.95 L311 90.4 Q310.85 103.35 301.6 112.55 292.25 121.95 279 121.95 265.8 121.95 256.4 112.55 247 103.2 247 89.95 L247 89.8 Q247.05 76.65 256.4 67.3 M189 57.95 Q202.25 57.95 211.6 67.3 221 76.7 221 89.95 221 103.2 211.6 112.55 202.25 121.95 189 121.95 175.8 121.95 166.4 112.55 157 103.2 157 89.95 157 76.7 166.4 67.3 175.8 57.95 189 57.95 M221 179.95 Q221 193.2 211.6 202.55 202.25 211.95 189 211.95 175.8 211.95 166.4 202.55 157 193.2 157 179.95 157 166.7 166.4 157.3 175.8 147.95 189 147.95 202.25 147.95 211.6 157.3 221 166.7 221 179.95 M256.4 157.3 Q265.8 147.95 279 147.95 292.25 147.95 301.6 157.3 311 166.7 311 179.95 L311 180.4 Q310.85 193.35 301.6 202.55 292.25 211.95 279 211.95 265.8 211.95 256.4 202.55 247 193.2 247 179.95 L247 179.8 Q247.05 166.65 256.4 157.3 M131 89.95 Q131 103.2 121.6 112.55 112.25 121.95 99 121.95 85.8 121.95 76.4 112.55 67 103.2 67 89.95 67 76.7 76.4 67.3 85.8 57.95 99 57.95 112.25 57.95 121.6 67.3 131 76.7 131 89.95 M76.4 157.3 Q85.8 147.95 99 147.95 112.25 147.95 121.6 157.3 131 166.7 131 179.95 131 193.2 121.6 202.55 112.25 211.95 99 211.95 85.8 211.95 76.4 202.55 67 193.2 67 179.95 67 166.7 76.4 157.3"/>
    <path stroke="none" fill="#999999" d="M76.4 157.3 Q67 166.7 67 179.95 67 193.2 76.4 202.55 85.8 211.95 99 211.95 112.25 211.95 121.6 202.55 131 193.2 131 179.95 131 166.7 121.6 157.3 112.25 147.95 99 147.95 85.8 147.95 76.4 157.3 M491 180.4 L491 179.95 Q491 166.7 481.6 157.3 472.25 147.95 459 147.95 445.8 147.95 436.4 157.3 427.05 166.65 427 179.8 L427 179.95 Q427 193.2 436.4 202.55 445.8 211.95 459 211.95 472.25 211.95 481.6 202.55 490.85 193.35 491 180.4 M496 180.4 L496 180.45 Q495.85 195.45 485.15 206.1 474.3 216.95 459 216.95 443.75 216.95 432.9 206.1 422 195.3 422 179.95 L422 179.8 Q422.05 164.6 432.9 153.8 L432.9 153.75 Q443.75 142.95 459 142.95 474.3 142.95 485.15 153.8 496 164.65 496 179.95 L496 180.4 M346.4 157.3 Q337 166.7 337 179.95 337 193.2 346.4 202.55 355.8 211.95 369 211.95 382.25 211.95 391.6 202.55 401 193.2 401 179.95 401 166.7 391.6 157.3 382.25 147.95 369 147.95 355.8 147.95 346.4 157.3 M342.9 153.8 L342.9 153.75 Q353.75 142.95 369 142.95 384.3 142.95 395.15 153.8 406 164.65 406 179.95 406 195.25 395.15 206.1 384.3 216.95 369 216.95 353.75 216.95 342.9 206.1 332 195.3 332 179.95 332 164.65 342.9 153.8 M162.9 153.75 Q173.75 142.95 189 142.95 204.3 142.95 215.15 153.8 226 164.65 226 179.95 226 195.25 215.15 206.1 204.3 216.95 189 216.95 173.75 216.95 162.9 206.1 152 195.3 152 179.95 152 164.65 162.9 153.8 L162.9 153.75 M221 179.95 Q221 166.7 211.6 157.3 202.25 147.95 189 147.95 175.8 147.95 166.4 157.3 157 166.7 157 179.95 157 193.2 166.4 202.55 175.8 211.95 189 211.95 202.25 211.95 211.6 202.55 221 193.2 221 179.95 M242 179.8 Q242.05 164.6 252.9 153.8 L252.9 153.75 Q263.75 142.95 279 142.95 294.3 142.95 305.15 153.8 316 164.65 316 179.95 L316 180.4 316 180.45 Q315.85 195.45 305.15 206.1 294.3 216.95 279 216.95 263.75 216.95 252.9 206.1 242 195.3 242 179.95 L242 179.8 M256.4 157.3 Q247.05 166.65 247 179.8 L247 179.95 Q247 193.2 256.4 202.55 265.8 211.95 279 211.95 292.25 211.95 301.6 202.55 310.85 193.35 311 180.4 L311 179.95 Q311 166.7 301.6 157.3 292.25 147.95 279 147.95 265.8 147.95 256.4 157.3 M72.9 153.8 L72.9 153.75 Q83.75 142.95 99 142.95 114.3 142.95 125.15 153.8 136 164.65 136 179.95 136 195.25 125.15 206.1 114.3 216.95 99 216.95 83.75 216.95 72.9 206.1 62 195.3 62 179.95 62 164.65 72.9 153.8"/>
    <path stroke="none" fill="#FFF3C4" d="M391.6 307.3 Q401 316.7 401 329.95 401 343.2 391.6 352.55 382.25 361.95 369 361.95 355.8 361.95 346.4 352.55 337 343.2 337 329.95 337 316.7 346.4 307.3 355.8 297.95 369 297.95 382.25 297.95 391.6 307.3 M481.6 307.3 Q491 316.7 491 329.95 L491 330.4 Q490.85 343.35 481.6 352.55 472.25 361.95 459 361.95 445.8 361.95 436.4 352.55 427 343.2 427 329.95 L427 329.8 Q427.05 316.65 436.4 307.3 445.8 297.95 459 297.95 472.25 297.95 481.6 307.3 M76.4 307.3 Q85.8 297.95 99 297.95 112.25 297.95 121.6 307.3 131 316.7 131 329.95 131 343.2 121.6 352.55 112.25 361.95 99 361.95 85.8 361.95 76.4 352.55 67 343.2 67 329.95 67 316.7 76.4 307.3 M221 329.95 Q221 343.2 211.6 352.55 202.25 361.95 189 361.95 175.8 361.95 166.4 352.55 157 343.2 157 329.95 157 316.7 166.4 307.3 175.8 297.95 189 297.95 202.25 297.95 211.6 307.3 221 316.7 221 329.95 M311 329.95 L311 330.4 Q310.85 343.35 301.6 352.55 292.25 361.95 279 361.95 265.8 361.95 256.4 352.55 247 343.2 247 329.95 L247 329.8 Q247.05 316.65 256.4 307.3 265.8 297.95 279 297.95 292.25 297.95 301.6 307.3 311 316.7 311 329.95 M301.6 442.55 Q292.25 451.95 279 451.95 265.8 451.95 256.4 442.55 247 433.2 247 419.95 L247 419.8 Q247.05 406.65 256.4 397.3 265.8 387.95 279 387.95 292.25 387.95 301.6 397.3 311 406.7 311 419.95 L311 420.4 Q310.85 433.35 301.6 442.55 M211.6 442.55 Q202.25 451.95 189 451.95 175.8 451.95 166.4 442.55 157 433.2 157 419.95 157 406.7 166.4 397.3 175.8 387.95 189 387.95 202.25 387.95 211.6 397.3 221 406.7 221 419.95 221 433.2 211.6 442.55 M121.6 442.55 Q112.25 451.95 99 451.95 85.8 451.95 76.4 442.55 67 433.2 67 419.95 67 406.7 76.4 397.3 85.8 387.95 99 387.95 112.25 387.95 121.6 397.3 131 406.7 131 419.95 131 433.2 121.6 442.55 M491 420.4 Q490.85 433.35 481.6 442.55 472.25 451.95 459 451.95 445.8 451.95 436.4 442.55 427 433.2 427 419.95 L427 419.8 Q427.05 406.65 436.4 397.3 445.8 387.95 459 387.95 472.25 387.95 481.6 397.3 491 406.7 491 419.95 L491 420.4 M391.6 442.55 Q382.25 451.95 369 451.95 355.8 451.95 346.4 442.55 337 433.2 337 419.95 337 406.7 346.4 397.3 355.8 387.95 369 387.95 382.25 387.95 391.6 397.3 401 406.7 401 419.95 401 433.2 391.6 442.55"/>
    <path stroke="none" fill="#C2AD5C" d="M391.6 442.55 Q401 433.2 401 419.95 401 406.7 391.6 397.3 382.25 387.95 369 387.95 355.8 387.95 346.4 397.3 337 406.7 337 419.95 337 433.2 346.4 442.55 355.8 451.95 369 451.95 382.25 451.95 391.6 442.55 M342.9 393.75 Q353.75 382.95 369 382.95 384.3 382.95 395.15 393.8 406 404.65 406 419.95 406 435.25 395.15 446.1 384.3 456.95 369 456.95 353.75 456.95 342.9 446.1 332 435.3 332 419.95 332 404.65 342.9 393.8 L342.9 393.75 M432.9 393.75 Q443.75 382.95 459 382.95 474.3 382.95 485.15 393.8 496 404.65 496 419.95 L496 420.4 496 420.45 Q495.85 435.45 485.15 446.1 474.3 456.95 459 456.95 443.75 456.95 432.9 446.1 422 435.3 422 419.95 L422 419.8 Q422.05 404.6 432.9 393.8 L432.9 393.75 M72.9 393.75 Q83.75 382.95 99 382.95 114.3 382.95 125.15 393.8 136 404.65 136 419.95 136 435.25 125.15 446.1 114.3 456.95 99 456.95 83.75 456.95 72.9 446.1 62 435.3 62 419.95 62 404.65 72.9 393.8 L72.9 393.75 M189 382.95 Q204.3 382.95 215.15 393.8 226 404.65 226 419.95 226 435.25 215.15 446.1 204.3 456.95 189 456.95 173.75 456.95 162.9 446.1 152 435.3 152 419.95 152 404.65 162.9 393.8 L162.9 393.75 Q173.75 382.95 189 382.95 M279 382.95 Q294.3 382.95 305.15 393.8 316 404.65 316 419.95 L316 420.4 316 420.45 Q315.85 435.45 305.15 446.1 294.3 456.95 279 456.95 263.75 456.95 252.9 446.1 242 435.3 242 419.95 L242 419.8 Q242.05 404.6 252.9 393.8 L252.9 393.75 Q263.75 382.95 279 382.95 M491 420.4 L491 419.95 Q491 406.7 481.6 397.3 472.25 387.95 459 387.95 445.8 387.95 436.4 397.3 427.05 406.65 427 419.8 L427 419.95 Q427 433.2 436.4 442.55 445.8 451.95 459 451.95 472.25 451.95 481.6 442.55 490.85 433.35 491 420.4 M121.6 442.55 Q131 433.2 131 419.95 131 406.7 121.6 397.3 112.25 387.95 99 387.95 85.8 387.95 76.4 397.3 67 406.7 67 419.95 67 433.2 76.4 442.55 85.8 451.95 99 451.95 112.25 451.95 121.6 442.55 M211.6 442.55 Q221 433.2 221 419.95 221 406.7 211.6 397.3 202.25 387.95 189 387.95 175.8 387.95 166.4 397.3 157 406.7 157 419.95 157 433.2 166.4 442.55 175.8 451.95 189 451.95 202.25 451.95 211.6 442.55 M301.6 442.55 Q310.85 433.35 311 420.4 L311 419.95 Q311 406.7 301.6 397.3 292.25 387.95 279 387.95 265.8 387.95 256.4 397.3 247.05 406.65 247 419.8 L247 419.95 Q247 433.2 256.4 442.55 265.8 451.95 279 451.95 292.25 451.95 301.6 442.55"/>
    <path stroke="none" fill="#FFFFFF" fill-opacity="0.4" d="M488.2 92.15 Q476.3 99.05 459.45 99.05 442.6 99.05 430.65 92.15 L427 89.8 Q427.05 76.65 436.4 67.3 445.8 57.95 459 57.95 472.25 57.95 481.6 67.3 491 76.7 491 89.95 L491 90.4 488.2 92.15"/>
    <path stroke="none" fill="#FFFFFF" fill-opacity="0.4" d="M189 65.55 Q199.1 65.55 206.25 72.7 213.05 79.5 213.4 88.95 L213.05 90.15 212.05 90.9 Q189 98.75 166 90.9 165.35 90.7 165 90.15 164.6 89.6 164.65 88.95 164.95 79.5 171.8 72.7 178.9 65.55 189 65.55"/>
    <path stroke="none" fill="#FFFFFF" fill-opacity="0.4" d="M358.5 67.95 Q363.3 67.95 366.65 71.3 370 74.7 370 79.45 370 84.2 366.65 87.55 363.3 90.95 358.5 90.95 353.8 90.95 350.4 87.55 347 84.2 347 79.45 347 74.7 350.4 71.3 353.8 67.95 358.5 67.95"/>
    <path stroke="none" fill="#FFFFFF" fill-opacity="0.4" d="M437 79.45 Q437 74.7 440.4 71.3 443.8 67.95 448.5 67.95 453.3 67.95 456.65 71.3 460 74.7 460 79.45 460 84.2 456.65 87.55 453.3 90.95 448.5 90.95 443.8 90.95 440.4 87.55 437 84.2 437 79.45"/>
    <path stroke="none" fill="#FFFFFF" fill-opacity="0.4" d="M279 57.95 Q292.25 57.95 301.6 67.3 311 76.7 311 89.95 L311 90.4 308.2 92.15 Q296.3 99.05 279.45 99.05 262.6 99.05 250.65 92.15 L247 89.8 Q247.05 76.65 256.4 67.3 265.8 57.95 279 57.95"/>
    <path stroke="none" fill="#FFFFFF" fill-opacity="0.4" d="M488.2 182.15 Q476.3 189.05 459.45 189.05 442.6 189.05 430.65 182.15 L427 179.8 Q427.05 166.65 436.4 157.3 445.8 147.95 459 147.95 472.25 147.95 481.6 157.3 491 166.7 491 179.95 L491 180.4 488.2 182.15"/>
    <path stroke="none" fill="#FFFFFF" fill-opacity="0.4" d="M165 180.15 Q164.6 179.6 164.65 178.95 164.95 169.5 171.8 162.7 178.9 155.55 189 155.55 199.1 155.55 206.25 162.7 213.05 169.5 213.4 178.95 L213.05 180.15 212.05 180.9 Q189 188.75 166 180.9 165.35 180.7 165 180.15"/>
    <path stroke="none" fill="#FFFFFF" fill-opacity="0.4" d="M347 169.45 Q347 164.7 350.4 161.3 353.8 157.95 358.5 157.95 363.3 157.95 366.65 161.3 370 164.7 370 169.45 370 174.2 366.65 177.55 363.3 180.95 358.5 180.95 353.8 180.95 350.4 177.55 347 174.2 347 169.45"/>
    <path stroke="none" fill="#FFFFFF" fill-opacity="0.4" d="M440.4 161.3 Q443.8 157.95 448.5 157.95 453.3 157.95 456.65 161.3 460 164.7 460 169.45 460 174.2 456.65 177.55 453.3 180.95 448.5 180.95 443.8 180.95 440.4 177.55 437 174.2 437 169.45 437 164.7 440.4 161.3"/>
    <path stroke="none" fill="#FFFFFF" fill-opacity="0.4" d="M250.65 182.15 L247 179.8 Q247.05 166.65 256.4 157.3 265.8 147.95 279 147.95 292.25 147.95 301.6 157.3 311 166.7 311 179.95 L311 180.4 308.2 182.15 Q296.3 189.05 279.45 189.05 262.6 189.05 250.65 182.15"/>
    <path stroke="none" fill="#FFFFFF" fill-opacity="0.2" d="M1011.6 67.3 Q1021 76.7 1021 89.95 L1021 90.4 1018.2 92.15 Q1006.3 99.05 989.45 99.05 972.6 99.05 960.65 92.15 L957 89.8 Q957.05 76.65 966.4 67.3 975.8 57.95 989 57.95 1002.25 57.95 1011.6 67.3"/>
    <path stroke="none" fill="#FFFFFF" fill-opacity="0.2" d="M743.05 90.15 Q742.65 90.7 742.05 90.9 719 98.75 696 90.9 L695 90.15 Q694.6 89.6 694.65 88.95 694.95 79.5 701.8 72.7 708.9 65.55 719 65.55 729.1 65.55 736.25 72.7 743.05 79.5 743.4 88.95 L743.05 90.15"/>
    <path stroke="none" fill="#FFFFFF" fill-opacity="0.2" d="M896.65 87.55 Q893.3 90.95 888.5 90.95 883.8 90.95 880.4 87.55 877 84.2 877 79.45 877 74.7 880.4 71.3 883.8 67.95 888.5 67.95 893.3 67.95 896.65 71.3 900 74.7 900 79.45 900 84.2 896.65 87.55"/>
    <path stroke="none" fill="#FFFFFF" fill-opacity="0.2" d="M990 79.45 Q990 84.2 986.65 87.55 983.3 90.95 978.5 90.95 973.8 90.95 970.4 87.55 967 84.2 967 79.45 967 74.7 970.4 71.3 973.8 67.95 978.5 67.95 983.3 67.95 986.65 71.3 990 74.7 990 79.45"/>
    <path stroke="none" fill="#FFFFFF" fill-opacity="0.2" d="M841 90.4 L838.2 92.15 Q826.3 99.05 809.45 99.05 792.6 99.05 780.65 92.15 L777 89.8 Q777.05 76.65 786.4 67.3 795.8 57.95 809 57.95 822.25 57.95 831.6 67.3 841 76.7 841 89.95 L841 90.4"/>
    <path stroke="none" fill="#FFFFFF" fill-opacity="0.5019607843137255" d="M481.6 307.3 Q491 316.7 491 329.95 L491 330.4 488.2 332.15 Q476.3 339.05 459.45 339.05 442.6 339.05 430.65 332.15 L427 329.8 Q427.05 316.65 436.4 307.3 445.8 297.95 459 297.95 472.25 297.95 481.6 307.3"/>
    <path stroke="none" fill="#FFFFFF" fill-opacity="0.5019607843137255" d="M213.05 330.15 L212.05 330.9 Q189 338.75 166 330.9 165.35 330.7 165 330.15 164.6 329.6 164.65 328.95 164.95 319.5 171.8 312.7 178.9 305.55 189 305.55 199.1 305.55 206.25 312.7 213.05 319.5 213.4 328.95 L213.05 330.15"/>
    <path stroke="none" fill="#FFFFFF" fill-opacity="0.5019607843137255" d="M370 319.45 Q370 324.2 366.65 327.55 363.3 330.95 358.5 330.95 353.8 330.95 350.4 327.55 347 324.2 347 319.45 347 314.7 350.4 311.3 353.8 307.95 358.5 307.95 363.3 307.95 366.65 311.3 370 314.7 370 319.45"/>
    <path stroke="none" fill="#FFFFFF" fill-opacity="0.5019607843137255" d="M460 319.45 Q460 324.2 456.65 327.55 453.3 330.95 448.5 330.95 443.8 330.95 440.4 327.55 437 324.2 437 319.45 437 314.7 440.4 311.3 443.8 307.95 448.5 307.95 453.3 307.95 456.65 311.3 460 314.7 460 319.45"/>
    <path stroke="none" fill="#FFFFFF" fill-opacity="0.5019607843137255" d="M311 330.4 L308.2 332.15 Q296.3 339.05 279.45 339.05 262.6 339.05 250.65 332.15 L247 329.8 Q247.05 316.65 256.4 307.3 265.8 297.95 279 297.95 292.25 297.95 301.6 307.3 311 316.7 311 329.95 L311 330.4"/>
    <path stroke="none" fill="#FFFFFF" fill-opacity="0.050980392156862744" d="M1018.2 332.15 Q1006.3 339.05 989.45 339.05 972.6 339.05 960.65 332.15 L957 329.8 Q957.05 316.65 966.4 307.3 975.8 297.95 989 297.95 1002.25 297.95 1011.6 307.3 1021 316.7 1021 329.95 L1021 330.4 1018.2 332.15"/>
    <path stroke="none" fill="#FFFFFF" fill-opacity="0.050980392156862744" d="M694.65 328.95 Q694.95 319.5 701.8 312.7 708.9 305.55 719 305.55 729.1 305.55 736.25 312.7 743.05 319.5 743.4 328.95 L743.05 330.15 Q742.65 330.7 742.05 330.9 719 338.75 696 330.9 L695 330.15 Q694.6 329.6 694.65 328.95"/>
    <path stroke="none" fill="#FFFFFF" fill-opacity="0.050980392156862744" d="M877 319.45 Q877 314.7 880.4 311.3 883.8 307.95 888.5 307.95 893.3 307.95 896.65 311.3 900 314.7 900 319.45 900 324.2 896.65 327.55 893.3 330.95 888.5 330.95 883.8 330.95 880.4 327.55 877 324.2 877 319.45"/>
    <path stroke="none" fill="#FFFFFF" fill-opacity="0.050980392156862744" d="M990 319.45 Q990 324.2 986.65 327.55 983.3 330.95 978.5 330.95 973.8 330.95 970.4 327.55 967 324.2 967 319.45 967 314.7 970.4 311.3 973.8 307.95 978.5 307.95 983.3 307.95 986.65 311.3 990 314.7 990 319.45"/>
    <path stroke="none" fill="#FFFFFF" fill-opacity="0.050980392156862744" d="M786.4 307.3 Q795.8 297.95 809 297.95 822.25 297.95 831.6 307.3 841 316.7 841 329.95 L841 330.4 838.2 332.15 Q826.3 339.05 809.45 339.05 792.6 339.05 780.65 332.15 L777 329.8 Q777.05 316.65 786.4 307.3"/>
    <path stroke="none" fill="#FFFFFF" fill-opacity="0.050980392156862744" d="M957 419.8 Q957.05 406.65 966.4 397.3 975.8 387.95 989 387.95 1002.25 387.95 1011.6 397.3 1021 406.7 1021 419.95 L1021 420.4 1018.2 422.15 Q1006.3 429.05 989.45 429.05 972.6 429.05 960.65 422.15 L957 419.8"/>
    <path stroke="none" fill="#FFFFFF" fill-opacity="0.050980392156862744" d="M743.4 418.95 L743.05 420.15 Q742.65 420.7 742.05 420.9 719 428.75 696 420.9 L695 420.15 Q694.6 419.6 694.65 418.95 694.95 409.5 701.8 402.7 708.9 395.55 719 395.55 729.1 395.55 736.25 402.7 743.05 409.5 743.4 418.95"/>
    <path stroke="none" fill="#FFFFFF" fill-opacity="0.050980392156862744" d="M900 409.45 Q900 414.2 896.65 417.55 893.3 420.95 888.5 420.95 883.8 420.95 880.4 417.55 877 414.2 877 409.45 877 404.7 880.4 401.3 883.8 397.95 888.5 397.95 893.3 397.95 896.65 401.3 900 404.7 900 409.45"/>
    <path stroke="none" fill="#FFFFFF" fill-opacity="0.050980392156862744" d="M967 409.45 Q967 404.7 970.4 401.3 973.8 397.95 978.5 397.95 983.3 397.95 986.65 401.3 990 404.7 990 409.45 990 414.2 986.65 417.55 983.3 420.95 978.5 420.95 973.8 420.95 970.4 417.55 967 414.2 967 409.45"/>
    <path stroke="none" fill="#FFFFFF" fill-opacity="0.050980392156862744" d="M841 419.95 L841 420.4 838.2 422.15 Q826.3 429.05 809.45 429.05 792.6 429.05 780.65 422.15 L777 419.8 Q777.05 406.65 786.4 397.3 795.8 387.95 809 387.95 822.25 387.95 831.6 397.3 841 406.7 841 419.95"/>
    <path stroke="none" fill="#FFFFFF" fill-opacity="0.2" d="M1021 180.4 L1018.2 182.15 Q1006.3 189.05 989.45 189.05 972.6 189.05 960.65 182.15 L957 179.8 Q957.05 166.65 966.4 157.3 975.8 147.95 989 147.95 1002.25 147.95 1011.6 157.3 1021 166.7 1021 179.95 L1021 180.4"/>
    <path stroke="none" fill="#FFFFFF" fill-opacity="0.2" d="M695 180.15 Q694.6 179.6 694.65 178.95 694.95 169.5 701.8 162.7 708.9 155.55 719 155.55 729.1 155.55 736.25 162.7 743.05 169.5 743.4 178.95 L743.05 180.15 Q742.65 180.7 742.05 180.9 719 188.75 696 180.9 L695 180.15"/>
    <path stroke="none" fill="#FFFFFF" fill-opacity="0.2" d="M880.4 177.55 Q877 174.2 877 169.45 877 164.7 880.4 161.3 883.8 157.95 888.5 157.95 893.3 157.95 896.65 161.3 900 164.7 900 169.45 900 174.2 896.65 177.55 893.3 180.95 888.5 180.95 883.8 180.95 880.4 177.55"/>
    <path stroke="none" fill="#FFFFFF" fill-opacity="0.2" d="M986.65 177.55 Q983.3 180.95 978.5 180.95 973.8 180.95 970.4 177.55 967 174.2 967 169.45 967 164.7 970.4 161.3 973.8 157.95 978.5 157.95 983.3 157.95 986.65 161.3 990 164.7 990 169.45 990 174.2 986.65 177.55"/>
    <path stroke="none" fill="#FFFFFF" fill-opacity="0.2" d="M838.2 182.15 Q826.3 189.05 809.45 189.05 792.6 189.05 780.65 182.15 L777 179.8 Q777.05 166.65 786.4 157.3 795.8 147.95 809 147.95 822.25 147.95 831.6 157.3 841 166.7 841 179.95 L841 180.4 838.2 182.15"/>
    <path stroke="none" fill="#FFFFFF" fill-opacity="0.5019607843137255" d="M491 420.4 L488.2 422.15 Q476.3 429.05 459.45 429.05 442.6 429.05 430.65 422.15 L427 419.8 Q427.05 406.65 436.4 397.3 445.8 387.95 459 387.95 472.25 387.95 481.6 397.3 491 406.7 491 419.95 L491 420.4"/>
    <path stroke="none" fill="#FFFFFF" fill-opacity="0.5019607843137255" d="M212.05 420.9 Q189 428.75 166 420.9 165.35 420.7 165 420.15 164.6 419.6 164.65 418.95 164.95 409.5 171.8 402.7 178.9 395.55 189 395.55 199.1 395.55 206.25 402.7 213.05 409.5 213.4 418.95 L213.05 420.15 212.05 420.9"/>
    <path stroke="none" fill="#FFFFFF" fill-opacity="0.5019607843137255" d="M366.65 417.55 Q363.3 420.95 358.5 420.95 353.8 420.95 350.4 417.55 347 414.2 347 409.45 347 404.7 350.4 401.3 353.8 397.95 358.5 397.95 363.3 397.95 366.65 401.3 370 404.7 370 409.45 370 414.2 366.65 417.55"/>
    <path stroke="none" fill="#FFFFFF" fill-opacity="0.5019607843137255" d="M456.65 417.55 Q453.3 420.95 448.5 420.95 443.8 420.95 440.4 417.55 437 414.2 437 409.45 437 404.7 440.4 401.3 443.8 397.95 448.5 397.95 453.3 397.95 456.65 401.3 460 404.7 460 409.45 460 414.2 456.65 417.55"/>
    <path stroke="none" fill="#FFFFFF" fill-opacity="0.5019607843137255" d="M308.2 422.15 Q296.3 429.05 279.45 429.05 262.6 429.05 250.65 422.15 L247 419.8 Q247.05 406.65 256.4 397.3 265.8 387.95 279 387.95 292.25 387.95 301.6 397.3 311 406.7 311 419.95 L311 420.4 308.2 422.15"/>
  </g>
</svg>