<svg xmlns="http://www.w3.org/2000/svg" xmlns:xlink="http://www.w3.org/1999/xlink">
  <defs/>
  <g>
    <path stroke="none" fill="#A6DFF7" d="M374.55 284 Q376.25 284.05 377.9 284.9 379.55 285.8 380.9 287.3 L381.25 287.5 381.6 287.5 381.9 287.3 385.85 282.6 385.95 282.2 385.8 281.75 Q384.35 280.25 382.5 279.2 380.7 278.15 378.6 277.6 L374.45 277 Q370.95 277 368 278.25 365.1 279.45 363.05 281.7 361.05 283.75 360.1 286.45 L356.6 286.45 356.15 286.6 356 287.05 356 290 356.15 290.45 Q356.35 290.65 356.6 290.65 L359.3 290.65 359.3 290.7 359.3 291.35 359.3 292.15 359.3 292.25 356.6 292.25 356.15 292.4 356 292.85 356 295.75 356.15 296.2 Q356.35 296.4 356.6 296.4 L360.1 296.4 Q361.05 299.1 362.95 301.2 365 303.45 367.85 304.7 370.75 306 374.15 306 376.3 306 378.4 305.3 380.5 304.7 382.45 303.5 384.25 302.35 385.8 300.8 L386 300.45 385.85 300 381.85 295.7 381.6 295.5 381.25 295.5 380.95 295.65 Q379.55 297.05 377.8 297.85 376.15 298.7 374.5 298.7 372.65 298.7 371.15 297.85 L369.45 296.4 376.85 296.4 377.3 296.2 377.5 295.75 377.5 292.85 377.3 292.4 376.85 292.25 367.6 292.25 367.6 292 367.6 291.3 367.6 290.7 367.6 290.65 376.85 290.65 377.3 290.45 377.5 290 377.5 287.05 377.3 286.6 376.85 286.45 369.25 286.45 Q370 285.55 371.1 284.95 L371.05 284.95 Q372.55 284.05 374.5 284 L374.55 284 M396 292 Q396 302 388.95 309 381.95 316 372 316 362.05 316 355 309 348 302 348 292 348 282.05 355 275 362.05 268 372 268 381.95 268 388.95 275 396 282.05 396 292"/>
    <path stroke="none" fill="#D4F2FF" d="M374.55 284 L374.5 284 Q372.55 284.05 371.05 284.95 L371.1 284.95 Q370 285.55 369.25 286.45 L376.85 286.45 377.3 286.6 377.5 287.05 377.5 290 377.3 290.45 376.85 290.65 367.6 290.65 367.6 290.7 367.6 291.3 367.6 292 367.6 292.25 376.85 292.25 377.3 292.4 377.5 292.85 377.5 295.75 377.3 296.2 376.85 296.4 369.45 296.4 371.15 297.85 Q372.65 298.7 374.5 298.7 376.15 298.7 377.8 297.85 379.55 297.05 380.95 295.65 L381.25 295.5 381.6 295.5 381.85 295.7 385.85 300 386 300.45 385.8 300.8 Q384.25 302.35 382.45 303.5 380.5 304.7 378.4 305.3 376.3 306 374.15 306 370.75 306 367.85 304.7 365 303.45 362.95 301.2 361.05 299.1 360.1 296.4 L356.6 296.4 Q356.35 296.4 356.15 296.2 L356 295.75 356 292.85 356.15 292.4 356.6 292.25 359.3 292.25 359.3 292.15 359.3 291.35 359.3 290.7 359.3 290.65 356.6 290.65 Q356.35 290.65 356.15 290.45 L356 290 356 287.05 356.15 286.6 356.6 286.45 360.1 286.45 Q361.05 283.75 363.05 281.7 365.1 279.45 368 278.25 370.95 277 374.45 277 L378.6 277.6 Q380.7 278.15 382.5 279.2 384.35 280.25 385.8 281.75 L385.95 282.2 385.85 282.6 381.9 287.3 381.6 287.5 381.25 287.5 380.9 287.3 Q379.55 285.8 377.9 284.9 376.25 284.05 374.55 284"/>
    <path stroke="none" fill="#C6EEFF" d="M396 292 Q396 282.05 388.95 275 381.95 268 372 268 362.05 268 355 275 348 282.05 348 292 348 302 355 309 362.05 316 372 316 381.95 316 388.95 309 396 302 396 292 M404 292 Q404 305.3 394.6 314.65 385.25 324 372 324 358.7 324 349.35 314.65 340 305.3 340 292 340 278.75 349.35 269.35 358.7 260 372 260 385.25 260 394.6 269.35 404 278.75 404 292"/>
    <path stroke="none" fill="#B46D2A" d="M294.55 284 Q296.25 284.05 297.9 284.9 299.55 285.8 300.9 287.3 L301.25 287.5 301.6 287.5 301.9 287.3 305.85 282.6 305.95 282.2 305.8 281.75 Q304.35 280.25 302.5 279.2 300.7 278.15 298.6 277.6 L294.45 277 Q290.95 277 288 278.25 285.1 279.45 283.05 281.7 281.05 283.75 280.1 286.45 L276.6 286.45 Q276.35 286.45 276.15 286.6 276 286.8 276 287.05 L276 290 276.15 290.45 Q276.35 290.65 276.6 290.65 L279.3 290.65 279.3 290.7 279.3 291.35 279.3 292.15 279.3 292.25 276.6 292.25 Q276.35 292.25 276.15 292.4 276 292.6 276 292.85 L276 295.75 276.15 296.2 Q276.35 296.4 276.6 296.4 L280.1 296.4 Q281.05 299.1 282.95 301.2 285 303.45 287.85 304.7 290.75 306 294.15 306 L298.4 305.3 Q300.5 304.7 302.45 303.5 304.25 302.35 305.8 300.8 L306 300.45 305.85 300 301.85 295.7 301.6 295.5 301.25 295.5 300.95 295.65 Q299.55 297.05 297.8 297.85 296.15 298.7 294.5 298.7 292.65 298.7 291.15 297.85 L289.45 296.4 296.85 296.4 297.3 296.2 297.5 295.75 297.5 292.85 297.3 292.4 296.85 292.25 287.6 292.25 287.6 292 287.6 291.3 287.6 290.7 287.6 290.65 296.85 290.65 297.3 290.45 297.5 290 297.5 287.05 297.3 286.6 296.85 286.45 289.25 286.45 Q290 285.55 291.1 284.95 L291.05 284.95 Q292.55 284.05 294.5 284 L294.55 284 M316 292 Q316 302 308.95 309 301.95 316 292 316 282.05 316 275 309 268 302 268 292 268 282.05 275 275 282.05 268 292 268 301.95 268 308.95 275 316 282.05 316 292"/>
    <path stroke="none" fill="#CD8036" d="M316 292 Q316 282.05 308.95 275 301.95 268 292 268 282.05 268 275 275 268 282.05 268 292 268 302 275 309 282.05 316 292 316 301.95 316 308.95 309 316 302 316 292 M294.55 284 L294.5 284 Q292.55 284.05 291.05 284.95 L291.1 284.95 Q290 285.55 289.25 286.45 L296.85 286.45 297.3 286.6 297.5 287.05 297.5 290 297.3 290.45 296.85 290.65 287.6 290.65 287.6 290.7 287.6 291.3 287.6 292 287.6 292.25 296.85 292.25 297.3 292.4 297.5 292.85 297.5 295.75 297.3 296.2 296.85 296.4 289.45 296.4 291.15 297.85 Q292.65 298.7 294.5 298.7 296.15 298.7 297.8 297.85 299.55 297.05 300.95 295.65 L301.25 295.5 301.6 295.5 301.85 295.7 305.85 300 306 300.45 305.8 300.8 Q304.25 302.35 302.45 303.5 300.5 304.7 298.4 305.3 L294.15 306 Q290.75 306 287.85 304.7 285 303.45 282.95 301.2 281.05 299.1 280.1 296.4 L276.6 296.4 Q276.35 296.4 276.15 296.2 L276 295.75 276 292.85 Q276 292.6 276.15 292.4 276.35 292.25 276.6 292.25 L279.3 292.25 279.3 292.15 279.3 291.35 279.3 290.7 279.3 290.65 276.6 290.65 Q276.35 290.65 276.15 290.45 L276 290 276 287.05 Q276 286.8 276.15 286.6 276.35 286.45 276.6 286.45 L280.1 286.45 Q281.05 283.75 283.05 281.7 285.1 279.45 288 278.25 290.95 277 294.45 277 L298.6 277.6 Q300.7 278.15 302.5 279.2 304.35 280.25 305.8 281.75 L305.95 282.2 305.85 282.6 301.9 287.3 301.6 287.5 301.25 287.5 300.9 287.3 Q299.55 285.8 297.9 284.9 296.25 284.05 294.55 284 M324 292 Q324 305.3 314.6 314.65 305.25 324 292 324 278.7 324 269.35 314.65 260 305.3 260 292 260 278.75 269.35 269.35 278.7 260 292 260 305.25 260 314.6 269.35 324 278.75 324 292"/>
    <path stroke="none" fill="#E5E5E5" d="M214.55 284 Q216.25 284.05 217.9 284.9 219.55 285.8 220.9 287.3 L221.25 287.5 221.6 287.5 221.9 287.3 225.85 282.6 225.95 282.2 225.8 281.75 Q224.35 280.25 222.5 279.2 220.7 278.15 218.6 277.6 L214.45 277 Q210.95 277 208 278.25 205.1 279.45 203.05 281.7 201.05 283.75 200.1 286.45 L196.6 286.45 Q196.35 286.45 196.15 286.6 196 286.8 196 287.05 L196 290 196.15 290.45 Q196.35 290.65 196.6 290.65 L199.3 290.65 199.3 290.7 199.3 291.35 199.3 292.15 199.3 292.25 196.6 292.25 Q196.35 292.25 196.15 292.4 196 292.6 196 292.85 L196 295.75 196.15 296.2 Q196.35 296.4 196.6 296.4 L200.1 296.4 Q201.05 299.1 202.95 301.2 205 303.45 207.85 304.7 210.75 306 214.15 306 216.3 306 218.4 305.3 220.5 304.7 222.45 303.5 L225.8 300.8 226 300.45 225.85 300 221.85 295.7 221.6 295.5 221.25 295.5 220.95 295.65 Q219.55 297.05 217.8 297.85 216.15 298.7 214.5 298.7 212.65 298.7 211.15 297.85 L209.45 296.4 216.85 296.4 217.3 296.2 217.5 295.75 217.5 292.85 217.3 292.4 216.85 292.25 207.6 292.25 207.6 292 207.6 291.3 207.6 290.7 207.6 290.65 216.85 290.65 217.3 290.45 217.5 290 217.5 287.05 217.3 286.6 216.85 286.45 209.25 286.45 Q210 285.55 211.1 284.95 L211.05 284.95 Q212.55 284.05 214.5 284 L214.55 284 M236 292 Q236 302 228.95 309 221.95 316 212 316 202.05 316 195 309 188 302 188 292 188 282.05 195 275 202.05 268 212 268 221.95 268 228.95 275 236 282.05 236 292"/>
    <path stroke="none" fill="#FAFAFA" d="M236 292 Q236 282.05 228.95 275 221.95 268 212 268 202.05 268 195 275 188 282.05 188 292 188 302 195 309 202.05 316 212 316 221.95 316 228.95 309 236 302 236 292 M214.55 284 L214.5 284 Q212.55 284.05 211.05 284.95 L211.1 284.95 Q210 285.55 209.25 286.45 L216.85 286.45 217.3 286.6 217.5 287.05 217.5 290 217.3 290.45 216.85 290.65 207.6 290.65 207.6 290.7 207.6 291.3 207.6 292 207.6 292.25 216.85 292.25 217.3 292.4 217.5 292.85 217.5 295.75 217.3 296.2 216.85 296.4 209.45 296.4 211.15 297.85 Q212.65 298.7 214.5 298.7 216.15 298.7 217.8 297.85 219.55 297.05 220.95 295.65 L221.25 295.5 221.6 295.5 221.85 295.7 225.85 300 226 300.45 225.8 300.8 222.45 303.5 Q220.5 304.7 218.4 305.3 216.3 306 214.15 306 210.75 306 207.85 304.7 205 303.45 202.95 301.2 201.05 299.1 200.1 296.4 L196.6 296.4 Q196.35 296.4 196.15 296.2 L196 295.75 196 292.85 Q196 292.6 196.15 292.4 196.35 292.25 196.6 292.25 L199.3 292.25 199.3 292.15 199.3 291.35 199.3 290.7 199.3 290.65 196.6 290.65 Q196.35 290.65 196.15 290.45 L196 290 196 287.05 Q196 286.8 196.15 286.6 196.35 286.45 196.6 286.45 L200.1 286.45 Q201.05 283.75 203.05 281.7 205.1 279.45 208 278.25 210.95 277 214.45 277 L218.6 277.6 Q220.7 278.15 222.5 279.2 224.35 280.25 225.8 281.75 L225.95 282.2 225.85 282.6 221.9 287.3 221.6 287.5 221.25 287.5 220.9 287.3 Q219.55 285.8 217.9 284.9 216.25 284.05 214.55 284 M244 292 Q244 305.3 234.6 314.65 225.25 324 212 324 198.7 324 189.35 314.65 183.05 308.35 181 300.3 180 296.35 180 292 180 287.65 181 283.75 183.05 275.7 189.35 269.35 198.7 260 212 260 225.25 260 234.6 269.35 244 278.75 244 292"/>
    <path stroke="none" fill="#FFCC00" d="M134.55 284 Q136.25 284.05 137.9 284.9 139.55 285.8 140.9 287.3 L141.25 287.5 141.6 287.5 141.9 287.3 145.85 282.6 145.95 282.2 145.8 281.75 Q144.35 280.25 142.5 279.2 140.7 278.15 138.6 277.6 L134.45 277 Q130.95 277 128 278.25 125.1 279.45 123.05 281.7 121.05 283.75 120.1 286.45 L116.6 286.45 116.15 286.6 116 287.05 116 290 116.15 290.45 116.6 290.65 119.3 290.65 119.3 290.7 119.3 291.35 119.3 292.15 119.3 292.25 116.6 292.25 116.15 292.4 116 292.85 116 295.75 116.15 296.2 116.6 296.4 120.1 296.4 Q121.05 299.1 122.95 301.2 125 303.45 127.85 304.7 130.75 306 134.15 306 L138.4 305.3 Q140.5 304.7 142.45 303.5 L145.8 300.8 146 300.45 145.85 300 141.85 295.7 141.6 295.5 141.25 295.5 140.95 295.65 Q139.55 297.05 137.8 297.85 136.15 298.7 134.5 298.7 132.65 298.7 131.15 297.85 L129.45 296.4 136.85 296.4 Q137.1 296.4 137.3 296.2 L137.5 295.75 137.5 292.85 137.3 292.4 136.85 292.25 127.6 292.25 127.6 292 127.6 291.3 127.6 290.7 127.6 290.65 136.85 290.65 Q137.1 290.65 137.3 290.45 L137.5 290 137.5 287.05 137.3 286.6 136.85 286.45 129.25 286.45 Q130 285.55 131.1 284.95 L131.05 284.95 Q132.55 284.05 134.5 284 L134.55 284 M156 292 Q156 302 148.95 309 141.95 316 132 316 122.05 316 115 309 108 302 108 292 108 282.05 115 275 122.05 268 132 268 141.95 268 148.95 275 156 282.05 156 292"/>
    <path stroke="none" fill="#D7AC00" d="M134.55 284 L134.5 284 Q132.55 284.05 131.05 284.95 L131.1 284.95 Q130 285.55 129.25 286.45 L136.85 286.45 137.3 286.6 137.5 287.05 137.5 290 137.3 290.45 Q137.1 290.65 136.85 290.65 L127.6 290.65 127.6 290.7 127.6 291.3 127.6 292 127.6 292.25 136.85 292.25 137.3 292.4 137.5 292.85 137.5 295.75 137.3 296.2 Q137.1 296.4 136.85 296.4 L129.45 296.4 131.15 297.85 Q132.65 298.7 134.5 298.7 136.15 298.7 137.8 297.85 139.55 297.05 140.95 295.65 L141.25 295.5 141.6 295.5 141.85 295.7 145.85 300 146 300.45 145.8 300.8 142.45 303.5 Q140.5 304.7 138.4 305.3 L134.15 306 Q130.75 306 127.85 304.7 125 303.45 122.95 301.2 121.05 299.1 120.1 296.4 L116.6 296.4 116.15 296.2 116 295.75 116 292.85 116.15 292.4 116.6 292.25 119.3 292.25 119.3 292.15 119.3 291.35 119.3 290.7 119.3 290.65 116.6 290.65 116.15 290.45 116 290 116 287.05 116.15 286.6 116.6 286.45 120.1 286.45 Q121.05 283.75 123.05 281.7 125.1 279.45 128 278.25 130.95 277 134.45 277 L138.6 277.6 Q140.7 278.15 142.5 279.2 144.35 280.25 145.8 281.75 L145.95 282.2 145.85 282.6 141.9 287.3 141.6 287.5 141.25 287.5 140.9 287.3 Q139.55 285.8 137.9 284.9 136.25 284.05 134.55 284"/>
    <path stroke="none" fill="#E5E5E5" d="M164 292 Q164 305.3 154.6 314.65 145.25 324 132 324 118.7 324 109.35 314.65 100 305.3 100 292 100 278.75 109.35 269.35 118.7 260 132 260 145.25 260 154.6 269.35 164 278.75 164 292 M156 292 Q156 282.05 148.95 275 141.95 268 132 268 122.05 268 115 275 108 282.05 108 292 108 302 115 309 122.05 316 132 316 141.95 316 148.95 309 156 302 156 292"/>
    <path stroke="none" fill="#D7AC00" d="M54.55 284 Q56.25 284.05 57.9 284.9 59.55 285.8 60.9 287.3 L61.25 287.5 61.6 287.5 61.9 287.3 65.85 282.6 65.95 282.2 65.8 281.75 Q64.35 280.25 62.5 279.2 60.7 278.15 58.6 277.6 L54.45 277 Q50.95 277 48 278.25 45.1 279.45 43.05 281.7 41.05 283.75 40.1 286.45 L36.6 286.45 Q36.35 286.45 36.15 286.6 36 286.8 36 287.05 L36 290 36.15 290.45 36.6 290.65 39.3 290.65 39.3 290.7 39.3 291.35 39.3 292.15 39.3 292.25 36.6 292.25 Q36.35 292.25 36.15 292.4 36 292.6 36 292.85 L36 295.75 36.15 296.2 36.6 296.4 40.1 296.4 Q41.05 299.1 42.95 301.2 45 303.45 47.85 304.7 50.75 306 54.15 306 56.3 306 58.4 305.3 60.5 304.7 62.45 303.5 L65.8 300.8 66 300.45 65.85 300 61.85 295.7 61.6 295.5 61.25 295.5 60.95 295.65 Q59.55 297.05 57.8 297.85 56.15 298.7 54.5 298.7 52.65 298.7 51.15 297.85 L49.45 296.4 56.85 296.4 Q57.1 296.4 57.3 296.2 L57.5 295.75 57.5 292.85 57.3 292.4 56.85 292.25 47.6 292.25 47.6 292 47.6 291.3 47.6 290.7 47.6 290.65 56.85 290.65 Q57.1 290.65 57.3 290.45 L57.5 290 57.5 287.05 57.3 286.6 56.85 286.45 49.25 286.45 Q50 285.55 51.1 284.95 L51.05 284.95 Q52.55 284.05 54.5 284 L54.55 284 M76 292 Q76 302 68.95 309 61.95 316 52 316 42.05 316 35 309 28 302 28 292 28 282.05 35 275 42.05 268 52 268 61.95 268 68.95 275 76 282.05 76 292"/>
    <path stroke="none" fill="#FFCC00" d="M54.55 284 L54.5 284 Q52.55 284.05 51.05 284.95 L51.1 284.95 Q50 285.55 49.25 286.45 L56.85 286.45 57.3 286.6 57.5 287.05 57.5 290 57.3 290.45 Q57.1 290.65 56.85 290.65 L47.6 290.65 47.6 290.7 47.6 291.3 47.6 292 47.6 292.25 56.85 292.25 57.3 292.4 57.5 292.85 57.5 295.75 57.3 296.2 Q57.1 296.4 56.85 296.4 L49.45 296.4 51.15 297.85 Q52.65 298.7 54.5 298.7 56.15 298.7 57.8 297.85 59.55 297.05 60.95 295.65 L61.25 295.5 61.6 295.5 61.85 295.7 65.85 300 66 300.45 65.8 300.8 62.45 303.5 Q60.5 304.7 58.4 305.3 56.3 306 54.15 306 50.75 306 47.85 304.7 45 303.45 42.95 301.2 41.05 299.1 40.1 296.4 L36.6 296.4 36.15 296.2 36 295.75 36 292.85 Q36 292.6 36.15 292.4 36.35 292.25 36.6 292.25 L39.3 292.25 39.3 292.15 39.3 291.35 39.3 290.7 39.3 290.65 36.6 290.65 36.15 290.45 36 290 36 287.05 Q36 286.8 36.15 286.6 36.35 286.45 36.6 286.45 L40.1 286.45 Q41.05 283.75 43.05 281.7 45.1 279.45 48 278.25 50.95 277 54.45 277 L58.6 277.6 Q60.7 278.15 62.5 279.2 64.35 280.25 65.8 281.75 L65.95 282.2 65.85 282.6 61.9 287.3 61.6 287.5 61.25 287.5 60.9 287.3 Q59.55 285.8 57.9 284.9 56.25 284.05 54.55 284 M76 292 Q76 282.05 68.95 275 61.95 268 52 268 42.05 268 35 275 28 282.05 28 292 28 302 35 309 42.05 316 52 316 61.95 316 68.95 309 76 302 76 292 M84 292 Q84 305.3 74.6 314.65 65.25 324 52 324 38.7 324 29.35 314.65 20 305.3 20 292 20 278.75 29.35 269.35 38.7 260 52 260 65.25 260 74.6 269.35 84 278.75 84 292"/>
    <path stroke="none" fill="#A6DFF7" d="M378.2 120.8 Q376.4 120.15 374.5 119.9 L374.5 115.55 374.3 115.15 Q374.15 115 373.95 115 L369.55 115 Q369.35 115 369.15 115.15 L369 115.55 369 120.15 Q366.1 120.8 364.35 122.55 362.5 124.45 362.45 127.45 L362.45 127.5 Q362.5 129.75 363.45 131.15 364.45 132.5 365.95 133.35 L369 134.6 372 135.45 Q373.25 135.8 374.1 136.4 374.7 136.8 374.75 137.55 374.75 138.25 374.2 138.6 L372.3 139.05 369.7 138.6 Q368.25 138.2 366.85 137.45 L366.8 137.4 364.25 135.6 363.95 135.5 363.6 135.55 363.4 135.8 361.05 140.45 361.05 140.85 361.25 141.15 Q362.9 142.5 365 143.45 366.95 144.3 369 144.7 L369 149.45 369.15 149.85 369.55 150 373.95 150 374.3 149.85 374.5 149.45 374.5 144.85 Q376.45 144.55 378.05 143.7 L378.1 143.7 Q379.9 142.75 380.95 141.15 382.05 139.5 382.05 137.25 382 134.95 381.05 133.5 380.1 132 378.6 131.2 377.15 130.4 375.5 129.85 L372.55 129 370.4 128.05 Q369.8 127.65 369.75 126.95 L369.75 126.9 Q369.75 126.35 370.2 126.05 L371.75 125.75 373.9 126.05 373.85 126.05 376.4 126.9 Q377.7 127.4 378.95 128.15 L379.25 128.2 379.5 128.1 379.7 127.9 381.95 123.2 382 122.85 381.75 122.5 Q380.15 121.45 378.2 120.8 M396 132 Q396 142 388.95 149 381.95 156 372 156 362.05 156 355 149 348 142 348 132 348 122.05 355 115 362.05 108 372 108 381.95 108 388.95 115 396 122.05 396 132"/>
    <path stroke="none" fill="#D4F2FF" d="M378.2 120.8 Q380.15 121.45 381.75 122.5 L382 122.85 381.95 123.2 379.7 127.9 379.5 128.1 379.25 128.2 378.95 128.15 Q377.7 127.4 376.4 126.9 L373.85 126.05 373.9 126.05 371.75 125.75 370.2 126.05 Q369.75 126.35 369.75 126.9 L369.75 126.95 Q369.8 127.65 370.4 128.05 L372.55 129 375.5 129.85 Q377.15 130.4 378.6 131.2 380.1 132 381.05 133.5 382 134.95 382.05 137.25 382.05 139.5 380.95 141.15 379.9 142.75 378.1 143.7 L378.05 143.7 Q376.45 144.55 374.5 144.85 L374.5 149.45 374.3 149.85 373.95 150 369.55 150 369.15 149.85 369 149.45 369 144.7 Q366.95 144.3 365 143.45 362.9 142.5 361.25 141.15 L361.05 140.85 361.05 140.45 363.4 135.8 363.6 135.55 363.95 135.5 364.25 135.6 366.8 137.4 366.85 137.45 Q368.25 138.2 369.7 138.6 L372.3 139.05 374.2 138.6 Q374.75 138.25 374.75 137.55 374.7 136.8 374.1 136.4 373.25 135.8 372 135.45 L369 134.6 365.95 133.35 Q364.45 132.5 363.45 131.15 362.5 129.75 362.45 127.5 L362.45 127.45 Q362.5 124.45 364.35 122.55 366.1 120.8 369 120.15 L369 115.55 369.15 115.15 Q369.35 115 369.55 115 L373.95 115 Q374.15 115 374.3 115.15 L374.5 115.55 374.5 119.9 Q376.4 120.15 378.2 120.8"/>
    <path stroke="none" fill="#C6EEFF" d="M404 132 Q404 145.3 394.6 154.65 385.25 164 372 164 358.7 164 349.35 154.65 340 145.3 340 132 340 118.75 349.35 109.35 358.7 100 372 100 385.25 100 394.6 109.35 404 118.75 404 132 M396 132 Q396 122.05 388.95 115 381.95 108 372 108 362.05 108 355 115 348 122.05 348 132 348 142 355 149 362.05 156 372 156 381.95 156 388.95 149 396 142 396 132"/>
    <path stroke="none" fill="#CD8036" d="M324 132 Q324 145.3 314.6 154.65 305.25 164 292 164 278.7 164 269.35 154.65 260 145.3 260 132 260 118.75 269.35 109.35 278.7 100 292 100 305.25 100 314.6 109.35 324 118.75 324 132 M298.2 120.8 Q300.15 121.45 301.75 122.5 L302 122.85 301.95 123.2 299.7 127.9 299.5 128.1 299.25 128.2 298.95 128.15 296.4 126.9 293.85 126.05 293.9 126.05 291.75 125.75 290.2 126.05 Q289.75 126.35 289.75 126.9 L289.75 126.95 Q289.8 127.65 290.4 128.05 L292.55 129 295.5 129.85 298.6 131.2 Q300.1 132 301.05 133.5 302 134.95 302.05 137.25 302.05 139.5 300.95 141.15 299.9 142.75 298.1 143.7 L298.05 143.7 Q296.45 144.55 294.5 144.85 L294.5 149.45 294.3 149.85 293.95 150 289.55 150 289.15 149.85 289 149.45 289 144.7 Q286.95 144.3 285 143.45 282.9 142.5 281.25 141.15 L281.05 140.85 281.05 140.45 283.4 135.8 283.6 135.55 283.95 135.5 284.25 135.6 Q285.35 136.65 286.8 137.4 L286.85 137.45 Q288.25 138.2 289.7 138.6 L292.3 139.05 294.2 138.6 Q294.75 138.25 294.75 137.55 294.7 136.8 294.1 136.4 293.25 135.8 292 135.45 L289 134.6 285.95 133.35 Q284.45 132.5 283.45 131.15 282.5 129.75 282.45 127.5 L282.45 127.45 Q282.5 124.45 284.35 122.55 286.1 120.8 289 120.15 L289 115.55 289.15 115.15 Q289.35 115 289.55 115 L293.95 115 294.3 115.15 294.5 115.55 294.5 119.9 298.2 120.8 M316 132 Q316 122.05 308.95 115 301.95 108 292 108 282.05 108 275 115 268 122.05 268 132 268 142 275 149 282.05 156 292 156 301.95 156 308.95 149 316 142 316 132"/>
    <path stroke="none" fill="#B46D2A" d="M316 132 Q316 142 308.95 149 301.95 156 292 156 282.05 156 275 149 268 142 268 132 268 122.05 275 115 282.05 108 292 108 301.95 108 308.95 115 316 122.05 316 132 M298.2 120.8 L294.5 119.9 294.5 115.55 294.3 115.15 293.95 115 289.55 115 Q289.35 115 289.15 115.15 L289 115.55 289 120.15 Q286.1 120.8 284.35 122.55 282.5 124.45 282.45 127.45 L282.45 127.5 Q282.5 129.75 283.45 131.15 284.45 132.5 285.95 133.35 L289 134.6 292 135.45 Q293.25 135.8 294.1 136.4 294.7 136.8 294.75 137.55 294.75 138.25 294.2 138.6 L292.3 139.05 289.7 138.6 Q288.25 138.2 286.85 137.45 L286.8 137.4 Q285.35 136.65 284.25 135.6 L283.95 135.5 283.6 135.55 283.4 135.8 281.05 140.45 281.05 140.85 281.25 141.15 Q282.9 142.5 285 143.45 286.95 144.3 289 144.7 L289 149.45 289.15 149.85 289.55 150 293.95 150 294.3 149.85 294.5 149.45 294.5 144.85 Q296.45 144.55 298.05 143.7 L298.1 143.7 Q299.9 142.75 300.95 141.15 302.05 139.5 302.05 137.25 302 134.95 301.05 133.5 300.1 132 298.6 131.2 L295.5 129.85 292.55 129 290.4 128.05 Q289.8 127.65 289.75 126.95 L289.75 126.9 Q289.75 126.35 290.2 126.05 L291.75 125.75 293.9 126.05 293.85 126.05 296.4 126.9 298.95 128.15 299.25 128.2 299.5 128.1 299.7 127.9 301.95 123.2 302 122.85 301.75 122.5 Q300.15 121.45 298.2 120.8"/>
    <path stroke="none" fill="#FAFAFA" d="M244 132 Q244 145.3 234.6 154.65 225.25 164 212 164 198.7 164 189.35 154.65 183.05 148.35 181 140.3 180 136.35 180 132 180 127.65 181 123.75 183.05 115.7 189.35 109.35 198.7 100 212 100 225.25 100 234.6 109.35 244 118.75 244 132 M218.2 120.8 Q220.15 121.45 221.75 122.5 L222 122.85 221.95 123.2 219.7 127.9 219.5 128.1 219.25 128.2 218.95 128.15 216.4 126.9 213.85 126.05 213.9 126.05 211.75 125.75 Q210.8 125.75 210.2 126.05 209.75 126.35 209.75 126.9 L209.75 126.95 Q209.8 127.65 210.4 128.05 L212.55 129 215.5 129.85 Q217.15 130.4 218.6 131.2 220.1 132 221.05 133.5 222 134.95 222.05 137.25 222.05 139.5 220.95 141.15 219.9 142.75 218.1 143.7 L218.05 143.7 Q216.45 144.55 214.5 144.85 L214.5 149.45 214.3 149.85 213.95 150 209.55 150 209.15 149.85 Q209 149.7 209 149.45 L209 144.7 Q206.95 144.3 205 143.45 202.9 142.5 201.25 141.15 L201.05 140.85 201.05 140.45 203.4 135.8 203.6 135.55 203.95 135.5 204.25 135.6 Q205.35 136.65 206.8 137.4 L206.85 137.45 Q208.25 138.2 209.7 138.6 L212.3 139.05 214.2 138.6 Q214.75 138.25 214.75 137.55 214.7 136.8 214.1 136.4 213.25 135.8 212 135.45 L209 134.6 205.95 133.35 Q204.45 132.5 203.45 131.15 202.5 129.75 202.45 127.5 L202.45 127.45 Q202.5 124.45 204.35 122.55 206.1 120.8 209 120.15 L209 115.55 209.15 115.15 209.55 115 213.95 115 Q214.15 115 214.3 115.15 L214.5 115.55 214.5 119.9 218.2 120.8 M236 132 Q236 122.05 228.95 115 221.95 108 212 108 202.05 108 195 115 188 122.05 188 132 188 142 195 149 202.05 156 212 156 221.95 156 228.95 149 236 142 236 132"/>
    <path stroke="none" fill="#E5E5E5" d="M236 132 Q236 142 228.95 149 221.95 156 212 156 202.05 156 195 149 188 142 188 132 188 122.05 195 115 202.05 108 212 108 221.95 108 228.95 115 236 122.05 236 132 M218.2 120.8 L214.5 119.9 214.5 115.55 214.3 115.15 Q214.15 115 213.95 115 L209.55 115 209.15 115.15 209 115.55 209 120.15 Q206.1 120.8 204.35 122.55 202.5 124.45 202.45 127.45 L202.45 127.5 Q202.5 129.75 203.45 131.15 204.45 132.5 205.95 133.35 L209 134.6 212 135.45 Q213.25 135.8 214.1 136.4 214.7 136.8 214.75 137.55 214.75 138.25 214.2 138.6 L212.3 139.05 209.7 138.6 Q208.25 138.2 206.85 137.45 L206.8 137.4 Q205.35 136.65 204.25 135.6 L203.95 135.5 203.6 135.55 203.4 135.8 201.05 140.45 201.05 140.85 201.25 141.15 Q202.9 142.5 205 143.45 206.95 144.3 209 144.7 L209 149.45 Q209 149.7 209.15 149.85 L209.55 150 213.95 150 214.3 149.85 214.5 149.45 214.5 144.85 Q216.45 144.55 218.05 143.7 L218.1 143.7 Q219.9 142.75 220.95 141.15 222.05 139.5 222.05 137.25 222 134.95 221.05 133.5 220.1 132 218.6 131.2 217.15 130.4 215.5 129.85 L212.55 129 210.4 128.05 Q209.8 127.65 209.75 126.95 L209.75 126.9 Q209.75 126.35 210.2 126.05 210.8 125.75 211.75 125.75 L213.9 126.05 213.85 126.05 216.4 126.9 218.95 128.15 219.25 128.2 219.5 128.1 219.7 127.9 221.95 123.2 222 122.85 221.75 122.5 Q220.15 121.45 218.2 120.8"/>
    <path stroke="none" fill="#E5E5E5" d="M164 132 Q164 145.3 154.6 154.65 145.25 164 132 164 118.7 164 109.35 154.65 100 145.3 100 132 100 118.75 109.35 109.35 118.7 100 132 100 145.25 100 154.6 109.35 164 118.75 164 132 M156 132 Q156 122.05 148.95 115 141.95 108 132 108 122.05 108 115 115 108 122.05 108 132 108 142 115 149 122.05 156 132 156 141.95 156 148.95 149 156 142 156 132"/>
    <path stroke="none" fill="#FFCC00" d="M156 132 Q156 142 148.95 149 141.95 156 132 156 122.05 156 115 149 108 142 108 132 108 122.05 115 115 122.05 108 132 108 141.95 108 148.95 115 156 122.05 156 132 M138.2 120.8 Q136.4 120.15 134.5 119.9 L134.5 115.55 134.3 115.15 Q134.15 115 133.95 115 L129.55 115 Q129.35 115 129.15 115.15 L129 115.55 129 120.15 Q126.1 120.8 124.35 122.55 122.5 124.45 122.45 127.45 L122.45 127.5 Q122.5 129.75 123.45 131.15 124.45 132.5 125.95 133.35 L129 134.6 132 135.45 Q133.25 135.8 134.1 136.4 134.7 136.8 134.75 137.55 134.75 138.25 134.2 138.6 L132.3 139.05 129.7 138.6 Q128.25 138.2 126.85 137.45 L126.8 137.4 124.25 135.6 123.95 135.5 123.6 135.55 123.4 135.8 121.05 140.45 121.05 140.85 121.25 141.15 125 143.45 Q126.95 144.3 129 144.7 L129 149.45 129.15 149.85 129.55 150 133.95 150 134.3 149.85 134.5 149.45 134.5 144.85 Q136.45 144.55 138.05 143.7 L138.1 143.7 Q139.9 142.75 140.95 141.15 142.05 139.5 142.05 137.25 142 134.95 141.05 133.5 140.1 132 138.6 131.2 137.15 130.4 135.5 129.85 L132.55 129 130.4 128.05 Q129.8 127.65 129.75 126.95 L129.75 126.9 Q129.75 126.35 130.2 126.05 L131.75 125.75 133.9 126.05 133.85 126.05 136.4 126.9 Q137.7 127.4 138.95 128.15 L139.25 128.2 139.5 128.1 139.7 127.9 141.95 123.2 142 122.85 141.75 122.5 Q140.15 121.45 138.2 120.8"/>
    <path stroke="none" fill="#D7AC00" d="M138.2 120.8 Q140.15 121.45 141.75 122.5 L142 122.85 141.95 123.2 139.7 127.9 139.5 128.1 139.25 128.2 138.95 128.15 Q137.7 127.4 136.4 126.9 L133.85 126.05 133.9 126.05 131.75 125.75 130.2 126.05 Q129.75 126.35 129.75 126.9 L129.75 126.95 Q129.8 127.65 130.4 128.05 L132.55 129 135.5 129.85 Q137.15 130.4 138.6 131.2 140.1 132 141.05 133.5 142 134.95 142.05 137.25 142.05 139.5 140.95 141.15 139.9 142.75 138.1 143.7 L138.05 143.7 Q136.45 144.55 134.5 144.85 L134.5 149.45 134.3 149.85 133.95 150 129.55 150 129.15 149.85 129 149.45 129 144.7 Q126.95 144.3 125 143.45 L121.25 141.15 121.05 140.85 121.05 140.45 123.4 135.8 123.6 135.55 123.95 135.5 124.25 135.6 126.8 137.4 126.85 137.45 Q128.25 138.2 129.7 138.6 L132.3 139.05 134.2 138.6 Q134.75 138.25 134.75 137.55 134.7 136.8 134.1 136.4 133.25 135.8 132 135.45 L129 134.6 125.95 133.35 Q124.45 132.5 123.45 131.15 122.5 129.75 122.45 127.5 L122.45 127.45 Q122.5 124.45 124.35 122.55 126.1 120.8 129 120.15 L129 115.55 129.15 115.15 Q129.35 115 129.55 115 L133.95 115 Q134.15 115 134.3 115.15 L134.5 115.55 134.5 119.9 Q136.4 120.15 138.2 120.8"/>
    <path stroke="none" fill="#FFCC00" d="M76 132 Q76 122.05 68.95 115 61.95 108 52 108 42.05 108 35 115 28 122.05 28 132 28 142 35 149 42.05 156 52 156 61.95 156 68.95 149 76 142 76 132 M84 132 Q84 145.3 74.6 154.65 65.25 164 52 164 38.7 164 29.35 154.65 20 145.3 20 132 20 118.75 29.35 109.35 38.7 100 52 100 65.25 100 74.6 109.35 84 118.75 84 132 M58.2 120.8 Q60.15 121.45 61.75 122.5 L62 122.85 61.95 123.2 59.7 127.9 59.5 128.1 59.25 128.2 58.95 128.15 Q57.7 127.4 56.4 126.9 L53.85 126.05 53.9 126.05 51.75 125.75 50.2 126.05 Q49.75 126.35 49.75 126.9 L49.75 126.95 Q49.8 127.65 50.4 128.05 L52.55 129 55.5 129.85 Q57.15 130.4 58.6 131.2 60.1 132 61.05 133.5 62 134.95 62.05 137.25 62.05 139.5 60.95 141.15 59.9 142.75 58.1 143.7 L58.05 143.7 Q56.45 144.55 54.5 144.85 L54.5 149.45 54.3 149.85 53.95 150 49.55 150 49.15 149.85 49 149.45 49 144.7 Q46.95 144.3 45 143.45 42.9 142.5 41.25 141.15 L41.05 140.85 41.05 140.45 43.4 135.8 43.6 135.55 43.95 135.5 44.25 135.6 Q45.35 136.65 46.8 137.4 L46.85 137.45 Q48.25 138.2 49.7 138.6 L52.3 139.05 54.2 138.6 Q54.75 138.25 54.75 137.55 54.7 136.8 54.1 136.4 53.25 135.8 52 135.45 L49 134.6 45.95 133.35 Q44.45 132.5 43.45 131.15 42.5 129.75 42.45 127.5 L42.45 127.45 Q42.5 124.45 44.35 122.55 46.1 120.8 49 120.15 L49 115.55 49.15 115.15 Q49.35 115 49.55 115 L53.95 115 54.3 115.15 54.5 115.55 54.5 119.9 Q56.4 120.15 58.2 120.8"/>
    <path stroke="none" fill="#D7AC00" d="M58.2 120.8 Q56.4 120.15 54.5 119.9 L54.5 115.55 54.3 115.15 53.95 115 49.55 115 Q49.35 115 49.15 115.15 L49 115.55 49 120.15 Q46.1 120.8 44.35 122.55 42.5 124.45 42.45 127.45 L42.45 127.5 Q42.5 129.75 43.45 131.15 44.45 132.5 45.95 133.35 L49 134.6 52 135.45 Q53.25 135.8 54.1 136.4 54.7 136.8 54.75 137.55 54.75 138.25 54.2 138.6 L52.3 139.05 49.7 138.6 Q48.25 138.2 46.85 137.45 L46.8 137.4 Q45.35 136.65 44.25 135.6 L43.95 135.5 43.6 135.55 43.4 135.8 41.05 140.45 41.05 140.85 41.25 141.15 Q42.9 142.5 45 143.45 46.95 144.3 49 144.7 L49 149.45 49.15 149.85 49.55 150 53.95 150 54.3 149.85 54.5 149.45 54.5 144.85 Q56.45 144.55 58.05 143.7 L58.1 143.7 Q59.9 142.75 60.95 141.15 62.05 139.5 62.05 137.25 62 134.95 61.05 133.5 60.1 132 58.6 131.2 57.15 130.4 55.5 129.85 L52.55 129 50.4 128.05 Q49.8 127.65 49.75 126.95 L49.75 126.9 Q49.75 126.35 50.2 126.05 L51.75 125.75 53.9 126.05 53.85 126.05 56.4 126.9 Q57.7 127.4 58.95 128.15 L59.25 128.2 59.5 128.1 59.7 127.9 61.95 123.2 62 122.85 61.75 122.5 Q60.15 121.45 58.2 120.8 M76 132 Q76 142 68.95 149 61.95 156 52 156 42.05 156 35 149 28 142 28 132 28 122.05 35 115 42.05 108 52 108 61.95 108 68.95 115 76 122.05 76 132"/>
    <path stroke="none" fill="#E5E5E5" d="M164 212 Q164 225.3 154.6 234.65 145.25 244 132 244 118.7 244 109.35 234.65 100 225.3 100 212 100 198.75 109.35 189.35 118.7 180 132 180 145.25 180 154.6 189.35 164 198.75 164 212 M156 212 Q156 202.05 148.95 195 141.95 188 132 188 122.05 188 115 195 108 202.05 108 212 108 222 115 229 122.05 236 132 236 141.95 236 148.95 229 156 222 156 212"/>
    <path stroke="none" fill="#FFCC00" d="M156 212 Q156 222 148.95 229 141.95 236 132 236 122.05 236 115 229 108 222 108 212 108 202.05 115 195 122.05 188 132 188 141.95 188 148.95 195 156 202.05 156 212"/>
    <path stroke="none" fill="#FFCC00" d="M76 212 Q76 202.05 68.95 195 61.95 188 52 188 42.05 188 35 195 28 202.05 28 212 28 222 35 229 42.05 236 52 236 61.95 236 68.95 229 76 222 76 212 M84 212 Q84 225.3 74.6 234.65 65.25 244 52 244 38.7 244 29.35 234.65 20 225.3 20 212 20 198.75 29.35 189.35 38.7 180 52 180 65.25 180 74.6 189.35 84 198.75 84 212"/>
    <path stroke="none" fill="#D7AC00" d="M76 212 Q76 222 68.95 229 61.95 236 52 236 42.05 236 35 229 28 222 28 212 28 202.05 35 195 42.05 188 52 188 61.95 188 68.95 195 76 202.05 76 212"/>
    <path stroke="none" fill="#FAFAFA" d="M244 212 Q244 225.3 234.6 234.65 225.25 244 212 244 198.7 244 189.35 234.65 183.05 228.35 181 220.3 180 216.35 180 212 180 207.65 181 203.75 183.05 195.7 189.35 189.35 198.7 180 212 180 225.25 180 234.6 189.35 244 198.75 244 212 M236 212 Q236 202.05 228.95 195 221.95 188 212 188 202.05 188 195 195 188 202.05 188 212 188 222 195 229 202.05 236 212 236 221.95 236 228.95 229 236 222 236 212"/>
    <path stroke="none" fill="#E5E5E5" d="M236 212 Q236 222 228.95 229 221.95 236 212 236 202.05 236 195 229 188 222 188 212 188 202.05 195 195 202.05 188 212 188 221.95 188 228.95 195 236 202.05 236 212"/>
    <path stroke="none" fill="#CD8036" d="M316 212 Q316 202.05 308.95 195 301.95 188 292 188 282.05 188 275 195 268 202.05 268 212 268 222 275 229 282.05 236 292 236 301.95 236 308.95 229 316 222 316 212 M324 212 Q324 225.3 314.6 234.65 305.25 244 292 244 278.7 244 269.35 234.65 260 225.3 260 212 260 198.75 269.35 189.35 278.7 180 292 180 305.25 180 314.6 189.35 324 198.75 324 212"/>
    <path stroke="none" fill="#B46D2A" d="M316 212 Q316 222 308.95 229 301.95 236 292 236 282.05 236 275 229 268 222 268 212 268 202.05 275 195 282.05 188 292 188 301.95 188 308.95 195 316 202.05 316 212"/>
    <path stroke="none" fill="#C6EEFF" d="M404 212 Q404 225.3 394.6 234.65 385.25 244 372 244 358.7 244 349.35 234.65 340 225.3 340 212 340 198.75 349.35 189.35 358.7 180 372 180 385.25 180 394.6 189.35 404 198.75 404 212 M396 212 Q396 202.05 388.95 195 381.95 188 372 188 362.05 188 355 195 348 202.05 348 212 348 222 355 229 362.05 236 372 236 381.95 236 388.95 229 396 222 396 212"/>
    <path stroke="none" fill="#A6DFF7" d="M396 212 Q396 222 388.95 229 381.95 236 372 236 362.05 236 355 229 348 222 348 212 348 202.05 355 195 362.05 188 372 188 381.95 188 388.95 195 396 202.05 396 212"/>
    <path stroke="none" fill="#FFCC00" d="M76 52 Q76 42.05 68.95 35 61.95 28 52 28 42.05 28 35 35 28 42.05 28 52 28 62 35 69 42.05 76 52 76 61.95 76 68.95 69 76 62 76 52 M51.9 38.5 Q54 38.5 55.45 40.1 56.9 41.7 56.9 44 L56.9 60 Q56.9 62.3 55.45 63.9 54 65.5 51.9 65.5 49.8 65.5 48.35 63.9 46.9 62.3 46.9 60 L46.9 44 Q46.9 41.7 48.35 40.1 49.8 38.5 51.9 38.5 M84 52 Q84 65.3 74.6 74.65 65.25 84 52 84 38.7 84 29.35 74.65 20 65.3 20 52 20 38.75 29.35 29.35 38.7 20 52 20 65.25 20 74.6 29.35 84 38.75 84 52"/>
    <path stroke="none" fill="#D7AC00" d="M51.9 38.5 Q49.8 38.5 48.35 40.1 46.9 41.7 46.9 44 L46.9 60 Q46.9 62.3 48.35 63.9 49.8 65.5 51.9 65.5 54 65.5 55.45 63.9 56.9 62.3 56.9 60 L56.9 44 Q56.9 41.7 55.45 40.1 54 38.5 51.9 38.5 M76 52 Q76 62 68.95 69 61.95 76 52 76 42.05 76 35 69 28 62 28 52 28 42.05 35 35 42.05 28 52 28 61.95 28 68.95 35 76 42.05 76 52"/>
    <path stroke="none" fill="#E5E5E5" d="M156 52 Q156 42.05 148.95 35 141.95 28 132 28 122.05 28 115 35 108 42.05 108 52 108 62 115 69 122.05 76 132 76 141.95 76 148.95 69 156 62 156 52 M164 52 Q164 65.3 154.6 74.65 145.25 84 132 84 118.7 84 109.35 74.65 100 65.3 100 52 100 38.75 109.35 29.35 118.7 20 132 20 145.25 20 154.6 29.35 164 38.75 164 52"/>
    <path stroke="none" fill="#FFCC00" d="M131.9 38.5 Q129.85 38.5 128.4 40.1 126.9 41.7 126.9 44 L126.9 60 Q126.9 62.3 128.4 63.9 129.85 65.5 131.9 65.5 134 65.5 135.45 63.9 136.9 62.3 136.9 60 L136.9 44 Q136.9 41.7 135.45 40.1 134 38.5 131.9 38.5 M156 52 Q156 62 148.95 69 141.95 76 132 76 122.05 76 115 69 108 62 108 52 108 42.05 115 35 122.05 28 132 28 141.95 28 148.95 35 156 42.05 156 52"/>
    <path stroke="none" fill="#D7AC00" d="M131.9 38.5 Q134 38.5 135.45 40.1 136.9 41.7 136.9 44 L136.9 60 Q136.9 62.3 135.45 63.9 134 65.5 131.9 65.5 129.85 65.5 128.4 63.9 126.9 62.3 126.9 60 L126.9 44 Q126.9 41.7 128.4 40.1 129.85 38.5 131.9 38.5"/>
    <path stroke="none" fill="#FAFAFA" d="M211.9 38.5 Q214 38.5 215.45 40.1 216.9 41.7 216.9 44 L216.9 60 Q216.9 62.3 215.45 63.9 214 65.5 211.9 65.5 209.8 65.5 208.35 63.9 206.9 62.3 206.9 60 L206.9 44 Q206.9 41.7 208.35 40.1 209.8 38.5 211.9 38.5 M236 52 Q236 42.05 228.95 35 221.95 28 212 28 202.05 28 195 35 188 42.05 188 52 188 62 195 69 202.05 76 212 76 221.95 76 228.95 69 236 62 236 52 M244 52 Q244 65.3 234.6 74.65 225.25 84 212 84 198.7 84 189.35 74.65 183.05 68.35 181 60.3 180 56.35 180 52 180 47.65 181 43.75 183.05 35.7 189.35 29.35 198.7 20 212 20 225.25 20 234.6 29.35 244 38.75 244 52"/>
    <path stroke="none" fill="#E5E5E5" d="M211.9 38.5 Q209.8 38.5 208.35 40.1 206.9 41.7 206.9 44 L206.9 60 Q206.9 62.3 208.35 63.9 209.8 65.5 211.9 65.5 214 65.5 215.45 63.9 216.9 62.3 216.9 60 L216.9 44 Q216.9 41.7 215.45 40.1 214 38.5 211.9 38.5 M236 52 Q236 62 228.95 69 221.95 76 212 76 202.05 76 195 69 188 62 188 52 188 42.05 195 35 202.05 28 212 28 221.95 28 228.95 35 236 42.05 236 52"/>
    <path stroke="none" fill="#CD8036" d="M291.9 38.5 Q293.95 38.5 295.4 40.1 296.9 41.7 296.9 44 L296.9 60 Q296.9 62.3 295.4 63.9 293.95 65.5 291.9 65.5 289.8 65.5 288.35 63.9 286.9 62.3 286.9 60 L286.9 44 Q286.9 41.7 288.35 40.1 289.8 38.5 291.9 38.5 M324 52 Q324 65.3 314.6 74.65 305.25 84 292 84 278.7 84 269.35 74.65 260 65.3 260 52 260 38.75 269.35 29.35 278.7 20 292 20 305.25 20 314.6 29.35 324 38.75 324 52 M316 52 Q316 42.05 308.95 35 301.95 28 292 28 282.05 28 275 35 268 42.05 268 52 268 62 275 69 282.05 76 292 76 301.95 76 308.95 69 316 62 316 52"/>
    <path stroke="none" fill="#B46D2A" d="M316 52 Q316 62 308.95 69 301.95 76 292 76 282.05 76 275 69 268 62 268 52 268 42.05 275 35 282.05 28 292 28 301.95 28 308.95 35 316 42.05 316 52 M291.9 38.5 Q289.8 38.5 288.35 40.1 286.9 41.7 286.9 44 L286.9 60 Q286.9 62.3 288.35 63.9 289.8 65.5 291.9 65.5 293.95 65.5 295.4 63.9 296.9 62.3 296.9 60 L296.9 44 Q296.9 41.7 295.4 40.1 293.95 38.5 291.9 38.5"/>
    <path stroke="none" fill="#C6EEFF" d="M396 52 Q396 42.05 388.95 35 381.95 28 372 28 362.05 28 355 35 348 42.05 348 52 348 62 355 69 362.05 76 372 76 381.95 76 388.95 69 396 62 396 52 M404 52 Q404 65.3 394.6 74.65 385.25 84 372 84 358.7 84 349.35 74.65 340 65.3 340 52 340 38.75 349.35 29.35 358.7 20 372 20 385.25 20 394.6 29.35 404 38.75 404 52"/>
    <path stroke="none" fill="#A6DFF7" d="M371.9 38.5 Q369.8 38.5 368.35 40.1 366.9 41.7 366.9 44 L366.9 60 Q366.9 62.3 368.35 63.9 369.8 65.5 371.9 65.5 374 65.5 375.45 63.9 376.9 62.3 376.9 60 L376.9 44 Q376.9 41.7 375.45 40.1 374 38.5 371.9 38.5 M396 52 Q396 62 388.95 69 381.95 76 372 76 362.05 76 355 69 348 62 348 52 348 42.05 355 35 362.05 28 372 28 381.95 28 388.95 35 396 42.05 396 52"/>
    <path stroke="none" fill="#D4F2FF" d="M371.9 38.5 Q374 38.5 375.45 40.1 376.9 41.7 376.9 44 L376.9 60 Q376.9 62.3 375.45 63.9 374 65.5 371.9 65.5 369.8 65.5 368.35 63.9 366.9 62.3 366.9 60 L366.9 44 Q366.9 41.7 368.35 40.1 369.8 38.5 371.9 38.5"/>
    <path stroke="none" fill="#C6EEFF" d="M844 52 Q844 65.3 834.6 74.65 825.25 84 812 84 798.7 84 789.35 74.65 780 65.3 780 52 780 38.75 789.35 29.35 798.7 20 812 20 825.25 20 834.6 29.35 844 38.75 844 52 M836 132 Q836 122.05 828.95 115 821.95 108 812 108 802.05 108 795 115 788 122.05 788 132 788 142 795 149 802.05 156 812 156 821.95 156 828.95 149 836 142 836 132 M836 52 Q836 42.05 828.95 35 821.95 28 812 28 802.05 28 795 35 788 42.05 788 52 788 62 795 69 802.05 76 812 76 821.95 76 828.95 69 836 62 836 52 M844 132 Q844 145.3 834.6 154.65 825.25 164 812 164 798.7 164 789.35 154.65 780 145.3 780 132 780 118.75 789.35 109.35 798.7 100 812 100 825.25 100 834.6 109.35 844 118.75 844 132 M844 212 Q844 225.3 834.6 234.65 825.25 244 812 244 798.7 244 789.35 234.65 780 225.3 780 212 780 198.75 789.35 189.35 798.7 180 812 180 825.25 180 834.6 189.35 844 198.75 844 212 M836 212 Q836 202.05 828.95 195 821.95 188 812 188 802.05 188 795 195 788 202.05 788 212 788 222 795 229 802.05 236 812 236 821.95 236 828.95 229 836 222 836 212 M844 292 Q844 305.3 834.6 314.65 825.25 324 812 324 798.7 324 789.35 314.65 780 305.3 780 292 780 278.75 789.35 269.35 798.7 260 812 260 825.25 260 834.6 269.35 844 278.75 844 292 M836 292 Q836 282.05 828.95 275 821.95 268 812 268 802.05 268 795 275 788 282.05 788 292 788 302 795 309 802.05 316 812 316 821.95 316 828.95 309 836 302 836 292"/>
    <path stroke="none" fill="#A6DFF7" d="M836 292 Q836 302 828.95 309 821.95 316 812 316 802.05 316 795 309 788 302 788 292 788 282.05 795 275 802.05 268 812 268 821.95 268 828.95 275 836 282.05 836 292 M836 52 Q836 62 828.95 69 821.95 76 812 76 802.05 76 795 69 788 62 788 52 788 42.05 795 35 802.05 28 812 28 821.95 28 828.95 35 836 42.05 836 52 M836 132 Q836 142 828.95 149 821.95 156 812 156 802.05 156 795 149 788 142 788 132 788 122.05 795 115 802.05 108 812 108 821.95 108 828.95 115 836 122.05 836 132 M818.2 120.8 Q816.4 120.15 814.5 119.9 L814.5 115.55 814.3 115.15 813.95 115 809.55 115 809.15 115.15 809 115.55 809 120.15 Q806.1 120.8 804.35 122.55 802.5 124.45 802.45 127.45 L802.45 127.5 Q802.5 129.75 803.45 131.15 804.45 132.5 805.95 133.35 L809 134.6 812 135.45 Q813.25 135.8 814.1 136.4 814.7 136.8 814.75 137.55 814.75 138.25 814.2 138.6 L812.3 139.05 809.7 138.6 806.85 137.45 806.8 137.4 804.25 135.6 803.95 135.5 803.6 135.55 803.4 135.8 801.05 140.45 801.05 140.85 801.25 141.15 Q802.9 142.5 805 143.45 806.95 144.3 809 144.7 L809 149.45 Q809 149.7 809.15 149.85 L809.55 150 813.95 150 814.3 149.85 814.5 149.45 814.5 144.85 Q816.45 144.55 818.05 143.7 L818.1 143.7 Q819.9 142.75 820.95 141.15 822.05 139.5 822.05 137.25 822 134.95 821.05 133.5 820.1 132 818.6 131.2 817.15 130.4 815.5 129.85 L812.55 129 Q811.25 128.6 810.4 128.05 809.8 127.65 809.75 126.95 L809.75 126.9 Q809.75 126.35 810.2 126.05 L811.75 125.75 813.9 126.05 813.85 126.05 816.4 126.9 818.95 128.15 819.25 128.2 819.5 128.1 819.7 127.9 821.95 123.2 822 122.85 821.75 122.5 Q820.15 121.45 818.2 120.8 M811.9 38.5 Q809.8 38.5 808.35 40.1 806.9 41.7 806.9 44 L806.9 60 Q806.9 62.3 808.35 63.9 809.8 65.5 811.9 65.5 814 65.5 815.45 63.9 816.9 62.3 816.9 60 L816.9 44 Q816.9 41.7 815.45 40.1 814 38.5 811.9 38.5 M836 212 Q836 222 828.95 229 821.95 236 812 236 802.05 236 795 229 788 222 788 212 788 202.05 795 195 802.05 188 812 188 821.95 188 828.95 195 836 202.05 836 212 M814.55 284 Q816.25 284.05 817.9 284.9 819.55 285.8 820.9 287.3 L821.25 287.5 821.6 287.5 821.9 287.3 825.85 282.6 825.95 282.2 825.8 281.75 Q824.35 280.25 822.5 279.2 820.7 278.15 818.6 277.6 L814.45 277 Q810.95 277 808 278.25 805.1 279.45 803.05 281.7 801.05 283.75 800.1 286.45 L796.6 286.45 Q796.35 286.45 796.15 286.6 796 286.8 796 287.05 L796 290 796.15 290.45 Q796.35 290.65 796.6 290.65 L799.3 290.65 799.3 290.7 799.3 291.35 799.3 292.15 799.3 292.25 796.6 292.25 Q796.35 292.25 796.15 292.4 796 292.6 796 292.85 L796 295.75 796.15 296.2 Q796.35 296.4 796.6 296.4 L800.1 296.4 Q801.05 299.1 802.95 301.2 805 303.45 807.85 304.7 810.75 306 814.15 306 L818.4 305.3 Q820.5 304.7 822.45 303.5 L825.8 300.8 826 300.45 825.85 300 821.85 295.7 821.6 295.5 821.25 295.5 820.95 295.65 Q819.55 297.05 817.8 297.85 816.15 298.7 814.5 298.7 812.65 298.7 811.15 297.85 L809.45 296.4 816.85 296.4 817.3 296.2 817.5 295.75 817.5 292.85 817.3 292.4 816.85 292.25 807.6 292.25 807.6 292 807.6 291.3 807.6 290.7 807.6 290.65 816.85 290.65 817.3 290.45 817.5 290 817.5 287.05 817.3 286.6 816.85 286.45 809.25 286.45 Q810 285.55 811.1 284.95 L811.05 284.95 Q812.55 284.05 814.5 284 L814.55 284"/>
    <path stroke="none" fill="#67A7C2" d="M844 52 Q844 38.75 834.6 29.35 825.25 20 812 20 798.7 20 789.35 29.35 780 38.75 780 52 780 65.3 789.35 74.65 798.7 84 812 84 825.25 84 834.6 74.65 844 65.3 844 52 M838.15 25.85 Q849 36.7 849 52 849 67.4 838.15 78.2 827.3 89 812 89 796.65 89 785.85 78.2 775 67.35 775 52 775 36.7 785.8 25.85 L785.85 25.85 Q796.65 15 812 15 827.3 15 838.15 25.85 M844 132 Q844 118.75 834.6 109.35 825.25 100 812 100 798.7 100 789.35 109.35 780 118.75 780 132 780 145.3 789.35 154.65 798.7 164 812 164 825.25 164 834.6 154.65 844 145.3 844 132 M838.15 105.85 Q849 116.7 849 132 849 147.4 838.15 158.2 827.3 169 812 169 796.65 169 785.85 158.2 775 147.35 775 132 775 116.7 785.8 105.85 L785.85 105.85 Q796.65 95 812 95 827.3 95 838.15 105.85 M844 212 Q844 198.75 834.6 189.35 825.25 180 812 180 798.7 180 789.35 189.35 780 198.75 780 212 780 225.3 789.35 234.65 798.7 244 812 244 825.25 244 834.6 234.65 844 225.3 844 212 M838.15 185.85 Q849 196.7 849 212 849 227.4 838.15 238.2 827.3 249 812 249 796.65 249 785.85 238.2 775 227.35 775 212 775 196.7 785.8 185.85 L785.85 185.85 Q796.65 175 812 175 827.3 175 838.15 185.85 M838.15 265.85 Q849 276.7 849 292 849 307.4 838.15 318.2 827.3 329 812 329 796.65 329 785.85 318.2 775 307.35 775 292 775 276.7 785.8 265.85 L785.85 265.85 Q796.65 255 812 255 827.3 255 838.15 265.85 M844 292 Q844 278.75 834.6 269.35 825.25 260 812 260 798.7 260 789.35 269.35 780 278.75 780 292 780 305.3 789.35 314.65 798.7 324 812 324 825.25 324 834.6 314.65 844 305.3 844 292"/>
    <path stroke="none" fill="#D4F2FF" d="M818.2 120.8 Q820.15 121.45 821.75 122.5 L822 122.85 821.95 123.2 819.7 127.9 819.5 128.1 819.25 128.2 818.95 128.15 816.4 126.9 813.85 126.05 813.9 126.05 811.75 125.75 810.2 126.05 Q809.75 126.35 809.75 126.9 L809.75 126.95 Q809.8 127.65 810.4 128.05 811.25 128.6 812.55 129 L815.5 129.85 Q817.15 130.4 818.6 131.2 820.1 132 821.05 133.5 822 134.95 822.05 137.25 822.05 139.5 820.95 141.15 819.9 142.75 818.1 143.7 L818.05 143.7 Q816.45 144.55 814.5 144.85 L814.5 149.45 814.3 149.85 813.95 150 809.55 150 809.15 149.85 Q809 149.7 809 149.45 L809 144.7 Q806.95 144.3 805 143.45 802.9 142.5 801.25 141.15 L801.05 140.85 801.05 140.45 803.4 135.8 803.6 135.55 803.95 135.5 804.25 135.6 806.8 137.4 806.85 137.45 809.7 138.6 812.3 139.05 814.2 138.6 Q814.75 138.25 814.75 137.55 814.7 136.8 814.1 136.4 813.25 135.8 812 135.45 L809 134.6 805.95 133.35 Q804.45 132.5 803.45 131.15 802.5 129.75 802.45 127.5 L802.45 127.45 Q802.5 124.45 804.35 122.55 806.1 120.8 809 120.15 L809 115.55 809.15 115.15 809.55 115 813.95 115 814.3 115.15 814.5 115.55 814.5 119.9 Q816.4 120.15 818.2 120.8 M811.9 38.5 Q814 38.5 815.45 40.1 816.9 41.7 816.9 44 L816.9 60 Q816.9 62.3 815.45 63.9 814 65.5 811.9 65.5 809.8 65.5 808.35 63.9 806.9 62.3 806.9 60 L806.9 44 Q806.9 41.7 808.35 40.1 809.8 38.5 811.9 38.5 M814.55 284 L814.5 284 Q812.55 284.05 811.05 284.95 L811.1 284.95 Q810 285.55 809.25 286.45 L816.85 286.45 817.3 286.6 817.5 287.05 817.5 290 817.3 290.45 816.85 290.65 807.6 290.65 807.6 290.7 807.6 291.3 807.6 292 807.6 292.25 816.85 292.25 817.3 292.4 817.5 292.85 817.5 295.75 817.3 296.2 816.85 296.4 809.45 296.4 811.15 297.85 Q812.65 298.7 814.5 298.7 816.15 298.7 817.8 297.85 819.55 297.05 820.95 295.65 L821.25 295.5 821.6 295.5 821.85 295.7 825.85 300 826 300.45 825.8 300.8 822.45 303.5 Q820.5 304.7 818.4 305.3 L814.15 306 Q810.75 306 807.85 304.7 805 303.45 802.95 301.2 801.05 299.1 800.1 296.4 L796.6 296.4 Q796.35 296.4 796.15 296.2 L796 295.75 796 292.85 Q796 292.6 796.15 292.4 796.35 292.25 796.6 292.25 L799.3 292.25 799.3 292.15 799.3 291.35 799.3 290.7 799.3 290.65 796.6 290.65 Q796.35 290.65 796.15 290.45 L796 290 796 287.05 Q796 286.8 796.15 286.6 796.35 286.45 796.6 286.45 L800.1 286.45 Q801.05 283.75 803.05 281.7 805.1 279.45 808 278.25 810.95 277 814.45 277 L818.6 277.6 Q820.7 278.15 822.5 279.2 824.35 280.25 825.8 281.75 L825.95 282.2 825.85 282.6 821.9 287.3 821.6 287.5 821.25 287.5 820.9 287.3 Q819.55 285.8 817.9 284.9 816.25 284.05 814.55 284"/>
    <path stroke="none" fill="#CD8036" d="M764 52 Q764 65.3 754.6 74.65 745.25 84 732 84 718.7 84 709.35 74.65 700 65.3 700 52 700 38.75 709.35 29.35 718.7 20 732 20 745.25 20 754.6 29.35 764 38.75 764 52 M756 52 Q756 42.05 748.95 35 741.95 28 732 28 722.05 28 715 35 708 42.05 708 52 708 62 715 69 722.05 76 732 76 741.95 76 748.95 69 756 62 756 52 M731.9 38.5 Q733.95 38.5 735.4 40.1 736.9 41.7 736.9 44 L736.9 60 Q736.9 62.3 735.4 63.9 733.95 65.5 731.9 65.5 729.8 65.5 728.35 63.9 726.9 62.3 726.9 60 L726.9 44 Q726.9 41.7 728.35 40.1 729.8 38.5 731.9 38.5 M738.2 120.8 Q740.15 121.45 741.75 122.5 L742 122.85 741.95 123.2 739.7 127.9 739.5 128.1 739.25 128.2 738.95 128.15 Q737.7 127.4 736.4 126.9 L733.85 126.05 733.9 126.05 731.75 125.75 730.2 126.05 Q729.75 126.35 729.75 126.9 L729.75 126.95 Q729.8 127.65 730.4 128.05 731.25 128.6 732.55 129 L735.5 129.85 Q737.15 130.4 738.6 131.2 740.1 132 741.05 133.5 742 134.95 742.05 137.25 742.05 139.5 740.95 141.15 739.9 142.75 738.1 143.7 L738.05 143.7 Q736.45 144.55 734.5 144.85 L734.5 149.45 734.3 149.85 733.95 150 729.55 150 729.15 149.85 729 149.45 729 144.7 Q726.95 144.3 725 143.45 722.9 142.5 721.25 141.15 L721.05 140.85 721.05 140.45 723.4 135.8 723.6 135.55 723.95 135.5 724.25 135.6 726.8 137.4 726.85 137.45 Q728.25 138.2 729.7 138.6 L732.3 139.05 Q733.5 139.05 734.2 138.6 734.75 138.25 734.75 137.55 734.7 136.8 734.1 136.4 733.25 135.8 732 135.45 L729 134.6 725.95 133.35 Q724.45 132.5 723.45 131.15 722.5 129.75 722.45 127.5 L722.45 127.45 Q722.5 124.45 724.35 122.55 726.1 120.8 729 120.15 L729 115.55 729.15 115.15 Q729.35 115 729.55 115 L733.95 115 734.3 115.15 734.5 115.55 734.5 119.9 Q736.4 120.15 738.2 120.8 M756 132 Q756 122.05 748.95 115 741.95 108 732 108 722.05 108 715 115 708 122.05 708 132 708 142 715 149 722.05 156 732 156 741.95 156 748.95 149 756 142 756 132 M764 132 Q764 145.3 754.6 154.65 745.25 164 732 164 718.7 164 709.35 154.65 700 145.3 700 132 700 118.75 709.35 109.35 718.7 100 732 100 745.25 100 754.6 109.35 764 118.75 764 132 M756 212 Q756 202.05 748.95 195 741.95 188 732 188 722.05 188 715 195 708 202.05 708 212 708 222 715 229 722.05 236 732 236 741.95 236 748.95 229 756 222 756 212 M764 212 Q764 225.3 754.6 234.65 745.25 244 732 244 718.7 244 709.35 234.65 700 225.3 700 212 700 198.75 709.35 189.35 718.7 180 732 180 745.25 180 754.6 189.35 764 198.75 764 212 M734.55 284 L734.5 284 Q732.55 284.05 731.05 284.95 L731.1 284.95 Q730 285.55 729.25 286.45 L736.85 286.45 737.3 286.6 737.5 287.05 737.5 290 737.3 290.45 736.85 290.65 727.6 290.65 727.6 290.7 727.6 291.3 727.6 292 727.6 292.25 736.85 292.25 737.3 292.4 737.5 292.85 737.5 295.75 737.3 296.2 736.85 296.4 729.45 296.4 731.15 297.85 Q732.65 298.7 734.5 298.7 736.15 298.7 737.8 297.85 739.55 297.05 740.95 295.65 L741.25 295.5 741.6 295.5 741.85 295.7 745.85 300 746 300.45 745.8 300.8 742.45 303.5 Q740.5 304.7 738.4 305.3 L734.15 306 Q730.75 306 727.85 304.7 725 303.45 722.95 301.2 721.05 299.1 720.1 296.4 L716.6 296.4 Q716.35 296.4 716.15 296.2 L716 295.75 716 292.85 716.15 292.4 716.6 292.25 719.3 292.25 719.3 292.15 719.3 291.35 719.3 290.7 719.3 290.65 716.6 290.65 Q716.35 290.65 716.15 290.45 L716 290 716 287.05 716.15 286.6 716.6 286.45 720.1 286.45 Q721.05 283.75 723.05 281.7 725.1 279.45 728 278.25 730.95 277 734.45 277 L738.6 277.6 Q740.7 278.15 742.5 279.2 744.35 280.25 745.8 281.75 L745.95 282.2 745.85 282.6 741.9 287.3 741.6 287.5 741.25 287.5 740.9 287.3 Q739.55 285.8 737.9 284.9 736.25 284.05 734.55 284 M756 292 Q756 282.05 748.95 275 741.95 268 732 268 722.05 268 715 275 708 282.05 708 292 708 302 715 309 722.05 316 732 316 741.95 316 748.95 309 756 302 756 292 M764 292 Q764 305.3 754.6 314.65 745.25 324 732 324 718.7 324 709.35 314.65 700 305.3 700 292 700 278.75 709.35 269.35 718.7 260 732 260 745.25 260 754.6 269.35 764 278.75 764 292"/>
    <path stroke="none" fill="#B46D2A" d="M756 52 Q756 62 748.95 69 741.95 76 732 76 722.05 76 715 69 708 62 708 52 708 42.05 715 35 722.05 28 732 28 741.95 28 748.95 35 756 42.05 756 52 M731.9 38.5 Q729.8 38.5 728.35 40.1 726.9 41.7 726.9 44 L726.9 60 Q726.9 62.3 728.35 63.9 729.8 65.5 731.9 65.5 733.95 65.5 735.4 63.9 736.9 62.3 736.9 60 L736.9 44 Q736.9 41.7 735.4 40.1 733.95 38.5 731.9 38.5 M738.2 120.8 Q736.4 120.15 734.5 119.9 L734.5 115.55 734.3 115.15 733.95 115 729.55 115 Q729.35 115 729.15 115.15 L729 115.55 729 120.15 Q726.1 120.8 724.35 122.55 722.5 124.45 722.45 127.45 L722.45 127.5 Q722.5 129.75 723.45 131.15 724.45 132.5 725.95 133.35 L729 134.6 732 135.45 Q733.25 135.8 734.1 136.4 734.7 136.8 734.75 137.55 734.75 138.25 734.2 138.6 733.5 139.05 732.3 139.05 L729.7 138.6 Q728.25 138.2 726.85 137.45 L726.8 137.4 724.25 135.6 723.95 135.5 723.6 135.55 723.4 135.8 721.05 140.45 721.05 140.85 721.25 141.15 Q722.9 142.5 725 143.45 726.95 144.3 729 144.7 L729 149.45 729.15 149.85 729.55 150 733.95 150 734.3 149.85 734.5 149.45 734.5 144.85 Q736.45 144.55 738.05 143.7 L738.1 143.7 Q739.9 142.75 740.95 141.15 742.05 139.5 742.05 137.25 742 134.95 741.05 133.5 740.1 132 738.6 131.2 737.15 130.4 735.5 129.85 L732.55 129 Q731.25 128.6 730.4 128.05 729.8 127.65 729.75 126.95 L729.75 126.9 Q729.75 126.35 730.2 126.05 L731.75 125.75 733.9 126.05 733.85 126.05 736.4 126.9 Q737.7 127.4 738.95 128.15 L739.25 128.2 739.5 128.1 739.7 127.9 741.95 123.2 742 122.85 741.75 122.5 Q740.15 121.45 738.2 120.8 M756 132 Q756 142 748.95 149 741.95 156 732 156 722.05 156 715 149 708 142 708 132 708 122.05 715 115 722.05 108 732 108 741.95 108 748.95 115 756 122.05 756 132 M756 212 Q756 222 748.95 229 741.95 236 732 236 722.05 236 715 229 708 222 708 212 708 202.05 715 195 722.05 188 732 188 741.95 188 748.95 195 756 202.05 756 212 M734.55 284 Q736.25 284.05 737.9 284.9 739.55 285.8 740.9 287.3 L741.25 287.5 741.6 287.5 741.9 287.3 745.85 282.6 745.95 282.2 745.8 281.75 Q744.35 280.25 742.5 279.2 740.7 278.15 738.6 277.6 L734.45 277 Q730.95 277 728 278.25 725.1 279.45 723.05 281.7 721.05 283.75 720.1 286.45 L716.6 286.45 716.15 286.6 716 287.05 716 290 716.15 290.45 Q716.35 290.65 716.6 290.65 L719.3 290.65 719.3 290.7 719.3 291.35 719.3 292.15 719.3 292.25 716.6 292.25 716.15 292.4 716 292.85 716 295.75 716.15 296.2 Q716.35 296.4 716.6 296.4 L720.1 296.4 Q721.05 299.1 722.95 301.2 725 303.45 727.85 304.7 730.75 306 734.15 306 L738.4 305.3 Q740.5 304.7 742.45 303.5 L745.8 300.8 746 300.45 745.85 300 741.85 295.7 741.6 295.5 741.25 295.5 740.95 295.65 Q739.55 297.05 737.8 297.85 736.15 298.7 734.5 298.7 732.65 298.7 731.15 297.85 L729.45 296.4 736.85 296.4 737.3 296.2 737.5 295.75 737.5 292.85 737.3 292.4 736.85 292.25 727.6 292.25 727.6 292 727.6 291.3 727.6 290.7 727.6 290.65 736.85 290.65 737.3 290.45 737.5 290 737.5 287.05 737.3 286.6 736.85 286.45 729.25 286.45 Q730 285.55 731.1 284.95 L731.05 284.95 Q732.55 284.05 734.5 284 L734.55 284 M756 292 Q756 302 748.95 309 741.95 316 732 316 722.05 316 715 309 708 302 708 292 708 282.05 715 275 722.05 268 732 268 741.95 268 748.95 275 756 282.05 756 292"/>
    <path stroke="none" fill="#744518" d="M764 52 Q764 38.75 754.6 29.35 745.25 20 732 20 718.7 20 709.35 29.35 700 38.75 700 52 700 65.3 709.35 74.65 718.7 84 732 84 745.25 84 754.6 74.65 764 65.3 764 52 M758.15 25.85 Q769 36.7 769 52 769 67.4 758.15 78.2 747.3 89 732 89 716.65 89 705.85 78.2 695 67.35 695 52 695 36.7 705.8 25.85 L705.85 25.85 Q716.65 15 732 15 747.3 15 758.15 25.85 M758.15 105.85 Q769 116.7 769 132 769 147.4 758.15 158.2 747.3 169 732 169 716.65 169 705.85 158.2 695 147.35 695 132 695 116.7 705.8 105.85 L705.85 105.85 Q716.65 95 732 95 747.3 95 758.15 105.85 M764 132 Q764 118.75 754.6 109.35 745.25 100 732 100 718.7 100 709.35 109.35 700 118.75 700 132 700 145.3 709.35 154.65 718.7 164 732 164 745.25 164 754.6 154.65 764 145.3 764 132 M764 212 Q764 198.75 754.6 189.35 745.25 180 732 180 718.7 180 709.35 189.35 700 198.75 700 212 700 225.3 709.35 234.65 718.7 244 732 244 745.25 244 754.6 234.65 764 225.3 764 212 M758.15 185.85 Q769 196.7 769 212 769 227.4 758.15 238.2 747.3 249 732 249 716.65 249 705.85 238.2 695 227.35 695 212 695 196.7 705.8 185.85 L705.85 185.85 Q716.65 175 732 175 747.3 175 758.15 185.85 M764 292 Q764 278.75 754.6 269.35 745.25 260 732 260 718.7 260 709.35 269.35 700 278.75 700 292 700 305.3 709.35 314.65 718.7 324 732 324 745.25 324 754.6 314.65 764 305.3 764 292 M758.15 265.85 Q769 276.7 769 292 769 307.4 758.15 318.2 747.3 329 732 329 716.65 329 705.85 318.2 695 307.35 695 292 695 276.7 705.8 265.85 L705.85 265.85 Q716.65 255 732 255 747.3 255 758.15 265.85"/>
    <path stroke="none" fill="#FAFAFA" d="M684 52 Q684 65.3 674.6 74.65 665.25 84 652 84 638.7 84 629.35 74.65 623.05 68.35 621 60.3 620 56.35 620 52 620 47.65 621 43.75 623.05 35.7 629.35 29.35 638.7 20 652 20 665.25 20 674.6 29.35 684 38.75 684 52 M676 52 Q676 42.05 668.95 35 661.95 28 652 28 642.05 28 635 35 628 42.05 628 52 628 62 635 69 642.05 76 652 76 661.95 76 668.95 69 676 62 676 52 M658.2 120.8 Q660.15 121.45 661.75 122.5 L662 122.85 661.95 123.2 659.7 127.9 659.5 128.1 659.25 128.2 658.95 128.15 Q657.7 127.4 656.4 126.9 L653.85 126.05 653.9 126.05 651.75 125.75 Q650.8 125.75 650.2 126.05 649.75 126.35 649.75 126.9 L649.75 126.95 Q649.8 127.65 650.4 128.05 651.25 128.6 652.55 129 L655.5 129.85 Q657.15 130.4 658.6 131.2 660.1 132 661.05 133.5 662 134.95 662.05 137.25 662.05 139.5 660.95 141.15 659.9 142.75 658.1 143.7 L658.05 143.7 Q656.45 144.55 654.5 144.85 L654.5 149.45 654.3 149.85 653.95 150 649.55 150 649.15 149.85 649 149.45 649 144.7 Q646.95 144.3 645 143.45 642.9 142.5 641.25 141.15 L641.05 140.85 641.05 140.45 643.4 135.8 643.6 135.55 643.95 135.5 644.25 135.6 Q645.35 136.65 646.8 137.4 L646.85 137.45 Q648.25 138.2 649.7 138.6 L652.3 139.05 654.2 138.6 Q654.75 138.25 654.75 137.55 654.7 136.8 654.1 136.4 653.25 135.8 652 135.45 L649 134.6 645.95 133.35 Q644.45 132.5 643.45 131.15 642.5 129.75 642.45 127.5 L642.45 127.45 Q642.5 124.45 644.35 122.55 646.1 120.8 649 120.15 L649 115.55 649.15 115.15 Q649.35 115 649.55 115 L653.95 115 654.3 115.15 654.5 115.55 654.5 119.9 658.2 120.8 M676 132 Q676 122.05 668.95 115 661.95 108 652 108 642.05 108 635 115 628 122.05 628 132 628 142 635 149 642.05 156 652 156 661.95 156 668.95 149 676 142 676 132 M684 132 Q684 145.3 674.6 154.65 665.25 164 652 164 638.7 164 629.35 154.65 623.05 148.35 621 140.3 620 136.35 620 132 620 127.65 621 123.75 623.05 115.7 629.35 109.35 638.7 100 652 100 665.25 100 674.6 109.35 684 118.75 684 132 M684 212 Q684 225.3 674.6 234.65 665.25 244 652 244 638.7 244 629.35 234.65 623.05 228.35 621 220.3 620 216.35 620 212 620 207.65 621 203.75 623.05 195.7 629.35 189.35 638.7 180 652 180 665.25 180 674.6 189.35 684 198.75 684 212 M676 212 Q676 202.05 668.95 195 661.95 188 652 188 642.05 188 635 195 628 202.05 628 212 628 222 635 229 642.05 236 652 236 661.95 236 668.95 229 676 222 676 212 M654.55 284 L654.5 284 Q652.55 284.05 651.05 284.95 L651.1 284.95 Q650 285.55 649.25 286.45 L656.85 286.45 657.3 286.6 657.5 287.05 657.5 290 657.3 290.45 656.85 290.65 647.6 290.65 647.6 290.7 647.6 291.3 647.6 292 647.6 292.25 656.85 292.25 657.3 292.4 657.5 292.85 657.5 295.75 657.3 296.2 656.85 296.4 649.45 296.4 651.15 297.85 Q652.65 298.7 654.5 298.7 656.15 298.7 657.8 297.85 659.55 297.05 660.95 295.65 L661.25 295.5 661.6 295.5 661.85 295.7 665.85 300 666 300.45 665.8 300.8 Q664.25 302.35 662.45 303.5 660.5 304.7 658.4 305.3 656.3 306 654.15 306 650.75 306 647.85 304.7 645 303.45 642.95 301.2 641.05 299.1 640.1 296.4 L636.6 296.4 Q636.35 296.4 636.15 296.2 L636 295.75 636 292.85 Q636 292.6 636.15 292.4 636.35 292.25 636.6 292.25 L639.3 292.25 639.3 292.15 639.3 291.35 639.3 290.7 639.3 290.65 636.6 290.65 Q636.35 290.65 636.15 290.45 L636 290 636 287.05 Q636 286.8 636.15 286.6 636.35 286.45 636.6 286.45 L640.1 286.45 Q641.05 283.75 643.05 281.7 645.1 279.45 648 278.25 650.95 277 654.45 277 L658.6 277.6 Q660.7 278.15 662.5 279.2 664.35 280.25 665.8 281.75 L665.95 282.2 665.85 282.6 661.9 287.3 661.6 287.5 661.25 287.5 660.9 287.3 Q659.55 285.8 657.9 284.9 656.25 284.05 654.55 284 M676 292 Q676 282.05 668.95 275 661.95 268 652 268 642.05 268 635 275 628 282.05 628 292 628 302 635 309 642.05 316 652 316 661.95 316 668.95 309 676 302 676 292 M684 292 Q684 305.3 674.6 314.65 665.25 324 652 324 638.7 324 629.35 314.65 623.05 308.35 621 300.3 620 296.35 620 292 620 287.65 621 283.75 623.05 275.7 629.35 269.35 638.7 260 652 260 665.25 260 674.6 269.35 684 278.75 684 292 M651.9 38.5 Q654 38.5 655.45 40.1 656.9 41.7 656.9 44 L656.9 60 Q656.9 62.3 655.45 63.9 654 65.5 651.9 65.5 649.8 65.5 648.35 63.9 646.9 62.3 646.9 60 L646.9 44 Q646.9 41.7 648.35 40.1 649.8 38.5 651.9 38.5"/>
    <path stroke="none" fill="#E5E5E5" d="M651.9 38.5 Q649.8 38.5 648.35 40.1 646.9 41.7 646.9 44 L646.9 60 Q646.9 62.3 648.35 63.9 649.8 65.5 651.9 65.5 654 65.5 655.45 63.9 656.9 62.3 656.9 60 L656.9 44 Q656.9 41.7 655.45 40.1 654 38.5 651.9 38.5 M676 52 Q676 62 668.95 69 661.95 76 652 76 642.05 76 635 69 628 62 628 52 628 42.05 635 35 642.05 28 652 28 661.95 28 668.95 35 676 42.05 676 52 M658.2 120.8 L654.5 119.9 654.5 115.55 654.3 115.15 653.95 115 649.55 115 Q649.35 115 649.15 115.15 L649 115.55 649 120.15 Q646.1 120.8 644.35 122.55 642.5 124.45 642.45 127.45 L642.45 127.5 Q642.5 129.75 643.45 131.15 644.45 132.5 645.95 133.35 L649 134.6 652 135.45 Q653.25 135.8 654.1 136.4 654.7 136.8 654.75 137.55 654.75 138.25 654.2 138.6 L652.3 139.05 649.7 138.6 Q648.25 138.2 646.85 137.45 L646.8 137.4 Q645.35 136.65 644.25 135.6 L643.95 135.5 643.6 135.55 643.4 135.8 641.05 140.45 641.05 140.85 641.25 141.15 Q642.9 142.5 645 143.45 646.95 144.3 649 144.7 L649 149.45 649.15 149.85 649.55 150 653.95 150 654.3 149.85 654.5 149.45 654.5 144.85 Q656.45 144.55 658.05 143.7 L658.1 143.7 Q659.9 142.75 660.95 141.15 662.05 139.5 662.05 137.25 662 134.95 661.05 133.5 660.1 132 658.6 131.2 657.15 130.4 655.5 129.85 L652.55 129 Q651.25 128.6 650.4 128.05 649.8 127.65 649.75 126.95 L649.75 126.9 Q649.75 126.35 650.2 126.05 650.8 125.75 651.75 125.75 L653.9 126.05 653.85 126.05 656.4 126.9 Q657.7 127.4 658.95 128.15 L659.25 128.2 659.5 128.1 659.7 127.9 661.95 123.2 662 122.85 661.75 122.5 Q660.15 121.45 658.2 120.8 M676 132 Q676 142 668.95 149 661.95 156 652 156 642.05 156 635 149 628 142 628 132 628 122.05 635 115 642.05 108 652 108 661.95 108 668.95 115 676 122.05 676 132 M676 212 Q676 222 668.95 229 661.95 236 652 236 642.05 236 635 229 628 222 628 212 628 202.05 635 195 642.05 188 652 188 661.95 188 668.95 195 676 202.05 676 212 M654.55 284 Q656.25 284.05 657.9 284.9 659.55 285.8 660.9 287.3 L661.25 287.5 661.6 287.5 661.9 287.3 665.85 282.6 665.95 282.2 665.8 281.75 Q664.35 280.25 662.5 279.2 660.7 278.15 658.6 277.6 L654.45 277 Q650.95 277 648 278.25 645.1 279.45 643.05 281.7 641.05 283.75 640.1 286.45 L636.6 286.45 Q636.35 286.45 636.15 286.6 636 286.8 636 287.05 L636 290 636.15 290.45 Q636.35 290.65 636.6 290.65 L639.3 290.65 639.3 290.7 639.3 291.35 639.3 292.15 639.3 292.25 636.6 292.25 Q636.35 292.25 636.15 292.4 636 292.6 636 292.85 L636 295.75 636.15 296.2 Q636.35 296.4 636.6 296.4 L640.1 296.4 Q641.05 299.1 642.95 301.2 645 303.45 647.85 304.7 650.75 306 654.15 306 656.3 306 658.4 305.3 660.5 304.7 662.45 303.5 664.25 302.35 665.8 300.8 L666 300.45 665.85 300 661.85 295.7 661.6 295.5 661.25 295.5 660.95 295.65 Q659.55 297.05 657.8 297.85 656.15 298.7 654.5 298.7 652.65 298.7 651.15 297.85 L649.45 296.4 656.85 296.4 657.3 296.2 657.5 295.75 657.5 292.85 657.3 292.4 656.85 292.25 647.6 292.25 647.6 292 647.6 291.3 647.6 290.7 647.6 290.65 656.85 290.65 657.3 290.45 657.5 290 657.5 287.05 657.3 286.6 656.85 286.45 649.25 286.45 Q650 285.55 651.1 284.95 L651.05 284.95 Q652.55 284.05 654.5 284 L654.55 284 M676 292 Q676 302 668.95 309 661.95 316 652 316 642.05 316 635 309 628 302 628 292 628 282.05 635 275 642.05 268 652 268 661.95 268 668.95 275 676 282.05 676 292 M604 52 Q604 65.3 594.6 74.65 585.25 84 572 84 558.7 84 549.35 74.65 540 65.3 540 52 540 38.75 549.35 29.35 558.7 20 572 20 585.25 20 594.6 29.35 604 38.75 604 52 M596 52 Q596 42.05 588.95 35 581.95 28 572 28 562.05 28 555 35 548 42.05 548 52 548 62 555 69 562.05 76 572 76 581.95 76 588.95 69 596 62 596 52 M596 132 Q596 122.05 588.95 115 581.95 108 572 108 562.05 108 555 115 548 122.05 548 132 548 142 555 149 562.05 156 572 156 581.95 156 588.95 149 596 142 596 132 M604 132 Q604 145.3 594.6 154.65 585.25 164 572 164 558.7 164 549.35 154.65 540 145.3 540 132 540 118.75 549.35 109.35 558.7 100 572 100 585.25 100 594.6 109.35 604 118.75 604 132 M604 212 Q604 225.3 594.6 234.65 585.25 244 572 244 558.7 244 549.35 234.65 540 225.3 540 212 540 198.75 549.35 189.35 558.7 180 572 180 585.25 180 594.6 189.35 604 198.75 604 212 M596 212 Q596 202.05 588.95 195 581.95 188 572 188 562.05 188 555 195 548 202.05 548 212 548 222 555 229 562.05 236 572 236 581.95 236 588.95 229 596 222 596 212 M604 292 Q604 305.3 594.6 314.65 585.25 324 572 324 558.7 324 549.35 314.65 540 305.3 540 292 540 278.75 549.35 269.35 558.7 260 572 260 585.25 260 594.6 269.35 604 278.75 604 292 M596 292 Q596 282.05 588.95 275 581.95 268 572 268 562.05 268 555 275 548 282.05 548 292 548 302 555 309 562.05 316 572 316 581.95 316 588.95 309 596 302 596 292"/>
    <path stroke="none" fill="#A1A1A1" d="M684 52 Q684 38.75 674.6 29.35 665.25 20 652 20 638.7 20 629.35 29.35 623.05 35.7 621 43.75 620 47.65 620 52 620 56.35 621 60.3 623.05 68.35 629.35 74.65 638.7 84 652 84 665.25 84 674.6 74.65 684 65.3 684 52 M678.15 25.85 Q689 36.7 689 52 689 67.4 678.15 78.2 667.3 89 652 89 636.65 89 625.85 78.2 618.5 70.85 616.15 61.55 615 57 615 52 615 47 616.15 42.55 618.5 33.2 625.8 25.85 L625.85 25.85 Q636.65 15 652 15 667.3 15 678.15 25.85 M684 132 Q684 118.75 674.6 109.35 665.25 100 652 100 638.7 100 629.35 109.35 623.05 115.7 621 123.75 620 127.65 620 132 620 136.35 621 140.3 623.05 148.35 629.35 154.65 638.7 164 652 164 665.25 164 674.6 154.65 684 145.3 684 132 M678.15 105.85 Q689 116.7 689 132 689 147.4 678.15 158.2 667.3 169 652 169 636.65 169 625.85 158.2 618.5 150.85 616.15 141.55 615 137 615 132 615 127 616.15 122.55 618.5 113.2 625.8 105.85 L625.85 105.85 Q636.65 95 652 95 667.3 95 678.15 105.85 M684 212 Q684 198.75 674.6 189.35 665.25 180 652 180 638.7 180 629.35 189.35 623.05 195.7 621 203.75 620 207.65 620 212 620 216.35 621 220.3 623.05 228.35 629.35 234.65 638.7 244 652 244 665.25 244 674.6 234.65 684 225.3 684 212 M678.15 185.85 Q689 196.7 689 212 689 227.4 678.15 238.2 667.3 249 652 249 636.65 249 625.85 238.2 618.5 230.85 616.15 221.55 615 217 615 212 615 207 616.15 202.55 618.5 193.2 625.8 185.85 L625.85 185.85 Q636.65 175 652 175 667.3 175 678.15 185.85 M684 292 Q684 278.75 674.6 269.35 665.25 260 652 260 638.7 260 629.35 269.35 623.05 275.7 621 283.75 620 287.65 620 292 620 296.35 621 300.3 623.05 308.35 629.35 314.65 638.7 324 652 324 665.25 324 674.6 314.65 684 305.3 684 292 M678.15 265.85 Q689 276.7 689 292 689 307.4 678.15 318.2 667.3 329 652 329 636.65 329 625.85 318.2 618.5 310.85 616.15 301.55 615 297 615 292 615 287 616.15 282.55 618.5 273.2 625.8 265.85 L625.85 265.85 Q636.65 255 652 255 667.3 255 678.15 265.85 M604 52 Q604 38.75 594.6 29.35 585.25 20 572 20 558.7 20 549.35 29.35 540 38.75 540 52 540 65.3 549.35 74.65 558.7 84 572 84 585.25 84 594.6 74.65 604 65.3 604 52 M598.15 25.85 Q609 36.7 609 52 609 67.4 598.15 78.2 587.3 89 572 89 556.65 89 545.85 78.2 535 67.35 535 52 535 36.7 545.8 25.85 L545.85 25.85 Q556.65 15 572 15 587.3 15 598.15 25.85 M598.15 105.85 Q609 116.7 609 132 609 147.4 598.15 158.2 587.3 169 572 169 556.65 169 545.85 158.2 535 147.35 535 132 535 116.7 545.8 105.85 L545.85 105.85 Q556.65 95 572 95 587.3 95 598.15 105.85 M604 132 Q604 118.75 594.6 109.35 585.25 100 572 100 558.7 100 549.35 109.35 540 118.75 540 132 540 145.3 549.35 154.65 558.7 164 572 164 585.25 164 594.6 154.65 604 145.3 604 132 M604 212 Q604 198.75 594.6 189.35 585.25 180 572 180 558.7 180 549.35 189.35 540 198.75 540 212 540 225.3 549.35 234.65 558.7 244 572 244 585.25 244 594.6 234.65 604 225.3 604 212 M598.15 185.85 Q609 196.7 609 212 609 227.4 598.15 238.2 587.3 249 572 249 556.65 249 545.85 238.2 535 227.35 535 212 535 196.7 545.8 185.85 L545.85 185.85 Q556.65 175 572 175 587.3 175 598.15 185.85 M604 292 Q604 278.75 594.6 269.35 585.25 260 572 260 558.7 260 549.35 269.35 540 278.75 540 292 540 305.3 549.35 314.65 558.7 324 572 324 585.25 324 594.6 314.65 604 305.3 604 292 M598.15 265.85 Q609 276.7 609 292 609 307.4 598.15 318.2 587.3 329 572 329 556.65 329 545.85 318.2 535 307.35 535 292 535 276.7 545.8 265.85 L545.85 265.85 Q556.65 255 572 255 587.3 255 598.15 265.85"/>
    <path stroke="none" fill="#FFCC00" d="M596 52 Q596 62 588.95 69 581.95 76 572 76 562.05 76 555 69 548 62 548 52 548 42.05 555 35 562.05 28 572 28 581.95 28 588.95 35 596 42.05 596 52 M571.9 38.5 Q569.85 38.5 568.4 40.1 566.9 41.7 566.9 44 L566.9 60 Q566.9 62.3 568.4 63.9 569.85 65.5 571.9 65.5 574 65.5 575.45 63.9 576.9 62.3 576.9 60 L576.9 44 Q576.9 41.7 575.45 40.1 574 38.5 571.9 38.5 M524 52 Q524 65.3 514.6 74.65 505.25 84 492 84 478.7 84 469.35 74.65 460 65.3 460 52 460 38.75 469.35 29.35 478.7 20 492 20 505.25 20 514.6 29.35 524 38.75 524 52 M516 52 Q516 42.05 508.95 35 501.95 28 492 28 482.05 28 475 35 468 42.05 468 52 468 62 475 69 482.05 76 492 76 501.95 76 508.95 69 516 62 516 52 M491.9 38.5 Q494 38.5 495.45 40.1 496.9 41.7 496.9 44 L496.9 60 Q496.9 62.3 495.45 63.9 494 65.5 491.9 65.5 489.8 65.5 488.35 63.9 486.9 62.3 486.9 60 L486.9 44 Q486.9 41.7 488.35 40.1 489.8 38.5 491.9 38.5 M578.2 120.8 L574.5 119.9 574.5 115.55 574.3 115.15 573.95 115 569.55 115 569.15 115.15 569 115.55 569 120.15 Q566.1 120.8 564.35 122.55 562.5 124.45 562.45 127.45 L562.45 127.5 Q562.5 129.75 563.45 131.15 564.45 132.5 565.95 133.35 L569 134.6 572 135.45 Q573.25 135.8 574.1 136.4 574.7 136.8 574.75 137.55 574.75 138.25 574.2 138.6 L572.3 139.05 569.7 138.6 Q568.25 138.2 566.85 137.45 L566.8 137.4 564.25 135.6 563.95 135.5 563.6 135.55 563.4 135.8 561.05 140.45 561.05 140.85 561.25 141.15 Q562.9 142.5 565 143.45 566.95 144.3 569 144.7 L569 149.45 Q569 149.7 569.15 149.85 L569.55 150 573.95 150 574.3 149.85 574.5 149.45 574.5 144.85 Q576.45 144.55 578.05 143.7 L578.1 143.7 Q579.9 142.75 580.95 141.15 582.05 139.5 582.05 137.25 582 134.95 581.05 133.5 580.1 132 578.6 131.2 577.15 130.4 575.5 129.85 L572.55 129 Q571.25 128.6 570.4 128.05 569.8 127.65 569.75 126.95 L569.75 126.9 Q569.75 126.35 570.2 126.05 L571.75 125.75 573.9 126.05 573.85 126.05 576.4 126.9 578.95 128.15 579.25 128.2 579.5 128.1 579.7 127.9 581.95 123.2 582 122.85 581.75 122.5 Q580.15 121.45 578.2 120.8 M596 132 Q596 142 588.95 149 581.95 156 572 156 562.05 156 555 149 548 142 548 132 548 122.05 555 115 562.05 108 572 108 581.95 108 588.95 115 596 122.05 596 132 M498.2 120.8 Q500.15 121.45 501.75 122.5 L502 122.85 501.95 123.2 499.7 127.9 499.5 128.1 499.25 128.2 498.95 128.15 496.4 126.9 493.85 126.05 493.9 126.05 491.75 125.75 490.2 126.05 Q489.75 126.35 489.75 126.9 L489.75 126.95 Q489.8 127.65 490.4 128.05 491.25 128.6 492.55 129 L495.5 129.85 Q497.15 130.4 498.6 131.2 500.1 132 501.05 133.5 502 134.95 502.05 137.25 502.05 139.5 500.95 141.15 499.9 142.75 498.1 143.7 L498.05 143.7 Q496.45 144.55 494.5 144.85 L494.5 149.45 494.3 149.85 493.95 150 489.55 150 489.15 149.85 489 149.45 489 144.7 Q486.95 144.3 485 143.45 482.9 142.5 481.25 141.15 L481.05 140.85 481.05 140.45 483.4 135.8 483.6 135.55 483.95 135.5 484.25 135.6 Q485.35 136.65 486.8 137.4 L486.85 137.45 Q488.25 138.2 489.7 138.6 L492.3 139.05 494.2 138.6 Q494.75 138.25 494.75 137.55 494.7 136.8 494.1 136.4 493.25 135.8 492 135.45 L489 134.6 485.95 133.35 Q484.45 132.5 483.45 131.15 482.5 129.75 482.45 127.5 L482.45 127.45 Q482.5 124.45 484.35 122.55 486.1 120.8 489 120.15 L489 115.55 489.15 115.15 Q489.35 115 489.55 115 L493.95 115 494.3 115.15 494.5 115.55 494.5 119.9 498.2 120.8 M516 132 Q516 122.05 508.95 115 501.95 108 492 108 482.05 108 475 115 468 122.05 468 132 468 142 475 149 482.05 156 492 156 501.95 156 508.95 149 516 142 516 132 M524 132 Q524 145.3 514.6 154.65 505.25 164 492 164 478.7 164 469.35 154.65 460 145.3 460 132 460 118.75 469.35 109.35 478.7 100 492 100 505.25 100 514.6 109.35 524 118.75 524 132 M596 212 Q596 222 588.95 229 581.95 236 572 236 562.05 236 555 229 548 222 548 212 548 202.05 555 195 562.05 188 572 188 581.95 188 588.95 195 596 202.05 596 212 M516 212 Q516 202.05 508.95 195 501.95 188 492 188 482.05 188 475 195 468 202.05 468 212 468 222 475 229 482.05 236 492 236 501.95 236 508.95 229 516 222 516 212 M524 212 Q524 225.3 514.6 234.65 505.25 244 492 244 478.7 244 469.35 234.65 460 225.3 460 212 460 198.75 469.35 189.35 478.7 180 492 180 505.25 180 514.6 189.35 524 198.75 524 212 M494.55 284 L494.5 284 Q492.55 284.05 491.05 284.95 L491.1 284.95 Q490 285.55 489.25 286.45 L496.85 286.45 497.3 286.6 497.5 287.05 497.5 290 497.3 290.45 Q497.1 290.65 496.85 290.65 L487.6 290.65 487.6 290.7 487.6 291.3 487.6 292 487.6 292.25 496.85 292.25 497.3 292.4 497.5 292.85 497.5 295.75 497.3 296.2 Q497.1 296.4 496.85 296.4 L489.45 296.4 491.15 297.85 Q492.65 298.7 494.5 298.7 496.15 298.7 497.8 297.85 499.55 297.05 500.95 295.65 L501.25 295.5 501.6 295.5 501.85 295.7 505.85 300 506 300.45 505.8 300.8 502.45 303.5 Q500.5 304.7 498.4 305.3 L494.15 306 Q490.75 306 487.85 304.7 485 303.45 482.95 301.2 481.05 299.1 480.1 296.4 L476.6 296.4 476.15 296.2 476 295.75 476 292.85 476.15 292.4 476.6 292.25 479.3 292.25 479.3 292.15 479.3 291.35 479.3 290.7 479.3 290.65 476.6 290.65 476.15 290.45 476 290 476 287.05 476.15 286.6 476.6 286.45 480.1 286.45 Q481.05 283.75 483.05 281.7 485.1 279.45 488 278.25 490.95 277 494.45 277 L498.6 277.6 Q500.7 278.15 502.5 279.2 504.35 280.25 505.8 281.75 L505.95 282.2 505.85 282.6 501.9 287.3 501.6 287.5 501.25 287.5 500.9 287.3 Q499.55 285.8 497.9 284.9 496.25 284.05 494.55 284 M516 292 Q516 282.05 508.95 275 501.95 268 492 268 482.05 268 475 275 468 282.05 468 292 468 302 475 309 482.05 316 492 316 501.95 316 508.95 309 516 302 516 292 M524 292 Q524 305.3 514.6 314.65 505.25 324 492 324 478.7 324 469.35 314.65 460 305.3 460 292 460 278.75 469.35 269.35 478.7 260 492 260 505.25 260 514.6 269.35 524 278.75 524 292 M574.55 284 Q576.25 284.05 577.9 284.9 579.55 285.8 580.9 287.3 L581.25 287.5 581.6 287.5 581.9 287.3 585.85 282.6 585.95 282.2 585.8 281.75 Q584.35 280.25 582.5 279.2 580.7 278.15 578.6 277.6 L574.45 277 Q570.95 277 568 278.25 565.1 279.45 563.05 281.7 561.05 283.75 560.1 286.45 L556.6 286.45 Q556.35 286.45 556.15 286.6 556 286.8 556 287.05 L556 290 556.15 290.45 Q556.35 290.65 556.6 290.65 L559.3 290.65 559.3 290.7 559.3 291.35 559.3 292.15 559.3 292.25 556.6 292.25 Q556.35 292.25 556.15 292.4 556 292.6 556 292.85 L556 295.75 556.15 296.2 Q556.35 296.4 556.6 296.4 L560.1 296.4 Q561.05 299.1 562.95 301.2 565 303.45 567.85 304.7 570.75 306 574.15 306 576.3 306 578.4 305.3 580.5 304.7 582.45 303.5 584.25 302.35 585.8 300.8 L586 300.45 585.85 300 581.85 295.7 581.6 295.5 581.25 295.5 580.95 295.65 Q579.55 297.05 577.8 297.85 576.15 298.7 574.5 298.7 572.65 298.7 571.15 297.85 L569.45 296.4 576.85 296.4 577.3 296.2 577.5 295.75 577.5 292.85 577.3 292.4 576.85 292.25 567.6 292.25 567.6 292 567.6 291.3 567.6 290.7 567.6 290.65 576.85 290.65 577.3 290.45 577.5 290 577.5 287.05 577.3 286.6 576.85 286.45 569.25 286.45 Q570 285.55 571.1 284.95 L571.05 284.95 Q572.55 284.05 574.5 284 L574.55 284 M596 292 Q596 302 588.95 309 581.95 316 572 316 562.05 316 555 309 548 302 548 292 548 282.05 555 275 562.05 268 572 268 581.95 268 588.95 275 596 282.05 596 292"/>
    <path stroke="none" fill="#D7AC00" d="M571.9 38.5 Q574 38.5 575.45 40.1 576.9 41.7 576.9 44 L576.9 60 Q576.9 62.3 575.45 63.9 574 65.5 571.9 65.5 569.85 65.5 568.4 63.9 566.9 62.3 566.9 60 L566.9 44 Q566.9 41.7 568.4 40.1 569.85 38.5 571.9 38.5 M516 52 Q516 62 508.95 69 501.95 76 492 76 482.05 76 475 69 468 62 468 52 468 42.05 475 35 482.05 28 492 28 501.95 28 508.95 35 516 42.05 516 52 M491.9 38.5 Q489.8 38.5 488.35 40.1 486.9 41.7 486.9 44 L486.9 60 Q486.9 62.3 488.35 63.9 489.8 65.5 491.9 65.5 494 65.5 495.45 63.9 496.9 62.3 496.9 60 L496.9 44 Q496.9 41.7 495.45 40.1 494 38.5 491.9 38.5 M578.2 120.8 Q580.15 121.45 581.75 122.5 L582 122.85 581.95 123.2 579.7 127.9 579.5 128.1 579.25 128.2 578.95 128.15 576.4 126.9 573.85 126.05 573.9 126.05 571.75 125.75 570.2 126.05 Q569.75 126.35 569.75 126.9 L569.75 126.95 Q569.8 127.65 570.4 128.05 571.25 128.6 572.55 129 L575.5 129.85 Q577.15 130.4 578.6 131.2 580.1 132 581.05 133.5 582 134.95 582.05 137.25 582.05 139.5 580.95 141.15 579.9 142.75 578.1 143.7 L578.05 143.7 Q576.45 144.55 574.5 144.85 L574.5 149.45 574.3 149.85 573.95 150 569.55 150 569.15 149.85 Q569 149.7 569 149.45 L569 144.7 Q566.95 144.3 565 143.45 562.9 142.5 561.25 141.15 L561.05 140.85 561.05 140.45 563.4 135.8 563.6 135.55 563.95 135.5 564.25 135.6 566.8 137.4 566.85 137.45 Q568.25 138.2 569.7 138.6 L572.3 139.05 574.2 138.6 Q574.75 138.25 574.75 137.55 574.7 136.8 574.1 136.4 573.25 135.8 572 135.45 L569 134.6 565.95 133.35 Q564.45 132.5 563.45 131.15 562.5 129.75 562.45 127.5 L562.45 127.45 Q562.5 124.45 564.35 122.55 566.1 120.8 569 120.15 L569 115.55 569.15 115.15 569.55 115 573.95 115 574.3 115.15 574.5 115.55 574.5 119.9 578.2 120.8 M498.2 120.8 L494.5 119.9 494.5 115.55 494.3 115.15 493.95 115 489.55 115 Q489.35 115 489.15 115.15 L489 115.55 489 120.15 Q486.1 120.8 484.35 122.55 482.5 124.45 482.45 127.45 L482.45 127.5 Q482.5 129.75 483.45 131.15 484.45 132.5 485.95 133.35 L489 134.6 492 135.45 Q493.25 135.8 494.1 136.4 494.7 136.8 494.75 137.55 494.75 138.25 494.2 138.6 L492.3 139.05 489.7 138.6 Q488.25 138.2 486.85 137.45 L486.8 137.4 Q485.35 136.65 484.25 135.6 L483.95 135.5 483.6 135.55 483.4 135.8 481.05 140.45 481.05 140.85 481.25 141.15 Q482.9 142.5 485 143.45 486.95 144.3 489 144.7 L489 149.45 489.15 149.85 489.55 150 493.95 150 494.3 149.85 494.5 149.45 494.5 144.85 Q496.45 144.55 498.05 143.7 L498.1 143.7 Q499.9 142.75 500.95 141.15 502.05 139.5 502.05 137.25 502 134.95 501.05 133.5 500.1 132 498.6 131.2 497.15 130.4 495.5 129.85 L492.55 129 Q491.25 128.6 490.4 128.05 489.8 127.65 489.75 126.95 L489.75 126.9 Q489.75 126.35 490.2 126.05 L491.75 125.75 493.9 126.05 493.85 126.05 496.4 126.9 498.95 128.15 499.25 128.2 499.5 128.1 499.7 127.9 501.95 123.2 502 122.85 501.75 122.5 Q500.15 121.45 498.2 120.8 M516 132 Q516 142 508.95 149 501.95 156 492 156 482.05 156 475 149 468 142 468 132 468 122.05 475 115 482.05 108 492 108 501.95 108 508.95 115 516 122.05 516 132 M516 212 Q516 222 508.95 229 501.95 236 492 236 482.05 236 475 229 468 222 468 212 468 202.05 475 195 482.05 188 492 188 501.95 188 508.95 195 516 202.05 516 212 M494.55 284 Q496.25 284.05 497.9 284.9 499.55 285.8 500.9 287.3 L501.25 287.5 501.6 287.5 501.9 287.3 505.85 282.6 505.95 282.2 505.8 281.75 Q504.35 280.25 502.5 279.2 500.7 278.15 498.6 277.6 L494.45 277 Q490.95 277 488 278.25 485.1 279.45 483.05 281.7 481.05 283.75 480.1 286.45 L476.6 286.45 476.15 286.6 476 287.05 476 290 476.15 290.45 476.6 290.65 479.3 290.65 479.3 290.7 479.3 291.35 479.3 292.15 479.3 292.25 476.6 292.25 476.15 292.4 476 292.85 476 295.75 476.15 296.2 476.6 296.4 480.1 296.4 Q481.05 299.1 482.95 301.2 485 303.45 487.85 304.7 490.75 306 494.15 306 L498.4 305.3 Q500.5 304.7 502.45 303.5 L505.8 300.8 506 300.45 505.85 300 501.85 295.7 501.6 295.5 501.25 295.5 500.95 295.65 Q499.55 297.05 497.8 297.85 496.15 298.7 494.5 298.7 492.65 298.7 491.15 297.85 L489.45 296.4 496.85 296.4 Q497.1 296.4 497.3 296.2 L497.5 295.75 497.5 292.85 497.3 292.4 496.85 292.25 487.6 292.25 487.6 292 487.6 291.3 487.6 290.7 487.6 290.65 496.85 290.65 Q497.1 290.65 497.3 290.45 L497.5 290 497.5 287.05 497.3 286.6 496.85 286.45 489.25 286.45 Q490 285.55 491.1 284.95 L491.05 284.95 Q492.55 284.05 494.5 284 L494.55 284 M516 292 Q516 302 508.95 309 501.95 316 492 316 482.05 316 475 309 468 302 468 292 468 282.05 475 275 482.05 268 492 268 501.95 268 508.95 275 516 282.05 516 292 M574.55 284 L574.5 284 Q572.55 284.05 571.05 284.95 L571.1 284.95 Q570 285.55 569.25 286.45 L576.85 286.45 577.3 286.6 577.5 287.05 577.5 290 577.3 290.45 576.85 290.65 567.6 290.65 567.6 290.7 567.6 291.3 567.6 292 567.6 292.25 576.85 292.25 577.3 292.4 577.5 292.85 577.5 295.75 577.3 296.2 576.85 296.4 569.45 296.4 571.15 297.85 Q572.65 298.7 574.5 298.7 576.15 298.7 577.8 297.85 579.55 297.05 580.95 295.65 L581.25 295.5 581.6 295.5 581.85 295.7 585.85 300 586 300.45 585.8 300.8 Q584.25 302.35 582.45 303.5 580.5 304.7 578.4 305.3 576.3 306 574.15 306 570.75 306 567.85 304.7 565 303.45 562.95 301.2 561.05 299.1 560.1 296.4 L556.6 296.4 Q556.35 296.4 556.15 296.2 L556 295.75 556 292.85 Q556 292.6 556.15 292.4 556.35 292.25 556.6 292.25 L559.3 292.25 559.3 292.15 559.3 291.35 559.3 290.7 559.3 290.65 556.6 290.65 Q556.35 290.65 556.15 290.45 L556 290 556 287.05 Q556 286.8 556.15 286.6 556.35 286.45 556.6 286.45 L560.1 286.45 Q561.05 283.75 563.05 281.7 565.1 279.45 568 278.25 570.95 277 574.45 277 L578.6 277.6 Q580.7 278.15 582.5 279.2 584.35 280.25 585.8 281.75 L585.95 282.2 585.85 282.6 581.9 287.3 581.6 287.5 581.25 287.5 580.9 287.3 Q579.55 285.8 577.9 284.9 576.25 284.05 574.55 284"/>
    <path stroke="none" fill="#9F7F00" d="M524 52 Q524 38.75 514.6 29.35 505.25 20 492 20 478.7 20 469.35 29.35 460 38.75 460 52 460 65.3 469.35 74.65 478.7 84 492 84 505.25 84 514.6 74.65 524 65.3 524 52 M518.15 25.85 Q529 36.7 529 52 529 67.4 518.15 78.2 507.3 89 492 89 476.65 89 465.85 78.2 455 67.35 455 52 455 36.7 465.8 25.85 L465.85 25.85 Q476.65 15 492 15 507.3 15 518.15 25.85 M524 132 Q524 118.75 514.6 109.35 505.25 100 492 100 478.7 100 469.35 109.35 460 118.75 460 132 460 145.3 469.35 154.65 478.7 164 492 164 505.25 164 514.6 154.65 524 145.3 524 132 M518.15 105.85 Q529 116.7 529 132 529 147.4 518.15 158.2 507.3 169 492 169 476.65 169 465.85 158.2 455 147.35 455 132 455 116.7 465.8 105.85 L465.85 105.85 Q476.65 95 492 95 507.3 95 518.15 105.85 M524 212 Q524 198.75 514.6 189.35 505.25 180 492 180 478.7 180 469.35 189.35 460 198.75 460 212 460 225.3 469.35 234.65 478.7 244 492 244 505.25 244 514.6 234.65 524 225.3 524 212 M518.15 185.85 Q529 196.7 529 212 529 227.4 518.15 238.2 507.3 249 492 249 476.65 249 465.85 238.2 455 227.35 455 212 455 196.7 465.8 185.85 L465.85 185.85 Q476.65 175 492 175 507.3 175 518.15 185.85 M518.15 265.85 Q529 276.7 529 292 529 307.4 518.15 318.2 507.3 329 492 329 476.65 329 465.85 318.2 455 307.35 455 292 455 276.7 465.8 265.85 L465.85 265.85 Q476.65 255 492 255 507.3 255 518.15 265.85 M524 292 Q524 278.75 514.6 269.35 505.25 260 492 260 478.7 260 469.35 269.35 460 278.75 460 292 460 305.3 469.35 314.65 478.7 324 492 324 505.25 324 514.6 314.65 524 305.3 524 292"/>
  </g>
</svg>