<svg xmlns="http://www.w3.org/2000/svg" xmlns:xlink="http://www.w3.org/1999/xlink">
  <defs/>
  <g>
    <path stroke="none" fill="#9D0D0D" d="M66.05 15 L46.55 15 Q33.5 15 24.25 23.75 15.05 32.55 15.05 45 15.05 57.45 24.25 66.2 33.5 75 46.55 75 L66.05 75 66.05 80 46.55 80 Q31.5 80 20.8 69.85 10.05 59.6 10.05 45 10.05 30.4 20.8 20.15 L20.85 20.15 Q31.5 10 46.55 10 L66.05 10 66.05 15 M214.05 15 L214.05 10 233.55 10 Q248.6 10 259.25 20.15 270.05 30.4 270.05 45 270.05 59.6 259.25 69.85 248.6 80 233.55 80 L214.05 80 214.05 75 233.55 75 Q246.6 75 255.8 66.2 265.05 57.45 265.05 45 265.05 32.55 255.8 23.75 246.6 15 233.55 15 L214.05 15"/>
    <path stroke="none" fill="#DE1010" d="M214.05 15 L233.55 15 Q246.6 15 255.8 23.75 265.05 32.55 265.05 45 265.05 57.45 255.8 66.2 246.6 75 233.55 75 L214.05 75 214.05 45 254.4 45 Q255.95 45 257.25 44.1 258.55 43.2 259.1 41.7 259.65 40.25 259.25 38.75 257.55 32.35 252.35 27.4 244.6 20 233.55 20 L214.05 20 214.05 15 M66.05 20 L46.55 20 Q35.85 20 28.15 26.9 L27.7 27.4 Q22.5 32.35 20.85 38.75 20.45 40.25 21 41.7 21.55 43.2 22.85 44.1 24.1 45 25.7 45 L66.05 45 66.05 75 46.55 75 Q33.5 75 24.25 66.2 15.05 57.45 15.05 45 15.05 32.55 24.25 23.75 33.5 15 46.55 15 L66.05 15 66.05 20"/>
    <path stroke="none" fill="#999999" d="M214.05 15 L66.05 15 66.05 10 214.05 10 214.05 15 M66.05 80 L66.05 75 214.05 75 214.05 80 66.05 80"/>
    <path stroke="none" fill="#F72D2D" d="M66.05 45 L25.7 45 Q24.1 45 22.85 44.1 21.55 43.2 21 41.7 20.45 40.25 20.85 38.75 22.5 32.35 27.7 27.4 L28.15 26.9 Q35.85 20 46.55 20 L66.05 20 66.05 45 M214.05 20 L233.55 20 Q244.6 20 252.35 27.4 257.55 32.35 259.25 38.75 259.65 40.25 259.1 41.7 258.55 43.2 257.25 44.1 255.95 45 254.4 45 L214.05 45 214.05 20"/>
    <path stroke="none" fill="#D0D0D0" d="M214.05 20 L66.05 20 66.05 15 214.05 15 214.05 20 M66.05 75 L66.05 45 214.05 45 214.05 75 66.05 75"/>
    <path stroke="none" fill="#E7E7E7" d="M66.05 45 L66.05 20 214.05 20 214.05 45 66.05 45"/>
    <path stroke="none" fill="#DE1010" d="M66.05 110 L46.55 110 Q35.85 110 28.15 116.9 L27.7 117.4 Q22.5 122.35 20.85 128.75 20.45 130.25 21 131.7 21.55 133.2 22.85 134.1 24.1 135 25.7 135 L66.05 135 66.05 165 46.55 165 Q33.5 165 24.25 156.2 15.05 147.45 15.05 135 15.05 122.55 24.25 113.75 33.5 105 46.55 105 L66.05 105 66.05 110 M214.05 110 L214.05 105 233.55 105 Q246.6 105 255.8 113.75 265.05 122.55 265.05 135 265.05 147.45 255.8 156.2 246.6 165 233.55 165 L214.05 165 214.05 135 254.4 135 Q255.95 135 257.25 134.1 258.55 133.2 259.1 131.7 259.65 130.25 259.25 128.75 257.55 122.35 252.35 117.4 244.6 110 233.55 110 L214.05 110"/>
    <path stroke="none" fill="#F72D2D" d="M66.05 135 L25.7 135 Q24.1 135 22.85 134.1 21.55 133.2 21 131.7 20.45 130.25 20.85 128.75 22.5 122.35 27.7 117.4 L28.15 116.9 Q35.85 110 46.55 110 L66.05 110 66.05 135 M214.05 135 L214.05 110 233.55 110 Q244.6 110 252.35 117.4 257.55 122.35 259.25 128.75 259.65 130.25 259.1 131.7 258.55 133.2 257.25 134.1 255.95 135 254.4 135 L214.05 135"/>
    <path stroke="none" fill="#D0D0D0" d="M214.05 135 L214.05 165 66.05 165 66.05 135 214.05 135 M66.05 110 L66.05 105 214.05 105 214.05 110 66.05 110"/>
    <path stroke="none" fill="#E7E7E7" d="M66.05 110 L214.05 110 214.05 135 66.05 135 66.05 110"/>
    <path stroke="none" fill="#D0D0D0" d="M66.1 255 L66.05 255 53.05 225 227.05 225 214.05 255 66.1 255 M216.25 200 L63.9 200 65.55 196.25 65.65 195.95 66.05 195 66.1 195 214.05 195 216.25 200"/>
    <path stroke="none" fill="#1EA7E1" d="M216.25 200 L214.05 195 233.55 195 Q246.6 195 255.8 203.75 265.05 212.55 265.05 225 265.05 237.45 255.8 246.2 246.6 255 233.55 255 L214.05 255 227.05 225 254.4 225 Q255.95 225 257.25 224.1 258.55 223.2 259.1 221.7 259.65 220.25 259.25 218.75 257.55 212.35 252.35 207.4 244.6 200 233.55 200 L216.25 200 M66.05 195 L65.65 195.95 65.55 196.25 63.9 200 46.55 200 Q35.85 200 28.15 206.9 L27.7 207.4 Q22.5 212.35 20.85 218.75 20.45 220.25 21 221.7 21.55 223.2 22.85 224.1 24.1 225 25.7 225 L53.05 225 66.05 255 46.55 255 Q33.5 255 24.25 246.2 15.05 237.45 15.05 225 15.05 212.55 24.25 203.75 33.5 195 46.55 195 L66.05 195"/>
    <path stroke="none" fill="#E7E7E7" d="M216.25 200 L227.05 225 53.05 225 63.9 200 216.25 200"/>
    <path stroke="none" fill="#38BDF5" d="M216.25 200 L233.55 200 Q244.6 200 252.35 207.4 257.55 212.35 259.25 218.75 259.65 220.25 259.1 221.7 258.55 223.2 257.25 224.1 255.95 225 254.4 225 L227.05 225 216.25 200 M63.9 200 L53.05 225 25.7 225 Q24.1 225 22.85 224.1 21.55 223.2 21 221.7 20.45 220.25 20.85 218.75 22.5 212.35 27.7 207.4 L28.15 206.9 Q35.85 200 46.55 200 L63.9 200"/>
    <path stroke="none" fill="#12739C" d="M66.1 195 L66.05 195 46.55 195 Q33.5 195 24.25 203.75 15.05 212.55 15.05 225 15.05 237.45 24.25 246.2 33.5 255 46.55 255 L66.05 255 66.1 255 68.25 260 46.55 260 Q31.5 260 20.8 249.85 10.05 239.6 10.05 225 10.05 210.4 20.8 200.15 L20.85 200.15 Q31.5 190 46.55 190 L68.25 190 66.1 195 M214.05 255 L233.55 255 Q246.6 255 255.8 246.2 265.05 237.45 265.05 225 265.05 212.55 255.8 203.75 246.6 195 233.55 195 L214.05 195 211.85 190 233.55 190 Q248.6 190 259.25 200.15 270.05 210.4 270.05 225 270.05 239.6 259.25 249.85 248.6 260 233.55 260 L211.85 260 214.05 255"/>
    <path stroke="none" fill="#999999" d="M214.05 195 L66.1 195 68.25 190 211.85 190 214.05 195 M66.1 255 L214.05 255 211.85 260 68.25 260 66.1 255"/>
    <path stroke="none" fill="#E7E7E7" d="M216.25 290 L227.05 315 53.05 315 63.9 290 216.25 290"/>
    <path stroke="none" fill="#38BDF5" d="M216.25 290 L233.55 290 Q244.6 290 252.35 297.4 257.55 302.35 259.25 308.75 259.65 310.25 259.1 311.7 258.55 313.2 257.25 314.1 255.95 315 254.4 315 L227.05 315 216.25 290 M63.9 290 L53.05 315 25.7 315 Q24.1 315 22.85 314.1 21.55 313.2 21 311.7 20.45 310.25 20.85 308.75 22.5 302.35 27.7 297.4 L28.15 296.9 Q35.85 290 46.55 290 L63.9 290"/>
    <path stroke="none" fill="#1EA7E1" d="M63.9 290 L46.55 290 Q35.85 290 28.15 296.9 L27.7 297.4 Q22.5 302.35 20.85 308.75 20.45 310.25 21 311.7 21.55 313.2 22.85 314.1 24.1 315 25.7 315 L53.05 315 66.05 345 46.55 345 Q33.5 345 24.25 336.2 15.05 327.45 15.05 315 15.05 302.55 24.25 293.75 33.5 285 46.55 285 L66.05 285 63.9 290 M227.05 315 L254.4 315 Q255.95 315 257.25 314.1 258.55 313.2 259.1 311.7 259.65 310.25 259.25 308.75 257.55 302.35 252.35 297.4 244.6 290 233.55 290 L216.25 290 214.05 285 233.55 285 Q246.6 285 255.8 293.75 265.05 302.55 265.05 315 265.05 327.45 255.8 336.2 246.6 345 233.55 345 L214.05 345 227.05 315"/>
    <path stroke="none" fill="#D0D0D0" d="M227.05 315 L214.05 345 66.05 345 53.05 315 227.05 315 M216.25 290 L63.9 290 66.05 285 214.05 285 216.25 290"/>
    <path stroke="none" fill="#DE1010" d="M554.05 45 L594.4 45 Q595.95 45 597.25 44.1 598.55 43.2 599.1 41.7 599.65 40.25 599.25 38.75 597.55 32.35 592.35 27.4 584.6 20 573.55 20 L554.05 20 554.05 15 573.55 15 Q586.6 15 595.8 23.75 605.05 32.55 605.05 45 605.05 57.45 595.8 66.2 586.6 75 573.55 75 L554.05 75 554.05 45 M346.05 45 L346.05 75 326.55 75 Q313.5 75 304.25 66.2 295.05 57.45 295.05 45 295.05 32.55 304.25 23.75 313.5 15 326.55 15 L346.05 15 346.05 20 326.55 20 Q315.85 20 308.15 26.9 L307.7 27.4 Q302.5 32.35 300.85 38.75 300.45 40.25 301 41.7 301.55 43.2 302.85 44.1 304.1 45 305.7 45 L346.05 45"/>
    <path stroke="none" fill="#F72D2D" d="M346.05 45 L305.7 45 Q304.1 45 302.85 44.1 301.55 43.2 301 41.7 300.45 40.25 300.85 38.75 302.5 32.35 307.7 27.4 L308.15 26.9 Q315.85 20 326.55 20 L346.05 20 346.05 45 M554.05 20 L573.55 20 Q584.6 20 592.35 27.4 597.55 32.35 599.25 38.75 599.65 40.25 599.1 41.7 598.55 43.2 597.25 44.1 595.95 45 594.4 45 L554.05 45 554.05 20"/>
    <path stroke="none" fill="#9D0D0D" d="M554.05 75 L573.55 75 Q586.6 75 595.8 66.2 605.05 57.45 605.05 45 605.05 32.55 595.8 23.75 586.6 15 573.55 15 L554.05 15 554.05 10 573.55 10 Q588.6 10 599.25 20.15 610.05 30.4 610.05 45 610.05 59.6 599.25 69.85 588.6 80 573.55 80 L554.05 80 554.05 75 M346.05 80 L326.55 80 Q311.5 80 300.8 69.85 290.05 59.6 290.05 45 290.05 30.4 300.8 20.15 L300.85 20.15 Q311.5 10 326.55 10 L346.05 10 346.05 15 326.55 15 Q313.5 15 304.25 23.75 295.05 32.55 295.05 45 295.05 57.45 304.25 66.2 313.5 75 326.55 75 L346.05 75 346.05 80"/>
    <path stroke="none" fill="#999999" d="M346.05 80 L346.05 75 554.05 75 554.05 80 346.05 80 M554.05 10 L554.05 15 346.05 15 346.05 10 554.05 10"/>
    <path stroke="none" fill="#D0D0D0" d="M554.05 45 L554.05 75 346.05 75 346.05 45 554.05 45 M554.05 15 L554.05 20 346.05 20 346.05 15 554.05 15"/>
    <path stroke="none" fill="#E7E7E7" d="M554.05 20 L554.05 45 346.05 45 346.05 20 554.05 20"/>
    <path stroke="none" fill="#DE1010" d="M554.05 105 L573.55 105 Q586.6 105 595.8 113.75 605.05 122.55 605.05 135 605.05 147.45 595.8 156.2 586.6 165 573.55 165 L554.05 165 554.05 135 594.4 135 Q595.95 135 597.25 134.1 598.55 133.2 599.1 131.7 599.65 130.25 599.25 128.75 597.55 122.35 592.35 117.4 584.6 110 573.55 110 L554.05 110 554.05 105 M346.05 165 L326.55 165 Q313.5 165 304.25 156.2 295.05 147.45 295.05 135 295.05 122.55 304.25 113.75 313.5 105 326.55 105 L346.05 105 346.05 110 326.55 110 Q315.85 110 308.15 116.9 L307.7 117.4 Q302.5 122.35 300.85 128.75 300.45 130.25 301 131.7 301.55 133.2 302.85 134.1 304.1 135 305.7 135 L346.05 135 346.05 165"/>
    <path stroke="none" fill="#F72D2D" d="M554.05 110 L573.55 110 Q584.6 110 592.35 117.4 597.55 122.35 599.25 128.75 599.65 130.25 599.1 131.7 598.55 133.2 597.25 134.1 595.95 135 594.4 135 L554.05 135 554.05 110 M346.05 135 L305.7 135 Q304.1 135 302.85 134.1 301.55 133.2 301 131.7 300.45 130.25 300.85 128.75 302.5 122.35 307.7 117.4 L308.15 116.9 Q315.85 110 326.55 110 L346.05 110 346.05 135"/>
    <path stroke="none" fill="#D0D0D0" d="M346.05 135 L554.05 135 554.05 165 346.05 165 346.05 135 M346.05 105 L554.05 105 554.05 110 346.05 110 346.05 105"/>
    <path stroke="none" fill="#E7E7E7" d="M346.05 135 L346.05 110 554.05 110 554.05 135 346.05 135"/>
    <path stroke="none" fill="#1EA7E1" d="M554.05 195 L573.55 195 Q586.6 195 595.8 203.75 605.05 212.55 605.05 225 605.05 237.45 595.8 246.2 586.6 255 573.55 255 L554.05 255 567.05 225 594.4 225 Q595.95 225 597.25 224.1 598.55 223.2 599.1 221.7 599.65 220.25 599.25 218.75 597.55 212.35 592.35 207.4 584.6 200 573.55 200 L556.25 200 554.05 195 M343.9 200 L326.55 200 Q315.85 200 308.15 206.9 L307.7 207.4 Q302.5 212.35 300.85 218.75 300.45 220.25 301 221.7 301.55 223.2 302.85 224.1 304.1 225 305.7 225 L333.05 225 346.05 255 326.55 255 Q313.5 255 304.25 246.2 295.05 237.45 295.05 225 295.05 212.55 304.25 203.75 313.5 195 326.55 195 L346.05 195 345.65 195.95 345.55 196.25 343.9 200"/>
    <path stroke="none" fill="#38BDF5" d="M556.25 200 L573.55 200 Q584.6 200 592.35 207.4 597.55 212.35 599.25 218.75 599.65 220.25 599.1 221.7 598.55 223.2 597.25 224.1 595.95 225 594.4 225 L567.05 225 556.25 200 M343.9 200 L333.05 225 305.7 225 Q304.1 225 302.85 224.1 301.55 223.2 301 221.7 300.45 220.25 300.85 218.75 302.5 212.35 307.7 207.4 L308.15 206.9 Q315.85 200 326.55 200 L343.9 200"/>
    <path stroke="none" fill="#12739C" d="M554.05 255 L573.55 255 Q586.6 255 595.8 246.2 605.05 237.45 605.05 225 605.05 212.55 595.8 203.75 586.6 195 573.55 195 L554.05 195 551.85 190 573.55 190 Q588.6 190 599.25 200.15 610.05 210.4 610.05 225 610.05 239.6 599.25 249.85 588.6 260 573.55 260 L551.85 260 554.05 255 M346.1 255 L348.25 260 326.55 260 Q311.5 260 300.8 249.85 290.05 239.6 290.05 225 290.05 210.4 300.8 200.15 L300.85 200.15 Q311.5 190 326.55 190 L348.25 190 346.1 195 346.05 195 326.55 195 Q313.5 195 304.25 203.75 295.05 212.55 295.05 225 295.05 237.45 304.25 246.2 313.5 255 326.55 255 L346.05 255 346.1 255"/>
    <path stroke="none" fill="#D0D0D0" d="M346.1 255 L346.05 255 333.05 225 567.05 225 554.05 255 346.1 255 M554.05 195 L556.25 200 343.9 200 345.55 196.25 345.65 195.95 346.05 195 346.1 195 554.05 195"/>
    <path stroke="none" fill="#E7E7E7" d="M556.25 200 L567.05 225 333.05 225 343.9 200 556.25 200"/>
    <path stroke="none" fill="#999999" d="M554.05 255 L551.85 260 348.25 260 346.1 255 554.05 255 M551.85 190 L554.05 195 346.1 195 348.25 190 551.85 190"/>
    <path stroke="none" fill="#1EA7E1" d="M346.05 285 L343.9 290 326.55 290 Q315.85 290 308.15 296.9 L307.7 297.4 Q302.5 302.35 300.85 308.75 300.45 310.25 301 311.7 301.55 313.2 302.85 314.1 304.1 315 305.7 315 L333.05 315 346.05 345 326.55 345 Q313.5 345 304.25 336.2 295.05 327.45 295.05 315 295.05 302.55 304.25 293.75 313.5 285 326.55 285 L346.05 285 M554.05 285 L573.55 285 Q586.6 285 595.8 293.75 605.05 302.55 605.05 315 605.05 327.45 595.8 336.2 586.6 345 573.55 345 L554.05 345 567.05 315 594.4 315 Q595.95 315 597.25 314.1 598.55 313.2 599.1 311.7 599.65 310.25 599.25 308.75 597.55 302.35 592.35 297.4 584.6 290 573.55 290 L556.25 290 554.05 285"/>
    <path stroke="none" fill="#38BDF5" d="M556.25 290 L573.55 290 Q584.6 290 592.35 297.4 597.55 302.35 599.25 308.75 599.65 310.25 599.1 311.7 598.55 313.2 597.25 314.1 595.95 315 594.4 315 L567.05 315 556.25 290 M343.9 290 L333.05 315 305.7 315 Q304.1 315 302.85 314.1 301.55 313.2 301 311.7 300.45 310.25 300.85 308.75 302.5 302.35 307.7 297.4 L308.15 296.9 Q315.85 290 326.55 290 L343.9 290"/>
    <path stroke="none" fill="#E7E7E7" d="M343.9 290 L556.25 290 567.05 315 333.05 315 343.9 290"/>
    <path stroke="none" fill="#D0D0D0" d="M554.05 345 L346.05 345 333.05 315 567.05 315 554.05 345 M346.05 285 L554.05 285 556.25 290 343.9 290 346.05 285"/>
    <path stroke="none" fill="#80BE1F" d="M66.5 525.15 L46.5 525.15 Q33.45 525.15 24.2 516.35 15 507.6 15 495.15 15 493.25 15.25 491.4 15.6 488.45 16.5 485.75 17.85 481.65 20.55 478.05 22.15 475.8 24.25 473.75 33.5 465 46.55 465 L66.5 465 Q68.15 466.9 69.65 469.4 L70.1 470.15 46.5 470.15 Q35.8 470.15 28.1 477.05 L27.65 477.55 Q25.4 479.7 23.8 482.15 22.2 484.6 21.3 487.3 L21.05 488.05 20.8 488.9 Q20.4 490.4 20.95 491.85 21.5 493.35 22.8 494.25 24.05 495.15 25.65 495.15 L76.05 495.15 Q76.05 510.15 69.65 520.75 68.15 523.25 66.5 525.15 M213.6 465 L233.55 465 Q246.6 465 255.8 473.75 265.05 482.55 265.05 495 L264.85 498.75 Q264.5 501.6 263.6 504.3 262.2 508.45 259.55 512.1 L255.75 516.35 Q246.55 525.15 233.5 525.15 L213.6 525.15 Q211.95 523.25 210.45 520.75 204.05 510.15 204.05 495.15 L254.35 495.15 Q255.9 495.15 257.2 494.25 258.5 493.35 259.05 491.85 L259.1 491.7 Q259.6 490.3 259.2 488.9 257.5 482.5 252.3 477.55 244.55 470.15 233.5 470.15 L210 470.15 210.45 469.4 Q211.95 466.9 213.6 465"/>
    <path stroke="none" fill="#8DCD29" d="M76.05 495.15 L25.65 495.15 Q24.05 495.15 22.8 494.25 21.5 493.35 20.95 491.85 20.4 490.4 20.8 488.9 L21.05 488.05 21.3 487.3 Q22.2 484.6 23.8 482.15 25.4 479.7 27.65 477.55 L28.1 477.05 Q35.8 470.15 46.5 470.15 L70.1 470.15 Q76.05 480.6 76.05 495.1 L76.05 495.15 M204.05 495.15 L204.05 495.1 Q204.05 480.6 210 470.15 L233.5 470.15 Q244.55 470.15 252.3 477.55 257.5 482.5 259.2 488.9 259.6 490.3 259.1 491.7 L259.05 491.85 Q258.5 493.35 257.2 494.25 255.9 495.15 254.35 495.15 L204.05 495.15"/>
    <path stroke="none" fill="#D0D0D0" d="M204.05 495.15 Q204.05 510.15 210.45 520.75 211.95 523.25 213.6 525.15 L66.5 525.15 Q68.15 523.25 69.65 520.75 76.05 510.15 76.05 495.15 L204.05 495.15 M66.5 465 L213.6 465 Q211.95 466.9 210.45 469.4 L210 470.15 70.1 470.15 69.65 469.4 Q68.15 466.9 66.5 465"/>
    <path stroke="none" fill="#E7E7E7" d="M76.05 495.15 L76.05 495.1 Q76.05 480.6 70.1 470.15 L210 470.15 Q204.05 480.6 204.05 495.1 L204.05 495.15 76.05 495.15"/>
    <path stroke="none" fill="#D0D0D0" d="M70.1 380.15 L69.8 379.7 69.65 379.4 Q68.15 376.9 66.5 375 L213.6 375 Q211.95 376.9 210.45 379.4 L210 380.15 70.1 380.15 M76.05 405.15 L204.05 405.15 Q204.05 411.95 205.35 417.85 L206 420.45 Q207.15 424.4 208.9 427.95 L210.45 430.75 Q211.95 433.25 213.6 435.15 L66.5 435.15 68.9 431.95 69.65 430.75 71.2 427.95 Q76.05 418.2 76.05 405.15"/>
    <path stroke="none" fill="#80BE1F" d="M76.05 405.15 Q76.05 418.2 71.2 427.95 L69.65 430.75 68.9 431.95 66.5 435.15 46.5 435.15 Q34.7 435.15 26 427.95 L24.2 426.35 Q15 417.6 15 405.15 15 403.25 15.25 401.4 15.6 398.45 16.5 395.75 17.7 392.15 19.9 388.95 L20.55 388.05 Q22.15 385.8 24.25 383.75 33.5 375 46.55 375 L66.5 375 Q68.15 376.9 69.65 379.4 L69.8 379.7 70.1 380.15 46.5 380.15 Q35.8 380.15 28.1 387.05 L27.65 387.55 26.3 388.95 Q24.9 390.5 23.8 392.15 22.2 394.6 21.3 397.3 L21.05 398.05 20.8 398.9 Q20.4 400.4 20.95 401.85 21.5 403.35 22.8 404.25 24.05 405.15 25.65 405.15 L76.05 405.15 M210 380.15 L210.45 379.4 Q211.95 376.9 213.6 375 L233.55 375 Q246.6 375 255.8 383.75 258.4 386.2 260.25 388.95 265.05 396.05 265.05 405 L264.85 408.75 Q264.5 411.6 263.6 414.3 262.2 418.45 259.55 422.1 L255.75 426.35 253.95 427.95 Q245.3 435.15 233.5 435.15 L213.6 435.15 Q211.95 433.25 210.45 430.75 L208.9 427.95 Q207.15 424.4 206 420.45 L205.35 417.85 Q204.05 411.95 204.05 405.15 L254.35 405.15 Q255.9 405.15 257.2 404.25 258.5 403.35 259.05 401.85 L259.1 401.7 Q259.6 400.3 259.2 398.9 257.75 393.4 253.7 388.95 L252.3 387.55 Q244.55 380.15 233.5 380.15 L210 380.15"/>
    <path stroke="none" fill="#8DCD29" d="M210 380.15 L233.5 380.15 Q244.55 380.15 252.3 387.55 L253.7 388.95 Q257.75 393.4 259.2 398.9 259.6 400.3 259.1 401.7 L259.05 401.85 Q258.5 403.35 257.2 404.25 255.9 405.15 254.35 405.15 L204.05 405.15 204.05 405.1 204.05 404.9 204.9 394.6 Q205.45 391.65 206.25 388.95 207.65 384.25 210 380.15 M76.05 405.15 L25.65 405.15 Q24.05 405.15 22.8 404.25 21.5 403.35 20.95 401.85 20.4 400.4 20.8 398.9 L21.05 398.05 21.3 397.3 Q22.2 394.6 23.8 392.15 24.9 390.5 26.3 388.95 L27.65 387.55 28.1 387.05 Q35.8 380.15 46.5 380.15 L70.1 380.15 Q72.45 384.25 73.85 388.95 76.05 396.3 76.05 405.1 L76.05 405.15"/>
    <path stroke="none" fill="#628E1C" d="M63.15 370 L66.5 375 46.55 375 Q33.5 375 24.25 383.75 22.15 385.8 20.55 388.05 L19.9 388.95 Q17.7 392.15 16.5 395.75 15.6 398.45 15.25 401.4 15 403.25 15 405.15 15 417.6 24.2 426.35 L26 427.95 Q34.7 435.15 46.5 435.15 L66.5 435.15 63.05 440.15 46.5 440.15 Q31.45 440.15 20.75 430 L18.8 427.95 Q10 418.3 10 405.15 10 402.9 10.3 400.75 L10.3 400.8 Q10.7 397.35 11.75 394.2 12.65 391.45 14.05 388.95 15.1 387 16.5 385.15 L16.55 385.05 Q18.35 382.5 20.75 380.2 L20.85 380.15 Q31.5 370 46.55 370 L63.15 370 M213.6 435.15 L233.5 435.15 Q245.3 435.15 253.95 427.95 L255.75 426.35 259.55 422.1 Q262.2 418.45 263.6 414.3 264.5 411.6 264.85 408.75 L265.05 405 Q265.05 396.05 260.25 388.95 258.4 386.2 255.8 383.75 246.6 375 233.55 375 L213.6 375 217.2 370 233.55 370 Q248.6 370 259.25 380.15 263.55 384.2 266.15 388.95 270.05 396.2 270.05 405 L269.85 409.3 269.85 409.35 Q269.4 412.7 268.35 415.9 266.7 420.75 263.6 425.05 L263.55 425.1 261.2 427.95 259.2 430 Q248.55 440.15 233.5 440.15 L216.75 440.15 213.6 435.15"/>
    <path stroke="none" fill="#999999" d="M213.6 435.15 L216.75 440.15 63.05 440.15 66.5 435.15 213.6 435.15 M213.6 375 L66.5 375 63.15 370 217.2 370 213.6 375"/>
    <path stroke="none" fill="#E7E7E7" d="M70.1 380.15 L210 380.15 Q207.65 384.25 206.25 388.95 205.45 391.65 204.9 394.6 L204.05 404.9 204.05 405.1 204.05 405.15 76.05 405.15 76.05 405.1 Q76.05 396.3 73.85 388.95 72.45 384.25 70.1 380.15"/>
    <path stroke="none" fill="#80BE1F" d="M544.05 405.15 L594.35 405.15 Q595.9 405.15 597.2 404.25 598.5 403.35 599.05 401.85 L599.1 401.7 Q599.6 400.3 599.2 398.9 597.75 393.4 593.7 388.95 L592.3 387.55 Q584.55 380.15 573.5 380.15 L550 380.15 550.45 379.4 Q551.95 376.9 553.6 375 L573.55 375 Q586.6 375 595.8 383.75 598.4 386.2 600.25 388.95 605.05 396.05 605.05 405 L604.85 408.75 Q604.5 411.6 603.6 414.3 602.2 418.45 599.55 422.1 L595.75 426.35 593.95 427.95 Q585.3 435.15 573.5 435.15 L553.6 435.15 Q551.95 433.25 550.45 430.75 L548.9 427.95 Q547.25 424.65 546.15 421 L546 420.45 545.35 417.85 Q544.7 414.85 544.35 411.6 544.05 408.45 544.05 405.15 M356.05 405.15 Q356.05 418.2 351.2 427.95 L349.65 430.75 348.9 431.95 346.5 435.15 326.5 435.15 Q314.7 435.15 306 427.95 L304.2 426.35 Q295 417.6 295 405.15 295 403.25 295.25 401.4 295.6 398.45 296.5 395.75 297.7 392.15 299.9 388.95 L300.55 388.05 Q302.15 385.8 304.25 383.75 313.5 375 326.55 375 L346.5 375 Q348.15 376.9 349.65 379.4 L349.8 379.7 350.1 380.15 326.5 380.15 Q315.8 380.15 308.1 387.05 L307.65 387.55 306.3 388.95 Q304.9 390.5 303.8 392.15 302.2 394.6 301.3 397.3 L301.05 398.05 300.8 398.9 Q300.4 400.4 300.95 401.85 301.5 403.35 302.8 404.25 304.05 405.15 305.65 405.15 L356.05 405.15"/>
    <path stroke="none" fill="#8DCD29" d="M356.05 405.15 L305.65 405.15 Q304.05 405.15 302.8 404.25 301.5 403.35 300.95 401.85 300.4 400.4 300.8 398.9 L301.05 398.05 301.3 397.3 Q302.2 394.6 303.8 392.15 304.9 390.5 306.3 388.95 L307.65 387.55 308.1 387.05 Q315.8 380.15 326.5 380.15 L350.1 380.15 Q352.45 384.25 353.85 388.95 356.05 396.3 356.05 405.1 L356.05 405.15 M550 380.15 L573.5 380.15 Q584.55 380.15 592.3 387.55 L593.7 388.95 Q597.75 393.4 599.2 398.9 599.6 400.3 599.1 401.7 L599.05 401.85 Q598.5 403.35 597.2 404.25 595.9 405.15 594.35 405.15 L544.05 405.15 544.05 405.1 544.05 404.9 544.9 394.6 Q545.45 391.7 546.25 389.1 L546.25 388.95 Q547.65 384.25 550 380.15"/>
    <path stroke="none" fill="#628E1C" d="M553.6 435.15 L573.5 435.15 Q585.3 435.15 593.95 427.95 L595.75 426.35 599.55 422.1 Q602.2 418.45 603.6 414.3 604.5 411.6 604.85 408.75 L605.05 405 Q605.05 396.05 600.25 388.95 598.4 386.2 595.8 383.75 586.6 375 573.55 375 L553.6 375 557.2 370 573.55 370 Q588.6 370 599.25 380.15 603.55 384.2 606.15 388.95 610.05 396.2 610.05 405 L609.85 409.3 609.85 409.35 Q609.4 412.7 608.35 415.9 606.7 420.75 603.6 425.05 L603.55 425.1 601.2 427.95 599.2 430 Q588.55 440.15 573.5 440.15 L556.75 440.15 553.6 435.15 M346.5 375 L326.55 375 Q313.5 375 304.25 383.75 302.15 385.8 300.55 388.05 L299.9 388.95 Q297.7 392.15 296.5 395.75 295.6 398.45 295.25 401.4 295 403.25 295 405.15 295 417.6 304.2 426.35 L306 427.95 Q314.7 435.15 326.5 435.15 L346.5 435.15 343.05 440.15 326.5 440.15 Q311.45 440.15 300.75 430 L298.8 427.95 Q290 418.3 290 405.15 290 402.9 290.3 400.75 290.7 397.35 291.75 394.2 292.65 391.45 294.05 388.95 295.1 387 296.5 385.15 L296.55 385.05 Q298.35 382.5 300.75 380.2 L300.85 380.15 Q311.5 370 326.55 370 L343.15 370 346.5 375"/>
    <path stroke="none" fill="#E7E7E7" d="M550 380.15 Q547.65 384.25 546.25 388.95 L546.25 389.1 Q545.45 391.7 544.9 394.6 L544.05 404.9 544.05 405.1 544.05 405.15 356.05 405.15 356.05 405.1 Q356.05 396.3 353.85 388.95 352.45 384.25 350.1 380.15 L550 380.15"/>
    <path stroke="none" fill="#D0D0D0" d="M550 380.15 L350.1 380.15 349.8 379.7 349.65 379.4 Q348.15 376.9 346.5 375 L553.6 375 Q551.95 376.9 550.45 379.4 L550 380.15 M544.05 405.15 Q544.05 408.45 544.35 411.6 544.7 414.85 545.35 417.85 L546 420.45 546.15 421 Q547.25 424.65 548.9 427.95 L550.45 430.75 Q551.95 433.25 553.6 435.15 L346.5 435.15 348.9 431.95 349.65 430.75 351.2 427.95 Q356.05 418.2 356.05 405.15 L544.05 405.15"/>
    <path stroke="none" fill="#999999" d="M346.5 435.15 L553.6 435.15 556.75 440.15 343.05 440.15 346.5 435.15 M557.2 370 L553.6 375 346.5 375 343.15 370 557.2 370"/>
    <path stroke="none" fill="#80BE1F" d="M553.6 465 L573.55 465 Q586.6 465 595.8 473.75 605.05 482.55 605.05 495 L604.85 498.75 Q604.5 501.6 603.6 504.3 602.2 508.45 599.55 512.1 L595.75 516.35 Q586.55 525.15 573.5 525.15 L553.6 525.15 Q551.95 523.25 550.45 520.75 545.45 512.5 544.4 501.6 544.05 498.45 544.05 495.15 L594.35 495.15 Q595.9 495.15 597.2 494.25 598.5 493.35 599.05 491.85 L599.1 491.7 Q599.6 490.3 599.2 488.9 597.5 482.5 592.3 477.55 584.55 470.15 573.5 470.15 L550 470.15 550.45 469.4 Q551.95 466.9 553.6 465 M346.5 525.15 L326.5 525.15 Q313.45 525.15 304.2 516.35 295 507.6 295 495.15 295 493.25 295.25 491.4 295.6 488.45 296.5 485.75 297.85 481.65 300.55 478.05 302.15 475.8 304.25 473.75 313.5 465 326.55 465 L346.5 465 Q348.15 466.9 349.65 469.4 L350.1 470.15 326.5 470.15 Q315.8 470.15 308.1 477.05 L307.65 477.55 Q305.4 479.7 303.8 482.15 302.2 484.6 301.3 487.3 L301.05 488.05 300.8 488.9 Q300.4 490.4 300.95 491.85 301.5 493.35 302.8 494.25 304.05 495.15 305.65 495.15 L356.05 495.15 Q356.05 510.15 349.65 520.75 348.15 523.25 346.5 525.15"/>
    <path stroke="none" fill="#8DCD29" d="M550 470.15 L573.5 470.15 Q584.55 470.15 592.3 477.55 597.5 482.5 599.2 488.9 599.6 490.3 599.1 491.7 L599.05 491.85 Q598.5 493.35 597.2 494.25 595.9 495.15 594.35 495.15 L544.05 495.15 544.05 495.1 Q544.05 491.7 544.4 488.55 545.45 478.15 550 470.15 M356.05 495.15 L305.65 495.15 Q304.05 495.15 302.8 494.25 301.5 493.35 300.95 491.85 300.4 490.4 300.8 488.9 L301.05 488.05 301.3 487.3 Q302.2 484.6 303.8 482.15 305.4 479.7 307.65 477.55 L308.1 477.05 Q315.8 470.15 326.5 470.15 L350.1 470.15 Q356.05 480.6 356.05 495.1 L356.05 495.15"/>
    <path stroke="none" fill="#D0D0D0" d="M356.05 495.15 L544.05 495.15 Q544.05 498.45 544.4 501.6 545.45 512.5 550.45 520.75 551.95 523.25 553.6 525.15 L346.5 525.15 Q348.15 523.25 349.65 520.75 356.05 510.15 356.05 495.15 M346.5 465 L553.6 465 Q551.95 466.9 550.45 469.4 L550 470.15 350.1 470.15 349.65 469.4 Q348.15 466.9 346.5 465"/>
    <path stroke="none" fill="#E7E7E7" d="M350.1 470.15 L550 470.15 Q545.45 478.15 544.4 488.55 544.05 491.7 544.05 495.1 L544.05 495.15 356.05 495.15 356.05 495.1 Q356.05 480.6 350.1 470.15"/>
  </g>
</svg>