<svg xmlns="http://www.w3.org/2000/svg" xmlns:xlink="http://www.w3.org/1999/xlink">
  <defs>
    <linearGradient gradientUnits="userSpaceOnUse" x1="-819.2" x2="819.2" spreadMethod="pad" gradientTransform="matrix(0 -0.076263427734375 0.017852783203125 0 718.55 146.45)" id="gradient0">
      <stop offset="0" stop-color="#FFFFFF" stop-opacity="0"/>
      <stop offset="1" stop-color="#FFFFFF"/>
    </linearGradient>
    <linearGradient gradientUnits="userSpaceOnUse" x1="-819.2" x2="819.2" spreadMethod="pad" gradientTransform="matrix(0 -0.076263427734375 0.017852783203125 0 718.55 286.45)" id="gradient1">
      <stop offset="0" stop-color="#FFCC00" stop-opacity="0"/>
      <stop offset="1" stop-color="#FFCC00"/>
    </linearGradient>
    <linearGradient gradientUnits="userSpaceOnUse" x1="-819.2" x2="819.2" spreadMethod="pad" gradientTransform="matrix(0 0.07635498046875 -0.076263427734375 0 718.55 426.4)" id="gradient2">
      <stop offset="0" stop-color="#B1EBFF"/>
      <stop offset="1" stop-color="#B1EBFF" stop-opacity="0"/>
    </linearGradient>
  </defs>
  <g>
    <path stroke="none" fill="#FFFFFF" d="M233 123.4 Q237.15 125 240.6 128.45 244.05 131.9 245.65 136.1 L264.25 138 Q280.55 140.5 280.55 144 280.55 147.5 264.25 150 L245.65 151.95 Q244.05 156.1 240.6 159.55 237.15 163 233 164.6 232.35 174.8 231.05 183.25 228.55 199.5 225.05 199.5 221.55 199.5 219.05 183.25 217.75 174.8 217.15 164.6 212.95 163 209.5 159.55 206.05 156.1 204.45 151.95 L185.8 150 Q169.55 147.5 169.55 144 169.55 140.5 185.8 138 194.25 136.7 204.45 136.1 206.05 131.9 209.5 128.45 212.95 125 217.15 123.4 217.75 113.2 219.05 104.75 221.55 88.5 225.05 88.5 228.55 88.5 231.05 104.75 232.35 113.2 233 123.4"/>
    <path stroke="none" fill="#FFFFFF" d="M500.65 98.25 Q502.25 98.8 503.2 100.35 L517.1 122.95 542.9 129.15 Q544.6 129.55 545.7 130.95 546.75 132.35 546.7 134.15 546.65 135.9 545.5 137.25 L528.3 157.5 530.4 183.95 Q530.5 185.7 529.55 187.2 528.5 188.65 526.85 189.15 L523.5 189 498.95 178.8 474.35 189 471.05 189.15 Q469.35 188.65 468.35 187.2 467.35 185.7 467.5 183.95 L469.55 157.5 452.35 137.25 Q451.2 135.9 451.15 134.15 451.1 132.35 452.2 130.95 453.25 129.55 455 129.15 L480.8 122.95 494.7 100.35 Q495.65 98.8 497.3 98.25 498.95 97.65 500.65 98.25"/>
    <path stroke="none" fill="#FFFFFF" fill-opacity="0.2" d="M634.5 143.85 Q634.5 139.1 631.15 135.7 627.8 132.35 623 132.35 618.25 132.35 614.9 135.7 611.5 139.1 611.5 143.85 611.5 148.6 614.9 152 618.25 155.35 623 155.35 627.8 155.35 631.15 152 634.5 148.6 634.5 143.85 M668.5 143.85 Q668.5 162.7 655.15 176 641.85 189.35 623 189.35 604.15 189.35 590.8 176 577.5 162.7 577.5 143.85 577.5 125 590.8 111.65 604.15 98.35 623 98.35 641.85 98.35 655.15 111.65 668.5 125 668.5 143.85"/>
    <path stroke="none" fill="#FFFFFF" d="M634.5 143.85 Q634.5 148.6 631.15 152 627.8 155.35 623 155.35 618.25 155.35 614.9 152 611.5 148.6 611.5 143.85 611.5 139.1 614.9 135.7 618.25 132.35 623 132.35 627.8 132.35 631.15 135.7 634.5 139.1 634.5 143.85"/>
    <path stroke="none" fill="#FFFFFF" fill-opacity="0.2" d="M380.5 124.1 Q385.95 129.55 387.8 136.5 L399.55 137.95 Q415.8 140.5 415.8 144.15 415.8 147.8 399.55 150.35 L387.85 151.8 Q385.95 158.75 380.5 164.25 375.05 169.7 368.05 171.6 367.5 177.8 366.6 183.3 364.05 199.5 360.4 199.5 356.75 199.5 354.2 183.3 353.35 177.8 352.75 171.55 345.85 169.7 340.35 164.25 334.9 158.75 333.05 151.8 L321.25 150.35 Q305.05 147.8 305.05 144.15 305.05 140.5 321.25 137.95 L333.05 136.5 Q334.9 129.55 340.35 124.1 345.85 118.65 352.75 116.75 353.35 110.5 354.2 105 356.75 88.75 360.4 88.75 364.05 88.75 366.6 105 367.5 110.5 368.05 116.75 375.05 118.65 380.5 124.1 M377.05 144.15 Q377.05 137.25 372.2 132.35 367.3 127.5 360.4 127.5 353.5 127.5 348.65 132.35 343.75 137.25 343.75 144.15 343.75 151 348.65 155.9 353.5 160.8 360.4 160.8 367.3 160.8 372.2 155.9 377.05 151 377.05 144.15"/>
    <path stroke="none" fill="#FFFFFF" d="M377.05 144.15 Q377.05 151 372.2 155.9 367.3 160.8 360.4 160.8 353.5 160.8 348.65 155.9 343.75 151 343.75 144.15 343.75 137.25 348.65 132.35 353.5 127.5 360.4 127.5 367.3 127.5 372.2 132.35 377.05 137.25 377.05 144.15"/>
    <path stroke="none" fill="url(#gradient0)" d="M718.55 83.95 Q724.65 83.95 728.9 88.25 733.2 92.55 733.2 98.6 L733.2 194.3 Q733.2 200.35 728.9 204.65 724.65 208.9 718.55 208.9 712.5 208.9 708.2 204.65 703.95 200.35 703.95 194.3 L703.95 98.6 Q703.95 92.55 708.2 88.25 712.5 83.95 718.55 83.95"/>
    <path stroke="none" fill="#FFFFFF" d="M880.05 143 Q880.05 146.75 863.5 149.4 853 151.1 839.75 151.75 L845.2 158.65 Q851.7 167.6 849.9 169.35 848.15 171.1 839.2 164.65 835.9 162.2 832.3 159.2 831.65 172.45 830 182.95 827.35 199.5 823.55 199.5 819.8 199.5 817.15 182.95 815.5 172.45 814.9 159.2 L807.95 164.65 Q799 171.1 797.25 169.35 795.45 167.6 801.95 158.65 804.4 155.3 807.4 151.75 794.15 151.1 783.6 149.4 767.05 146.75 767.05 143 767.05 139.25 783.6 136.6 794.15 134.95 807.4 134.3 L801.95 127.35 Q795.45 118.4 797.2 116.7 799 114.9 807.95 121.4 L814.9 126.85 Q815.5 113.55 817.15 103.05 819.8 86.5 823.55 86.5 827.35 86.5 830 103.05 831.65 113.55 832.3 126.85 835.9 123.8 839.2 121.4 848.15 114.9 849.95 116.65 851.7 118.4 845.2 127.35 L839.75 134.3 Q853 134.95 863.5 136.6 880.05 139.25 880.05 143"/>
    <path stroke="none" fill="#FFFFFF" d="M1004.25 137.7 Q1020.5 140.3 1020.5 144 1020.5 147.7 1004.25 150.3 991.2 152.4 973.8 152.8 973.4 170.2 971.3 183.25 968.7 199.5 965 199.5 961.3 199.5 958.7 183.25 956.6 170.2 956.25 152.8 938.85 152.4 925.8 150.3 909.5 147.7 909.5 144 909.5 140.3 925.8 137.7 938.85 135.6 956.25 135.25 956.6 117.85 958.7 104.75 961.3 88.5 965 88.5 968.7 88.5 971.3 104.75 973.4 117.85 973.8 135.25 991.2 135.6 1004.25 137.7"/>
    <path stroke="none" fill="#FFCC00" d="M264.25 278 Q280.55 280.5 280.55 284 280.55 287.5 264.25 290 L245.65 291.95 Q244.05 296.1 240.6 299.55 237.15 303 233 304.6 232.35 314.8 231.05 323.25 228.55 339.5 225.05 339.5 221.55 339.5 219.05 323.25 217.75 314.8 217.15 304.6 212.95 303 209.5 299.55 206.05 296.1 204.45 291.95 L185.8 290 Q169.55 287.5 169.55 284 169.55 280.5 185.8 278 194.25 276.7 204.45 276.1 206.05 271.9 209.5 268.45 212.95 265 217.15 263.4 217.75 253.2 219.05 244.75 221.55 228.5 225.05 228.5 228.55 228.5 231.05 244.75 232.35 253.2 233 263.4 237.15 265 240.6 268.45 244.05 271.9 245.65 276.1 L264.25 278"/>
    <path stroke="none" fill="#FFCC00" fill-opacity="0.2" d="M343.75 284.15 Q343.75 291 348.65 295.9 353.5 300.8 360.4 300.8 367.3 300.8 372.2 295.9 377.05 291 377.05 284.15 377.05 277.25 372.2 272.35 367.3 267.5 360.4 267.5 353.5 267.5 348.65 272.35 343.75 277.25 343.75 284.15 M360.4 228.75 Q364.05 228.75 366.6 245 367.5 250.5 368.05 256.75 375.05 258.65 380.5 264.1 385.95 269.55 387.8 276.5 L399.55 277.95 Q415.8 280.5 415.8 284.15 415.8 287.8 399.55 290.35 L387.85 291.8 Q385.95 298.75 380.5 304.25 375.05 309.7 368.05 311.6 367.5 317.8 366.6 323.3 364.05 339.5 360.4 339.5 356.75 339.5 354.2 323.3 353.35 317.8 352.75 311.55 345.85 309.7 340.35 304.25 334.9 298.75 333.05 291.8 L321.25 290.35 Q305.05 287.8 305.05 284.15 305.05 280.5 321.25 277.95 L333.05 276.5 Q334.9 269.55 340.35 264.1 345.85 258.65 352.75 256.75 353.35 250.5 354.2 245 356.75 228.75 360.4 228.75"/>
    <path stroke="none" fill="#FFCC00" d="M343.75 284.15 Q343.75 277.25 348.65 272.35 353.5 267.5 360.4 267.5 367.3 267.5 372.2 272.35 377.05 277.25 377.05 284.15 377.05 291 372.2 295.9 367.3 300.8 360.4 300.8 353.5 300.8 348.65 295.9 343.75 291 343.75 284.15"/>
    <path stroke="none" fill="#FFCC00" d="M480.8 262.95 L494.7 240.35 Q495.65 238.8 497.3 238.25 498.95 237.65 500.65 238.25 502.25 238.8 503.2 240.35 L517.1 262.95 542.9 269.15 Q544.6 269.55 545.7 270.95 546.75 272.35 546.7 274.15 546.65 275.9 545.5 277.25 L528.3 297.5 530.4 323.95 Q530.5 325.7 529.55 327.2 528.5 328.65 526.85 329.15 L523.5 329 498.95 318.8 474.35 329 471.05 329.15 Q469.35 328.65 468.35 327.2 467.35 325.7 467.5 323.95 L469.55 297.5 452.35 277.25 Q451.2 275.9 451.15 274.15 451.1 272.35 452.2 270.95 453.25 269.55 455 269.15 L480.8 262.95"/>
    <path stroke="none" fill="#FFCC00" fill-opacity="0.2" d="M668.5 283.85 Q668.5 302.7 655.15 316 641.85 329.35 623 329.35 604.15 329.35 590.8 316 577.5 302.7 577.5 283.85 577.5 265 590.8 251.65 604.15 238.35 623 238.35 641.85 238.35 655.15 251.65 668.5 265 668.5 283.85 M623 295.35 Q627.8 295.35 631.15 292 634.5 288.6 634.5 283.85 634.5 279.1 631.15 275.7 627.8 272.35 623 272.35 618.25 272.35 614.9 275.7 611.5 279.1 611.5 283.85 611.5 288.6 614.9 292 618.25 295.35 623 295.35"/>
    <path stroke="none" fill="#FFCC00" d="M623 295.35 Q618.25 295.35 614.9 292 611.5 288.6 611.5 283.85 611.5 279.1 614.9 275.7 618.25 272.35 623 272.35 627.8 272.35 631.15 275.7 634.5 279.1 634.5 283.85 634.5 288.6 631.15 292 627.8 295.35 623 295.35"/>
    <path stroke="none" fill="url(#gradient1)" d="M718.55 223.95 Q724.65 223.95 728.9 228.25 733.2 232.55 733.2 238.6 L733.2 334.3 Q733.2 340.35 728.9 344.65 724.65 348.9 718.55 348.9 712.5 348.9 708.2 344.65 703.95 340.35 703.95 334.3 L703.95 238.6 Q703.95 232.55 708.2 228.25 712.5 223.95 718.55 223.95"/>
    <path stroke="none" fill="#FFCC00" d="M797.2 256.7 Q799 254.9 807.95 261.4 L814.9 266.85 Q815.5 253.55 817.15 243.05 819.8 226.5 823.55 226.5 827.35 226.5 830 243.05 831.65 253.55 832.3 266.85 835.9 263.8 839.2 261.4 848.15 254.9 849.95 256.65 851.7 258.4 845.2 267.35 L839.75 274.3 Q853 274.95 863.5 276.6 880.05 279.25 880.05 283 880.05 286.75 863.5 289.4 853 291.1 839.75 291.75 L845.2 298.65 Q851.7 307.6 849.9 309.35 848.15 311.1 839.2 304.65 835.9 302.2 832.3 299.2 831.65 312.45 830 322.95 827.35 339.5 823.55 339.5 819.8 339.5 817.15 322.95 815.5 312.45 814.9 299.2 L807.95 304.65 Q799 311.1 797.25 309.35 795.45 307.6 801.95 298.65 804.4 295.3 807.4 291.75 794.15 291.1 783.6 289.4 767.05 286.75 767.05 283 767.05 279.25 783.6 276.6 794.15 274.95 807.4 274.3 L801.95 267.35 Q795.45 258.4 797.2 256.7"/>
    <path stroke="none" fill="#FFCC00" d="M1004.25 277.7 Q1020.5 280.3 1020.5 284 1020.5 287.7 1004.25 290.3 991.2 292.4 973.8 292.8 973.4 310.2 971.3 323.25 968.7 339.5 965 339.5 961.3 339.5 958.7 323.25 956.6 310.2 956.25 292.8 938.85 292.4 925.8 290.3 909.5 287.7 909.5 284 909.5 280.3 925.8 277.7 938.85 275.6 956.25 275.25 956.6 257.85 958.7 244.75 961.3 228.5 965 228.5 968.7 228.5 971.3 244.75 973.4 257.85 973.8 275.25 991.2 275.6 1004.25 277.7"/>
    <path stroke="none" fill="#B1EBFF" d="M225.05 368.5 Q228.55 368.5 231.05 384.75 232.35 393.2 233 403.4 237.15 405 240.6 408.45 244.05 411.9 245.65 416.1 L264.25 418 Q280.55 420.5 280.55 424 280.55 427.5 264.25 430 L245.65 431.95 Q244.05 436.1 240.6 439.55 237.15 443 233 444.6 232.35 454.8 231.05 463.25 228.55 479.5 225.05 479.5 221.55 479.5 219.05 463.25 217.75 454.8 217.15 444.6 212.95 443 209.5 439.55 206.05 436.1 204.45 431.95 L185.8 430 Q169.55 427.5 169.55 424 169.55 420.5 185.8 418 194.25 416.7 204.45 416.1 206.05 411.9 209.5 408.45 212.95 405 217.15 403.4 217.75 393.2 219.05 384.75 221.55 368.5 225.05 368.5"/>
    <path stroke="none" fill="#B1EBFF" fill-opacity="0.2" d="M360.4 368.75 Q364.05 368.75 366.6 385 367.5 390.5 368.05 396.75 375.05 398.65 380.5 404.1 385.95 409.55 387.8 416.5 L399.55 417.95 Q415.8 420.5 415.8 424.15 415.8 427.8 399.55 430.35 L387.85 431.8 Q385.95 438.75 380.5 444.25 375.05 449.7 368.05 451.6 367.5 457.8 366.6 463.3 364.05 479.5 360.4 479.5 356.75 479.5 354.2 463.3 353.35 457.8 352.75 451.55 345.85 449.7 340.35 444.25 334.9 438.75 333.05 431.8 L321.25 430.35 Q305.05 427.8 305.05 424.15 305.05 420.5 321.25 417.95 L333.05 416.5 Q334.9 409.55 340.35 404.1 345.85 398.65 352.75 396.75 353.35 390.5 354.2 385 356.75 368.75 360.4 368.75 M377.05 424.15 Q377.05 417.25 372.2 412.35 367.3 407.5 360.4 407.5 353.5 407.5 348.65 412.35 343.75 417.25 343.75 424.15 343.75 431 348.65 435.9 353.5 440.8 360.4 440.8 367.3 440.8 372.2 435.9 377.05 431 377.05 424.15"/>
    <path stroke="none" fill="#B1EBFF" d="M377.05 424.15 Q377.05 431 372.2 435.9 367.3 440.8 360.4 440.8 353.5 440.8 348.65 435.9 343.75 431 343.75 424.15 343.75 417.25 348.65 412.35 353.5 407.5 360.4 407.5 367.3 407.5 372.2 412.35 377.05 417.25 377.05 424.15"/>
    <path stroke="none" fill="#B1EBFF" fill-opacity="0.2" d="M655.15 456 Q641.85 469.35 623 469.35 604.15 469.35 590.8 456 577.5 442.7 577.5 423.85 577.5 405 590.8 391.65 604.15 378.35 623 378.35 641.85 378.35 655.15 391.65 668.5 405 668.5 423.85 668.5 442.7 655.15 456 M623 435.35 Q627.8 435.35 631.15 432 634.5 428.6 634.5 423.85 634.5 419.1 631.15 415.7 627.8 412.35 623 412.35 618.25 412.35 614.9 415.7 611.5 419.1 611.5 423.85 611.5 428.6 614.9 432 618.25 435.35 623 435.35"/>
    <path stroke="none" fill="#B1EBFF" d="M623 435.35 Q618.25 435.35 614.9 432 611.5 428.6 611.5 423.85 611.5 419.1 614.9 415.7 618.25 412.35 623 412.35 627.8 412.35 631.15 415.7 634.5 419.1 634.5 423.85 634.5 428.6 631.15 432 627.8 435.35 623 435.35"/>
    <path stroke="none" fill="#B1EBFF" d="M500.65 378.25 Q502.25 378.8 503.2 380.35 L517.1 402.95 542.9 409.15 Q544.6 409.55 545.7 410.95 546.75 412.35 546.7 414.15 546.65 415.9 545.5 417.25 L528.3 437.5 530.4 463.95 Q530.5 465.7 529.55 467.2 528.5 468.65 526.85 469.15 L523.5 469 498.95 458.8 474.35 469 471.05 469.15 Q469.35 468.65 468.35 467.2 467.35 465.7 467.5 463.95 L469.55 437.5 452.35 417.25 Q451.2 415.9 451.15 414.15 451.1 412.35 452.2 410.95 453.25 409.55 455 409.15 L480.8 402.95 494.7 380.35 Q495.65 378.8 497.3 378.25 498.95 377.65 500.65 378.25"/>
    <path stroke="none" fill="url(#gradient2)" d="M718.55 363.95 Q724.65 363.95 728.9 368.25 733.2 372.55 733.2 378.6 L733.2 474.3 Q733.2 480.35 728.9 484.65 724.65 488.9 718.55 488.9 712.5 488.9 708.2 484.65 703.95 480.35 703.95 474.3 L703.95 378.6 Q703.95 372.55 708.2 368.25 712.5 363.95 718.55 363.95"/>
    <path stroke="none" fill="#B1EBFF" d="M823.55 366.5 Q827.35 366.5 830 383.05 831.65 393.55 832.3 406.85 835.9 403.8 839.2 401.4 848.15 394.9 849.95 396.65 851.7 398.4 845.2 407.35 L839.75 414.3 Q853 414.95 863.5 416.6 880.05 419.25 880.05 423 880.05 426.75 863.5 429.4 853 431.1 839.75 431.75 L845.2 438.65 Q851.7 447.6 849.9 449.35 848.15 451.1 839.2 444.65 835.9 442.2 832.3 439.2 831.65 452.45 830 462.95 827.35 479.5 823.55 479.5 819.8 479.5 817.15 462.95 815.5 452.45 814.9 439.2 L807.95 444.65 Q799 451.1 797.25 449.35 795.45 447.6 801.95 438.65 804.4 435.3 807.4 431.75 794.15 431.1 783.6 429.4 767.05 426.75 767.05 423 767.05 419.25 783.6 416.6 794.15 414.95 807.4 414.3 L801.95 407.35 Q795.45 398.4 797.2 396.7 799 394.9 807.95 401.4 L814.9 406.85 Q815.5 393.55 817.15 383.05 819.8 366.5 823.55 366.5"/>
    <path stroke="none" fill="#B1EBFF" d="M965 368.5 Q968.7 368.5 971.3 384.75 973.4 397.85 973.8 415.25 991.2 415.6 1004.25 417.7 1020.5 420.3 1020.5 424 1020.5 427.7 1004.25 430.3 991.2 432.4 973.8 432.8 973.4 450.2 971.3 463.25 968.7 479.5 965 479.5 961.3 479.5 958.7 463.25 956.6 450.2 956.25 432.8 938.85 432.4 925.8 430.3 909.5 427.7 909.5 424 909.5 420.3 925.8 417.7 938.85 415.6 956.25 415.25 956.6 397.85 958.7 384.75 961.3 368.5 965 368.5"/>
  </g>
</svg>