<svg xmlns="http://www.w3.org/2000/svg" xmlns:xlink="http://www.w3.org/1999/xlink">
  <defs/>
  <g>
    <path stroke="none" fill="#527914" d="M120.05 360.1 L120 398.7 120 406.7 Q120 408.35 118.85 409.55 117.65 410.7 116 410.7 L104 410.7 Q102.35 410.7 101.2 409.55 100 408.35 100 406.75 90.95 407.4 88.05 414.45 L88.05 414.5 Q87.1 416.9 86.75 420 88.3 420.05 89.45 421.2 90.6 422.35 90.6 424 L90.6 436 Q90.6 437.65 89.45 438.85 88.25 440 86.6 440 L36 440 Q34.35 440 33.2 438.85 32 437.65 32 436 L32 423.95 Q32 422.3 33.2 421.15 34.35 419.95 36 419.95 L36 414.5 36 414.35 Q38.25 357.3 98.2 356 L98.25 356 99.85 356 100 356 Q100.05 354.4 101.2 353.3 102.35 352.1 104 352.1 L116.05 352.1 Q117.7 352.1 118.9 353.3 120.05 354.45 120.05 356.1 L120.05 360.1 M104 402.7 L104 406.7 116 406.7 116 398.7 116.05 360.1 116.05 356.1 104 356.1 104 360 99.85 360 98.25 360 Q42.2 361.2 40 414.5 L40 418.5 40 423.95 36 423.95 36 436 86.6 436 86.6 424 82.6 424 Q82.5 417.5 84.3 413 88 403.4 100.15 402.7 L104 402.7"/>
    <path stroke="none" fill="#80BE1F" d="M104 402.7 L104 364 104 360 104 356.1 116.05 356.1 116.05 360.1 116 398.7 116 406.7 104 406.7 104 402.7 M82.6 424 L86.6 424 86.6 436 36 436 36 423.95 40 423.95 82.6 424"/>
    <path stroke="none" fill="#B2F04F" d="M104 360 L104 364 99.85 364 98.25 364 Q42.2 365.2 40 418.5 L40 414.5 Q42.2 361.2 98.25 360 L99.85 360 104 360"/>
    <path stroke="none" fill="#A1E03D" d="M104 364 L104 402.7 100.15 402.7 Q88 403.4 84.3 413 82.5 417.5 82.6 424 L40 423.95 40 418.5 Q42.2 365.2 98.25 364 L99.85 364 104 364"/>
    <path stroke="none" fill="#527914" d="M148.05 402.65 Q154.55 402.55 159.05 404.35 168.65 408.05 169.35 420.2 L169.35 424.05 165.35 424.05 165.35 436.05 173.35 436.05 211.95 436.1 215.95 436.1 215.95 424.05 212.05 424.05 212.05 423.9 212.05 422.3 212.05 419.9 212.05 418.3 Q210.85 362.25 157.55 360.05 L148.1 360.05 148.1 356.05 136.05 356.05 136.05 406.65 148.05 406.65 148.05 402.65 M157.75 356.05 Q214.75 358.3 216.05 418.25 L216.05 418.3 216.05 419.9 216.05 420.05 Q217.65 420.1 218.8 421.25 219.95 422.4 219.95 424.05 L219.95 436.1 Q219.95 437.75 218.8 438.95 217.6 440.1 215.95 440.1 L211.95 440.1 173.35 440.05 165.35 440.05 Q163.7 440.05 162.55 438.9 161.35 437.7 161.35 436.05 L161.35 424.05 Q161.35 422.4 162.55 421.25 163.7 420.05 165.35 420.05 164.65 411 157.6 408.1 155.15 407.15 152.05 406.8 152 408.35 150.9 409.5 149.7 410.65 148.05 410.65 L136.05 410.65 Q134.4 410.65 133.25 409.5 132.05 408.3 132.05 406.65 L132.05 356.05 Q132.05 354.4 133.25 353.25 134.4 352.05 136.05 352.05 L148.1 352.05 Q149.75 352.05 150.95 353.25 152.1 354.4 152.1 356.05 L157.55 356.05 157.75 356.05"/>
    <path stroke="none" fill="#80BE1F" d="M148.05 402.65 L148.05 406.65 136.05 406.65 136.05 356.05 148.1 356.05 148.1 360.05 148.1 364.05 148.05 402.65 M212.05 424.05 L215.95 424.05 215.95 436.1 211.95 436.1 173.35 436.05 165.35 436.05 165.35 424.05 169.35 424.05 212.05 424.05"/>
    <path stroke="none" fill="#B2F04F" d="M148.1 364.05 L148.1 360.05 157.55 360.05 Q210.85 362.25 212.05 418.3 L212.05 419.9 212.05 422.3 Q210.85 366.25 157.55 364.05 L148.1 364.05"/>
    <path stroke="none" fill="#A1E03D" d="M148.05 402.65 L148.1 364.05 157.55 364.05 Q210.85 366.25 212.05 422.3 L212.05 423.9 212.05 424.05 169.35 424.05 169.35 420.2 Q168.65 408.05 159.05 404.35 154.55 402.55 148.05 402.65"/>
    <path stroke="none" fill="#527914" d="M169.35 468.05 L169.35 471.9 Q168.65 484.05 159.05 487.75 154.55 489.55 148.05 489.45 L148.05 485.45 136.05 485.45 136.05 536.05 148.1 536.05 148.1 532.05 157.55 532.05 Q210.85 529.85 212.05 473.8 L212.05 472.2 212.05 468.05 215.95 468.05 215.95 456 211.95 456 173.35 456.05 165.35 456.05 165.35 468.05 169.35 468.05 M162.55 470.9 Q161.35 469.7 161.35 468.05 L161.35 456.05 Q161.35 454.4 162.55 453.25 163.7 452.05 165.35 452.05 L173.35 452.05 211.95 452 215.95 452 Q217.6 452 218.8 453.2 219.95 454.35 219.95 456 L219.95 468.05 Q219.95 469.7 218.8 470.9 217.65 472 216.05 472.05 L216.05 472.2 216.05 473.8 216.05 473.9 Q214.75 533.8 157.75 536.05 L157.55 536.05 152.1 536.05 Q152.1 537.7 150.95 538.9 149.75 540.05 148.1 540.05 L136.05 540.05 Q134.4 540.05 133.25 538.9 132.05 537.7 132.05 536.05 L132.05 485.45 Q132.05 483.8 133.25 482.65 134.4 481.45 136.05 481.45 L148.05 481.45 Q149.7 481.45 150.9 482.65 152 483.75 152.05 485.3 155.15 484.95 157.6 484.05 164.65 481.1 165.35 472.05 163.7 472.05 162.55 470.9"/>
    <path stroke="none" fill="#B2F04F" d="M148.05 489.45 Q154.55 489.55 159.05 487.75 168.65 484.05 169.35 471.9 L169.35 475.9 Q168.65 488.05 159.05 491.75 154.55 493.55 148.05 493.45 L148.05 489.45"/>
    <path stroke="none" fill="#A1E03D" d="M169.35 471.9 L169.35 468.05 212.05 468.05 212.05 472.2 212.05 473.8 Q210.85 529.85 157.55 532.05 L148.1 532.05 148.05 493.45 Q154.55 493.55 159.05 491.75 168.65 488.05 169.35 475.9 L169.35 471.9"/>
    <path stroke="none" fill="#80BE1F" d="M169.35 468.05 L165.35 468.05 165.35 456.05 173.35 456.05 211.95 456 215.95 456 215.95 468.05 212.05 468.05 169.35 468.05 M148.1 532.05 L148.1 536.05 136.05 536.05 136.05 485.45 148.05 485.45 148.05 489.45 148.05 493.45 148.1 532.05"/>
    <path stroke="none" fill="#527914" d="M82.6 469.8 L82.6 469.45 82.6 468.1 86.6 468.1 86.6 456.1 36 456.1 36 468.15 40 468.15 40 477.6 Q42.2 530.9 98.25 532.1 L99.85 532.1 104 532.1 104 536 116.05 536 116.05 532 116 493.4 116 485.4 104 485.4 104 489.4 100.15 489.4 Q88 488.7 84.3 479.1 82.75 475.2 82.6 469.8 M89.45 453.3 Q90.6 454.45 90.6 456.1 L90.6 468.1 Q90.6 469.75 89.45 470.95 88.3 472.05 86.75 472.1 87.1 475.2 88.05 477.65 90.95 484.7 100 485.4 100 483.75 101.2 482.6 102.35 481.4 104 481.4 L116 481.4 Q117.65 481.4 118.85 482.6 120 483.75 120 485.4 L120 493.4 120.05 532 120.05 536 Q120.05 537.65 118.9 538.85 117.7 540 116.05 540 L104 540 Q102.35 540 101.2 538.85 100.05 537.7 100 536.1 L99.85 536.1 98.25 536.1 98.2 536.1 Q38.25 534.8 36 477.8 L36 477.6 36 472.15 Q34.35 472.15 33.2 471 32 469.8 32 468.15 L32 456.1 Q32 454.45 33.2 453.3 34.35 452.1 36 452.1 L86.6 452.1 Q88.25 452.1 89.45 453.3"/>
    <path stroke="none" fill="#80BE1F" d="M40 468.15 L36 468.15 36 456.1 86.6 456.1 86.6 468.1 82.6 468.1 40 468.15 M104 489.4 L104 485.4 116 485.4 116 493.4 116.05 532 116.05 536 104 536 104 532.1 104 493.4 104 489.4"/>
    <path stroke="none" fill="#A1E03D" d="M82.6 468.1 L82.6 469.45 82.6 469.8 82.6 472.1 Q82.5 478.6 84.3 483.1 88 492.7 100.15 493.4 L104 493.4 104 532.1 99.85 532.1 98.25 532.1 Q42.2 530.9 40 477.6 L40 468.15 82.6 468.1"/>
    <path stroke="none" fill="#B2F04F" d="M82.6 469.8 Q82.75 475.2 84.3 479.1 88 488.7 100.15 489.4 L104 489.4 104 493.4 100.15 493.4 Q88 492.7 84.3 483.1 82.5 478.6 82.6 472.1 L82.6 469.8"/>
    <path stroke="none" fill="#527914" d="M242 356 Q242 354.35 243.2 353.2 244.35 352 246 352 L296.6 352.05 Q298.25 352.05 299.45 353.25 300.6 354.4 300.6 356.05 L300.6 368.05 Q300.6 369.7 299.45 370.9 298.25 372.05 296.6 372.05 L296.6 449.55 Q298.25 449.55 299.45 450.75 300.6 451.9 300.6 453.55 L300.6 465.55 Q300.6 467.2 299.45 468.4 298.25 469.55 296.6 469.55 L246 469.55 Q244.35 469.55 243.2 468.4 242 467.2 242 465.55 L242 453.5 Q242 451.85 243.2 450.7 244.35 449.5 246 449.5 L246.05 449.5 246.05 372.05 246 372.05 Q244.35 372.05 243.2 370.9 242 369.7 242 368.05 L242 356 M292.6 368.05 L296.6 368.05 296.6 356.05 246 356 246 368.05 250.05 368.05 250.05 453.5 246 453.5 246 465.55 296.6 465.55 296.6 453.55 292.6 453.55 292.6 368.05"/>
    <path stroke="none" fill="#80BE1F" d="M292.6 368.05 L250.05 368.05 246 368.05 246 356 296.6 356.05 296.6 368.05 292.6 368.05 M292.6 453.55 L296.6 453.55 296.6 465.55 246 465.55 246 453.5 250.05 453.5 292.6 453.55"/>
    <path stroke="none" fill="#A1E03D" d="M292.6 453.55 L250.05 453.5 250.05 368.05 292.6 368.05 292.6 453.55"/>
    <path stroke="none" fill="#527914" d="M339.05 360.05 L339.05 356 327 356 327 406.6 339 406.6 339 402.6 424.5 402.6 424.5 406.6 436.5 406.6 436.55 356 424.5 356 424.5 360.05 339.05 360.05 M339.05 352 Q340.7 352 341.9 353.2 343.05 354.35 343.05 356 L343.05 356.05 420.5 356.05 420.5 356 Q420.5 354.35 421.7 353.2 422.85 352 424.5 352 L436.55 352 Q438.2 352 439.4 353.2 440.55 354.35 440.55 356 L440.5 406.6 Q440.5 408.25 439.35 409.45 438.15 410.6 436.5 410.6 L424.5 410.6 Q422.85 410.6 421.7 409.45 420.5 408.25 420.5 406.6 L343 406.6 Q343 408.25 341.85 409.45 340.65 410.6 339 410.6 L327 410.6 Q325.35 410.6 324.2 409.45 323 408.25 323 406.6 L323 356 Q323 354.35 324.2 353.2 325.35 352 327 352 L339.05 352"/>
    <path stroke="none" fill="#80BE1F" d="M339 402.6 L339 406.6 327 406.6 327 356 339.05 356 339.05 360.05 339.05 364.05 339 402.6 M424.5 360.05 L424.5 356 436.55 356 436.5 406.6 424.5 406.6 424.5 402.6 424.5 364.05 424.5 360.05"/>
    <path stroke="none" fill="#B2F04F" d="M424.5 360.05 L424.5 364.05 339.05 364.05 339.05 360.05 424.5 360.05"/>
    <path stroke="none" fill="#A1E03D" d="M339 402.6 L339.05 364.05 424.5 364.05 424.5 402.6 339 402.6"/>
    <path stroke="none" fill="#527914" d="M674.3 368.05 Q674.3 369.7 673.15 370.9 671.95 372.05 670.3 372.05 L670.3 385.5 683.75 385.5 683.75 385.45 Q683.75 383.8 684.95 382.65 686.1 381.45 687.75 381.45 L699.8 381.45 Q701.45 381.45 702.65 382.65 703.8 383.8 703.8 385.45 L703.75 436.05 Q703.75 437.7 702.6 438.9 701.4 440.05 699.75 440.05 L687.75 440.05 Q686.1 440.05 684.95 438.9 683.75 437.7 683.75 436.05 L670.3 436.05 670.3 449.55 Q671.95 449.55 673.15 450.75 674.3 451.9 674.3 453.55 L674.3 465.55 Q674.3 467.2 673.15 468.4 671.95 469.55 670.3 469.55 L619.7 469.55 Q618.05 469.55 616.9 468.4 615.7 467.2 615.7 465.55 L615.7 453.5 Q615.7 451.85 616.9 450.7 618.05 449.5 619.7 449.5 L619.75 449.5 619.75 436.05 606.25 436.05 Q606.25 437.7 605.1 438.9 603.9 440.05 602.25 440.05 L590.25 440.05 Q588.6 440.05 587.45 438.9 586.25 437.7 586.25 436.05 L586.25 385.45 Q586.25 383.8 587.45 382.65 588.6 381.45 590.25 381.45 L602.3 381.45 Q603.95 381.45 605.15 382.65 606.3 383.8 606.3 385.45 L606.3 385.5 619.75 385.5 619.75 372.05 619.7 372.05 Q618.05 372.05 616.9 370.9 615.7 369.7 615.7 368.05 L615.7 356 Q615.7 354.35 616.9 353.2 618.05 352 619.7 352 L670.3 352.05 Q671.95 352.05 673.15 353.25 674.3 354.4 674.3 356.05 L674.3 368.05 M666.3 368.05 L670.3 368.05 670.3 356.05 619.7 356 619.7 368.05 623.75 368.05 623.75 389.5 602.3 389.5 602.3 385.45 590.25 385.45 590.25 436.05 602.25 436.05 602.25 432.05 623.75 432.05 623.75 453.5 619.7 453.5 619.7 465.55 670.3 465.55 670.3 453.55 666.3 453.55 666.3 432.05 687.75 432.05 687.75 436.05 699.75 436.05 699.8 385.45 687.75 385.45 687.75 389.5 666.3 389.5 666.3 368.05"/>
    <path stroke="none" fill="#80BE1F" d="M666.3 368.05 L623.75 368.05 619.7 368.05 619.7 356 670.3 356.05 670.3 368.05 666.3 368.05 M687.75 389.5 L687.75 385.45 699.8 385.45 699.75 436.05 687.75 436.05 687.75 432.05 687.75 393.5 687.75 389.5 M666.3 453.55 L670.3 453.55 670.3 465.55 619.7 465.55 619.7 453.5 623.75 453.5 666.3 453.55 M602.25 432.05 L602.25 436.05 590.25 436.05 590.25 385.45 602.3 385.45 602.3 389.5 602.3 393.5 602.25 432.05"/>
    <path stroke="none" fill="#B2F04F" d="M666.3 389.5 L687.75 389.5 687.75 393.5 666.3 393.5 666.3 389.5 M602.3 389.5 L623.75 389.5 623.75 393.5 602.3 393.5 602.3 389.5"/>
    <path stroke="none" fill="#A1E03D" d="M666.3 368.05 L666.3 389.5 666.3 393.5 687.75 393.5 687.75 432.05 666.3 432.05 666.3 453.55 623.75 453.5 623.75 432.05 602.25 432.05 602.3 393.5 623.75 393.5 623.75 389.5 623.75 368.05 666.3 368.05"/>
    <path stroke="none" fill="#527914" d="M478.6 356.05 L549.5 356.05 549.5 356 Q549.5 354.35 550.7 353.2 551.85 352 553.5 352 L565.55 352 Q567.2 352 568.4 353.2 569.55 354.35 569.55 356 L569.5 406.6 Q569.5 408.25 568.35 409.45 567.15 410.6 565.5 410.6 L553.5 410.6 Q551.85 410.6 550.7 409.45 549.5 408.25 549.5 406.6 L535.15 406.6 Q535.85 412.05 536 418.15 L536 418.25 536 419.85 536 420 Q537.6 420.05 538.75 421.2 539.9 422.35 539.9 424 L539.9 436.05 Q539.9 437.7 538.75 438.9 537.55 440.05 535.9 440.05 L531.9 440.05 493.3 440 485.3 440 Q483.65 440 482.5 438.85 481.3 437.65 481.3 436 L481.3 424 Q481.3 422.35 482.5 421.2 483.65 420 485.3 420 484.6 410.95 477.55 408.05 475.1 407.1 472 406.75 471.95 408.3 470.85 409.45 469.65 410.6 468 410.6 L456 410.6 Q454.35 410.6 453.2 409.45 452 408.25 452 406.6 L452 356 452.05 355.35 Q452.25 354.1 453.2 353.2 454.35 352 456 352 L468.05 352 Q469.7 352 470.9 353.2 472.05 354.35 472.05 356 L477.5 356 478.6 356.05 M553.5 360.05 L478.6 360.05 477.5 360 468.05 360 468.05 356 456 356 456 406.6 468 406.6 468 402.6 469.35 402.6 469.7 402.6 Q475.1 402.75 479 404.3 488.6 408 489.3 420.15 L489.3 424 485.3 424 485.3 436 493.3 436 531.9 436.05 535.9 436.05 535.9 424 532 424 532 423.85 532 422.25 532 419.85 532 418.25 Q531.8 409.8 530.45 402.6 L553.5 402.6 553.5 406.6 565.5 406.6 565.55 356 553.5 356 553.5 360.05"/>
    <path stroke="none" fill="#B2F04F" d="M553.5 360.05 L553.5 364.05 468.05 364.05 468.05 360 477.5 360 478.6 360.05 553.5 360.05 M530.45 402.6 Q531.8 409.8 532 418.25 L532 419.85 532 422.25 Q531.75 411.4 529.6 402.6 L530.45 402.6"/>
    <path stroke="none" fill="#80BE1F" d="M468.05 360 L468.05 364.05 468 402.6 468 406.6 456 406.6 456 356 468.05 356 468.05 360 M553.5 364.05 L553.5 360.05 553.5 356 565.55 356 565.5 406.6 553.5 406.6 553.5 402.6 553.5 364.05 M532 424 L535.9 424 535.9 436.05 531.9 436.05 493.3 436 485.3 436 485.3 424 489.3 424 532 424"/>
    <path stroke="none" fill="#A1E03D" d="M532 424 L489.3 424 489.3 420.15 Q488.6 408 479 404.3 475.1 402.75 469.7 402.6 L469.35 402.6 468 402.6 468.05 364.05 553.5 364.05 553.5 402.6 530.45 402.6 529.6 402.6 Q531.75 411.4 532 422.25 L532 423.85 532 424"/>
    <path stroke="none" fill="#A1E03D" d="M561.95 527.35 L561.95 528.7 561.95 529.05 561.95 531.35 Q561.85 537.85 563.65 542.35 565.15 546.25 568.1 548.7 572.3 552.25 579.5 552.65 L583.35 552.65 583.35 591.35 579.2 591.35 577.6 591.35 574.7 591.25 497.9 591.25 497.95 552.7 521.5 552.7 520.65 548.7 Q519.6 543.15 519.35 536.85 L519.35 527.4 561.95 527.35"/>
    <path stroke="none" fill="#B2F04F" d="M561.95 529.05 Q562.1 534.45 563.65 538.35 567.35 547.95 579.5 548.65 L583.35 548.65 583.35 552.65 579.5 552.65 Q572.3 552.25 568.1 548.7 565.15 546.25 563.65 542.35 561.85 537.85 561.95 531.35 L561.95 529.05 M497.95 548.7 L520.65 548.7 521.5 552.7 497.95 552.7 497.95 548.7"/>
    <path stroke="none" fill="#527914" d="M497.95 548.7 L497.95 544.65 485.9 544.65 485.9 595.25 497.9 595.25 497.9 591.25 574.7 591.25 577.6 591.35 579.2 591.35 583.35 591.35 583.35 595.25 595.4 595.25 595.45 544.65 583.35 544.65 583.35 548.65 579.5 548.65 Q567.35 547.95 563.65 538.35 562.1 534.45 561.95 529.05 L561.95 528.7 561.95 527.35 565.95 527.35 565.95 515.35 515.35 515.35 515.35 527.4 519.35 527.4 519.35 536.85 Q519.6 543.15 520.65 548.7 L497.95 548.7 M512.55 512.55 Q513.7 511.35 515.35 511.35 L565.95 511.35 Q567.6 511.35 568.8 512.55 569.95 513.7 569.95 515.35 L569.95 527.35 Q569.95 529 568.8 530.2 567.65 531.3 566.1 531.35 566.45 534.45 567.4 536.9 570.3 543.95 579.35 544.65 579.35 543 580.55 541.85 581.7 540.65 583.35 540.65 L595.45 540.65 Q597.1 540.65 598.3 541.85 599.45 543 599.45 544.65 L599.4 595.25 Q599.4 596.9 598.25 598.1 597.05 599.25 595.4 599.25 L583.35 599.25 Q581.7 599.25 580.55 598.1 579.4 596.95 579.35 595.35 L579.2 595.35 577.6 595.35 577.5 595.35 574.7 595.25 501.9 595.25 Q501.9 596.9 500.75 598.1 499.55 599.25 497.9 599.25 L485.9 599.25 Q484.25 599.25 483.1 598.1 481.9 596.9 481.9 595.25 L481.9 544.65 Q481.9 543 483.1 541.85 484.25 540.65 485.9 540.65 L497.95 540.65 Q499.6 540.65 500.8 541.85 501.95 543 501.95 544.65 L501.95 544.7 516 544.7 Q515.5 541 515.35 537 L515.35 536.85 515.35 531.4 Q513.7 531.4 512.55 530.25 511.35 529.05 511.35 527.4 L511.35 515.35 Q511.35 513.7 512.55 512.55"/>
    <path stroke="none" fill="#80BE1F" d="M519.35 527.4 L515.35 527.4 515.35 515.35 565.95 515.35 565.95 527.35 561.95 527.35 519.35 527.4 M583.35 548.65 L583.35 544.65 595.45 544.65 595.4 595.25 583.35 595.25 583.35 591.35 583.35 552.65 583.35 548.65 M497.9 591.25 L497.9 595.25 485.9 595.25 485.9 544.65 497.95 544.65 497.95 548.7 497.95 552.7 497.9 591.25"/>
    <path stroke="none" fill="#527914" d="M449.9 485.75 L449.9 497.75 Q449.9 499.4 448.75 500.6 447.55 501.75 445.9 501.75 L445.9 574.4 446 577.35 446 577.45 446 579.05 446 579.2 Q447.6 579.25 448.75 580.4 449.9 581.55 449.9 583.2 L449.9 595.25 Q449.9 596.9 448.75 598.1 447.55 599.25 445.9 599.25 L395.3 599.25 Q393.65 599.25 392.5 598.1 391.3 596.9 391.3 595.25 L391.3 583.2 Q391.3 581.55 392.5 580.4 393.65 579.2 395.3 579.2 394.6 570.15 387.55 567.25 385.1 566.3 382 565.95 381.95 567.5 380.85 568.65 379.65 569.8 378 569.8 L366 569.8 Q364.35 569.8 363.2 568.65 362 567.45 362 565.8 L362 515.2 Q362 513.55 363.2 512.4 364.35 511.2 366 511.2 L378.05 511.2 Q379.7 511.2 380.9 512.4 382.05 513.55 382.05 515.2 L387.5 515.2 387.65 515.2 395.35 515.85 395.35 501.75 395.3 501.75 Q393.65 501.75 392.5 500.6 391.3 499.4 391.3 497.75 L391.3 485.7 Q391.3 484.05 392.5 482.9 393.65 481.7 395.3 481.7 L445.9 481.75 Q447.55 481.75 448.75 482.95 449.9 484.1 449.9 485.75 M441.9 497.75 L445.9 497.75 445.9 485.75 395.3 485.7 395.3 497.75 399.35 497.75 399.35 520.5 Q393.8 519.45 387.5 519.2 L378.05 519.2 378.05 515.2 366 515.2 366 565.8 378 565.8 378 561.8 Q384.5 561.7 389 563.5 398.6 567.2 399.3 579.35 L399.3 583.2 395.3 583.2 395.3 595.25 445.9 595.25 445.9 583.2 442 583.2 442 583.05 442 581.45 442 579.05 442 577.45 441.9 574.55 441.9 497.75"/>
    <path stroke="none" fill="#80BE1F" d="M441.9 497.75 L399.35 497.75 395.3 497.75 395.3 485.7 445.9 485.75 445.9 497.75 441.9 497.75 M442 583.2 L445.9 583.2 445.9 595.25 395.3 595.25 395.3 583.2 399.3 583.2 441.9 583.25 441.9 583.2 442 583.2 M378 561.8 L378 565.8 366 565.8 366 515.2 378.05 515.2 378.05 519.2 378.05 523.2 378 561.8"/>
    <path stroke="none" fill="#B2F04F" d="M441.9 574.55 L442 577.45 442 579.05 442 581.45 441.9 578.55 441.9 574.55 M378.05 519.2 L387.5 519.2 Q393.8 519.45 399.35 520.5 L399.35 524.5 Q393.8 523.45 387.5 523.2 L378.05 523.2 378.05 519.2"/>
    <path stroke="none" fill="#A1E03D" d="M399.35 497.75 L441.9 497.75 441.9 574.55 441.9 578.55 442 581.45 442 583.05 442 583.2 441.9 583.2 441.9 583.25 399.3 583.2 399.3 579.35 Q398.6 567.2 389 563.5 384.5 561.7 378 561.8 L378.05 523.2 387.5 523.2 Q393.8 523.45 399.35 524.5 L399.35 520.5 399.35 497.75"/>
    <path stroke="none" fill="#527914" d="M246 481.55 L296.6 481.6 Q298.25 481.6 299.45 482.8 300.6 483.95 300.6 485.6 L300.6 497.6 Q300.6 499.25 299.45 500.45 298.25 501.6 296.6 501.6 L296.6 516 308.15 515.1 308.25 515.1 309.85 515.1 310 515.1 Q310.05 513.5 311.2 512.4 312.35 511.2 314 511.2 L326.05 511.2 Q327.7 511.2 328.9 512.4 330.05 513.55 330.05 515.2 L330.05 519.2 330 557.8 330 565.8 Q330 567.45 328.85 568.65 327.65 569.8 326 569.8 L314 569.8 Q312.35 569.8 311.2 568.65 310 567.45 310 565.85 300.95 566.5 298.05 573.55 L298.05 573.6 Q297.1 576 296.75 579.1 298.3 579.15 299.45 580.3 300.6 581.45 300.6 583.1 L300.6 595.1 Q300.6 596.75 299.45 597.95 298.25 599.1 296.6 599.1 L246 599.1 Q244.35 599.1 243.2 597.95 242 596.75 242 595.1 L242 583.05 Q242 581.4 243.2 580.25 244.35 579.05 246 579.05 L246 573.6 246.05 572.45 246.05 501.6 246 501.6 Q244.35 501.6 243.2 500.45 242 499.25 242 497.6 L242 485.55 Q242 483.9 243.2 482.75 244.35 481.55 246 481.55 M292.6 497.6 L296.6 497.6 296.6 485.6 246 485.55 246 497.6 250.05 497.6 250.05 572.55 250 573.6 250 577.25 250 583.05 246 583.05 246 595.1 296.6 595.1 296.6 583.1 292.6 583.1 292.6 581.75 292.6 581.4 Q292.75 576 294.3 572.1 298 562.5 310.15 561.8 L314 561.8 314 565.8 326 565.8 326 557.8 326.05 519.2 326.05 515.2 314 515.2 314 519.1 309.85 519.1 308.25 519.1 Q299.8 519.3 292.6 520.65 L292.6 497.6"/>
    <path stroke="none" fill="#80BE1F" d="M292.6 497.6 L250.05 497.6 246 497.6 246 485.55 296.6 485.6 296.6 497.6 292.6 497.6 M314 519.1 L314 515.2 326.05 515.2 326.05 519.2 326 557.8 326 565.8 314 565.8 314 561.8 314 523.1 314 519.1 M292.6 583.1 L296.6 583.1 296.6 595.1 246 595.1 246 583.05 250 583.05 292.6 583.1"/>
    <path stroke="none" fill="#B2F04F" d="M292.6 520.65 Q299.8 519.3 308.25 519.1 L309.85 519.1 314 519.1 314 523.1 309.85 523.1 308.25 523.1 Q299.8 523.3 292.6 524.65 L292.6 520.65 M250 577.25 L250 573.6 250.05 572.55 250.05 576.55 250 577.25"/>
    <path stroke="none" fill="#A1E03D" d="M250 577.25 L250.05 576.55 250.05 572.55 250.05 497.6 292.6 497.6 292.6 520.65 292.6 524.65 Q299.8 523.3 308.25 523.1 L309.85 523.1 314 523.1 314 561.8 310.15 561.8 Q298 562.5 294.3 572.1 292.75 576 292.6 581.4 L292.6 581.75 292.6 583.1 250 583.05 250 577.25"/>
    <path stroke="none" fill="#80BE1F" d="M399.35 217.75 L395.3 217.75 395.3 205.7 445.9 205.75 445.9 217.75 441.9 217.75 399.35 217.75 M442 303.2 L445.9 303.2 445.9 315.25 395.3 315.25 395.3 303.2 399.3 303.2 441.9 303.25 441.9 303.2 442 303.2 M378 281.8 L378 285.8 366 285.8 366 235.2 378.05 235.2 378.05 239.2 378.05 243.2 378 281.8"/>
    <path stroke="none" fill="#A1E03D" d="M378 281.8 L378.05 243.2 387.5 243.2 Q393.8 243.45 399.35 244.5 L399.35 240.5 399.35 217.75 441.9 217.75 441.9 294.55 441.9 298.55 442 301.45 442 303.05 442 303.2 441.9 303.2 441.9 303.25 399.3 303.2 399.3 299.35 Q398.6 287.2 389 283.5 384.5 281.7 378 281.8"/>
    <path stroke="none" fill="#B2F04F" d="M441.9 294.55 L442 297.45 442 299.05 442 301.45 441.9 298.55 441.9 294.55 M378.05 239.2 L387.5 239.2 Q393.8 239.45 399.35 240.5 L399.35 244.5 Q393.8 243.45 387.5 243.2 L378.05 243.2 378.05 239.2"/>
    <path stroke="none" fill="#80BE1F" d="M497.9 311.25 L497.9 315.25 485.9 315.25 485.9 264.65 497.95 264.65 497.95 268.7 497.95 272.7 497.9 311.25 M519.35 247.4 L515.35 247.4 515.35 235.35 565.95 235.35 565.95 247.35 561.95 247.35 519.35 247.4 M583.35 268.65 L583.35 264.65 595.45 264.65 595.4 315.25 583.35 315.25 583.35 311.35 583.35 272.65 583.35 268.65"/>
    <path stroke="none" fill="#B2F04F" d="M497.95 268.7 L520.65 268.7 521.5 272.7 497.95 272.7 497.95 268.7 M561.95 249.05 Q562.1 254.45 563.65 258.35 567.35 267.95 579.5 268.65 L583.35 268.65 583.35 272.65 579.5 272.65 Q572.3 272.25 568.1 268.7 565.15 266.25 563.65 262.35 561.85 257.85 561.95 251.35 L561.95 249.05"/>
    <path stroke="none" fill="#A1E03D" d="M561.95 249.05 L561.95 251.35 Q561.85 257.85 563.65 262.35 565.15 266.25 568.1 268.7 572.3 272.25 579.5 272.65 L583.35 272.65 583.35 311.35 579.2 311.35 577.6 311.35 574.7 311.25 497.9 311.25 497.95 272.7 521.5 272.7 520.65 268.7 Q519.6 263.15 519.35 256.85 L519.35 247.4 561.95 247.35 561.95 248.7 561.95 249.05"/>
    <path stroke="none" fill="#80BE1F" d="M623.75 88.05 L619.7 88.05 619.7 76 670.3 76.05 670.3 88.05 666.3 88.05 623.75 88.05 M687.75 109.5 L687.75 105.45 699.8 105.45 699.75 156.05 687.75 156.05 687.75 152.05 687.75 113.5 687.75 109.5 M666.3 173.55 L670.3 173.55 670.3 185.55 619.7 185.55 619.7 173.5 623.75 173.5 666.3 173.55 M602.25 152.05 L602.25 156.05 590.25 156.05 590.25 105.45 602.3 105.45 602.3 109.5 602.3 113.5 602.25 152.05"/>
    <path stroke="none" fill="#B2F04F" d="M666.3 109.5 L687.75 109.5 687.75 113.5 666.3 113.5 666.3 109.5 M602.3 109.5 L623.75 109.5 623.75 113.5 602.3 113.5 602.3 109.5"/>
    <path stroke="none" fill="#A1E03D" d="M666.3 88.05 L666.3 109.5 666.3 113.5 687.75 113.5 687.75 152.05 666.3 152.05 666.3 173.55 623.75 173.5 623.75 152.05 602.25 152.05 602.3 113.5 623.75 113.5 623.75 109.5 623.75 88.05 666.3 88.05"/>
    <path stroke="none" fill="#80BE1F" d="M553.5 80.05 L553.5 76 565.55 76 565.5 126.6 553.5 126.6 553.5 122.6 553.5 84.05 553.5 80.05 M532 144 L535.9 144 535.9 156.05 531.9 156.05 493.3 156 485.3 156 485.3 144 489.3 144 532 144 M468 122.6 L468 126.6 456 126.6 456 76 468.05 76 468.05 80 468.05 84.05 468 122.6"/>
    <path stroke="none" fill="#B2F04F" d="M553.5 80.05 L553.5 84.05 468.05 84.05 468.05 80 477.5 80 478.6 80.05 553.5 80.05 M530.45 122.6 Q531.8 129.8 532 138.25 L532 139.85 532 142.25 Q531.75 131.4 529.6 122.6 L530.45 122.6"/>
    <path stroke="none" fill="#A1E03D" d="M530.45 122.6 L529.6 122.6 Q531.75 131.4 532 142.25 L532 143.85 532 144 489.3 144 489.3 140.15 Q488.6 128 479 124.3 475.1 122.75 469.7 122.6 L469.35 122.6 468 122.6 468.05 84.05 553.5 84.05 553.5 122.6 530.45 122.6"/>
    <path stroke="none" fill="#80BE1F" d="M424.5 80.05 L424.5 76 436.55 76 436.5 126.6 424.5 126.6 424.5 122.6 424.5 84.05 424.5 80.05 M339 122.6 L339 126.6 327 126.6 327 76 339.05 76 339.05 80.05 339.05 84.05 339 122.6"/>
    <path stroke="none" fill="#B2F04F" d="M424.5 80.05 L424.5 84.05 339.05 84.05 339.05 80.05 424.5 80.05"/>
    <path stroke="none" fill="#A1E03D" d="M424.5 84.05 L424.5 122.6 339 122.6 339.05 84.05 424.5 84.05"/>
    <path stroke="none" fill="#80BE1F" d="M250.05 88.05 L246 88.05 246 76 296.6 76.05 296.6 88.05 292.6 88.05 250.05 88.05 M292.6 173.55 L296.6 173.55 296.6 185.55 246 185.55 246 173.5 250.05 173.5 292.6 173.55"/>
    <path stroke="none" fill="#A1E03D" d="M250.05 88.05 L292.6 88.05 292.6 173.55 250.05 173.5 250.05 88.05"/>
    <path stroke="none" fill="#80BE1F" d="M314 239.1 L314 235.2 326.05 235.2 326.05 239.2 326 277.8 326 285.8 314 285.8 314 281.8 314 243.1 314 239.1 M292.6 303.1 L296.6 303.1 296.6 315.1 246 315.1 246 303.05 250 303.05 292.6 303.1 M250.05 217.6 L246 217.6 246 205.55 296.6 205.6 296.6 217.6 292.6 217.6 250.05 217.6"/>
    <path stroke="none" fill="#B2F04F" d="M314 239.1 L314 243.1 309.85 243.1 308.25 243.1 Q299.8 243.3 292.6 244.65 L292.6 240.65 Q299.8 239.3 308.25 239.1 L309.85 239.1 314 239.1 M250 297.2 L250 293.6 250.05 292.55 250.05 296.55 250 297.2"/>
    <path stroke="none" fill="#A1E03D" d="M250 297.2 L250.05 296.55 250.05 292.55 250.05 217.6 292.6 217.6 292.6 240.65 292.6 244.65 Q299.8 243.3 308.25 243.1 L309.85 243.1 314 243.1 314 281.8 310.15 281.8 Q298 282.5 294.3 292.1 292.75 296 292.6 301.4 L292.6 301.75 292.6 303.1 250 303.05 250 297.2"/>
    <path stroke="none" fill="#B2F04F" d="M148.05 209.45 Q154.55 209.55 159.05 207.75 168.65 204.05 169.35 191.9 L169.35 195.9 Q168.65 208.05 159.05 211.75 154.55 213.55 148.05 213.45 L148.05 209.45"/>
    <path stroke="none" fill="#A1E03D" d="M169.35 191.9 L169.35 188.05 212.05 188.05 212.05 192.2 212.05 193.8 Q210.85 249.85 157.55 252.05 L148.1 252.05 148.05 213.45 Q154.55 213.55 159.05 211.75 168.65 208.05 169.35 195.9 L169.35 191.9"/>
    <path stroke="none" fill="#80BE1F" d="M169.35 188.05 L165.35 188.05 165.35 176.05 173.35 176.05 211.95 176 215.95 176 215.95 188.05 212.05 188.05 169.35 188.05 M148.1 252.05 L148.1 256.05 136.05 256.05 136.05 205.45 148.05 205.45 148.05 209.45 148.05 213.45 148.1 252.05"/>
    <path stroke="none" fill="#80BE1F" d="M148.1 80.05 L148.1 84.05 148.05 122.65 148.05 126.65 136.05 126.65 136.05 76.05 148.1 76.05 148.1 80.05 M212.05 144.05 L215.95 144.05 215.95 156.1 211.95 156.1 173.35 156.05 165.35 156.05 165.35 144.05 169.35 144.05 212.05 144.05"/>
    <path stroke="none" fill="#A1E03D" d="M212.05 144.05 L169.35 144.05 169.35 140.2 Q168.65 128.05 159.05 124.35 154.55 122.55 148.05 122.65 L148.1 84.05 157.55 84.05 Q210.85 86.25 212.05 142.3 L212.05 143.9 212.05 144.05"/>
    <path stroke="none" fill="#B2F04F" d="M148.1 80.05 L157.55 80.05 Q210.85 82.25 212.05 138.3 L212.05 139.9 212.05 142.3 Q210.85 86.25 157.55 84.05 L148.1 84.05 148.1 80.05"/>
    <path stroke="none" fill="#80BE1F" d="M104 84 L104 80 104 76.1 116.05 76.1 116.05 80.1 116 118.7 116 126.7 104 126.7 104 122.7 104 84 M40 143.95 L82.6 144 86.6 144 86.6 156 36 156 36 143.95 40 143.95"/>
    <path stroke="none" fill="#B2F04F" d="M104 84 L99.85 84 98.25 84 Q42.2 85.2 40 138.5 L40 134.5 Q42.2 81.2 98.25 80 L99.85 80 104 80 104 84"/>
    <path stroke="none" fill="#A1E03D" d="M40 138.5 Q42.2 85.2 98.25 84 L99.85 84 104 84 104 122.7 100.15 122.7 Q88 123.4 84.3 133 82.5 137.5 82.6 144 L40 143.95 40 138.5"/>
    <path stroke="none" fill="#80BE1F" d="M40 188.15 L36 188.15 36 176.1 86.6 176.1 86.6 188.1 82.6 188.1 40 188.15 M104 209.4 L104 205.4 116 205.4 116 213.4 116.05 252 116.05 256 104 256 104 252.1 104 213.4 104 209.4"/>
    <path stroke="none" fill="#A1E03D" d="M104 252.1 L99.85 252.1 98.25 252.1 Q42.2 250.9 40 197.6 L40 188.15 82.6 188.1 82.6 189.45 82.6 189.8 82.6 192.1 Q82.5 198.6 84.3 203.1 88 212.7 100.15 213.4 L104 213.4 104 252.1"/>
    <path stroke="none" fill="#B2F04F" d="M82.6 189.8 Q82.75 195.2 84.3 199.1 88 208.7 100.15 209.4 L104 209.4 104 213.4 100.15 213.4 Q88 212.7 84.3 203.1 82.5 198.6 82.6 192.1 L82.6 189.8"/>
    <path stroke="none" fill="#B2F04F" d="M1353.75 109.5 L1353.75 113.5 1332.3 113.5 1332.3 109.5 1353.75 109.5 M1417.75 113.5 L1396.3 113.5 1396.3 109.5 1417.75 109.5 1417.75 113.5 M1291.95 249.05 Q1292.1 254.45 1293.65 258.35 1297.35 267.95 1309.5 268.65 L1313.35 268.65 1313.35 272.65 1309.5 272.65 Q1302.3 272.25 1298.1 268.7 1295.15 266.25 1293.65 262.35 1291.85 257.85 1291.95 251.35 L1291.95 249.05 M1227.95 272.7 L1227.95 268.7 1250.65 268.7 1251.5 272.7 1227.95 272.7 M1198.05 84.05 L1198.05 80 1207.5 80 1208.6 80.05 1283.5 80.05 1283.5 84.05 1198.05 84.05 M1260.45 122.6 Q1261.8 129.8 1262 138.25 L1262 139.85 1262 142.25 Q1261.75 131.4 1259.6 122.6 L1260.45 122.6 M1069.05 84.05 L1069.05 80.05 1154.5 80.05 1154.5 84.05 1069.05 84.05 M1108.05 243.2 L1108.05 239.2 1117.5 239.2 1129.35 240.5 1129.35 244.5 1117.5 243.2 1108.05 243.2 M1171.9 294.55 L1172 297.45 1172 299.05 1172 301.45 1171.9 298.55 1171.9 294.55 M1044 243.1 L1039.85 243.1 1038.25 243.1 Q1029.8 243.3 1022.6 244.65 L1022.6 240.65 Q1029.8 239.3 1038.25 239.1 L1039.85 239.1 1044 239.1 1044 243.1 M980.05 292.55 L980.05 296.55 980 297.15 980 293.6 980.05 292.55"/>
    <path stroke="none" fill="#A1E03D" d="M980.05 292.55 L980.05 217.6 1022.6 217.6 1022.6 240.65 1022.6 244.65 Q1029.8 243.3 1038.25 243.1 L1039.85 243.1 1044 243.1 1044 281.8 1040.15 281.8 Q1028 282.5 1024.3 292.1 1022.75 296 1022.6 301.4 L1022.6 301.75 1022.6 303.1 980 303.05 980 297.15 980.05 296.55 980.05 292.55 M1332.3 113.5 L1353.75 113.5 1353.75 109.5 1353.75 88.05 1396.3 88.05 1396.3 109.5 1396.3 113.5 1417.75 113.5 1417.75 152.05 1396.3 152.05 1396.3 173.55 1353.75 173.5 1353.75 152.05 1332.25 152.05 1332.3 113.5 M1291.95 249.05 L1291.95 251.35 Q1291.85 257.85 1293.65 262.35 1295.15 266.25 1298.1 268.7 1302.3 272.25 1309.5 272.65 L1313.35 272.65 1313.35 311.35 1309.2 311.35 1307.6 311.35 1304.7 311.25 1227.9 311.25 1227.95 272.7 1251.5 272.7 1250.65 268.7 Q1249.6 263.15 1249.35 256.85 L1249.35 247.4 1291.95 247.35 1291.95 248.7 1291.95 249.05 M1283.5 84.05 L1283.5 122.6 1260.45 122.6 1259.6 122.6 Q1261.75 131.4 1262 142.25 L1262 143.85 1262 144 1219.3 144 1219.3 140.15 Q1218.6 128 1209 124.3 1205.1 122.75 1199.7 122.6 L1199.35 122.6 1198 122.6 1198.05 84.05 1283.5 84.05 M1154.5 84.05 L1154.5 122.6 1069 122.6 1069.05 84.05 1154.5 84.05 M1022.6 88.05 L1022.6 173.55 980.05 173.5 980.05 88.05 1022.6 88.05 M1108.05 243.2 L1117.5 243.2 1129.35 244.5 1129.35 240.5 1129.35 217.75 1171.9 217.75 1171.9 294.55 1171.9 298.55 1172 301.45 1172 303.05 1172 303.2 1171.9 303.2 1171.9 303.25 1129.3 303.2 1129.3 299.35 Q1128.6 287.2 1119 283.5 1114.5 281.7 1108 281.8 L1108.05 243.2"/>
    <path stroke="none" fill="#B2F04F" d="M770 138.5 L770 134.5 Q772.2 81.2 828.25 80 L829.85 80 834 80 834 84 829.85 84 828.25 84 Q772.2 85.2 770 138.5 M942.05 142.3 Q940.85 86.25 887.55 84.05 L878.1 84.05 878.1 80.05 887.55 80.05 Q940.85 82.25 942.05 138.3 L942.05 139.9 942.05 142.3 M834 213.4 L830.15 213.4 Q818 212.7 814.3 203.1 812.5 198.6 812.6 192.1 L812.6 189.8 Q812.75 195.2 814.3 199.1 818 208.7 830.15 209.4 L834 209.4 834 213.4 M899.35 191.9 L899.35 195.9 Q898.65 208.05 889.05 211.75 884.55 213.55 878.05 213.45 L878.05 209.45 Q884.55 209.55 889.05 207.75 898.65 204.05 899.35 191.9"/>
    <path stroke="none" fill="#A1E03D" d="M899.35 191.9 L899.35 188.05 942.05 188.05 942.05 192.2 942.05 193.8 Q940.85 249.85 887.55 252.05 L878.1 252.05 878.05 213.45 Q884.55 213.55 889.05 211.75 898.65 208.05 899.35 195.9 L899.35 191.9 M770 138.5 Q772.2 85.2 828.25 84 L829.85 84 834 84 834 122.7 830.15 122.7 Q818 123.4 814.3 133 812.5 137.5 812.6 144 L770 143.95 770 138.5 M878.1 84.05 L887.55 84.05 Q940.85 86.25 942.05 142.3 L942.05 143.9 942.05 144.05 899.35 144.05 899.35 140.2 Q898.65 128.05 889.05 124.35 884.55 122.55 878.05 122.65 L878.1 84.05 M812.6 189.8 L812.6 192.1 Q812.5 198.6 814.3 203.1 818 212.7 830.15 213.4 L834 213.4 834 252.1 829.85 252.1 828.25 252.1 Q772.2 250.9 770 197.6 L770 188.15 812.6 188.1 812.6 189.45 812.6 189.8"/>
    <path stroke="none" fill="#1EA7E1" d="M1388.3 88.05 L1388.3 109.5 Q1388.3 112.8 1390.65 115.15 1393 117.5 1396.3 117.5 L1417.75 117.5 Q1420 117.5 1421.8 116.45 L1421.75 145.1 Q1419.95 144.05 1417.75 144.05 L1396.3 144.05 Q1393 144.05 1390.65 146.4 1388.3 148.75 1388.3 152.05 L1388.3 173.55 Q1388.3 175.75 1389.35 177.55 L1360.7 177.55 Q1361.75 175.75 1361.75 173.5 L1361.75 152.05 Q1361.75 148.75 1359.4 146.4 1357.05 144.05 1353.75 144.05 L1332.25 144.05 Q1330.05 144.05 1328.25 145.1 L1328.25 116.45 Q1330.05 117.5 1332.3 117.5 L1353.75 117.5 Q1357.05 117.5 1359.4 115.15 1361.75 112.8 1361.75 109.5 L1361.75 88.05 Q1361.75 85.8 1360.7 84 L1389.35 84.05 Q1388.3 85.85 1388.3 88.05 M1309.5 276.65 L1313.35 276.65 Q1315.65 276.65 1317.45 275.55 L1317.4 304.45 Q1315.6 303.35 1313.35 303.35 L1309.2 303.35 1307.9 303.35 1305 303.25 1304.7 303.25 1227.9 303.25 Q1225.7 303.25 1223.9 304.3 L1223.9 275.65 Q1225.7 276.7 1227.95 276.7 L1250.65 276.7 Q1253.05 276.7 1255.1 275.35 1257.1 274 1258.05 271.8 1258.95 269.6 1258.5 267.25 1257.55 262.2 1257.35 256.55 L1257.35 247.4 Q1257.35 245.15 1256.3 243.35 L1285 243.35 Q1283.95 245.15 1283.95 247.35 L1283.95 248.7 1283.95 249.05 1283.95 249.3 Q1284.15 256.25 1286.25 261.3 L1286.2 261.25 Q1291.3 275.6 1309.05 276.65 L1309.5 276.65 M1287.55 87 L1287.5 115.65 Q1285.7 114.6 1283.5 114.6 L1260.45 114.6 Q1258.05 114.6 1256.05 115.95 1254 117.3 1253.1 119.5 1252.15 121.7 1252.6 124.1 1253.8 130.6 1254 138.25 L1254 139.85 1254 142.25 1254 143.85 1254 144 Q1254 146.25 1255.1 148.05 L1226.25 148 Q1227.3 146.2 1227.3 144 L1227.3 140.15 1227.3 139.7 Q1226.25 121.95 1211.9 116.85 L1211.95 116.9 Q1206.9 114.8 1199.95 114.6 L1199.7 114.6 1199.35 114.6 1198 114.6 Q1195.8 114.6 1194 115.65 L1194 86.95 Q1195.8 88 1198.05 88 L1207.5 88 1207.9 88.05 1208.6 88.05 1283.5 88.05 Q1285.75 88.05 1287.55 87 M1158.55 87 L1158.5 115.65 Q1156.7 114.6 1154.5 114.6 L1069 114.6 Q1066.8 114.6 1065 115.65 L1065 87 Q1066.8 88.05 1069.05 88.05 L1154.5 88.05 Q1156.75 88.05 1158.55 87 M987 84 L1015.65 84.05 Q1014.6 85.85 1014.6 88.05 L1014.6 173.55 Q1014.6 175.75 1015.65 177.55 L987 177.55 Q988.05 175.75 988.05 173.5 L988.05 88.05 Q988.05 85.8 987 84 M1108.05 247.2 L1117.2 247.2 1127.9 248.35 Q1130.25 248.8 1132.45 247.9 1134.65 246.95 1136 244.95 1137.35 242.9 1137.35 240.5 L1137.35 217.75 Q1137.35 215.5 1136.3 213.7 L1164.95 213.75 Q1163.9 215.55 1163.9 217.75 L1163.9 294.55 1163.9 294.85 1164 297.75 1164 299.05 1164 301.45 1164 303.05 1164 303.2 Q1164 305.45 1165.1 307.25 L1136.25 307.25 Q1137.3 305.45 1137.3 303.2 L1137.3 299.35 1137.3 298.9 Q1136.25 281.15 1121.9 276.05 L1122 276.1 Q1116.2 273.65 1107.9 273.8 1105.75 273.85 1104 274.85 L1104 246.15 Q1105.8 247.2 1108.05 247.2 M1014.6 240.65 Q1014.6 243.05 1015.95 245.1 1017.3 247.1 1019.5 248.05 1021.7 248.95 1024.1 248.55 1030.6 247.3 1038.25 247.1 L1039.85 247.1 1044 247.1 Q1046.25 247.1 1048.05 246.05 L1048 274.85 Q1046.2 273.8 1044 273.8 L1040.15 273.8 1039.7 273.85 Q1021.95 274.85 1016.85 289.25 L1016.9 289.15 Q1014.8 294.2 1014.6 301.2 L1014.6 301.4 1014.6 301.75 1014.6 303.1 Q1014.6 305.3 1015.65 307.1 L986.95 307.1 Q988 305.3 988 303.05 L988 293.6 988 293.35 988.05 292.55 988.05 217.6 Q988.05 215.35 987 213.55 L1015.65 213.6 Q1014.6 215.4 1014.6 217.6 L1014.6 240.65 M829.85 88 L838.05 88 838 114.7 830.15 114.7 829.7 114.75 Q811.95 115.75 806.85 130.15 L806.9 130.05 Q804.55 135.55 804.6 143.45 L804.6 144.15 804.6 148 778 148 778 134.85 Q780.05 89.1 828.25 88 L829.85 88 M874.05 88.05 L887.25 88.05 Q932.95 90.1 934.05 138.3 L934.05 139.9 934.05 142.3 934.05 143.9 934.05 148.1 907.35 148.05 907.35 140.2 907.35 139.75 Q906.3 122 891.95 116.9 L892.05 116.95 Q886.75 114.7 879.25 114.65 L877.95 114.65 874.05 114.65 874.05 88.05 M907.35 191.9 L907.35 184.05 934.05 184 934.05 192.2 934.05 193.65 Q933 242 887.25 244.05 L882.65 244.05 880.4 244.05 879.25 244.05 878.1 244.05 877.15 244.1 874.05 244.1 874.05 217.45 877.95 217.45 878.45 217.45 Q886.45 217.5 892.05 215.2 L891.95 215.25 Q906.3 210.1 907.35 192.35 L907.35 191.9 M804.6 184.1 L804.6 188.1 804.6 189.45 804.6 189.8 804.6 190.05 804.75 192.7 Q805.2 198 806.9 202.05 L806.85 202 Q811.95 216.35 829.7 217.4 L830.15 217.4 833.9 217.4 838 217.45 838.05 244.1 829.85 244.1 828.45 244.1 Q780.05 243.05 778 197.3 L778 184.1 804.6 184.1"/>
    <path stroke="none" fill="#80BE1F" d="M866.05 76.05 L878.1 76.05 878.05 126.65 866.05 126.65 866.05 76.05 M846.05 76.1 L846.05 80.1 846 118.7 846 126.7 834 126.7 834 76.1 846.05 76.1 M816.6 188.1 L766 188.15 766 176.1 816.6 176.1 816.6 188.1 M816.6 144 L816.6 156 766 156 766 143.95 816.6 144 M895.35 176.05 L903.35 176.05 941.95 176 945.95 176 945.95 188.05 895.35 188.05 895.35 176.05 M903.35 156.05 L895.35 156.05 895.35 144.05 945.95 144.05 945.95 156.1 941.95 156.1 903.35 156.05 M878.05 205.45 L878.1 256.05 866.05 256.05 866.05 205.45 878.05 205.45 M846 205.4 L846 213.4 846.05 252 846.05 256 834 256 834 205.4 846 205.4"/>
    <path stroke="none" fill="#2CB8F3" d="M1365.95 122.55 Q1367.05 122.55 1367.85 123.35 1368.7 124.15 1368.7 125.3 1368.7 126.4 1367.85 127.25 1367.05 128.05 1365.95 128.05 1364.8 128.05 1363.95 127.25 1363.15 126.45 1363.2 125.3 1363.15 124.15 1363.95 123.35 1364.8 122.5 1365.95 122.55 M1372.9 104.25 L1373 104.15 Q1374.6 102.55 1376.8 102.55 1379 102.6 1380.6 104.2 1382.2 105.8 1382.2 108 1382.2 110.2 1380.6 111.8 L1380.5 111.9 Q1378.95 113.45 1376.8 113.4 1374.55 113.45 1372.95 111.85 1371.35 110.25 1371.4 107.95 1371.35 105.85 1372.9 104.25 M1374.1 131.1 Q1376.3 131.15 1377.9 132.75 1379.5 134.35 1379.5 136.55 1379.5 138.75 1377.9 140.35 L1377.8 140.45 Q1376.25 142 1374.1 141.95 1371.85 142 1370.25 140.4 1368.65 138.8 1368.7 136.5 1368.65 134.4 1370.2 132.8 L1370.3 132.7 Q1371.9 131.1 1374.1 131.1 M1225 97.25 Q1227.35 97.2 1229.05 98.85 1230.7 100.55 1230.65 102.9 1230.7 105.2 1229.05 106.85 L1227.9 107.75 Q1226.65 108.5 1225 108.55 1222.7 108.55 1221.05 106.85 1219.35 105.2 1219.35 102.9 1219.4 101.25 1220.15 100 L1221.05 98.85 Q1222.7 97.2 1225 97.25 M1253.05 92.55 Q1253.9 93.35 1253.9 94.5 1253.9 95.6 1253.05 96.45 1252.25 97.25 1251.15 97.25 1250 97.25 1249.15 96.45 1248.35 95.65 1248.4 94.5 1248.35 93.35 1249.15 92.55 1250 91.7 1251.15 91.75 1252.25 91.75 1253.05 92.55 M1208.95 108.05 Q1207.8 108.05 1206.95 107.25 1206.15 106.45 1206.2 105.3 1206.15 104.15 1206.95 103.35 1207.8 102.5 1208.95 102.55 1210.05 102.55 1210.85 103.35 1211.7 104.15 1211.7 105.3 1211.7 106.4 1210.85 107.25 1210.05 108.05 1208.95 108.05 M1140.15 103.05 Q1141.3 103.05 1142.1 103.85 1142.9 104.65 1142.9 105.8 1142.9 106.95 1142.1 107.75 1141.3 108.55 1140.15 108.55 1139 108.55 1138.2 107.75 1137.4 106.95 1137.4 105.8 1137.4 104.65 1138.2 103.85 1139 103.05 1140.15 103.05 M1261.95 105.3 Q1260.8 105.3 1259.95 104.5 1259.15 103.7 1259.2 102.55 1259.15 101.4 1259.95 100.6 1260.8 99.75 1261.95 99.8 1263.05 99.8 1263.85 100.6 1264.7 101.4 1264.7 102.55 1264.7 103.65 1263.85 104.5 1263.05 105.3 1261.95 105.3 M1090.95 97.15 Q1090.95 94.9 1092.5 93.3 1094.1 91.75 1096.35 91.75 1098.1 91.75 1099.45 92.7 L1100.15 93.3 Q1101.75 94.9 1101.75 97.15 L1101.75 97.3 Q1101.7 99.45 1100.15 100.95 L1099.45 101.6 Q1098.1 102.55 1096.35 102.55 1094.1 102.55 1092.5 100.95 1091 99.45 1090.95 97.3 L1090.95 97.15 M1107.25 95.1 Q1108.05 94.3 1109.2 94.3 1110.35 94.3 1111.15 95.1 1111.95 95.9 1111.95 97.05 1111.95 98.2 1111.15 99 1110.35 99.8 1109.2 99.8 1108.05 99.8 1107.25 99 1106.45 98.2 1106.45 97.05 1106.45 95.9 1107.25 95.1 M1007.6 109.6 Q1007.25 111.05 1006.1 112.2 1004.45 113.85 1002.1 113.85 999.75 113.85 998.1 112.2 996.95 111.05 996.6 109.6 L996.45 108.2 Q996.45 105.85 998.1 104.2 999.75 102.55 1002.1 102.55 1004.45 102.55 1006.1 104.2 1007.75 105.85 1007.75 108.2 L1007.6 109.6 M994.7 121.1 Q995.85 121.1 996.65 121.9 997.45 122.7 997.45 123.85 997.45 125 996.65 125.8 995.85 126.6 994.7 126.6 993.55 126.6 992.75 125.8 991.95 125 991.95 123.85 991.95 122.7 992.75 121.9 993.55 121.1 994.7 121.1 M1007.25 133.6 Q1007.2 135.75 1005.65 137.25 1004.1 138.85 1001.85 138.85 999.6 138.85 998 137.25 996.5 135.75 996.45 133.6 L996.45 133.45 Q996.45 131.2 998 129.6 999.6 128.05 1001.85 128.05 1004.1 128.05 1005.65 129.6 1007.25 131.2 1007.25 133.45 L1007.25 133.6 M1004.85 245.6 Q1007.1 245.6 1008.65 247.15 1010.25 248.75 1010.25 251 L1010.25 251.15 Q1010.2 253.3 1008.65 254.8 1007.1 256.4 1004.85 256.4 1002.6 256.4 1001 254.8 999.5 253.3 999.45 251.15 L999.45 251 Q999.45 248.75 1001 247.15 1002.6 245.6 1004.85 245.6 M1004.75 283.5 L1004.75 283.65 Q1004.7 285.8 1003.15 287.3 1001.6 288.9 999.35 288.9 997.1 288.9 995.5 287.3 994 285.8 993.95 283.65 L993.95 283.5 Q993.95 281.25 995.5 279.65 997.1 278.1 999.35 278.1 1001.6 278.1 1003.15 279.65 1004.75 281.25 1004.75 283.5 M1014.75 255.8 Q1013.95 255 1013.95 253.85 1013.95 252.7 1014.75 251.9 1015.55 251.1 1016.7 251.1 1017.85 251.1 1018.65 251.9 1019.45 252.7 1019.45 253.85 1019.45 255 1018.65 255.8 1017.85 256.6 1016.7 256.6 1015.55 256.6 1014.75 255.8 M1255.4 279.8 L1255.5 279.7 Q1257.1 278.1 1259.3 278.1 1261.5 278.15 1263.1 279.75 1264.7 281.35 1264.7 283.55 1264.7 285.75 1263.1 287.35 L1263 287.45 Q1261.45 289 1259.3 288.95 1257.05 289 1255.45 287.4 1253.85 285.8 1253.9 283.5 1253.85 281.4 1255.4 279.8 M1248.35 284.2 Q1249.2 285 1249.2 286.15 1249.2 287.25 1248.35 288.1 1247.55 288.9 1246.45 288.9 1245.3 288.9 1244.45 288.1 1243.65 287.3 1243.7 286.15 1243.65 285 1244.45 284.2 1245.3 283.35 1246.45 283.4 1247.55 283.4 1248.35 284.2 M1281.6 270.15 L1281.5 270.25 Q1279.95 271.8 1277.8 271.75 1275.55 271.8 1273.95 270.2 1272.35 268.6 1272.4 266.3 1272.35 264.2 1273.9 262.6 L1274 262.5 Q1275.6 260.9 1277.8 260.9 1280 260.95 1281.6 262.55 1283.2 264.15 1283.2 266.35 1283.2 268.55 1281.6 270.15 M1155.85 231.3 Q1155.05 232.1 1153.95 232.1 1152.8 232.1 1151.95 231.3 1151.15 230.5 1151.2 229.35 1151.15 228.2 1151.95 227.4 1152.8 226.55 1153.95 226.6 1155.05 226.6 1155.85 227.4 1156.7 228.2 1156.7 229.35 1156.7 230.45 1155.85 231.3 M1146.9 258.45 Q1145.65 259.2 1144 259.25 1141.7 259.25 1140.05 257.55 1138.35 255.9 1138.35 253.6 1138.4 251.95 1139.15 250.7 L1140.05 249.55 Q1141.7 247.9 1144 247.95 1146.35 247.9 1148.05 249.55 1149.7 251.25 1149.65 253.6 1149.7 255.9 1148.05 257.55 L1146.9 258.45 M1139.8 266.25 Q1140.9 266.25 1141.7 267.05 1142.55 267.85 1142.55 269 1142.55 270.1 1141.7 270.95 1140.9 271.75 1139.8 271.75 1138.65 271.75 1137.8 270.95 1137 270.15 1137.05 269 1137 267.85 1137.8 267.05 1138.65 266.2 1139.8 266.25 M1149.5 283.35 Q1147.95 284.9 1145.8 284.85 1143.55 284.9 1141.95 283.3 1140.35 281.7 1140.4 279.4 1140.35 277.3 1141.9 275.7 L1142 275.6 Q1143.6 274 1145.8 274 1148 274.05 1149.6 275.65 1151.2 277.25 1151.2 279.45 1151.2 281.65 1149.6 283.25 L1149.5 283.35 M814.85 113.85 Q812.6 113.85 811 112.25 809.5 110.75 809.45 108.6 L809.45 108.45 Q809.45 106.2 811 104.6 812.6 103.05 814.85 103.05 817.1 103.05 818.65 104.6 820.25 106.2 820.25 108.45 L820.25 108.6 Q820.2 110.75 818.65 112.25 817.1 113.85 814.85 113.85 M912.25 110.3 Q911.45 109.5 911.45 108.35 911.45 107.2 912.25 106.4 913.05 105.6 914.2 105.6 915.35 105.6 916.15 106.4 916.95 107.2 916.95 108.35 916.95 109.5 916.15 110.3 915.35 111.1 914.2 111.1 913.05 111.1 912.25 110.3 M905.15 104.6 Q906.75 106.2 906.75 108.45 L906.75 108.6 Q906.7 110.75 905.15 112.25 L904.45 112.9 Q903.1 113.85 901.35 113.85 899.1 113.85 897.5 112.25 896 110.75 895.95 108.6 L895.95 108.45 Q895.95 106.2 897.5 104.6 899.1 103.05 901.35 103.05 903.1 103.05 904.45 104 L905.15 104.6 M806.25 108.2 L806.1 109.6 Q805.75 111.05 804.6 112.2 802.95 113.85 800.6 113.85 798.25 113.85 796.6 112.2 795.45 111.05 795.1 109.6 794.95 108.95 794.95 108.2 794.95 105.85 796.6 104.2 798.25 102.55 800.6 102.55 802.95 102.55 804.6 104.2 806.25 105.85 806.25 108.2 M795.15 121.9 Q795.95 122.7 795.95 123.85 795.95 125 795.15 125.8 794.35 126.6 793.2 126.6 792.05 126.6 791.25 125.8 790.45 125 790.45 123.85 790.45 122.7 791.25 121.9 792.05 121.1 793.2 121.1 794.35 121.1 795.15 121.9 M798.7 221.1 Q799.85 221.1 800.65 221.9 801.45 222.7 801.45 223.85 801.45 225 800.65 225.8 799.85 226.6 798.7 226.6 797.55 226.6 796.75 225.8 795.95 225 795.95 223.85 795.95 222.7 796.75 221.9 797.55 221.1 798.7 221.1 M796.45 209.95 L796.3 211.35 Q795.95 212.8 794.8 213.95 793.15 215.6 790.8 215.6 788.45 215.6 786.8 213.95 785.65 212.8 785.3 211.35 L785.15 209.95 Q785.15 207.6 786.8 205.95 788.45 204.3 790.8 204.3 793.15 204.3 794.8 205.95 796.45 207.6 796.45 209.95 M804.95 227 Q804.95 224.75 806.5 223.15 808.1 221.6 810.35 221.6 812.6 221.6 814.15 223.15 815.75 224.75 815.75 227 L815.75 227.15 Q815.7 229.3 814.15 230.8 812.6 232.4 810.35 232.4 808.1 232.4 806.5 230.8 805 229.3 804.95 227.15 L804.95 227 M924.25 210.15 Q924.2 212.3 922.65 213.8 921.1 215.4 918.85 215.4 916.6 215.4 915 213.8 913.5 212.3 913.45 210.15 L913.45 210 Q913.45 207.75 915 206.15 916.6 204.6 918.85 204.6 921.1 204.6 922.65 206.15 924.25 207.75 924.25 210 L924.25 210.15 M901.95 229.85 Q901.95 228.7 902.75 227.9 903.55 227.1 904.7 227.1 905.85 227.1 906.65 227.9 907.45 228.7 907.45 229.85 907.45 231 906.65 231.8 905.85 232.6 904.7 232.6 903.55 232.6 902.75 231.8 901.95 231 901.95 229.85 M892.85 232.4 Q890.6 232.4 889 230.8 887.5 229.3 887.45 227.15 L887.45 227 Q887.45 224.75 889 223.15 890.6 221.6 892.85 221.6 895.1 221.6 896.65 223.15 898.25 224.75 898.25 227 L898.25 227.15 Q898.2 229.3 896.65 230.8 895.1 232.4 892.85 232.4"/>
    <path stroke="none" fill="#80BE1F" d="M1400.3 88.05 L1349.7 88.05 1349.7 76 1400.3 76.05 1400.3 88.05 M1332.3 105.45 L1332.25 156.05 1320.25 156.05 1320.25 105.45 1332.3 105.45 M1349.7 173.5 L1400.3 173.55 1400.3 185.55 1349.7 185.55 1349.7 173.5 M1429.8 105.45 L1429.75 156.05 1417.75 156.05 1417.75 105.45 1429.8 105.45 M1325.45 264.65 L1325.4 315.25 1313.35 315.25 1313.35 264.65 1325.45 264.65 M1125.3 315.25 L1125.3 303.2 1171.9 303.25 1171.9 303.2 1175.9 303.2 1175.9 315.25 1125.3 315.25 M1026.6 303.1 L1026.6 315.1 976 315.1 976 303.05 1026.6 303.1 M1026.6 205.6 L1026.6 217.6 976 217.6 976 205.55 1026.6 205.6 M1056.05 235.2 L1056.05 239.2 1056 277.8 1056 285.8 1044 285.8 1044 235.2 1056.05 235.2 M1125.3 217.75 L1125.3 205.7 1175.9 205.75 1175.9 217.75 1125.3 217.75 M1096 235.2 L1108.05 235.2 1108 285.8 1096 285.8 1096 235.2 M976 185.55 L976 173.5 1026.6 173.55 1026.6 185.55 976 185.55 M976 88.05 L976 76 1026.6 76.05 1026.6 88.05 976 88.05 M1057 76 L1069.05 76 1069 126.6 1057 126.6 1057 76 M1223.3 156 L1215.3 156 1215.3 144 1265.9 144 1265.9 156.05 1261.9 156.05 1223.3 156 M1186 76 L1198.05 76 1198 126.6 1186 126.6 1186 76 M1154.5 76 L1166.55 76 1166.5 126.6 1154.5 126.6 1154.5 76 M1283.5 76 L1295.55 76 1295.5 126.6 1283.5 126.6 1283.5 76 M1295.95 247.35 L1245.35 247.4 1245.35 235.35 1295.95 235.35 1295.95 247.35 M1227.95 264.65 L1227.9 315.25 1215.9 315.25 1215.9 264.65 1227.95 264.65"/>
    <path stroke="none" fill="#527914" d="M1071.9 353.2 Q1073.05 354.35 1073.05 356 L1073.05 356.05 1150.5 356.05 1150.5 356 Q1150.5 354.35 1151.7 353.2 1152.85 352 1154.5 352 L1166.55 352 Q1168.2 352 1169.4 353.2 1170.55 354.35 1170.55 356 L1170.5 406.6 Q1170.5 408.25 1169.35 409.45 1168.15 410.6 1166.5 410.6 L1154.5 410.6 Q1152.85 410.6 1151.7 409.45 1150.5 408.25 1150.5 406.6 L1073 406.6 Q1073 408.25 1071.85 409.45 1070.65 410.6 1069 410.6 L1057 410.6 Q1055.35 410.6 1054.2 409.45 1053 408.25 1053 406.6 L1053 356 Q1053 354.35 1054.2 353.2 1055.35 352 1057 352 L1069.05 352 Q1070.7 352 1071.9 353.2 M1069.05 360.05 L1069.05 356 1057 356 1057 406.6 1069 406.6 1069 402.6 1154.5 402.6 1154.5 406.6 1166.5 406.6 1166.55 356 1154.5 356 1154.5 360.05 1069.05 360.05"/>
    <path stroke="none" fill="#80BE1F" d="M1069.05 360.05 L1069.05 364.05 1069.05 368.05 1069.05 394.6 1069 396.6 1069 402.6 1069 406.6 1057 406.6 1057 356 1069.05 356 1069.05 360.05 M1154.5 368.05 L1154.5 364.05 1154.5 360.05 1154.5 356 1166.55 356 1166.5 406.6 1154.5 406.6 1154.5 402.6 1154.5 394.6 1154.5 368.05"/>
    <path stroke="none" fill="#B2F04F" d="M1069.05 364.05 L1069.05 360.05 1154.5 360.05 1154.5 364.05 1069.05 364.05"/>
    <path stroke="none" fill="#A1E03D" d="M1069.05 364.05 L1154.5 364.05 1154.5 368.05 1069.05 368.05 1069.05 364.05 M1069 402.6 L1069 396.6 1069.05 394.6 1154.5 394.6 1154.5 402.6 1069 402.6"/>
    <path stroke="none" fill="#1EA7E1" d="M1069.05 394.6 L1069.05 368.05 1154.5 368.05 1154.5 394.6 1069.05 394.6 M1109.2 374.3 Q1108.05 374.3 1107.25 375.1 1106.45 375.9 1106.45 377.05 1106.45 378.2 1107.25 379 1108.05 379.8 1109.2 379.8 1110.35 379.8 1111.15 379 1111.95 378.2 1111.95 377.05 1111.95 375.9 1111.15 375.1 1110.35 374.3 1109.2 374.3 M1090.95 377.15 L1090.95 377.3 Q1091 379.45 1092.5 380.95 1094.1 382.55 1096.35 382.55 1098.1 382.55 1099.45 381.6 L1100.15 380.95 Q1101.7 379.45 1101.75 377.3 L1101.75 377.15 Q1101.75 374.9 1100.15 373.3 L1099.45 372.7 Q1098.1 371.75 1096.35 371.75 1094.1 371.75 1092.5 373.3 1090.95 374.9 1090.95 377.15 M1138.2 383.85 Q1137.4 384.65 1137.4 385.8 1137.4 386.95 1138.2 387.75 1139 388.55 1140.15 388.55 1141.3 388.55 1142.1 387.75 1142.9 386.95 1142.9 385.8 1142.9 384.65 1142.1 383.85 1141.3 383.05 1140.15 383.05 1139 383.05 1138.2 383.85"/>
    <path stroke="none" fill="#2CB8F3" d="M1138.2 383.85 Q1139 383.05 1140.15 383.05 1141.3 383.05 1142.1 383.85 1142.9 384.65 1142.9 385.8 1142.9 386.95 1142.1 387.75 1141.3 388.55 1140.15 388.55 1139 388.55 1138.2 387.75 1137.4 386.95 1137.4 385.8 1137.4 384.65 1138.2 383.85 M1090.95 377.15 Q1090.95 374.9 1092.5 373.3 1094.1 371.75 1096.35 371.75 1098.1 371.75 1099.45 372.7 L1100.15 373.3 Q1101.75 374.9 1101.75 377.15 L1101.75 377.3 Q1101.7 379.45 1100.15 380.95 L1099.45 381.6 Q1098.1 382.55 1096.35 382.55 1094.1 382.55 1092.5 380.95 1091 379.45 1090.95 377.3 L1090.95 377.15 M1109.2 374.3 Q1110.35 374.3 1111.15 375.1 1111.95 375.9 1111.95 377.05 1111.95 378.2 1111.15 379 1110.35 379.8 1109.2 379.8 1108.05 379.8 1107.25 379 1106.45 378.2 1106.45 377.05 1106.45 375.9 1107.25 375.1 1108.05 374.3 1109.2 374.3"/>
    <path stroke="none" fill="#527914" d="M1299.55 356 L1299.5 406.6 Q1299.5 408.25 1298.35 409.45 1297.15 410.6 1295.5 410.6 L1283.5 410.6 Q1281.85 410.6 1280.7 409.45 1279.5 408.25 1279.5 406.6 L1265.15 406.6 Q1265.85 412.05 1266 418.15 L1266 418.25 1266 419.85 1266 420 Q1267.6 420.05 1268.75 421.2 1269.9 422.35 1269.9 424 L1269.9 436.05 Q1269.9 437.7 1268.75 438.9 1267.55 440.05 1265.9 440.05 L1261.9 440.05 1223.3 440 1215.3 440 Q1213.65 440 1212.5 438.85 1211.3 437.65 1211.3 436 L1211.3 424 Q1211.3 422.35 1212.5 421.2 1213.65 420 1215.3 420 1214.6 410.95 1207.55 408.05 1205.1 407.1 1202 406.75 1201.95 408.3 1200.85 409.45 1199.65 410.6 1198 410.6 L1186 410.6 Q1184.35 410.6 1183.2 409.45 1182 408.25 1182 406.6 L1182 356 1182.05 355.35 Q1182.25 354.1 1183.2 353.2 1184.35 352 1186 352 L1198.05 352 Q1199.7 352 1200.9 353.2 1202.05 354.35 1202.05 356 L1207.5 356 1208.6 356.05 1279.5 356.05 1279.5 356 Q1279.5 354.35 1280.7 353.2 1281.85 352 1283.5 352 L1295.55 352 Q1297.2 352 1298.4 353.2 1299.55 354.35 1299.55 356 M1198.05 360 L1198.05 356 1186 356 1186 406.6 1198 406.6 1198 402.6 1199.35 402.6 1199.7 402.6 Q1205.1 402.75 1209 404.3 1218.6 408 1219.3 420.15 L1219.3 424 1215.3 424 1215.3 436 1223.3 436 1261.9 436.05 1265.9 436.05 1265.9 424 1262 424 1262 423.85 1262 422.25 1262 419.85 1262 418.25 Q1261.8 409.8 1260.45 402.6 L1283.5 402.6 1283.5 406.6 1295.5 406.6 1295.55 356 1283.5 356 1283.5 360.05 1208.6 360.05 1207.5 360 1198.05 360"/>
    <path stroke="none" fill="#80BE1F" d="M1198.05 360 L1198.05 364.05 1198.05 368 1198.05 393.8 1198.05 394.6 1198 396.6 1198 402.6 1198 406.6 1186 406.6 1186 356 1198.05 356 1198.05 360 M1283.5 364.05 L1283.5 360.05 1283.5 356 1295.55 356 1295.5 406.6 1283.5 406.6 1283.5 402.6 1283.5 394.6 1283.5 368.05 1283.5 364.05 M1254 424 L1262 424 1265.9 424 1265.9 436.05 1261.9 436.05 1223.3 436 1215.3 436 1215.3 424 1219.3 424 1227.3 424 1254 424"/>
    <path stroke="none" fill="#A1E03D" d="M1254 424 L1254 423.85 1254 422.25 1254 419.85 1254 418.25 Q1253.8 410.6 1252.6 404.1 1252.15 401.7 1253.1 399.5 1254 397.3 1256.05 395.95 1258.05 394.6 1260.45 394.6 L1283.5 394.6 1283.5 402.6 1260.45 402.6 1259.6 402.6 Q1261.75 411.4 1262 422.25 L1262 423.85 1262 424 1254 424 M1198 402.6 L1198 396.6 1198.05 394.6 1199.35 394.6 1199.7 394.6 1199.95 394.6 Q1206.9 394.8 1211.95 396.9 L1211.9 396.85 Q1226.25 401.95 1227.3 419.7 L1227.3 420.15 1227.3 424 1219.3 424 1219.3 420.15 Q1218.6 408 1209 404.3 1205.1 402.75 1199.7 402.6 L1199.35 402.6 1198 402.6 M1198.05 368 L1198.05 364.05 1283.5 364.05 1283.5 368.05 1208.6 368.05 1207.9 368.05 1207.5 368 1198.05 368"/>
    <path stroke="none" fill="#B2F04F" d="M1198.05 364.05 L1198.05 360 1207.5 360 1208.6 360.05 1283.5 360.05 1283.5 364.05 1198.05 364.05 M1262 422.25 Q1261.75 411.4 1259.6 402.6 L1260.45 402.6 Q1261.8 409.8 1262 418.25 L1262 419.85 1262 422.25"/>
    <path stroke="none" fill="#1EA7E1" d="M1198.05 394.6 L1198.05 393.8 1198.05 368 1207.5 368 1207.9 368.05 1208.6 368.05 1283.5 368.05 1283.5 394.6 1260.45 394.6 Q1258.05 394.6 1256.05 395.95 1254 397.3 1253.1 399.5 1252.15 401.7 1252.6 404.1 1253.8 410.6 1254 418.25 L1254 419.85 1254 422.25 1254 423.85 1254 424 1227.3 424 1227.3 420.15 1227.3 419.7 Q1226.25 401.95 1211.9 396.85 L1211.95 396.9 Q1206.9 394.8 1199.95 394.6 L1199.7 394.6 1199.35 394.6 1198.05 394.6 M1210.85 383.35 Q1210.05 382.55 1208.95 382.55 1207.8 382.5 1206.95 383.35 1206.15 384.15 1206.2 385.3 1206.15 386.45 1206.95 387.25 1207.8 388.05 1208.95 388.05 1210.05 388.05 1210.85 387.25 1211.7 386.4 1211.7 385.3 1211.7 384.15 1210.85 383.35 M1253.9 374.5 Q1253.9 373.35 1253.05 372.55 1252.25 371.75 1251.15 371.75 1250 371.7 1249.15 372.55 1248.35 373.35 1248.4 374.5 1248.35 375.65 1249.15 376.45 1250 377.25 1251.15 377.25 1252.25 377.25 1253.05 376.45 1253.9 375.6 1253.9 374.5 M1230.65 382.9 Q1230.7 380.55 1229.05 378.85 1227.35 377.2 1225 377.25 1222.7 377.2 1221.05 378.85 L1220.15 380 Q1219.4 381.25 1219.35 382.9 1219.35 385.2 1221.05 386.85 1222.7 388.55 1225 388.55 1226.65 388.5 1227.9 387.75 L1229.05 386.85 Q1230.7 385.2 1230.65 382.9 M1261.95 379.8 Q1260.8 379.75 1259.95 380.6 1259.15 381.4 1259.2 382.55 1259.15 383.7 1259.95 384.5 1260.8 385.3 1261.95 385.3 1263.05 385.3 1263.85 384.5 1264.7 383.65 1264.7 382.55 1264.7 381.4 1263.85 380.6 1263.05 379.8 1261.95 379.8"/>
    <path stroke="none" fill="#2CB8F3" d="M1261.95 379.8 Q1263.05 379.8 1263.85 380.6 1264.7 381.4 1264.7 382.55 1264.7 383.65 1263.85 384.5 1263.05 385.3 1261.95 385.3 1260.8 385.3 1259.95 384.5 1259.15 383.7 1259.2 382.55 1259.15 381.4 1259.95 380.6 1260.8 379.75 1261.95 379.8 M1210.85 383.35 Q1211.7 384.15 1211.7 385.3 1211.7 386.4 1210.85 387.25 1210.05 388.05 1208.95 388.05 1207.8 388.05 1206.95 387.25 1206.15 386.45 1206.2 385.3 1206.15 384.15 1206.95 383.35 1207.8 382.5 1208.95 382.55 1210.05 382.55 1210.85 383.35 M1230.65 382.9 Q1230.7 385.2 1229.05 386.85 L1227.9 387.75 Q1226.65 388.5 1225 388.55 1222.7 388.55 1221.05 386.85 1219.35 385.2 1219.35 382.9 1219.4 381.25 1220.15 380 L1221.05 378.85 Q1222.7 377.2 1225 377.25 1227.35 377.2 1229.05 378.85 1230.7 380.55 1230.65 382.9 M1253.9 374.5 Q1253.9 375.6 1253.05 376.45 1252.25 377.25 1251.15 377.25 1250 377.25 1249.15 376.45 1248.35 375.65 1248.4 374.5 1248.35 373.35 1249.15 372.55 1250 371.7 1251.15 371.75 1252.25 371.75 1253.05 372.55 1253.9 373.35 1253.9 374.5"/>
    <path stroke="none" fill="#527914" d="M1335.15 382.65 Q1336.3 383.8 1336.3 385.45 L1336.3 385.5 1349.75 385.5 1349.75 372.05 1349.7 372.05 Q1348.05 372.05 1346.9 370.9 1345.7 369.7 1345.7 368.05 L1345.7 356 Q1345.7 354.35 1346.9 353.2 1348.05 352 1349.7 352 L1400.3 352.05 Q1401.95 352.05 1403.15 353.25 1404.3 354.4 1404.3 356.05 L1404.3 368.05 Q1404.3 369.7 1403.15 370.9 1401.95 372.05 1400.3 372.05 L1400.3 385.5 1413.75 385.5 1413.75 385.45 Q1413.75 383.8 1414.95 382.65 1416.1 381.45 1417.75 381.45 L1429.8 381.45 Q1431.45 381.45 1432.65 382.65 1433.8 383.8 1433.8 385.45 L1433.75 436.05 Q1433.75 437.7 1432.6 438.9 1431.4 440.05 1429.75 440.05 L1417.75 440.05 Q1416.1 440.05 1414.95 438.9 1413.75 437.7 1413.75 436.05 L1400.3 436.05 1400.3 449.55 Q1401.95 449.55 1403.15 450.75 1404.3 451.9 1404.3 453.55 L1404.3 465.55 Q1404.3 467.2 1403.15 468.4 1401.95 469.55 1400.3 469.55 L1349.7 469.55 Q1348.05 469.55 1346.9 468.4 1345.7 467.2 1345.7 465.55 L1345.7 453.5 Q1345.7 451.85 1346.9 450.7 1348.05 449.5 1349.7 449.5 L1349.75 449.5 1349.75 436.05 1336.25 436.05 Q1336.25 437.7 1335.1 438.9 1333.9 440.05 1332.25 440.05 L1320.25 440.05 Q1318.6 440.05 1317.45 438.9 1316.25 437.7 1316.25 436.05 L1316.25 385.45 Q1316.25 383.8 1317.45 382.65 1318.6 381.45 1320.25 381.45 L1332.3 381.45 Q1333.95 381.45 1335.15 382.65 M1332.3 389.5 L1332.3 385.45 1320.25 385.45 1320.25 436.05 1332.25 436.05 1332.25 432.05 1353.75 432.05 1353.75 453.5 1349.7 453.5 1349.7 465.55 1400.3 465.55 1400.3 453.55 1396.3 453.55 1396.3 432.05 1417.75 432.05 1417.75 436.05 1429.75 436.05 1429.8 385.45 1417.75 385.45 1417.75 389.5 1396.3 389.5 1396.3 368.05 1400.3 368.05 1400.3 356.05 1349.7 356 1349.7 368.05 1353.75 368.05 1353.75 389.5 1332.3 389.5"/>
    <path stroke="none" fill="#80BE1F" d="M1332.3 389.5 L1332.3 393.5 1332.3 397.5 1332.25 424.05 1332.25 432.05 1332.25 436.05 1320.25 436.05 1320.25 385.45 1332.3 385.45 1332.3 389.5 M1353.75 368.05 L1349.7 368.05 1349.7 356 1400.3 356.05 1400.3 368.05 1396.3 368.05 1388.3 368.05 1361.75 368.05 1353.75 368.05 M1417.75 389.5 L1417.75 385.45 1429.8 385.45 1429.75 436.05 1417.75 436.05 1417.75 432.05 1417.75 424.05 1417.75 397.5 1417.75 393.5 1417.75 389.5 M1396.3 453.55 L1400.3 453.55 1400.3 465.55 1349.7 465.55 1349.7 453.5 1353.75 453.5 1359.75 453.5 1360.25 453.5 1360.65 453.5 1361.75 453.5 1361.75 453.55 1363 453.55 1363.4 453.55 1388.3 453.55 1396.3 453.55"/>
    <path stroke="none" fill="#B2F04F" d="M1332.3 389.5 L1353.75 389.5 1353.75 393.5 1332.3 393.5 1332.3 389.5 M1396.3 389.5 L1417.75 389.5 1417.75 393.5 1396.3 393.5 1396.3 389.5"/>
    <path stroke="none" fill="#A1E03D" d="M1396.3 389.5 L1396.3 393.5 1417.75 393.5 1417.75 397.5 1396.3 397.5 Q1393 397.5 1390.65 395.15 1388.3 392.8 1388.3 389.5 L1388.3 368.05 1396.3 368.05 1396.3 389.5 M1353.75 389.5 L1353.75 368.05 1361.75 368.05 1361.75 389.5 Q1361.75 392.8 1359.4 395.15 1357.05 397.5 1353.75 397.5 L1332.3 397.5 1332.3 393.5 1353.75 393.5 1353.75 389.5 M1417.75 432.05 L1396.3 432.05 1396.3 453.55 1388.3 453.55 1388.3 432.05 Q1388.3 428.75 1390.65 426.4 1393 424.05 1396.3 424.05 L1417.75 424.05 1417.75 432.05 M1353.75 453.5 L1353.75 432.05 1332.25 432.05 1332.25 424.05 1353.75 424.05 Q1357.05 424.05 1359.4 426.4 1361.75 428.75 1361.75 432.05 L1361.75 453.5 1360.65 453.5 1360.25 453.5 1359.75 453.5 1353.75 453.5"/>
    <path stroke="none" fill="#1EA7E1" d="M1332.25 424.05 L1332.3 397.5 1353.75 397.5 Q1357.05 397.5 1359.4 395.15 1361.75 392.8 1361.75 389.5 L1361.75 368.05 1388.3 368.05 1388.3 389.5 Q1388.3 392.8 1390.65 395.15 1393 397.5 1396.3 397.5 L1417.75 397.5 1417.75 424.05 1396.3 424.05 Q1393 424.05 1390.65 426.4 1388.3 428.75 1388.3 432.05 L1388.3 453.55 1363.4 453.55 1363 453.55 1361.75 453.55 1361.75 453.5 1361.75 432.05 Q1361.75 428.75 1359.4 426.4 1357.05 424.05 1353.75 424.05 L1332.25 424.05 M1372.95 391.85 Q1374.55 393.45 1376.8 393.4 1378.95 393.45 1380.5 391.9 L1380.6 391.8 Q1382.2 390.2 1382.2 388 1382.2 385.8 1380.6 384.2 1379 382.6 1376.8 382.55 1374.6 382.55 1373 384.15 L1372.9 384.25 Q1371.35 385.85 1371.4 387.95 1371.35 390.25 1372.95 391.85 M1367.85 407.25 Q1368.7 406.4 1368.7 405.3 1368.7 404.15 1367.85 403.35 1367.05 402.55 1365.95 402.55 1364.8 402.5 1363.95 403.35 1363.15 404.15 1363.2 405.3 1363.15 406.45 1363.95 407.25 1364.8 408.05 1365.95 408.05 1367.05 408.05 1367.85 407.25 M1377.9 420.35 Q1379.5 418.75 1379.5 416.55 1379.5 414.35 1377.9 412.75 1376.3 411.15 1374.1 411.1 1371.9 411.1 1370.3 412.7 L1370.2 412.8 Q1368.65 414.4 1368.7 416.5 1368.65 418.8 1370.25 420.4 1371.85 422 1374.1 421.95 1376.25 422 1377.8 420.45 L1377.9 420.35"/>
    <path stroke="none" fill="#2CB8F3" d="M1377.9 420.35 L1377.8 420.45 Q1376.25 422 1374.1 421.95 1371.85 422 1370.25 420.4 1368.65 418.8 1368.7 416.5 1368.65 414.4 1370.2 412.8 L1370.3 412.7 Q1371.9 411.1 1374.1 411.1 1376.3 411.15 1377.9 412.75 1379.5 414.35 1379.5 416.55 1379.5 418.75 1377.9 420.35 M1372.95 391.85 Q1371.35 390.25 1371.4 387.95 1371.35 385.85 1372.9 384.25 L1373 384.15 Q1374.6 382.55 1376.8 382.55 1379 382.6 1380.6 384.2 1382.2 385.8 1382.2 388 1382.2 390.2 1380.6 391.8 L1380.5 391.9 Q1378.95 393.45 1376.8 393.4 1374.55 393.45 1372.95 391.85 M1367.85 407.25 Q1367.05 408.05 1365.95 408.05 1364.8 408.05 1363.95 407.25 1363.15 406.45 1363.2 405.3 1363.15 404.15 1363.95 403.35 1364.8 402.5 1365.95 402.55 1367.05 402.55 1367.85 403.35 1368.7 404.15 1368.7 405.3 1368.7 406.4 1367.85 407.25"/>
    <path stroke="none" fill="#527914" d="M1313.35 540.65 L1325.45 540.65 Q1327.1 540.65 1328.3 541.85 1329.45 543 1329.45 544.65 L1329.4 595.25 Q1329.4 596.9 1328.25 598.1 1327.05 599.25 1325.4 599.25 L1313.35 599.25 Q1311.7 599.25 1310.55 598.1 1309.4 596.95 1309.35 595.35 L1309.2 595.35 1307.6 595.35 1307.5 595.35 1304.7 595.25 1231.9 595.25 Q1231.9 596.9 1230.75 598.1 1229.55 599.25 1227.9 599.25 L1215.9 599.25 Q1214.25 599.25 1213.1 598.1 1211.9 596.9 1211.9 595.25 L1211.9 544.65 Q1211.9 543 1213.1 541.85 1214.25 540.65 1215.9 540.65 L1227.95 540.65 Q1229.6 540.65 1230.8 541.85 1231.95 543 1231.95 544.65 L1231.95 544.7 1246 544.7 Q1245.5 541 1245.35 537 L1245.35 536.85 1245.35 531.4 Q1243.7 531.4 1242.55 530.25 1241.35 529.05 1241.35 527.4 L1241.35 515.35 Q1241.35 513.7 1242.55 512.55 1243.7 511.35 1245.35 511.35 L1295.95 511.35 Q1297.6 511.35 1298.8 512.55 1299.95 513.7 1299.95 515.35 L1299.95 527.35 Q1299.95 529 1298.8 530.2 1297.65 531.3 1296.1 531.35 1296.45 534.45 1297.4 536.9 1300.3 543.95 1309.35 544.65 1309.35 543 1310.55 541.85 1311.7 540.65 1313.35 540.65 M1313.35 548.65 L1309.5 548.65 Q1297.35 547.95 1293.65 538.35 1292.1 534.45 1291.95 529.05 L1291.95 528.7 1291.95 527.35 1295.95 527.35 1295.95 515.35 1245.35 515.35 1245.35 527.4 1249.35 527.4 1249.35 536.85 Q1249.6 543.15 1250.65 548.7 L1227.95 548.7 1227.95 544.65 1215.9 544.65 1215.9 595.25 1227.9 595.25 1227.9 591.25 1304.7 591.25 1307.6 591.35 1309.2 591.35 1313.35 591.35 1313.35 595.25 1325.4 595.25 1325.45 544.65 1313.35 544.65 1313.35 548.65"/>
    <path stroke="none" fill="#B2F04F" d="M1313.35 548.65 L1313.35 552.65 1309.5 552.65 Q1302.3 552.25 1298.1 548.7 1295.15 546.25 1293.65 542.35 1291.85 537.85 1291.95 531.35 L1291.95 529.05 Q1292.1 534.45 1293.65 538.35 1297.35 547.95 1309.5 548.65 L1313.35 548.65 M1227.95 548.7 L1250.65 548.7 1251.5 552.7 1227.95 552.7 1227.95 548.7"/>
    <path stroke="none" fill="#80BE1F" d="M1227.95 548.7 L1227.95 552.7 1227.95 556.7 1227.9 583.25 1227.9 591.25 1227.9 595.25 1215.9 595.25 1215.9 544.65 1227.95 544.65 1227.95 548.7 M1313.35 552.65 L1313.35 548.65 1313.35 544.65 1325.45 544.65 1325.4 595.25 1313.35 595.25 1313.35 591.35 1313.35 583.35 1313.35 556.65 1313.35 552.65 M1249.35 527.4 L1245.35 527.4 1245.35 515.35 1295.95 515.35 1295.95 527.35 1291.95 527.35 1283.95 527.35 1257.35 527.4 1249.35 527.4"/>
    <path stroke="none" fill="#A1E03D" d="M1249.35 527.4 L1257.35 527.4 1257.35 536.55 Q1257.55 542.2 1258.5 547.25 1258.95 549.6 1258.05 551.8 1257.1 554 1255.1 555.35 1253.05 556.7 1250.65 556.7 L1227.95 556.7 1227.95 552.7 1251.5 552.7 1250.65 548.7 Q1249.6 543.15 1249.35 536.85 L1249.35 527.4 M1291.95 529.05 L1291.95 531.35 Q1291.85 537.85 1293.65 542.35 1295.15 546.25 1298.1 548.7 1302.3 552.25 1309.5 552.65 L1313.35 552.65 1313.35 556.65 1309.5 556.65 1309.05 556.65 Q1291.3 555.6 1286.2 541.25 L1286.25 541.3 Q1284.15 536.25 1283.95 529.3 L1283.95 529.05 1283.95 528.7 1283.95 527.35 1291.95 527.35 1291.95 528.7 1291.95 529.05 M1313.35 583.35 L1313.35 591.35 1309.2 591.35 1307.6 591.35 1304.7 591.25 1227.9 591.25 1227.9 583.25 1304.7 583.25 1305 583.25 1307.9 583.35 1309.2 583.35 1313.35 583.35"/>
    <path stroke="none" fill="#1EA7E1" d="M1313.35 583.35 L1309.2 583.35 1307.9 583.35 1305 583.25 1304.7 583.25 1227.9 583.25 1227.95 556.7 1250.65 556.7 Q1253.05 556.7 1255.1 555.35 1257.1 554 1258.05 551.8 1258.95 549.6 1258.5 547.25 1257.55 542.2 1257.35 536.55 L1257.35 527.4 1283.95 527.35 1283.95 528.7 1283.95 529.05 1283.95 529.3 Q1284.15 536.25 1286.25 541.3 L1286.2 541.25 Q1291.3 555.6 1309.05 556.65 L1309.5 556.65 1313.35 556.65 1313.35 583.35 M1274 542.5 L1273.9 542.6 Q1272.35 544.2 1272.4 546.3 1272.35 548.6 1273.95 550.2 1275.55 551.8 1277.8 551.75 1279.95 551.8 1281.5 550.25 L1281.6 550.15 Q1283.2 548.55 1283.2 546.35 1283.2 544.15 1281.6 542.55 1280 540.95 1277.8 540.9 1275.6 540.9 1274 542.5 M1255.4 559.8 Q1253.85 561.4 1253.9 563.5 1253.85 565.8 1255.45 567.4 1257.05 569 1259.3 568.95 1261.45 569 1263 567.45 L1263.1 567.35 Q1264.7 565.75 1264.7 563.55 1264.7 561.35 1263.1 559.75 1261.5 558.15 1259.3 558.1 1257.1 558.1 1255.5 559.7 L1255.4 559.8 M1244.45 564.2 Q1243.65 565 1243.7 566.15 1243.65 567.3 1244.45 568.1 1245.3 568.9 1246.45 568.9 1247.55 568.9 1248.35 568.1 1249.2 567.25 1249.2 566.15 1249.2 565 1248.35 564.2 1247.55 563.4 1246.45 563.4 1245.3 563.35 1244.45 564.2"/>
    <path stroke="none" fill="#2CB8F3" d="M1244.45 564.2 Q1245.3 563.35 1246.45 563.4 1247.55 563.4 1248.35 564.2 1249.2 565 1249.2 566.15 1249.2 567.25 1248.35 568.1 1247.55 568.9 1246.45 568.9 1245.3 568.9 1244.45 568.1 1243.65 567.3 1243.7 566.15 1243.65 565 1244.45 564.2 M1274 542.5 Q1275.6 540.9 1277.8 540.9 1280 540.95 1281.6 542.55 1283.2 544.15 1283.2 546.35 1283.2 548.55 1281.6 550.15 L1281.5 550.25 Q1279.95 551.8 1277.8 551.75 1275.55 551.8 1273.95 550.2 1272.35 548.6 1272.4 546.3 1272.35 544.2 1273.9 542.6 L1274 542.5 M1255.4 559.8 L1255.5 559.7 Q1257.1 558.1 1259.3 558.1 1261.5 558.15 1263.1 559.75 1264.7 561.35 1264.7 563.55 1264.7 565.75 1263.1 567.35 L1263 567.45 Q1261.45 569 1259.3 568.95 1257.05 569 1255.45 567.4 1253.85 565.8 1253.9 563.5 1253.85 561.4 1255.4 559.8"/>
    <path stroke="none" fill="#527914" d="M1179.9 485.75 L1179.9 497.75 Q1179.9 499.4 1178.75 500.6 1177.55 501.75 1175.9 501.75 L1175.9 574.4 1176 577.35 1176 577.45 1176 579.05 1176 579.2 Q1177.6 579.25 1178.75 580.4 1179.9 581.55 1179.9 583.2 L1179.9 595.25 Q1179.9 596.9 1178.75 598.1 1177.55 599.25 1175.9 599.25 L1125.3 599.25 Q1123.65 599.25 1122.5 598.1 1121.3 596.9 1121.3 595.25 L1121.3 583.2 Q1121.3 581.55 1122.5 580.4 1123.65 579.2 1125.3 579.2 1124.6 570.15 1117.55 567.25 1115.1 566.3 1112 565.95 1111.95 567.5 1110.85 568.65 1109.65 569.8 1108 569.8 L1096 569.8 Q1094.35 569.8 1093.2 568.65 1092 567.45 1092 565.8 L1092 515.2 Q1092 513.55 1093.2 512.4 1094.35 511.2 1096 511.2 L1108.05 511.2 Q1109.7 511.2 1110.9 512.4 1112.05 513.55 1112.05 515.2 L1117.5 515.2 1117.65 515.2 1125.35 515.85 1125.35 501.75 1125.3 501.75 Q1123.65 501.75 1122.5 500.6 1121.3 499.4 1121.3 497.75 L1121.3 485.7 Q1121.3 484.05 1122.5 482.9 1123.65 481.7 1125.3 481.7 L1175.9 481.75 Q1177.55 481.75 1178.75 482.95 1179.9 484.1 1179.9 485.75 M1171.9 497.75 L1175.9 497.75 1175.9 485.75 1125.3 485.7 1125.3 497.75 1129.35 497.75 1129.35 520.5 1117.5 519.2 1108.05 519.2 1108.05 515.2 1096 515.2 1096 565.8 1108 565.8 1108 561.8 Q1114.5 561.7 1119 563.5 1128.6 567.2 1129.3 579.35 L1129.3 583.2 1125.3 583.2 1125.3 595.25 1175.9 595.25 1175.9 583.2 1172 583.2 1172 583.05 1172 581.45 1172 579.05 1172 577.45 1171.9 574.55 1171.9 497.75"/>
    <path stroke="none" fill="#1EA7E1" d="M1155.85 511.3 Q1156.7 510.45 1156.7 509.35 1156.7 508.2 1155.85 507.4 1155.05 506.6 1153.95 506.6 1152.8 506.55 1151.95 507.4 1151.15 508.2 1151.2 509.35 1151.15 510.5 1151.95 511.3 1152.8 512.1 1153.95 512.1 1155.05 512.1 1155.85 511.3 M1137.35 497.75 L1163.9 497.75 1163.9 574.55 1163.9 574.85 1164 577.75 1164 579.05 1164 581.45 1164 583.05 1164 583.25 1139 583.25 1138.55 583.25 1137.3 583.25 1137.3 583.2 1137.3 579.35 1137.3 578.9 Q1136.25 561.15 1121.9 556.05 L1122 556.1 Q1116.25 553.65 1108 553.8 L1108.05 527.2 1117.2 527.2 1127.9 528.35 Q1130.25 528.8 1132.45 527.9 1134.65 526.95 1136 524.95 1137.35 522.9 1137.35 520.5 L1137.35 497.75 M1140.05 529.55 L1139.15 530.7 Q1138.4 531.95 1138.35 533.6 1138.35 535.9 1140.05 537.55 1141.7 539.25 1144 539.25 1145.65 539.2 1146.9 538.45 L1148.05 537.55 Q1149.7 535.9 1149.65 533.6 1149.7 531.25 1148.05 529.55 1146.35 527.9 1144 527.95 1141.7 527.9 1140.05 529.55 M1141.7 547.05 Q1140.9 546.25 1139.8 546.25 1138.65 546.2 1137.8 547.05 1137 547.85 1137.05 549 1137 550.15 1137.8 550.95 1138.65 551.75 1139.8 551.75 1140.9 551.75 1141.7 550.95 1142.55 550.1 1142.55 549 1142.55 547.85 1141.7 547.05 M1149.6 555.65 Q1148 554.05 1145.8 554 1143.6 554 1142 555.6 L1141.9 555.7 Q1140.35 557.3 1140.4 559.4 1140.35 561.7 1141.95 563.3 1143.55 564.9 1145.8 564.85 1147.95 564.9 1149.5 563.35 L1149.6 563.25 Q1151.2 561.65 1151.2 559.45 1151.2 557.25 1149.6 555.65"/>
    <path stroke="none" fill="#2CB8F3" d="M1149.6 555.65 Q1151.2 557.25 1151.2 559.45 1151.2 561.65 1149.6 563.25 L1149.5 563.35 Q1147.95 564.9 1145.8 564.85 1143.55 564.9 1141.95 563.3 1140.35 561.7 1140.4 559.4 1140.35 557.3 1141.9 555.7 L1142 555.6 Q1143.6 554 1145.8 554 1148 554.05 1149.6 555.65 M1155.85 511.3 Q1155.05 512.1 1153.95 512.1 1152.8 512.1 1151.95 511.3 1151.15 510.5 1151.2 509.35 1151.15 508.2 1151.95 507.4 1152.8 506.55 1153.95 506.6 1155.05 506.6 1155.85 507.4 1156.7 508.2 1156.7 509.35 1156.7 510.45 1155.85 511.3 M1140.05 529.55 Q1141.7 527.9 1144 527.95 1146.35 527.9 1148.05 529.55 1149.7 531.25 1149.65 533.6 1149.7 535.9 1148.05 537.55 L1146.9 538.45 Q1145.65 539.2 1144 539.25 1141.7 539.25 1140.05 537.55 1138.35 535.9 1138.35 533.6 1138.4 531.95 1139.15 530.7 L1140.05 529.55 M1141.7 547.05 Q1142.55 547.85 1142.55 549 1142.55 550.1 1141.7 550.95 1140.9 551.75 1139.8 551.75 1138.65 551.75 1137.8 550.95 1137 550.15 1137.05 549 1137 547.85 1137.8 547.05 1138.65 546.2 1139.8 546.25 1140.9 546.25 1141.7 547.05"/>
    <path stroke="none" fill="#80BE1F" d="M1171.9 497.75 L1163.9 497.75 1137.35 497.75 1129.35 497.75 1125.3 497.75 1125.3 485.7 1175.9 485.75 1175.9 497.75 1171.9 497.75 M1164 583.25 L1171.9 583.25 1171.9 583.2 1172 583.2 1175.9 583.2 1175.9 595.25 1125.3 595.25 1125.3 583.2 1129.3 583.2 1135.3 583.2 1135.8 583.2 1136.2 583.2 1137.3 583.2 1137.3 583.25 1138.55 583.25 1139 583.25 1164 583.25 M1108 553.8 L1108 561.8 1108 565.8 1096 565.8 1096 515.2 1108.05 515.2 1108.05 519.2 1108.05 523.2 1108.05 527.2 1108 553.8"/>
    <path stroke="none" fill="#A1E03D" d="M1163.9 497.75 L1171.9 497.75 1171.9 574.55 1171.9 578.55 1172 581.45 1172 583.05 1172 583.2 1171.9 583.2 1171.9 583.25 1164 583.25 1164 583.05 1164 581.45 1164 579.05 1164 577.75 1163.9 574.85 1163.9 574.55 1163.9 497.75 M1129.35 497.75 L1137.35 497.75 1137.35 520.5 Q1137.35 522.9 1136 524.95 1134.65 526.95 1132.45 527.9 1130.25 528.8 1127.9 528.35 L1117.2 527.2 1108.05 527.2 1108.05 523.2 1117.5 523.2 1129.35 524.5 1129.35 520.5 1129.35 497.75 M1108 553.8 Q1116.25 553.65 1122 556.1 L1121.9 556.05 Q1136.25 561.15 1137.3 578.9 L1137.3 579.35 1137.3 583.2 1136.2 583.2 1135.8 583.2 1135.3 583.2 1129.3 583.2 1129.3 579.35 Q1128.6 567.2 1119 563.5 1114.5 561.7 1108 561.8 L1108 553.8"/>
    <path stroke="none" fill="#B2F04F" d="M1172 581.45 L1171.9 578.55 1171.9 574.55 1172 577.45 1172 579.05 1172 581.45 M1108.05 523.2 L1108.05 519.2 1117.5 519.2 1129.35 520.5 1129.35 524.5 1117.5 523.2 1108.05 523.2"/>
    <path stroke="none" fill="#527914" d="M976 481.55 L1026.6 481.6 Q1028.25 481.6 1029.45 482.8 1030.6 483.95 1030.6 485.6 L1030.6 497.6 Q1030.6 499.25 1029.45 500.45 1028.25 501.6 1026.6 501.6 L1026.6 516 1038.15 515.1 1038.25 515.1 1039.85 515.1 1040 515.1 Q1040.05 513.5 1041.2 512.4 1042.35 511.2 1044 511.2 L1056.05 511.2 Q1057.7 511.2 1058.9 512.4 1060.05 513.55 1060.05 515.2 L1060.05 519.2 1060 557.8 1060 565.8 Q1060 567.45 1058.85 568.65 1057.65 569.8 1056 569.8 L1044 569.8 Q1042.35 569.8 1041.2 568.65 1040 567.45 1040 565.85 1030.95 566.5 1028.05 573.55 L1028.05 573.6 Q1027.1 576 1026.75 579.1 1028.3 579.15 1029.45 580.3 1030.6 581.45 1030.6 583.1 L1030.6 595.1 Q1030.6 596.75 1029.45 597.95 1028.25 599.1 1026.6 599.1 L976 599.1 Q974.35 599.1 973.2 597.95 972 596.75 972 595.1 L972 583.05 Q972 581.4 973.2 580.25 974.35 579.05 976 579.05 L976 573.6 976.05 572.45 976.05 501.6 976 501.6 Q974.35 501.6 973.2 500.45 972 499.25 972 497.6 L972 485.55 Q972 483.9 973.2 482.75 974.35 481.55 976 481.55 M1022.6 497.6 L1026.6 497.6 1026.6 485.6 976 485.55 976 497.6 980.05 497.6 980.05 572.55 980 573.6 980 577.1 980 577.2 980 583.05 976 583.05 976 595.1 1026.6 595.1 1026.6 583.1 1022.6 583.1 1022.6 581.75 1022.6 581.4 Q1022.75 576 1024.3 572.1 1028 562.5 1040.15 561.8 L1044 561.8 1044 565.8 1056 565.8 1056 557.8 1056.05 519.2 1056.05 515.2 1044 515.2 1044 519.1 1039.85 519.1 1038.25 519.1 Q1029.8 519.3 1022.6 520.65 L1022.6 497.6"/>
    <path stroke="none" fill="#80BE1F" d="M1022.6 497.6 L1014.6 497.6 988.05 497.6 980.05 497.6 976 497.6 976 485.55 1026.6 485.6 1026.6 497.6 1022.6 497.6 M1044 519.1 L1044 515.2 1056.05 515.2 1056.05 519.2 1056 557.8 1056 565.8 1044 565.8 1044 561.8 1044 553.8 1044 527.1 1044 523.1 1044 519.1 M1022.6 583.1 L1026.6 583.1 1026.6 595.1 976 595.1 976 583.05 980 583.05 988 583.05 1012.95 583.1 1013.8 583.1 1014.2 583.1 1014.6 583.1 1015.75 583.1 1016.1 583.1 1016.6 583.1 1022.6 583.1"/>
    <path stroke="none" fill="#B2F04F" d="M1022.6 520.65 Q1029.8 519.3 1038.25 519.1 L1039.85 519.1 1044 519.1 1044 523.1 1039.85 523.1 1038.25 523.1 Q1029.8 523.3 1022.6 524.65 L1022.6 520.65 M980 577.1 L980 573.6 980.05 572.55 980.05 576.55 980 577.1"/>
    <path stroke="none" fill="#A1E03D" d="M980 577.1 L980.05 576.55 980.05 572.55 980.05 497.6 988.05 497.6 988.05 572.55 988 573.35 988 573.6 988 583.05 980 583.05 980 577.2 980 577.1 M1014.6 497.6 L1022.6 497.6 1022.6 520.65 1022.6 524.65 Q1029.8 523.3 1038.25 523.1 L1039.85 523.1 1044 523.1 1044 527.1 1039.85 527.1 1038.25 527.1 Q1030.6 527.3 1024.1 528.55 1021.7 528.95 1019.5 528.05 1017.3 527.1 1015.95 525.1 1014.6 523.05 1014.6 520.65 L1014.6 497.6 M1044 561.8 L1040.15 561.8 Q1028 562.5 1024.3 572.1 1022.75 576 1022.6 581.4 L1022.6 581.75 1022.6 583.1 1016.6 583.1 1016.1 583.1 1015.75 583.1 1014.6 583.1 1014.6 581.75 1014.6 581.4 1014.6 581.2 Q1014.8 574.2 1016.9 569.15 L1016.85 569.25 Q1021.95 554.85 1039.7 553.85 L1040.15 553.8 1044 553.8 1044 561.8"/>
    <path stroke="none" fill="#1EA7E1" d="M988.05 497.6 L1014.6 497.6 1014.6 520.65 Q1014.6 523.05 1015.95 525.1 1017.3 527.1 1019.5 528.05 1021.7 528.95 1024.1 528.55 1030.6 527.3 1038.25 527.1 L1039.85 527.1 1044 527.1 1044 553.8 1040.15 553.8 1039.7 553.85 Q1021.95 554.85 1016.85 569.25 L1016.9 569.15 Q1014.8 574.2 1014.6 581.2 L1014.6 581.4 1014.6 581.75 1014.6 583.1 1014.2 583.1 1013.8 583.1 1012.95 583.1 988 583.05 988 573.6 988 573.35 988.05 572.55 988.05 497.6 M1016.7 531.1 Q1015.55 531.1 1014.75 531.9 1013.95 532.7 1013.95 533.85 1013.95 535 1014.75 535.8 1015.55 536.6 1016.7 536.6 1017.85 536.6 1018.65 535.8 1019.45 535 1019.45 533.85 1019.45 532.7 1018.65 531.9 1017.85 531.1 1016.7 531.1 M993.95 563.65 Q994 565.8 995.5 567.3 997.1 568.9 999.35 568.9 1001.6 568.9 1003.15 567.3 1004.7 565.8 1004.75 563.65 L1004.75 563.5 Q1004.75 561.25 1003.15 559.65 1001.6 558.1 999.35 558.1 997.1 558.1 995.5 559.65 993.95 561.25 993.95 563.5 L993.95 563.65 M1010.25 531 Q1010.25 528.75 1008.65 527.15 1007.1 525.6 1004.85 525.6 1002.6 525.6 1001 527.15 999.45 528.75 999.45 531 L999.45 531.15 Q999.5 533.3 1001 534.8 1002.6 536.4 1004.85 536.4 1007.1 536.4 1008.65 534.8 1010.2 533.3 1010.25 531.15 L1010.25 531"/>
    <path stroke="none" fill="#2CB8F3" d="M1010.25 531 L1010.25 531.15 Q1010.2 533.3 1008.65 534.8 1007.1 536.4 1004.85 536.4 1002.6 536.4 1001 534.8 999.5 533.3 999.45 531.15 L999.45 531 Q999.45 528.75 1001 527.15 1002.6 525.6 1004.85 525.6 1007.1 525.6 1008.65 527.15 1010.25 528.75 1010.25 531 M1016.7 531.1 Q1017.85 531.1 1018.65 531.9 1019.45 532.7 1019.45 533.85 1019.45 535 1018.65 535.8 1017.85 536.6 1016.7 536.6 1015.55 536.6 1014.75 535.8 1013.95 535 1013.95 533.85 1013.95 532.7 1014.75 531.9 1015.55 531.1 1016.7 531.1 M993.95 563.65 L993.95 563.5 Q993.95 561.25 995.5 559.65 997.1 558.1 999.35 558.1 1001.6 558.1 1003.15 559.65 1004.75 561.25 1004.75 563.5 L1004.75 563.65 Q1004.7 565.8 1003.15 567.3 1001.6 568.9 999.35 568.9 997.1 568.9 995.5 567.3 994 565.8 993.95 563.65"/>
    <path stroke="none" fill="#527914" d="M973.2 353.2 Q974.35 352 976 352 L1026.6 352.05 Q1028.25 352.05 1029.45 353.25 1030.6 354.4 1030.6 356.05 L1030.6 368.05 Q1030.6 369.7 1029.45 370.9 1028.25 372.05 1026.6 372.05 L1026.6 449.55 Q1028.25 449.55 1029.45 450.75 1030.6 451.9 1030.6 453.55 L1030.6 465.55 Q1030.6 467.2 1029.45 468.4 1028.25 469.55 1026.6 469.55 L976 469.55 Q974.35 469.55 973.2 468.4 972 467.2 972 465.55 L972 453.5 Q972 451.85 973.2 450.7 974.35 449.5 976 449.5 L976.05 449.5 976.05 372.05 976 372.05 Q974.35 372.05 973.2 370.9 972 369.7 972 368.05 L972 356 Q972 354.35 973.2 353.2 M1022.6 368.05 L1026.6 368.05 1026.6 356.05 976 356 976 368.05 980.05 368.05 980.05 453.5 976 453.5 976 465.55 1026.6 465.55 1026.6 453.55 1022.6 453.55 1022.6 368.05"/>
    <path stroke="none" fill="#80BE1F" d="M1022.6 368.05 L1014.6 368.05 988.05 368.05 980.05 368.05 976 368.05 976 356 1026.6 356.05 1026.6 368.05 1022.6 368.05 M1022.6 453.55 L1026.6 453.55 1026.6 465.55 976 465.55 976 453.5 980.05 453.5 988.05 453.5 1001.35 453.55 1014.6 453.55 1022.6 453.55"/>
    <path stroke="none" fill="#A1E03D" d="M1022.6 453.55 L1014.6 453.55 1014.6 368.05 1022.6 368.05 1022.6 453.55 M980.05 368.05 L988.05 368.05 988.05 453.5 980.05 453.5 980.05 368.05"/>
    <path stroke="none" fill="#1EA7E1" d="M988.05 368.05 L1014.6 368.05 1014.6 453.55 1001.35 453.55 988.05 453.5 988.05 368.05 M998 417.25 Q999.6 418.85 1001.85 418.85 1004.1 418.85 1005.65 417.25 1007.2 415.75 1007.25 413.6 L1007.25 413.45 Q1007.25 411.2 1005.65 409.6 1004.1 408.05 1001.85 408.05 999.6 408.05 998 409.6 996.45 411.2 996.45 413.45 L996.45 413.6 Q996.5 415.75 998 417.25 M996.65 401.9 Q995.85 401.1 994.7 401.1 993.55 401.1 992.75 401.9 991.95 402.7 991.95 403.85 991.95 405 992.75 405.8 993.55 406.6 994.7 406.6 995.85 406.6 996.65 405.8 997.45 405 997.45 403.85 997.45 402.7 996.65 401.9 M996.6 389.6 Q996.95 391.05 998.1 392.2 999.75 393.85 1002.1 393.85 1004.45 393.85 1006.1 392.2 1007.25 391.05 1007.6 389.6 L1007.75 388.2 Q1007.75 385.85 1006.1 384.2 1004.45 382.55 1002.1 382.55 999.75 382.55 998.1 384.2 996.45 385.85 996.45 388.2 L996.6 389.6"/>
    <path stroke="none" fill="#2CB8F3" d="M996.6 389.6 L996.45 388.2 Q996.45 385.85 998.1 384.2 999.75 382.55 1002.1 382.55 1004.45 382.55 1006.1 384.2 1007.75 385.85 1007.75 388.2 L1007.6 389.6 Q1007.25 391.05 1006.1 392.2 1004.45 393.85 1002.1 393.85 999.75 393.85 998.1 392.2 996.95 391.05 996.6 389.6 M996.65 401.9 Q997.45 402.7 997.45 403.85 997.45 405 996.65 405.8 995.85 406.6 994.7 406.6 993.55 406.6 992.75 405.8 991.95 405 991.95 403.85 991.95 402.7 992.75 401.9 993.55 401.1 994.7 401.1 995.85 401.1 996.65 401.9 M998 417.25 Q996.5 415.75 996.45 413.6 L996.45 413.45 Q996.45 411.2 998 409.6 999.6 408.05 1001.85 408.05 1004.1 408.05 1005.65 409.6 1007.25 411.2 1007.25 413.45 L1007.25 413.6 Q1007.2 415.75 1005.65 417.25 1004.1 418.85 1001.85 418.85 999.6 418.85 998 417.25"/>
    <path stroke="none" fill="#1EA7E1" d="M809.45 388.45 L809.45 388.6 Q809.5 390.75 811 392.25 812.6 393.85 814.85 393.85 817.1 393.85 818.65 392.25 820.2 390.75 820.25 388.6 L820.25 388.45 Q820.25 386.2 818.65 384.6 817.1 383.05 814.85 383.05 812.6 383.05 811 384.6 809.45 386.2 809.45 388.45 M796.6 384.2 Q794.95 385.85 794.95 388.2 794.95 388.95 795.1 389.6 795.45 391.05 796.6 392.2 798.25 393.85 800.6 393.85 802.95 393.85 804.6 392.2 805.75 391.05 806.1 389.6 L806.25 388.2 Q806.25 385.85 804.6 384.2 802.95 382.55 800.6 382.55 798.25 382.55 796.6 384.2 M834 368 L834 394.7 830.15 394.7 829.7 394.75 Q811.95 395.75 806.85 410.15 L806.9 410.05 Q804.55 415.55 804.6 423.45 L804.6 424 779.7 424 779.25 424 778 424 778 423.95 778 414.85 Q780.05 369.1 828.25 368 L829.85 368 834 368 M795.95 403.85 Q795.95 402.7 795.15 401.9 794.35 401.1 793.2 401.1 792.05 401.1 791.25 401.9 790.45 402.7 790.45 403.85 790.45 405 791.25 405.8 792.05 406.6 793.2 406.6 794.35 406.6 795.15 405.8 795.95 405 795.95 403.85"/>
    <path stroke="none" fill="#2CB8F3" d="M795.95 403.85 Q795.95 405 795.15 405.8 794.35 406.6 793.2 406.6 792.05 406.6 791.25 405.8 790.45 405 790.45 403.85 790.45 402.7 791.25 401.9 792.05 401.1 793.2 401.1 794.35 401.1 795.15 401.9 795.95 402.7 795.95 403.85 M796.6 384.2 Q798.25 382.55 800.6 382.55 802.95 382.55 804.6 384.2 806.25 385.85 806.25 388.2 L806.1 389.6 Q805.75 391.05 804.6 392.2 802.95 393.85 800.6 393.85 798.25 393.85 796.6 392.2 795.45 391.05 795.1 389.6 794.95 388.95 794.95 388.2 794.95 385.85 796.6 384.2 M809.45 388.45 Q809.45 386.2 811 384.6 812.6 383.05 814.85 383.05 817.1 383.05 818.65 384.6 820.25 386.2 820.25 388.45 L820.25 388.6 Q820.2 390.75 818.65 392.25 817.1 393.85 814.85 393.85 812.6 393.85 811 392.25 809.5 390.75 809.45 388.6 L809.45 388.45"/>
    <path stroke="none" fill="#527914" d="M850.05 356.1 L850.05 360.1 850 398.7 850 406.7 Q850 408.35 848.85 409.55 847.65 410.7 846 410.7 L834 410.7 Q832.35 410.7 831.2 409.55 830 408.35 830 406.75 820.95 407.4 818.05 414.45 L818.05 414.5 Q817.1 416.9 816.75 420 818.3 420.05 819.45 421.2 820.6 422.35 820.6 424 L820.6 436 Q820.6 437.65 819.45 438.85 818.25 440 816.6 440 L766 440 Q764.35 440 763.2 438.85 762 437.65 762 436 L762 423.95 Q762 422.3 763.2 421.15 764.35 419.95 766 419.95 L766 414.5 766 414.35 Q768.25 357.3 828.2 356 L828.25 356 829.85 356 830 356 Q830.05 354.4 831.2 353.3 832.35 352.1 834 352.1 L846.05 352.1 Q847.7 352.1 848.9 353.3 850.05 354.45 850.05 356.1 M834 402.7 L834 406.7 846 406.7 846 398.7 846.05 360.1 846.05 356.1 834 356.1 834 360 829.85 360 828.25 360 Q772.2 361.2 770 414.5 L770 418.5 770 423.95 766 423.95 766 436 816.6 436 816.6 424 812.6 424 Q812.5 417.5 814.3 413 818 403.4 830.15 402.7 L834 402.7"/>
    <path stroke="none" fill="#A1E03D" d="M834 364 L834 368 829.85 368 828.25 368 Q780.05 369.1 778 414.85 L778 423.95 776.9 423.95 776.5 423.95 776 423.95 770 423.95 770 418.5 Q772.2 365.2 828.25 364 L829.85 364 834 364 M834 394.7 L834 402.7 830.15 402.7 Q818 403.4 814.3 413 812.5 417.5 812.6 424 L804.6 424 804.6 423.45 Q804.55 415.55 806.9 410.05 L806.85 410.15 Q811.95 395.75 829.7 394.75 L830.15 394.7 834 394.7"/>
    <path stroke="none" fill="#80BE1F" d="M834 394.7 L834 368 834 364 834 360 834 356.1 846.05 356.1 846.05 360.1 846 398.7 846 406.7 834 406.7 834 402.7 834 394.7 M804.6 424 L812.6 424 816.6 424 816.6 436 766 436 766 423.95 770 423.95 776 423.95 776.5 423.95 776.9 423.95 778 423.95 778 424 779.25 424 779.7 424 804.6 424"/>
    <path stroke="none" fill="#B2F04F" d="M834 360 L834 364 829.85 364 828.25 364 Q772.2 365.2 770 418.5 L770 414.5 Q772.2 361.2 828.25 360 L829.85 360 834 360"/>
    <path stroke="none" fill="#527914" d="M887.55 356.05 L887.75 356.05 Q944.75 358.3 946.05 418.25 L946.05 418.3 946.05 419.9 946.05 420.05 Q947.65 420.1 948.8 421.25 949.95 422.4 949.95 424.05 L949.95 436.1 Q949.95 437.75 948.8 438.95 947.6 440.1 945.95 440.1 L941.95 440.1 903.35 440.05 895.35 440.05 Q893.7 440.05 892.55 438.9 891.35 437.7 891.35 436.05 L891.35 424.05 Q891.35 422.4 892.55 421.25 893.7 420.05 895.35 420.05 894.65 411 887.6 408.1 885.15 407.15 882.05 406.8 882 408.35 880.9 409.5 879.7 410.65 878.05 410.65 L866.05 410.65 Q864.4 410.65 863.25 409.5 862.05 408.3 862.05 406.65 L862.05 356.05 Q862.05 354.4 863.25 353.25 864.4 352.05 866.05 352.05 L878.1 352.05 Q879.75 352.05 880.95 353.25 882.1 354.4 882.1 356.05 L887.55 356.05 M878.1 360.05 L878.1 356.05 866.05 356.05 866.05 406.65 878.05 406.65 878.05 402.65 Q884.55 402.55 889.05 404.35 898.65 408.05 899.35 420.2 L899.35 424.05 895.35 424.05 895.35 436.05 903.35 436.05 941.95 436.1 945.95 436.1 945.95 424.05 942.05 424.05 942.05 423.9 942.05 422.3 942.05 419.9 942.05 418.3 Q940.85 362.25 887.55 360.05 L878.1 360.05"/>
    <path stroke="none" fill="#80BE1F" d="M878.1 360.05 L878.1 364.05 878.1 368.05 878.1 394.65 878.05 402.65 878.05 406.65 866.05 406.65 866.05 356.05 878.1 356.05 878.1 360.05 M934.05 424.05 L942.05 424.05 945.95 424.05 945.95 436.1 941.95 436.1 903.35 436.05 895.35 436.05 895.35 424.05 899.35 424.05 907.35 424.05 934.05 424.05"/>
    <path stroke="none" fill="#B2F04F" d="M878.1 364.05 L878.1 360.05 887.55 360.05 Q940.85 362.25 942.05 418.3 L942.05 419.9 942.05 422.3 Q940.85 366.25 887.55 364.05 L878.1 364.05"/>
    <path stroke="none" fill="#A1E03D" d="M878.1 364.05 L887.55 364.05 Q940.85 366.25 942.05 422.3 L942.05 423.9 942.05 424.05 934.05 424.05 934.05 423.9 934.05 422.3 934.05 419.9 934.05 418.3 Q932.95 370.1 887.25 368.05 L878.1 368.05 878.1 364.05 M878.05 402.65 L878.1 394.65 879.25 394.65 Q886.75 394.7 892.05 396.95 L891.95 396.9 Q906.3 402 907.35 419.75 L907.35 420.2 907.35 424.05 899.35 424.05 899.35 420.2 Q898.65 408.05 889.05 404.35 884.55 402.55 878.05 402.65"/>
    <path stroke="none" fill="#1EA7E1" d="M878.1 394.65 L878.1 368.05 887.25 368.05 Q932.95 370.1 934.05 418.3 L934.05 419.9 934.05 422.3 934.05 423.9 934.05 424.05 907.35 424.05 907.35 420.2 907.35 419.75 Q906.3 402 891.95 396.9 L892.05 396.95 Q886.75 394.7 879.25 394.65 L878.1 394.65 M911.45 388.35 Q911.45 389.5 912.25 390.3 913.05 391.1 914.2 391.1 915.35 391.1 916.15 390.3 916.95 389.5 916.95 388.35 916.95 387.2 916.15 386.4 915.35 385.6 914.2 385.6 913.05 385.6 912.25 386.4 911.45 387.2 911.45 388.35 M897.5 384.6 Q895.95 386.2 895.95 388.45 L895.95 388.6 Q896 390.75 897.5 392.25 899.1 393.85 901.35 393.85 903.1 393.85 904.45 392.9 L905.15 392.25 Q906.7 390.75 906.75 388.6 L906.75 388.45 Q906.75 386.2 905.15 384.6 L904.45 384 Q903.1 383.05 901.35 383.05 899.1 383.05 897.5 384.6"/>
    <path stroke="none" fill="#2CB8F3" d="M897.5 384.6 Q899.1 383.05 901.35 383.05 903.1 383.05 904.45 384 L905.15 384.6 Q906.75 386.2 906.75 388.45 L906.75 388.6 Q906.7 390.75 905.15 392.25 L904.45 392.9 Q903.1 393.85 901.35 393.85 899.1 393.85 897.5 392.25 896 390.75 895.95 388.6 L895.95 388.45 Q895.95 386.2 897.5 384.6 M911.45 388.35 Q911.45 387.2 912.25 386.4 913.05 385.6 914.2 385.6 915.35 385.6 916.15 386.4 916.95 387.2 916.95 388.35 916.95 389.5 916.15 390.3 915.35 391.1 914.2 391.1 913.05 391.1 912.25 390.3 911.45 389.5 911.45 388.35"/>
    <path stroke="none" fill="#527914" d="M892.55 453.25 Q893.7 452.05 895.35 452.05 L903.35 452.05 941.95 452 945.95 452 Q947.6 452 948.8 453.2 949.95 454.35 949.95 456 L949.95 468.05 Q949.95 469.7 948.8 470.9 947.65 472 946.05 472.05 L946.05 472.2 946.05 473.8 946.05 473.9 Q944.75 533.8 887.75 536.05 L887.55 536.05 882.1 536.05 Q882.1 537.7 880.95 538.9 879.75 540.05 878.1 540.05 L866.05 540.05 Q864.4 540.05 863.25 538.9 862.05 537.7 862.05 536.05 L862.05 485.45 Q862.05 483.8 863.25 482.65 864.4 481.45 866.05 481.45 L878.05 481.45 Q879.7 481.45 880.9 482.65 882 483.75 882.05 485.3 885.15 484.95 887.6 484.05 894.65 481.1 895.35 472.05 893.7 472.05 892.55 470.9 891.35 469.7 891.35 468.05 L891.35 456.05 Q891.35 454.4 892.55 453.25 M942.05 468.05 L945.95 468.05 945.95 456 941.95 456 903.35 456.05 895.35 456.05 895.35 468.05 899.35 468.05 899.35 471.9 Q898.65 484.05 889.05 487.75 884.55 489.55 878.05 489.45 L878.05 485.45 866.05 485.45 866.05 536.05 878.1 536.05 878.1 532.05 887.55 532.05 Q940.85 529.85 942.05 473.8 L942.05 472.2 942.05 468.05"/>
    <path stroke="none" fill="#80BE1F" d="M942.05 468.05 L934.05 468.05 907.35 468.05 899.35 468.05 895.35 468.05 895.35 456.05 903.35 456.05 941.95 456 945.95 456 945.95 468.05 942.05 468.05 M878.05 493.45 L878.05 497.45 878.1 524.05 878.1 532.05 878.1 536.05 866.05 536.05 866.05 485.45 878.05 485.45 878.05 489.45 878.05 493.45"/>
    <path stroke="none" fill="#A1E03D" d="M878.05 493.45 Q884.55 493.55 889.05 491.75 898.65 488.05 899.35 475.9 L899.35 471.9 899.35 468.05 907.35 468.05 907.35 471.9 907.35 472.35 Q906.3 490.1 891.95 495.25 L892.05 495.2 Q886.45 497.5 878.45 497.45 L878.05 497.45 878.05 493.45 M934.05 468.05 L942.05 468.05 942.05 472.2 942.05 473.8 Q940.85 529.85 887.55 532.05 L878.1 532.05 878.1 524.05 879.25 524.05 880.4 524.05 882.65 524.05 887.25 524.05 Q933 522 934.05 473.65 L934.05 472.2 934.05 468.05"/>
    <path stroke="none" fill="#B2F04F" d="M899.35 471.9 L899.35 475.9 Q898.65 488.05 889.05 491.75 884.55 493.55 878.05 493.45 L878.05 489.45 Q884.55 489.55 889.05 487.75 898.65 484.05 899.35 471.9"/>
    <path stroke="none" fill="#1EA7E1" d="M907.35 468.05 L934.05 468.05 934.05 472.2 934.05 473.65 Q933 522 887.25 524.05 L882.65 524.05 880.4 524.05 879.25 524.05 878.1 524.05 878.05 497.45 878.45 497.45 Q886.45 497.5 892.05 495.2 L891.95 495.25 Q906.3 490.1 907.35 472.35 L907.35 471.9 907.35 468.05 M915 486.15 Q913.45 487.75 913.45 490 L913.45 490.15 Q913.5 492.3 915 493.8 916.6 495.4 918.85 495.4 921.1 495.4 922.65 493.8 924.2 492.3 924.25 490.15 L924.25 490 Q924.25 487.75 922.65 486.15 921.1 484.6 918.85 484.6 916.6 484.6 915 486.15 M887.45 507.15 Q887.5 509.3 889 510.8 890.6 512.4 892.85 512.4 895.1 512.4 896.65 510.8 898.2 509.3 898.25 507.15 L898.25 507 Q898.25 504.75 896.65 503.15 895.1 501.6 892.85 501.6 890.6 501.6 889 503.15 887.45 504.75 887.45 507 L887.45 507.15 M902.75 507.9 Q901.95 508.7 901.95 509.85 901.95 511 902.75 511.8 903.55 512.6 904.7 512.6 905.85 512.6 906.65 511.8 907.45 511 907.45 509.85 907.45 508.7 906.65 507.9 905.85 507.1 904.7 507.1 903.55 507.1 902.75 507.9"/>
    <path stroke="none" fill="#2CB8F3" d="M902.75 507.9 Q903.55 507.1 904.7 507.1 905.85 507.1 906.65 507.9 907.45 508.7 907.45 509.85 907.45 511 906.65 511.8 905.85 512.6 904.7 512.6 903.55 512.6 902.75 511.8 901.95 511 901.95 509.85 901.95 508.7 902.75 507.9 M915 486.15 Q916.6 484.6 918.85 484.6 921.1 484.6 922.65 486.15 924.25 487.75 924.25 490 L924.25 490.15 Q924.2 492.3 922.65 493.8 921.1 495.4 918.85 495.4 916.6 495.4 915 493.8 913.5 492.3 913.45 490.15 L913.45 490 Q913.45 487.75 915 486.15 M887.45 507.15 L887.45 507 Q887.45 504.75 889 503.15 890.6 501.6 892.85 501.6 895.1 501.6 896.65 503.15 898.25 504.75 898.25 507 L898.25 507.15 Q898.2 509.3 896.65 510.8 895.1 512.4 892.85 512.4 890.6 512.4 889 510.8 887.5 509.3 887.45 507.15"/>
    <path stroke="none" fill="#527914" d="M812.6 469.8 L812.6 469.45 812.6 468.1 816.6 468.1 816.6 456.1 766 456.1 766 468.15 770 468.15 770 477.6 Q772.2 530.9 828.25 532.1 L829.85 532.1 834 532.1 834 536 846.05 536 846.05 532 846 493.4 846 485.4 834 485.4 834 489.4 830.15 489.4 Q818 488.7 814.3 479.1 812.75 475.2 812.6 469.8 M819.45 453.3 Q820.6 454.45 820.6 456.1 L820.6 468.1 Q820.6 469.75 819.45 470.95 818.3 472.05 816.75 472.1 817.1 475.2 818.05 477.65 820.95 484.7 830 485.4 830 483.75 831.2 482.6 832.35 481.4 834 481.4 L846 481.4 Q847.65 481.4 848.85 482.6 850 483.75 850 485.4 L850 493.4 850.05 532 850.05 536 Q850.05 537.65 848.9 538.85 847.7 540 846.05 540 L834 540 Q832.35 540 831.2 538.85 830.05 537.7 830 536.1 L829.85 536.1 828.25 536.1 828.2 536.1 Q768.25 534.8 766 477.8 L766 477.6 766 472.15 Q764.35 472.15 763.2 471 762 469.8 762 468.15 L762 456.1 Q762 454.45 763.2 453.3 764.35 452.1 766 452.1 L816.6 452.1 Q818.25 452.1 819.45 453.3"/>
    <path stroke="none" fill="#A1E03D" d="M812.6 468.1 L812.6 469.45 812.6 469.8 812.6 472.1 Q812.5 478.6 814.3 483.1 818 492.7 830.15 493.4 L834 493.4 834 497.4 833.9 497.4 830.15 497.4 829.7 497.4 Q811.95 496.35 806.85 482 L806.9 482.05 Q805.2 478 804.75 472.7 L804.6 470.05 804.6 469.8 804.6 469.45 804.6 468.1 812.6 468.1 M834 532.1 L829.85 532.1 828.25 532.1 Q772.2 530.9 770 477.6 L770 468.15 776 468.15 776.5 468.15 776.9 468.15 778 468.15 778 477.3 Q780.05 523.05 828.45 524.1 L829.85 524.1 834 524.1 834 532.1"/>
    <path stroke="none" fill="#80BE1F" d="M834 532.1 L834 524.1 834 497.4 834 493.4 834 489.4 834 485.4 846 485.4 846 493.4 846.05 532 846.05 536 834 536 834 532.1 M770 468.15 L766 468.15 766 456.1 816.6 456.1 816.6 468.1 812.6 468.1 804.6 468.1 779.7 468.15 778 468.15 776.9 468.15 776.5 468.15 776 468.15 770 468.15"/>
    <path stroke="none" fill="#B2F04F" d="M812.6 469.8 Q812.75 475.2 814.3 479.1 818 488.7 830.15 489.4 L834 489.4 834 493.4 830.15 493.4 Q818 492.7 814.3 483.1 812.5 478.6 812.6 472.1 L812.6 469.8"/>
    <path stroke="none" fill="#1EA7E1" d="M804.6 468.1 L804.6 469.45 804.6 469.8 804.6 470.05 804.75 472.7 Q805.2 478 806.9 482.05 L806.85 482 Q811.95 496.35 829.7 497.4 L830.15 497.4 833.9 497.4 834 497.4 834 524.1 829.85 524.1 828.45 524.1 Q780.05 523.05 778 477.3 L778 468.15 779.7 468.15 804.6 468.1 M814.15 503.15 Q812.6 501.6 810.35 501.6 808.1 501.6 806.5 503.15 804.95 504.75 804.95 507 L804.95 507.15 Q805 509.3 806.5 510.8 808.1 512.4 810.35 512.4 812.6 512.4 814.15 510.8 815.7 509.3 815.75 507.15 L815.75 507 Q815.75 504.75 814.15 503.15 M801.45 503.85 Q801.45 502.7 800.65 501.9 799.85 501.1 798.7 501.1 797.55 501.1 796.75 501.9 795.95 502.7 795.95 503.85 795.95 505 796.75 505.8 797.55 506.6 798.7 506.6 799.85 506.6 800.65 505.8 801.45 505 801.45 503.85 M785.3 491.35 Q785.65 492.8 786.8 493.95 788.45 495.6 790.8 495.6 793.15 495.6 794.8 493.95 795.95 492.8 796.3 491.35 L796.45 489.95 Q796.45 487.6 794.8 485.95 793.15 484.3 790.8 484.3 788.45 484.3 786.8 485.95 785.15 487.6 785.15 489.95 L785.3 491.35"/>
    <path stroke="none" fill="#2CB8F3" d="M785.3 491.35 L785.15 489.95 Q785.15 487.6 786.8 485.95 788.45 484.3 790.8 484.3 793.15 484.3 794.8 485.95 796.45 487.6 796.45 489.95 L796.3 491.35 Q795.95 492.8 794.8 493.95 793.15 495.6 790.8 495.6 788.45 495.6 786.8 493.95 785.65 492.8 785.3 491.35 M814.15 503.15 Q815.75 504.75 815.75 507 L815.75 507.15 Q815.7 509.3 814.15 510.8 812.6 512.4 810.35 512.4 808.1 512.4 806.5 510.8 805 509.3 804.95 507.15 L804.95 507 Q804.95 504.75 806.5 503.15 808.1 501.6 810.35 501.6 812.6 501.6 814.15 503.15 M801.45 503.85 Q801.45 505 800.65 505.8 799.85 506.6 798.7 506.6 797.55 506.6 796.75 505.8 795.95 505 795.95 503.85 795.95 502.7 796.75 501.9 797.55 501.1 798.7 501.1 799.85 501.1 800.65 501.9 801.45 502.7 801.45 503.85"/>
  </g>
</svg>