<svg xmlns="http://www.w3.org/2000/svg" xmlns:xlink="http://www.w3.org/1999/xlink">
  <defs/>
  <g>
    <path stroke="none" fill="#E5E5E5" d="M1084.7 270.4 L1070.85 255.65 1070.7 255.5 1070.65 255.45 1070.6 255.4 Q1068 252.45 1068 248.4 L1068 248.35 Q1068 244.05 1070.9 241.05 L1070.95 241.05 Q1073.65 238.05 1077.6 238.05 L1077.7 238.05 Q1081.6 238.05 1084.4 241 L1084.45 241.05 1085.8 242.8 Q1087.3 245.15 1089.95 246.05 L1092.5 246.5 1095.25 246 Q1097.85 245 1099.35 242.65 L1100.5 241.15 1100.35 241.25 1100.4 241.2 1100.65 241 Q1103.35 238.05 1107.3 238.05 L1107.4 238.05 Q1111.3 238.05 1114.1 241 L1114.15 241.05 Q1117 244.05 1117 248.35 L1117 248.4 Q1117 252.45 1114.4 255.4 L1114.35 255.45 1114.2 255.65 1092.5 278.7 1084.7 270.4 M987.95 276.95 Q980.95 269.9 980.95 259.95 980.95 250.05 988 243 L988.05 243 Q995 235.95 1004.95 235.95 L1005 235.95 Q1014.9 235.95 1021.9 243 1028.95 250.05 1028.95 259.95 1028.95 269.95 1021.9 277 1014.95 283.95 1005 283.95 L1004.95 283.95 Q994.95 283.95 988 277 L987.95 276.95 M737.95 242.4 L744.1 251.6 745.1 252.8 746.3 253.8 755.55 259.95 746.3 266.1 745.1 267.1 744.1 268.3 737.95 277.55 731.8 268.3 730.8 267.1 729.6 266.1 720.4 259.95 729.6 253.8 730.8 252.8 731.8 251.6 737.95 242.4 M814.75 279.6 L814.65 279.65 814.2 269.45 813.85 267.4 812.85 265.35 807.2 256.9 816.9 253.3 Q817.95 252.9 818.85 252.25 L820.35 250.85 826.95 242.75 833.4 250.8 834.9 252.25 836.9 253.3 846.65 256.9 841 265.4 Q840.35 266.35 840.05 267.4 839.7 268.35 839.65 269.4 L839.15 279.65 839 279.6 829.05 276.9 826.95 276.6 824.9 276.9 814.75 279.6 M655.05 245.85 L674.05 283.95 635.9 283.95 655.05 245.85 M893.9 251.45 L902.65 241.95 927.35 241.95 936.05 251.4 914.95 274.2 893.9 251.45 M452.25 255.35 L475 238 497.7 255.35 488.85 283.95 461.05 283.95 452.25 255.35 M405.65 259.95 L384.95 280.65 364.25 259.95 384.95 239.25 405.65 259.95 M318.95 245.95 L318.95 273.95 290.95 273.95 290.95 245.95 318.95 245.95 M588.3 259.95 L581.45 276.4 564.95 283.2 548.4 276.45 541.6 259.95 548.4 243.4 564.95 236.5 581.45 243.35 588.3 259.95 M80.95 235.95 L128.95 235.95 128.95 283.95 80.95 283.95 80.95 235.95 M168.95 273.95 L168.95 245.95 246.95 245.95 246.95 273.95 168.95 273.95"/>
    <path stroke="none" fill="#F0F0F0" d="M1114.1 241 Q1111.3 238.05 1107.4 238.05 L1107.3 238.05 Q1103.35 238.05 1100.65 241 L1100.4 241.2 1100.35 241.25 1100.5 241.15 1099.35 242.65 Q1097.85 245 1095.25 246 L1092.5 246.5 1089.95 246.05 Q1087.3 245.15 1085.8 242.8 L1084.45 241.05 1084.4 241 Q1081.6 238.05 1077.7 238.05 L1077.6 238.05 Q1073.65 238.05 1070.95 241.05 L1070.9 241.05 Q1068 244.05 1068 248.35 L1068 248.4 Q1068 252.45 1070.6 255.4 L1070.65 255.45 1070.7 255.5 1070.85 255.65 1084.7 270.4 1079.05 276.05 1065 261.1 1064.8 260.9 1064.6 260.7 Q1060 255.5 1060 248.35 1060.05 240.85 1065.05 235.55 L1065.25 235.35 Q1070.4 230 1077.65 230.05 1085 230 1090.25 235.55 L1092.5 238.45 Q1093.45 236.9 1094.7 235.6 L1094.75 235.55 Q1099.85 230 1107.35 230.05 1114.55 230 1119.75 235.35 L1114.1 241 M1027.55 237.35 L1021.9 243 Q1014.9 235.95 1005 235.95 L1004.95 235.95 Q995 235.95 988.05 243 L988 243 Q980.95 250.05 980.95 259.95 980.95 269.9 987.95 276.95 L982.3 282.6 Q972.95 273.2 972.95 259.95 972.95 246.75 982.35 237.35 991.65 227.95 1004.95 227.95 L1005 227.95 Q1018.25 227.95 1027.55 237.35 M737.95 227.95 L750.75 247.15 769.95 259.95 755.55 259.95 746.3 253.8 745.1 252.8 744.1 251.6 737.95 242.4 737.95 227.95 M737.95 291.95 L725.15 272.75 705.95 259.95 720.4 259.95 729.6 266.1 730.8 267.1 731.8 268.3 737.95 277.55 737.95 291.95 M807.1 289.95 L806.2 269.8 794.9 252.9 807.2 256.9 812.85 265.35 813.85 267.4 814.2 269.45 814.65 279.65 814.75 279.6 807.1 289.95 M826.95 229.95 L839.65 245.8 858.9 252.9 847.65 269.8 846.65 289.95 839 279.6 839.15 279.65 839.65 269.4 Q839.7 268.35 840.05 267.4 840.35 266.35 841 265.4 L846.65 256.9 836.9 253.3 834.9 252.25 833.4 250.8 826.95 242.75 826.95 229.95 M655.05 245.85 L655.05 227.95 686.95 291.95 674.05 283.95 655.05 245.85 M882.95 251.4 L893.9 251.45 914.95 274.2 914.95 285.95 882.95 251.4 M927.35 241.95 L930.85 233.95 946.95 251.4 936.05 251.4 927.35 241.95 M475 238 L475 227.95 506.95 252.35 494.75 291.95 488.85 283.95 497.7 255.35 475 238 M442.95 252.35 L452.25 255.35 461.05 283.95 455.15 291.95 442.95 252.35 M416.95 259.95 L405.65 259.95 384.95 239.25 384.95 227.95 416.95 259.95 M326.95 237.95 L326.95 281.95 318.95 273.95 318.95 245.95 326.95 237.95 M282.95 281.95 L282.95 237.95 290.95 245.95 290.95 273.95 282.95 281.95 M564.95 283.2 L564.95 291.85 542.25 282.55 532.95 259.95 541.6 259.95 548.4 276.45 564.95 283.2 M596.95 259.95 L588.3 259.95 581.45 243.35 564.95 236.5 564.95 227.85 587.55 237.25 596.95 259.95 M128.95 235.95 L136.95 227.95 136.95 291.95 128.95 283.95 128.95 235.95 M72.95 227.95 L80.95 235.95 80.95 283.95 72.95 291.95 72.95 227.95 M160.95 281.95 L160.95 237.95 168.95 245.95 168.95 273.95 160.95 281.95 M254.95 237.95 L254.95 281.95 246.95 273.95 246.95 245.95 254.95 237.95"/>
    <path stroke="none" fill="#FFFFFF" d="M254.95 237.95 L246.95 245.95 168.95 245.95 160.95 237.95 254.95 237.95 M737.95 227.95 L737.95 242.4 731.8 251.6 730.8 252.8 729.6 253.8 720.4 259.95 705.95 259.95 725.15 247.15 737.95 227.95 M807.2 256.9 L794.9 252.9 814.1 245.8 826.95 229.95 826.95 242.75 820.35 250.85 818.85 252.25 Q817.95 252.9 816.9 253.3 L807.2 256.9 M655.05 227.95 L655.05 245.85 635.9 283.95 622.95 291.95 655.05 227.95 M882.95 251.4 L899.15 233.95 930.85 233.95 927.35 241.95 902.65 241.95 893.9 251.45 882.95 251.4 M475 227.95 L475 238 452.25 255.35 442.95 252.35 475 227.95 M364.25 259.95 L352.95 259.95 384.95 227.95 384.95 239.25 364.25 259.95 M326.95 237.95 L318.95 245.95 290.95 245.95 282.95 237.95 326.95 237.95 M564.95 236.5 L548.4 243.4 541.6 259.95 532.95 259.95 542.25 237.25 564.95 227.85 564.95 236.5 M136.95 227.95 L128.95 235.95 80.95 235.95 72.95 227.95 136.95 227.95"/>
    <path stroke="none" fill="#C9C9C9" d="M1114.1 241 L1119.75 235.35 1119.95 235.55 Q1124.95 240.85 1125 248.35 1125 255 1121.05 259.95 L1120.4 260.7 1120.2 260.9 1120 261.1 1094.6 288.1 1093.25 288.9 1092.5 289.05 1091.7 288.9 1090.4 288.1 1079.05 276.05 1084.7 270.4 1092.5 278.7 1114.2 255.65 1114.35 255.45 1114.4 255.4 Q1117 252.45 1117 248.4 L1117 248.35 Q1117 244.05 1114.15 241.05 L1114.1 241 M1021.9 243 L1027.55 237.35 Q1036.95 246.75 1036.95 259.95 1036.95 273.25 1027.55 282.65 1018.25 291.95 1005 291.95 L1004.95 291.95 Q991.65 291.95 982.35 282.65 L982.3 282.6 987.95 276.95 988 277 Q994.95 283.95 1004.95 283.95 L1005 283.95 Q1014.95 283.95 1021.9 277 1028.95 269.95 1028.95 259.95 1028.95 250.05 1021.9 243 M755.55 259.95 L769.95 259.95 750.75 272.75 737.95 291.95 737.95 277.55 744.1 268.3 745.1 267.1 746.3 266.1 755.55 259.95 M807.1 289.95 L814.75 279.6 824.9 276.9 826.95 276.6 829.05 276.9 839 279.6 846.65 289.95 826.95 284.6 807.1 289.95 M674.05 283.95 L686.95 291.95 622.95 291.95 635.9 283.95 674.05 283.95 M946.95 251.4 L914.95 285.95 914.95 274.2 936.05 251.4 946.95 251.4 M488.85 283.95 L494.75 291.95 455.15 291.95 461.05 283.95 488.85 283.95 M405.65 259.95 L416.95 259.95 384.95 291.95 352.95 259.95 364.25 259.95 384.95 280.65 405.65 259.95 M318.95 273.95 L326.95 281.95 282.95 281.95 290.95 273.95 318.95 273.95 M564.95 283.2 L581.45 276.4 588.3 259.95 596.95 259.95 587.55 282.55 564.95 291.85 564.95 283.2 M128.95 283.95 L136.95 291.95 72.95 291.95 80.95 283.95 128.95 283.95 M160.95 281.95 L168.95 273.95 246.95 273.95 254.95 281.95 160.95 281.95"/>
    <path stroke="none" fill="#9A9A9A" d="M160.95 281.95 L254.95 281.95 254.95 237.95 160.95 237.95 160.95 281.95 M1107.4 225.05 Q1116.6 225 1123.3 231.85 L1123.35 231.9 1123.5 232.05 1123.6 232.15 Q1129.9 238.85 1130 248.35 1129.95 256.7 1125.05 262.95 L1124.95 263.1 1123.95 264.25 1123.75 264.45 1123.65 264.55 1098.25 291.55 1098.15 291.65 Q1096.75 293.05 1094.75 293.7 L1094.65 293.7 1093.15 294 1092.5 294.05 1089.95 293.6 1090.2 293.7 Q1088.05 293 1086.75 291.55 L1061.45 264.65 1060.45 263.55 Q1055 257.1 1055 248.35 1055.1 238.85 1061.45 232.15 L1061.55 232.05 1061.75 231.85 1061.65 231.9 Q1068.3 225 1077.65 225.05 L1077.7 225.05 Q1086.2 225 1092.5 230.75 1098.65 225 1107.35 225.05 L1107.4 225.05 M1119.75 235.35 Q1114.55 230 1107.35 230.05 1099.85 230 1094.75 235.55 L1094.7 235.6 Q1093.45 236.9 1092.5 238.45 L1090.25 235.55 Q1085 230 1077.65 230.05 1070.4 230 1065.25 235.35 L1065.05 235.55 Q1060.05 240.85 1060 248.35 1060 255.5 1064.6 260.7 L1064.8 260.9 1065 261.1 1079.05 276.05 1090.4 288.1 1091.7 288.9 1092.5 289.05 1093.25 288.9 1094.6 288.1 1120 261.1 1120.2 260.9 1120.4 260.7 1121.05 259.95 Q1125 255 1125 248.35 1124.95 240.85 1119.95 235.55 L1119.75 235.35 M1027.55 237.35 Q1018.25 227.95 1005 227.95 L1004.95 227.95 Q991.65 227.95 982.35 237.35 972.95 246.75 972.95 259.95 972.95 273.2 982.3 282.6 L982.35 282.65 Q991.65 291.95 1004.95 291.95 L1005 291.95 Q1018.25 291.95 1027.55 282.65 1036.95 273.25 1036.95 259.95 1036.95 246.75 1027.55 237.35 M1005 222.95 Q1020.35 222.95 1031.1 233.85 1041.95 244.7 1041.95 259.95 1041.95 275.3 1031.1 286.2 1020.3 296.95 1005 296.95 L1004.95 296.95 Q989.6 296.95 978.85 286.2 L978.8 286.15 978.75 286.15 Q967.95 275.25 967.95 259.95 967.95 244.7 978.85 233.85 L978.8 233.85 Q989.55 222.95 1004.95 222.95 L1005 222.95 M769.95 259.95 L750.75 247.15 737.95 227.95 725.15 247.15 705.95 259.95 725.15 272.75 737.95 291.95 750.75 272.75 769.95 259.95 M739.55 223.25 Q741.15 223.75 742.1 225.2 L754.35 243.55 772.75 255.8 Q774.15 256.75 774.7 258.35 775.25 259.95 774.7 261.55 774.15 263.15 772.75 264.1 L754.35 276.35 742.1 294.75 Q741.15 296.15 739.55 296.7 737.95 297.25 736.35 296.7 734.75 296.15 733.8 294.75 L721.55 276.35 703.2 264.1 Q701.75 263.15 701.25 261.55 700.65 259.95 701.25 258.35 701.75 256.75 703.2 255.8 L721.55 243.55 733.8 225.2 Q734.75 223.75 736.35 223.25 737.95 222.65 739.55 223.25 M790.75 255.7 Q789.9 254.4 789.9 252.85 789.9 251.3 790.85 250.05 791.7 248.75 793.2 248.2 L811.1 241.6 823.1 226.8 Q824.05 225.6 825.5 225.2 826.95 224.7 828.45 225.2 829.9 225.65 830.85 226.85 L842.7 241.6 860.65 248.2 Q862.05 248.75 863 250.05 863.9 251.3 863.9 252.85 863.9 254.35 863.05 255.7 L852.6 271.4 851.65 290.2 Q851.6 291.7 850.65 292.95 849.7 294.2 848.25 294.7 L845.35 294.8 826.95 289.8 808.4 294.8 805.5 294.7 Q804.05 294.15 803.1 292.95 802.15 291.7 802.1 290.2 L801.25 271.4 790.75 255.7 M794.9 252.9 L806.2 269.8 807.1 289.95 826.95 284.6 846.65 289.95 847.65 269.8 858.9 252.9 839.65 245.8 826.95 229.95 814.1 245.8 794.9 252.9 M686.95 291.95 L655.05 227.95 622.95 291.95 686.95 291.95 M656.85 223.3 Q658.65 224 659.55 225.75 L691.45 289.75 Q692.2 291.3 691.85 293.05 691.45 294.75 690.1 295.85 688.7 296.95 686.95 296.95 L622.95 296.95 Q621.2 296.95 619.85 295.85 618.45 294.7 618.1 293 617.7 291.3 618.5 289.7 L650.6 225.7 Q651.45 223.95 653.25 223.3 655.05 222.6 656.85 223.3 M934.55 230.55 L950.65 248 Q951.95 249.45 951.95 251.4 951.95 253.35 950.65 254.8 L918.65 289.35 Q917.65 290.35 916.3 290.75 914.95 291.15 913.6 290.75 912.25 290.35 911.3 289.35 L879.3 254.8 Q877.95 253.35 877.95 251.4 877.95 249.45 879.3 248 L895.5 230.55 Q896.2 229.8 897.15 229.4 898.1 228.95 899.15 228.95 L930.85 228.95 Q931.9 228.95 932.85 229.4 933.8 229.8 934.55 230.55 M930.85 233.95 L899.15 233.95 882.95 251.4 914.95 285.95 946.95 251.4 930.85 233.95 M475 227.95 L442.95 252.35 455.15 291.95 494.75 291.95 506.95 252.35 475 227.95 M478.05 224 L510 248.4 Q511.2 249.35 511.7 250.85 512.2 252.3 511.75 253.85 L499.55 293.45 Q499.05 295 497.7 296 496.4 296.95 494.75 296.95 L455.15 296.95 Q453.5 296.95 452.2 296 450.85 295 450.4 293.45 L438.2 253.85 Q437.7 252.35 438.2 250.85 438.7 249.35 439.95 248.4 L472 224 Q473.3 222.95 475 222.95 476.65 222.95 478.05 224 M352.95 259.95 L384.95 291.95 416.95 259.95 384.95 227.95 352.95 259.95 M420.5 263.5 L388.5 295.5 Q387 296.95 384.95 296.95 382.9 296.95 381.45 295.5 L349.45 263.5 Q347.95 262 347.95 259.95 347.95 257.9 349.45 256.45 L381.45 224.45 Q382.9 222.95 384.95 222.95 387 222.95 388.5 224.45 L420.5 256.45 Q421.95 257.9 421.95 259.95 421.95 262 420.5 263.5 M330.5 234.45 Q331.95 235.9 331.95 237.95 L331.95 281.95 Q331.95 284 330.5 285.5 329 286.95 326.95 286.95 L282.95 286.95 Q280.9 286.95 279.45 285.5 277.95 284 277.95 281.95 L277.95 237.95 Q277.95 235.9 279.45 234.45 280.9 232.95 282.95 232.95 L326.95 232.95 Q329 232.95 330.5 234.45 M326.95 281.95 L326.95 237.95 282.95 237.95 282.95 281.95 326.95 281.95 M592.2 235.35 L601.6 258.05 Q602.4 259.95 601.6 261.9 L592.2 284.5 Q591.35 286.4 589.45 287.2 L566.85 296.5 Q564.95 297.25 563.05 296.5 L540.35 287.2 Q538.45 286.4 537.65 284.45 L528.35 261.85 Q527.55 259.95 528.35 258.05 L537.65 235.35 Q538.4 233.45 540.35 232.65 L563.05 223.25 Q564.95 222.4 566.9 223.25 L589.5 232.65 Q591.4 233.45 592.2 235.35 M564.95 291.85 L587.55 282.55 596.95 259.95 587.55 237.25 564.95 227.85 542.25 237.25 532.95 259.95 542.25 282.55 564.95 291.85 M136.95 227.95 L72.95 227.95 72.95 291.95 136.95 291.95 136.95 227.95 M141.95 227.95 L141.95 291.95 Q141.95 294 140.5 295.5 139 296.95 136.95 296.95 L72.95 296.95 Q70.9 296.95 69.45 295.5 67.95 294 67.95 291.95 L67.95 227.95 Q67.95 225.9 69.45 224.45 70.9 222.95 72.95 222.95 L136.95 222.95 Q139 222.95 140.5 224.45 141.95 225.9 141.95 227.95 M160.95 232.95 L254.95 232.95 Q257 232.95 258.5 234.45 259.95 235.9 259.95 237.95 L259.95 281.95 Q259.95 284 258.5 285.5 257 286.95 254.95 286.95 L160.95 286.95 Q158.9 286.95 157.45 285.5 155.95 284 155.95 281.95 L155.95 237.95 Q155.95 235.9 157.45 234.45 158.9 232.95 160.95 232.95"/>
    <path stroke="none" fill="#E5E5E5" d="M1021.9 333 Q1026.5 337.6 1028.1 343.45 1028.9 346.3 1028.95 349.45 L1028.95 349.95 Q1028.95 359.95 1021.9 367 1014.95 373.95 1005 373.95 L1004.95 373.95 Q994.95 373.95 988 367 L987.95 366.95 Q980.95 359.9 980.95 349.95 L980.95 349.45 Q981 346.3 981.8 343.45 983.4 337.6 988 333 L988.05 333 Q995 325.95 1004.95 325.95 L1005 325.95 Q1014.9 325.95 1021.9 333 M1084.7 360.4 L1070.85 345.65 1070.7 345.5 1070.65 345.45 1070.6 345.4 1069.25 343.45 Q1068 341.2 1068 338.4 L1068 338.35 Q1068 334.05 1070.9 331.05 L1070.95 331.05 Q1073.65 328.05 1077.6 328.05 L1077.7 328.05 Q1081.6 328.05 1084.4 331 L1084.45 331.05 1085.8 332.8 Q1087.3 335.15 1089.95 336.05 L1092.5 336.5 1095.25 336 Q1097.85 335 1099.35 332.65 L1100.5 331.15 1100.35 331.25 1100.4 331.2 1100.65 331 Q1103.35 328.05 1107.3 328.05 L1107.4 328.05 Q1111.3 328.05 1114.1 331 L1114.15 331.05 Q1117 334.05 1117 338.35 L1117 338.4 Q1117 341.2 1115.8 343.45 L1114.4 345.4 1114.35 345.45 1114.2 345.65 1092.5 368.7 1084.7 360.4 M655.05 335.85 L674.05 373.95 635.9 373.95 655.05 335.85 M737.95 367.55 L731.8 358.3 730.8 357.1 729.6 356.1 720.4 349.95 729.6 343.8 730.8 342.8 731.8 341.6 737.95 332.4 744.1 341.6 745.1 342.8 746.3 343.8 755.55 349.95 746.3 356.1 745.1 357.1 744.1 358.3 737.95 367.55 M814.75 369.6 L814.65 369.65 814.2 359.45 813.85 357.4 812.85 355.35 807.2 346.9 816.9 343.3 Q817.95 342.9 818.85 342.25 L820.35 340.85 826.95 332.75 833.4 340.8 834.9 342.25 836.9 343.3 846.65 346.9 841.05 355.35 841 355.4 Q840.35 356.35 840.05 357.4 839.7 358.35 839.65 359.4 L839.15 369.65 839 369.6 829.05 366.9 826.95 366.6 824.9 366.9 814.75 369.6 M927.35 331.95 L936.05 341.4 914.95 364.2 893.9 341.45 902.65 331.95 927.35 331.95 M384.95 329.25 L405.65 349.95 384.95 370.65 364.25 349.95 384.95 329.25 M318.95 335.95 L318.95 363.95 290.95 363.95 290.95 335.95 318.95 335.95 M452.25 345.35 L475 328 497.7 345.35 488.85 373.95 461.05 373.95 452.25 345.35 M564.95 326.5 L581.45 333.35 588.3 349.95 581.45 366.4 564.95 373.2 548.4 366.45 541.6 349.95 548.4 333.4 564.95 326.5 M80.95 325.95 L128.95 325.95 128.95 373.95 80.95 373.95 80.95 325.95 M168.95 363.95 L168.95 335.95 246.95 335.95 246.95 363.95 168.95 363.95"/>
    <path stroke="none" fill="#F0F0F0" d="M168.95 363.95 L160.95 371.95 160.95 327.95 168.95 335.95 168.95 363.95 M1027.55 327.35 L1021.9 333 Q1014.9 325.95 1005 325.95 L1004.95 325.95 Q995 325.95 988.05 333 L988 333 Q983.4 337.6 981.8 343.45 981 346.3 980.95 349.45 L980.95 349.95 Q980.95 359.9 987.95 366.95 L982.3 372.6 Q972.95 363.2 972.95 349.95 L972.95 349.45 Q973 346.35 973.6 343.45 975.35 334.35 982.35 327.35 991.65 317.95 1004.95 317.95 L1005 317.95 Q1018.25 317.95 1027.55 327.35 M1079.05 366.05 L1065 351.1 1064.8 350.9 1064.6 350.7 1063.6 349.45 1062.3 347.45 Q1061.2 345.55 1060.65 343.45 1060 341.05 1060 338.35 1060.05 330.85 1065.05 325.55 L1065.25 325.35 Q1070.4 320 1077.65 320.05 1085 320 1090.25 325.55 L1092.5 328.45 Q1093.45 326.9 1094.7 325.6 L1094.75 325.55 Q1099.85 320 1107.35 320.05 1114.55 320 1119.75 325.35 L1114.1 331 Q1111.3 328.05 1107.4 328.05 L1107.3 328.05 Q1103.35 328.05 1100.65 331 L1100.4 331.2 1100.35 331.25 1100.5 331.15 1099.35 332.65 Q1097.85 335 1095.25 336 L1092.5 336.5 1089.95 336.05 Q1087.3 335.15 1085.8 332.8 L1084.45 331.05 1084.4 331 Q1081.6 328.05 1077.7 328.05 L1077.6 328.05 Q1073.65 328.05 1070.95 331.05 L1070.9 331.05 Q1068 334.05 1068 338.35 L1068 338.4 Q1068 341.2 1069.25 343.45 L1070.6 345.4 1070.65 345.45 1070.7 345.5 1070.85 345.65 1084.7 360.4 1079.05 366.05 M655.05 335.85 L655.05 317.95 686.95 381.95 674.05 373.95 655.05 335.85 M737.95 381.95 L725.15 362.75 705.95 349.95 720.4 349.95 729.6 356.1 730.8 357.1 731.8 358.3 737.95 367.55 737.95 381.95 M737.95 317.95 L750.75 337.15 769.95 349.95 755.55 349.95 746.3 343.8 745.1 342.8 744.1 341.6 737.95 332.4 737.95 317.95 M807.1 379.95 L806.2 359.8 794.9 342.9 807.2 346.9 812.85 355.35 813.85 357.4 814.2 359.45 814.65 369.65 814.75 369.6 807.1 379.95 M826.95 319.95 L839.65 335.8 858.9 342.9 847.65 359.8 846.65 379.95 839 369.6 839.15 369.65 839.65 359.4 Q839.7 358.35 840.05 357.4 840.35 356.35 841 355.4 L841.05 355.35 846.65 346.9 836.9 343.3 834.9 342.25 833.4 340.8 826.95 332.75 826.95 319.95 M946.95 341.4 L936.05 341.4 927.35 331.95 930.85 323.95 946.95 341.4 M914.95 364.2 L914.95 375.95 882.95 341.4 893.9 341.45 914.95 364.2 M384.95 329.25 L384.95 317.95 416.95 349.95 405.65 349.95 384.95 329.25 M326.95 327.95 L326.95 371.95 318.95 363.95 318.95 335.95 326.95 327.95 M282.95 371.95 L282.95 327.95 290.95 335.95 290.95 363.95 282.95 371.95 M475 328 L475 317.95 506.95 342.35 494.75 381.95 488.85 373.95 497.7 345.35 475 328 M442.95 342.35 L452.25 345.35 461.05 373.95 455.15 381.95 442.95 342.35 M564.95 326.5 L564.95 317.85 587.55 327.25 596.95 349.95 588.3 349.95 581.45 333.35 564.95 326.5 M532.95 349.95 L541.6 349.95 548.4 366.45 564.95 373.2 564.95 381.85 542.25 372.55 532.95 349.95 M72.95 317.95 L80.95 325.95 80.95 373.95 72.95 381.95 72.95 317.95 M128.95 325.95 L136.95 317.95 136.95 381.95 128.95 373.95 128.95 325.95 M254.95 327.95 L254.95 371.95 246.95 363.95 246.95 335.95 254.95 327.95"/>
    <path stroke="none" fill="#FFFFFF" d="M254.95 327.95 L246.95 335.95 168.95 335.95 160.95 327.95 254.95 327.95 M655.05 317.95 L655.05 335.85 635.9 373.95 622.95 381.95 655.05 317.95 M720.4 349.95 L705.95 349.95 725.15 337.15 737.95 317.95 737.95 332.4 731.8 341.6 730.8 342.8 729.6 343.8 720.4 349.95 M807.2 346.9 L794.9 342.9 814.1 335.8 826.95 319.95 826.95 332.75 820.35 340.85 818.85 342.25 Q817.95 342.9 816.9 343.3 L807.2 346.9 M930.85 323.95 L927.35 331.95 902.65 331.95 893.9 341.45 882.95 341.4 899.15 323.95 930.85 323.95 M384.95 317.95 L384.95 329.25 364.25 349.95 352.95 349.95 384.95 317.95 M326.95 327.95 L318.95 335.95 290.95 335.95 282.95 327.95 326.95 327.95 M475 317.95 L475 328 452.25 345.35 442.95 342.35 475 317.95 M564.95 317.85 L564.95 326.5 548.4 333.4 541.6 349.95 532.95 349.95 542.25 327.25 564.95 317.85 M80.95 325.95 L72.95 317.95 136.95 317.95 128.95 325.95 80.95 325.95"/>
    <path stroke="none" fill="#C9C9C9" d="M1027.55 327.35 Q1034.55 334.35 1036.35 343.45 1036.9 346.35 1036.95 349.45 L1036.95 349.95 Q1036.95 363.25 1027.55 372.65 1018.25 381.95 1005 381.95 L1004.95 381.95 Q991.65 381.95 982.35 372.65 L982.3 372.6 987.95 366.95 988 367 Q994.95 373.95 1004.95 373.95 L1005 373.95 Q1014.95 373.95 1021.9 367 1028.95 359.95 1028.95 349.95 L1028.95 349.45 Q1028.9 346.3 1028.1 343.45 1026.5 337.6 1021.9 333 L1027.55 327.35 M1079.05 366.05 L1084.7 360.4 1092.5 368.7 1114.2 345.65 1114.35 345.45 1114.4 345.4 1115.8 343.45 Q1117 341.2 1117 338.4 L1117 338.35 Q1117 334.05 1114.15 331.05 L1114.1 331 1119.75 325.35 1119.95 325.55 Q1124.95 330.85 1125 338.35 1125 341.05 1124.35 343.45 1123.8 345.55 1122.75 347.45 L1121.45 349.45 1121.05 349.95 1120.4 350.7 1120.2 350.9 1120 351.1 1094.6 378.1 1093.25 378.9 1092.5 379.05 1091.7 378.9 1090.4 378.1 1079.05 366.05 M674.05 373.95 L686.95 381.95 622.95 381.95 635.9 373.95 674.05 373.95 M737.95 381.95 L737.95 367.55 744.1 358.3 745.1 357.1 746.3 356.1 755.55 349.95 769.95 349.95 750.75 362.75 737.95 381.95 M807.1 379.95 L814.75 369.6 824.9 366.9 826.95 366.6 829.05 366.9 839 369.6 846.65 379.95 826.95 374.6 807.1 379.95 M936.05 341.4 L946.95 341.4 914.95 375.95 914.95 364.2 936.05 341.4 M405.65 349.95 L416.95 349.95 384.95 381.95 352.95 349.95 364.25 349.95 384.95 370.65 405.65 349.95 M318.95 363.95 L326.95 371.95 282.95 371.95 290.95 363.95 318.95 363.95 M488.85 373.95 L494.75 381.95 455.15 381.95 461.05 373.95 488.85 373.95 M588.3 349.95 L596.95 349.95 587.55 372.55 564.95 381.85 564.95 373.2 581.45 366.4 588.3 349.95 M72.95 381.95 L80.95 373.95 128.95 373.95 136.95 381.95 72.95 381.95 M160.95 371.95 L168.95 363.95 246.95 363.95 254.95 371.95 160.95 371.95"/>
    <path stroke="none" fill="#9A9A9A" d="M160.95 371.95 L254.95 371.95 254.95 327.95 160.95 327.95 160.95 371.95 M982.3 372.6 L982.35 372.65 Q991.65 381.95 1004.95 381.95 L1005 381.95 Q1018.25 381.95 1027.55 372.65 1036.95 363.25 1036.95 349.95 L1036.95 349.45 Q1036.9 346.35 1036.35 343.45 1034.55 334.35 1027.55 327.35 1018.25 317.95 1005 317.95 L1004.95 317.95 Q991.65 317.95 982.35 327.35 975.35 334.35 973.6 343.45 973 346.35 972.95 349.45 L972.95 349.95 Q972.95 363.2 982.3 372.6 M1041.25 342.5 L1041.3 342.55 Q1041.9 345.85 1041.95 349.4 L1041.95 349.45 1041.95 349.95 Q1041.95 365.3 1031.1 376.2 1020.3 386.95 1005 386.95 L1004.95 386.95 Q989.6 386.95 978.85 376.2 L978.8 376.15 978.75 376.15 Q967.95 365.25 967.95 349.95 L967.95 349.45 967.95 349.4 Q968 345.8 968.7 342.45 L968.7 342.5 Q970.7 331.95 978.85 323.85 L978.8 323.85 Q989.55 312.95 1004.95 312.95 L1005 312.95 Q1020.35 312.95 1031.1 323.85 1039.2 331.95 1041.25 342.5 M1107.4 315.05 Q1116.6 315 1123.3 321.85 L1123.35 321.9 1123.5 322.05 1123.6 322.15 Q1129.9 328.85 1130 338.35 1130 341.75 1129.2 344.75 1128.45 347.45 1127.15 349.9 L1127.1 349.95 1125.5 352.45 1125.35 352.6 1125.05 352.95 1124.95 353.1 1123.95 354.25 1123.75 354.45 1123.65 354.55 1098.25 381.55 1098.15 381.65 Q1096.75 383.05 1094.75 383.7 L1094.65 383.7 1093.15 384 1092.5 384.05 1089.95 383.6 1090.2 383.7 Q1088.05 383 1086.75 381.55 L1061.45 354.65 Q1060.75 354.05 1060.4 353.45 L1059.7 352.55 Q1058.65 351.25 1057.9 349.8 1056.5 347.35 1055.85 344.75 1055 341.75 1055 338.35 1055.1 328.85 1061.45 322.15 L1061.55 322.05 1061.75 321.85 1061.65 321.9 Q1068.3 315 1077.65 315.05 L1077.7 315.05 Q1086.15 315 1092.5 320.75 1098.65 315 1107.35 315.05 L1107.4 315.05 M1119.75 325.35 Q1114.55 320 1107.35 320.05 1099.85 320 1094.75 325.55 L1094.7 325.6 Q1093.45 326.9 1092.5 328.45 L1090.25 325.55 Q1085 320 1077.65 320.05 1070.4 320 1065.25 325.35 L1065.05 325.55 Q1060.05 330.85 1060 338.35 1060 341.05 1060.65 343.45 1061.2 345.55 1062.3 347.45 L1063.6 349.45 1064.6 350.7 1064.8 350.9 1065 351.1 1079.05 366.05 1090.4 378.1 1091.7 378.9 1092.5 379.05 1093.25 378.9 1094.6 378.1 1120 351.1 1120.2 350.9 1120.4 350.7 1121.05 349.95 1121.45 349.45 1122.75 347.45 Q1123.8 345.55 1124.35 343.45 1125 341.05 1125 338.35 1124.95 330.85 1119.95 325.55 L1119.75 325.35 M721.55 333.55 L733.8 315.2 Q734.75 313.75 736.35 313.25 737.95 312.65 739.55 313.25 741.15 313.75 742.1 315.2 L754.35 333.55 772.75 345.8 Q774.15 346.75 774.7 348.35 775.25 349.95 774.7 351.55 774.15 353.15 772.75 354.1 L754.35 366.35 742.1 384.75 Q741.15 386.15 739.55 386.7 737.95 387.25 736.35 386.7 734.75 386.15 733.8 384.75 L721.55 366.35 703.2 354.1 Q701.75 353.15 701.25 351.55 700.65 349.95 701.25 348.35 701.75 346.75 703.2 345.8 L721.55 333.55 M686.95 381.95 L655.05 317.95 622.95 381.95 686.95 381.95 M656.85 313.3 Q658.65 314 659.55 315.75 L691.45 379.75 Q692.2 381.3 691.85 383.05 691.45 384.75 690.1 385.85 688.7 386.95 686.95 386.95 L622.95 386.95 Q621.2 386.95 619.85 385.85 618.45 384.7 618.1 383 617.7 381.3 618.5 379.7 L650.6 315.7 Q651.45 313.95 653.25 313.3 655.05 312.6 656.85 313.3 M705.95 349.95 L725.15 362.75 737.95 381.95 750.75 362.75 769.95 349.95 750.75 337.15 737.95 317.95 725.15 337.15 705.95 349.95 M793.2 338.2 L811.1 331.6 823.1 316.8 Q824.05 315.6 825.5 315.2 826.95 314.7 828.45 315.2 829.9 315.65 830.85 316.85 L842.7 331.6 860.65 338.2 Q862.05 338.75 863 340.05 863.9 341.3 863.9 342.85 863.95 344.35 863.1 345.7 L855.5 357.15 855.25 357.45 852.6 361.45 851.65 380.2 Q851.6 381.7 850.65 382.95 849.7 384.2 848.25 384.7 L845.35 384.8 826.95 379.8 808.4 384.8 805.5 384.7 Q804.05 384.15 803.1 382.95 802.15 381.7 802.1 380.2 L801.25 361.4 790.75 345.7 Q789.9 344.4 789.9 342.85 789.9 341.3 790.85 340.05 791.7 338.75 793.2 338.2 M794.9 342.9 L806.2 359.8 807.1 379.95 826.95 374.6 846.65 379.95 847.65 359.8 858.9 342.9 839.65 335.8 826.95 319.95 814.1 335.8 794.9 342.9 M877.95 341.4 Q877.95 339.45 879.3 338 L895.5 320.55 Q896.2 319.8 897.15 319.4 898.1 318.95 899.15 318.95 L930.85 318.95 Q931.9 318.95 932.85 319.4 933.8 319.8 934.55 320.55 L950.65 338 Q951.95 339.45 951.95 341.4 951.95 343.35 950.65 344.8 L918.65 379.35 Q917.65 380.35 916.3 380.75 914.95 381.15 913.6 380.75 912.25 380.4 911.3 379.35 L881.85 347.55 881.75 347.45 881.25 346.95 881.25 346.9 879.3 344.8 Q877.95 343.35 877.95 341.4 M946.95 341.4 L930.85 323.95 899.15 323.95 882.95 341.4 914.95 375.95 946.95 341.4 M416.95 349.95 L384.95 317.95 352.95 349.95 384.95 381.95 416.95 349.95 M384.95 312.95 Q387 312.95 388.5 314.45 L420.5 346.45 Q421.95 347.9 421.95 349.95 421.95 352 420.5 353.5 L388.5 385.5 Q387 386.95 384.95 386.95 382.9 386.95 381.45 385.5 L349.45 353.5 Q347.95 352 347.95 349.95 347.95 347.9 349.45 346.45 L381.45 314.45 Q382.9 312.95 384.95 312.95 M330.5 324.45 Q331.95 325.9 331.95 327.95 L331.95 371.95 Q331.95 374 330.5 375.5 329 376.95 326.95 376.95 L282.95 376.95 Q280.9 376.95 279.45 375.5 277.95 374 277.95 371.95 L277.95 327.95 Q277.95 325.9 279.45 324.45 280.9 322.95 282.95 322.95 L326.95 322.95 Q329 322.95 330.5 324.45 M326.95 371.95 L326.95 327.95 282.95 327.95 282.95 371.95 326.95 371.95 M475 317.95 L442.95 342.35 455.15 381.95 494.75 381.95 506.95 342.35 475 317.95 M475 312.95 Q476.65 312.95 478.05 314 L510 338.4 Q511.2 339.35 511.7 340.85 512.2 342.3 511.75 343.85 L499.55 383.45 Q499.05 385 497.7 386 496.4 386.95 494.75 386.95 L455.15 386.95 Q453.5 386.95 452.2 386 450.85 385 450.4 383.45 L438.2 343.85 Q437.7 342.35 438.2 340.85 438.7 339.35 439.95 338.4 L472 314 Q473.3 312.95 475 312.95 M596.95 349.95 L587.55 327.25 564.95 317.85 542.25 327.25 532.95 349.95 542.25 372.55 564.95 381.85 587.55 372.55 596.95 349.95 M566.9 313.25 L589.5 322.65 Q591.4 323.45 592.2 325.35 L601.6 348.05 Q602.4 349.95 601.6 351.9 L592.2 374.5 Q591.35 376.4 589.45 377.2 L566.85 386.5 Q564.95 387.25 563.05 386.5 L540.35 377.2 Q538.45 376.4 537.65 374.45 L528.35 351.85 Q527.55 349.95 528.35 348.05 L537.65 325.35 Q538.4 323.45 540.35 322.65 L563.05 313.25 Q564.95 312.4 566.9 313.25 M136.95 317.95 L72.95 317.95 72.95 381.95 136.95 381.95 136.95 317.95 M72.95 312.95 L136.95 312.95 Q139 312.95 140.5 314.45 141.95 315.9 141.95 317.95 L141.95 381.95 Q141.95 384 140.5 385.5 139 386.95 136.95 386.95 L72.95 386.95 Q70.9 386.95 69.45 385.5 67.95 384 67.95 381.95 L67.95 317.95 Q67.95 315.9 69.45 314.45 70.9 312.95 72.95 312.95 M160.95 322.95 L254.95 322.95 Q257 322.95 258.5 324.45 259.95 325.9 259.95 327.95 L259.95 371.95 Q259.95 374 258.5 375.5 257 376.95 254.95 376.95 L160.95 376.95 Q158.9 376.95 157.45 375.5 155.95 374 155.95 371.95 L155.95 327.95 Q155.95 325.9 157.45 324.45 158.9 322.95 160.95 322.95"/>
    <path stroke="none" fill="#FFFFFF" fill-opacity="0.2" d="M705.95 349.95 L725.15 337.15 737.95 317.95 750.75 337.15 769.95 349.95 705.95 349.95 M1094.7 325.6 L1094.75 325.55 Q1099.85 320 1107.35 320.05 1114.55 320 1119.75 325.35 L1119.95 325.55 Q1124.95 330.85 1125 338.35 1125 341.05 1124.35 343.45 1123.8 345.55 1122.75 347.45 L1062.3 347.45 Q1061.2 345.55 1060.65 343.45 1060 341.05 1060 338.35 1060.05 330.85 1065.05 325.55 L1065.25 325.35 Q1070.4 320 1077.65 320.05 1085 320 1090.25 325.55 L1092.5 328.45 Q1093.45 326.9 1094.7 325.6 M1027.55 327.35 Q1034.55 334.35 1036.35 343.45 1036.9 346.35 1036.95 349.45 L972.95 349.45 Q973 346.35 973.6 343.45 975.35 334.35 982.35 327.35 991.65 317.95 1004.95 317.95 L1005 317.95 Q1018.25 317.95 1027.55 327.35 M675.5 358.95 L634.5 358.95 655.05 317.95 675.5 358.95 M442.95 342.35 L475 317.95 506.95 342.35 504.6 349.95 445.3 349.95 442.95 342.35 M352.95 349.95 L384.95 317.95 416.95 349.95 352.95 349.95 M326.95 327.95 L326.95 349.95 282.95 349.95 282.95 327.95 326.95 327.95 M885.8 344.45 L882.95 341.4 899.15 323.95 930.85 323.95 946.95 341.4 944.15 344.45 885.8 344.45 M802.55 354.35 L794.9 342.9 814.1 335.8 826.95 319.95 839.65 335.8 858.9 342.9 851.3 354.35 802.55 354.35 M564.95 317.85 L587.55 327.25 596.95 349.95 532.95 349.95 542.25 327.25 564.95 317.85 M160.95 349.95 L160.95 327.95 254.95 327.95 254.95 349.95 160.95 349.95 M72.95 349.95 L72.95 317.95 136.95 317.95 136.95 349.95 72.95 349.95"/>
    <path stroke="none" fill="#E5E5E5" d="M987.95 196.95 Q980.95 189.9 980.95 179.95 L980.95 179.45 Q981 176.3 981.8 173.45 983.4 167.6 988 163 L988.05 163 Q995 155.95 1004.95 155.95 L1005 155.95 Q1014.9 155.95 1021.9 163 1026.5 167.6 1028.1 173.45 1028.9 176.3 1028.95 179.45 L1028.95 179.95 Q1028.95 189.95 1021.9 197 1014.95 203.95 1005 203.95 L1004.95 203.95 Q994.95 203.95 988 197 L987.95 196.95 M1084.7 190.4 L1070.85 175.65 1070.7 175.5 1070.65 175.45 1070.6 175.4 1069.25 173.45 Q1068 171.2 1068 168.4 L1068 168.35 Q1068 164.05 1070.9 161.05 L1070.95 161.05 Q1073.65 158.05 1077.6 158.05 L1077.7 158.05 Q1081.6 158.05 1084.4 161 L1084.45 161.05 1085.8 162.8 Q1087.3 165.15 1089.95 166.05 L1092.5 166.5 1095.25 166 Q1097.85 165 1099.35 162.65 L1100.5 161.15 1100.35 161.25 1100.4 161.2 1100.65 161 Q1103.35 158.05 1107.3 158.05 L1107.4 158.05 Q1111.3 158.05 1114.1 161 L1114.15 161.05 Q1117 164.05 1117 168.35 L1117 168.4 Q1117 171.2 1115.8 173.45 L1114.4 175.4 1114.35 175.45 1114.2 175.65 1092.5 198.7 1084.7 190.4 M826.95 162.75 L833.4 170.8 834.9 172.25 836.9 173.3 846.65 176.9 841.05 185.35 841 185.4 Q840.35 186.35 840.05 187.4 839.7 188.35 839.65 189.4 L839.15 199.65 839 199.6 829.05 196.9 826.95 196.6 824.9 196.9 814.75 199.6 814.65 199.65 814.2 189.45 813.85 187.4 812.85 185.35 807.2 176.9 816.9 173.3 Q817.95 172.9 818.85 172.25 L820.35 170.85 826.95 162.75 M914.95 194.2 L893.9 171.45 902.65 161.95 927.35 161.95 936.05 171.4 914.95 194.2 M720.4 179.95 L729.6 173.8 730.8 172.8 731.8 171.6 737.95 162.4 744.1 171.6 745.1 172.8 746.3 173.8 755.55 179.95 746.3 186.1 745.1 187.1 744.1 188.3 737.95 197.55 731.8 188.3 730.8 187.1 729.6 186.1 720.4 179.95 M655.05 165.85 L674.05 203.95 635.9 203.95 655.05 165.85 M541.6 179.95 L548.4 163.4 564.95 156.5 581.45 163.35 588.3 179.95 581.45 196.4 564.95 203.2 548.4 196.45 541.6 179.95 M405.65 179.95 L384.95 200.65 364.25 179.95 384.95 159.25 405.65 179.95 M452.25 175.35 L475 158 497.7 175.35 488.85 203.95 461.05 203.95 452.25 175.35 M318.95 165.95 L318.95 193.95 290.95 193.95 290.95 165.95 318.95 165.95 M168.95 193.95 L168.95 165.95 246.95 165.95 246.95 193.95 168.95 193.95 M80.95 203.95 L80.95 155.95 128.95 155.95 128.95 203.95 80.95 203.95"/>
    <path stroke="none" fill="#F0F0F0" d="M80.95 203.95 L72.95 211.95 72.95 147.95 80.95 155.95 80.95 203.95 M982.3 202.6 Q972.95 193.2 972.95 179.95 L972.95 179.45 Q973 176.35 973.6 173.45 975.35 164.35 982.35 157.35 991.65 147.95 1004.95 147.95 L1005 147.95 Q1018.25 147.95 1027.55 157.35 L1021.9 163 Q1014.9 155.95 1005 155.95 L1004.95 155.95 Q995 155.95 988.05 163 L988 163 Q983.4 167.6 981.8 173.45 981 176.3 980.95 179.45 L980.95 179.95 Q980.95 189.9 987.95 196.95 L982.3 202.6 M1079.05 196.05 L1065 181.1 1064.8 180.9 1064.6 180.7 1063.6 179.45 1062.3 177.45 Q1061.2 175.55 1060.65 173.45 1060 171.05 1060 168.35 1060.05 160.85 1065.05 155.55 L1065.25 155.35 Q1070.4 150 1077.65 150.05 1085 150 1090.25 155.55 L1092.5 158.45 Q1093.45 156.9 1094.7 155.6 L1094.75 155.55 Q1099.85 150 1107.35 150.05 1114.55 150 1119.75 155.35 L1114.1 161 Q1111.3 158.05 1107.4 158.05 L1107.3 158.05 Q1103.35 158.05 1100.65 161 L1100.4 161.2 1100.35 161.25 1100.5 161.15 1099.35 162.65 Q1097.85 165 1095.25 166 L1092.5 166.5 1089.95 166.05 Q1087.3 165.15 1085.8 162.8 L1084.45 161.05 1084.4 161 Q1081.6 158.05 1077.7 158.05 L1077.6 158.05 Q1073.65 158.05 1070.95 161.05 L1070.9 161.05 Q1068 164.05 1068 168.35 L1068 168.4 Q1068 171.2 1069.25 173.45 L1070.6 175.4 1070.65 175.45 1070.7 175.5 1070.85 175.65 1084.7 190.4 1079.05 196.05 M839 199.6 L839.15 199.65 839.65 189.4 Q839.7 188.35 840.05 187.4 840.35 186.35 841 185.4 L841.05 185.35 846.65 176.9 836.9 173.3 834.9 172.25 833.4 170.8 826.95 162.75 826.95 149.95 839.65 165.8 858.9 172.9 847.65 189.8 846.65 209.95 839 199.6 M807.2 176.9 L812.85 185.35 813.85 187.4 814.2 189.45 814.65 199.65 814.75 199.6 807.1 209.95 806.2 189.8 794.9 172.9 807.2 176.9 M893.9 171.45 L914.95 194.2 914.95 205.95 882.95 171.4 893.9 171.45 M936.05 171.4 L927.35 161.95 930.85 153.95 946.95 171.4 936.05 171.4 M705.95 179.95 L720.4 179.95 729.6 186.1 730.8 187.1 731.8 188.3 737.95 197.55 737.95 211.95 725.15 192.75 705.95 179.95 M737.95 162.4 L737.95 147.95 750.75 167.15 769.95 179.95 755.55 179.95 746.3 173.8 745.1 172.8 744.1 171.6 737.95 162.4 M655.05 165.85 L655.05 147.95 686.95 211.95 674.05 203.95 655.05 165.85 M564.95 156.5 L564.95 147.85 587.55 157.25 596.95 179.95 588.3 179.95 581.45 163.35 564.95 156.5 M532.95 179.95 L541.6 179.95 548.4 196.45 564.95 203.2 564.95 211.85 542.25 202.55 532.95 179.95 M416.95 179.95 L405.65 179.95 384.95 159.25 384.95 147.95 416.95 179.95 M475 158 L475 147.95 506.95 172.35 494.75 211.95 488.85 203.95 497.7 175.35 475 158 M442.95 172.35 L452.25 175.35 461.05 203.95 455.15 211.95 442.95 172.35 M326.95 157.95 L326.95 201.95 318.95 193.95 318.95 165.95 326.95 157.95 M282.95 201.95 L282.95 157.95 290.95 165.95 290.95 193.95 282.95 201.95 M168.95 165.95 L168.95 193.95 160.95 201.95 160.95 157.95 168.95 165.95 M246.95 193.95 L246.95 165.95 254.95 157.95 254.95 201.95 246.95 193.95 M128.95 155.95 L136.95 147.95 136.95 211.95 128.95 203.95 128.95 155.95"/>
    <path stroke="none" fill="#FFFFFF" d="M128.95 155.95 L80.95 155.95 72.95 147.95 136.95 147.95 128.95 155.95 M826.95 149.95 L826.95 162.75 820.35 170.85 818.85 172.25 Q817.95 172.9 816.9 173.3 L807.2 176.9 794.9 172.9 814.1 165.8 826.95 149.95 M893.9 171.45 L882.95 171.4 899.15 153.95 930.85 153.95 927.35 161.95 902.65 161.95 893.9 171.45 M705.95 179.95 L725.15 167.15 737.95 147.95 737.95 162.4 731.8 171.6 730.8 172.8 729.6 173.8 720.4 179.95 705.95 179.95 M655.05 147.95 L655.05 165.85 635.9 203.95 622.95 211.95 655.05 147.95 M564.95 156.5 L548.4 163.4 541.6 179.95 532.95 179.95 542.25 157.25 564.95 147.85 564.95 156.5 M364.25 179.95 L352.95 179.95 384.95 147.95 384.95 159.25 364.25 179.95 M475 158 L452.25 175.35 442.95 172.35 475 147.95 475 158 M326.95 157.95 L318.95 165.95 290.95 165.95 282.95 157.95 326.95 157.95 M168.95 165.95 L160.95 157.95 254.95 157.95 246.95 165.95 168.95 165.95"/>
    <path stroke="none" fill="#C9C9C9" d="M982.3 202.6 L987.95 196.95 988 197 Q994.95 203.95 1004.95 203.95 L1005 203.95 Q1014.95 203.95 1021.9 197 1028.95 189.95 1028.95 179.95 L1028.95 179.45 Q1028.9 176.3 1028.1 173.45 1026.5 167.6 1021.9 163 L1027.55 157.35 Q1034.55 164.35 1036.35 173.45 1036.9 176.35 1036.95 179.45 L1036.95 179.95 Q1036.95 193.25 1027.55 202.65 1021.3 208.9 1013.3 210.95 1009.35 211.95 1005 211.95 L1004.95 211.95 Q1000.6 211.95 996.65 210.95 988.6 208.9 982.35 202.65 L982.3 202.6 M1079.05 196.05 L1084.7 190.4 1092.5 198.7 1114.2 175.65 1114.35 175.45 1114.4 175.4 1115.8 173.45 Q1117 171.2 1117 168.4 L1117 168.35 Q1117 164.05 1114.15 161.05 L1114.1 161 1119.75 155.35 1119.95 155.55 Q1124.95 160.85 1125 168.35 1125 171.05 1124.35 173.45 1123.8 175.55 1122.75 177.45 L1121.45 179.45 1121.05 179.95 1120.4 180.7 1120.2 180.9 1120 181.1 1094.6 208.1 1093.25 208.9 1092.5 209.05 1091.7 208.9 1090.4 208.1 1079.05 196.05 M839 199.6 L846.65 209.95 826.95 204.6 807.1 209.95 814.75 199.6 824.9 196.9 826.95 196.6 829.05 196.9 839 199.6 M914.95 205.95 L914.95 194.2 936.05 171.4 946.95 171.4 914.95 205.95 M769.95 179.95 L750.75 192.75 737.95 211.95 737.95 197.55 744.1 188.3 745.1 187.1 746.3 186.1 755.55 179.95 769.95 179.95 M674.05 203.95 L686.95 211.95 622.95 211.95 635.9 203.95 674.05 203.95 M564.95 203.2 L581.45 196.4 588.3 179.95 596.95 179.95 587.55 202.55 564.95 211.85 564.95 203.2 M352.95 179.95 L364.25 179.95 384.95 200.65 405.65 179.95 416.95 179.95 384.95 211.95 352.95 179.95 M461.05 203.95 L488.85 203.95 494.75 211.95 455.15 211.95 461.05 203.95 M318.95 193.95 L326.95 201.95 282.95 201.95 290.95 193.95 318.95 193.95 M160.95 201.95 L168.95 193.95 246.95 193.95 254.95 201.95 160.95 201.95 M72.95 211.95 L80.95 203.95 128.95 203.95 136.95 211.95 72.95 211.95"/>
    <path stroke="none" fill="#FFFFFF" fill-opacity="0.2" d="M705.95 179.95 L725.15 167.15 737.95 147.95 750.75 167.15 769.95 179.95 705.95 179.95 M885.8 174.45 L882.95 171.4 899.15 153.95 930.85 153.95 946.95 171.4 944.15 174.45 885.8 174.45 M826.95 149.95 L839.65 165.8 858.9 172.9 851.3 184.35 802.55 184.35 794.9 172.9 814.1 165.8 826.95 149.95 M1077.65 150.05 Q1085 150 1090.25 155.55 L1092.5 158.45 Q1093.45 156.9 1094.7 155.6 L1094.75 155.55 Q1099.85 150 1107.35 150.05 1114.55 150 1119.75 155.35 L1119.95 155.55 Q1124.95 160.85 1125 168.35 1125 171.05 1124.35 173.45 1123.8 175.55 1122.75 177.45 L1062.3 177.45 Q1061.2 175.55 1060.65 173.45 1060 171.05 1060 168.35 1060.05 160.85 1065.05 155.55 L1065.25 155.35 Q1070.4 150 1077.65 150.05 M1004.95 147.95 L1005 147.95 Q1018.25 147.95 1027.55 157.35 1034.55 164.35 1036.35 173.45 1036.9 176.35 1036.95 179.45 L972.95 179.45 Q973 176.35 973.6 173.45 975.35 164.35 982.35 157.35 991.65 147.95 1004.95 147.95 M675.5 188.95 L634.5 188.95 655.05 147.95 675.5 188.95 M506.95 172.35 L504.6 179.95 445.3 179.95 442.95 172.35 475 147.95 506.95 172.35 M542.25 157.25 L564.95 147.85 587.55 157.25 596.95 179.95 532.95 179.95 542.25 157.25 M72.95 179.95 L72.95 147.95 136.95 147.95 136.95 179.95 72.95 179.95 M254.95 157.95 L254.95 179.95 160.95 179.95 160.95 157.95 254.95 157.95 M352.95 179.95 L384.95 147.95 416.95 179.95 352.95 179.95 M326.95 157.95 L326.95 179.95 282.95 179.95 282.95 157.95 326.95 157.95"/>
    <path stroke="none" fill="#E5E5E5" d="M1084.7 110.4 L1070.85 95.65 1070.7 95.5 1070.65 95.45 1070.6 95.4 Q1068 92.45 1068 88.4 L1068 88.35 Q1068 84.05 1070.9 81.05 L1070.95 81.05 Q1073.65 78.05 1077.6 78.05 L1077.7 78.05 Q1081.6 78.05 1084.4 81 L1084.45 81.05 1085.8 82.8 Q1087.3 85.15 1089.95 86.05 L1092.5 86.5 1095.25 86 Q1097.85 85 1099.35 82.65 L1100.5 81.15 1100.35 81.25 1100.4 81.2 1100.65 81 Q1103.35 78.05 1107.3 78.05 L1107.4 78.05 Q1111.3 78.05 1114.1 81 L1114.15 81.05 Q1117 84.05 1117 88.35 L1117 88.4 Q1117 92.45 1114.4 95.4 L1114.35 95.45 1114.2 95.65 1092.5 118.7 1084.7 110.4 M987.95 116.95 Q980.95 109.9 980.95 99.95 980.95 90.05 988 83 L988.05 83 Q995 75.95 1004.95 75.95 L1005 75.95 Q1014.9 75.95 1021.9 83 1028.95 90.05 1028.95 99.95 1028.95 109.95 1021.9 117 1014.95 123.95 1005 123.95 L1004.95 123.95 Q994.95 123.95 988 117 L987.95 116.95 M893.9 91.45 L902.65 81.95 927.35 81.95 936.05 91.4 914.95 114.2 893.9 91.45 M807.2 96.9 L816.9 93.3 Q817.95 92.9 818.85 92.25 L820.35 90.85 826.95 82.75 833.4 90.8 834.9 92.25 836.9 93.3 846.65 96.9 841 105.4 Q840.35 106.35 840.05 107.4 839.7 108.35 839.65 109.4 L839.15 119.65 839 119.6 829.05 116.9 826.95 116.6 824.9 116.9 814.75 119.6 814.65 119.65 814.2 109.45 813.85 107.4 812.85 105.35 807.2 96.9 M737.95 82.4 L744.1 91.6 745.1 92.8 746.3 93.8 755.55 99.95 746.3 106.1 745.1 107.1 744.1 108.3 737.95 117.55 731.8 108.3 730.8 107.1 729.6 106.1 720.4 99.95 729.6 93.8 730.8 92.8 731.8 91.6 737.95 82.4 M655.05 85.85 L674.05 123.95 635.9 123.95 655.05 85.85 M541.6 99.95 L548.4 83.4 564.95 76.5 581.45 83.35 588.3 99.95 581.45 116.4 564.95 123.2 548.4 116.45 541.6 99.95 M488.85 123.95 L461.05 123.95 452.25 95.35 475 78 497.7 95.35 488.85 123.95 M364.25 99.95 L384.95 79.25 405.65 99.95 384.95 120.65 364.25 99.95 M318.95 85.95 L318.95 113.95 290.95 113.95 290.95 85.95 318.95 85.95 M168.95 85.95 L246.95 85.95 246.95 113.95 168.95 113.95 168.95 85.95 M80.95 75.95 L128.95 75.95 128.95 123.95 80.95 123.95 80.95 75.95"/>
    <path stroke="none" fill="#F0F0F0" d="M80.95 75.95 L80.95 123.95 72.95 131.95 72.95 67.95 80.95 75.95 M1114.1 81 Q1111.3 78.05 1107.4 78.05 L1107.3 78.05 Q1103.35 78.05 1100.65 81 L1100.4 81.2 1100.35 81.25 1100.5 81.15 1099.35 82.65 Q1097.85 85 1095.25 86 L1092.5 86.5 1089.95 86.05 Q1087.3 85.15 1085.8 82.8 L1084.45 81.05 1084.4 81 Q1081.6 78.05 1077.7 78.05 L1077.6 78.05 Q1073.65 78.05 1070.95 81.05 L1070.9 81.05 Q1068 84.05 1068 88.35 L1068 88.4 Q1068 92.45 1070.6 95.4 L1070.65 95.45 1070.7 95.5 1070.85 95.65 1084.7 110.4 1079.05 116.05 1065 101.1 1064.8 100.9 1064.6 100.7 Q1060 95.5 1060 88.35 1060.05 80.85 1065.05 75.55 L1065.25 75.35 Q1070.4 70 1077.65 70.05 1085 70 1090.25 75.55 L1092.5 78.45 Q1093.45 76.9 1094.7 75.6 L1094.75 75.55 Q1099.85 70 1107.35 70.05 1114.55 70 1119.75 75.35 L1114.1 81 M982.3 122.6 Q972.95 113.2 972.95 99.95 972.95 86.75 982.35 77.35 991.65 67.95 1004.95 67.95 L1005 67.95 Q1018.25 67.95 1027.55 77.35 L1021.9 83 Q1014.9 75.95 1005 75.95 L1004.95 75.95 Q995 75.95 988.05 83 L988 83 Q980.95 90.05 980.95 99.95 980.95 109.9 987.95 116.95 L982.3 122.6 M927.35 81.95 L930.85 73.95 946.95 91.4 936.05 91.4 927.35 81.95 M882.95 91.4 L893.9 91.45 914.95 114.2 914.95 125.95 882.95 91.4 M826.95 82.75 L826.95 69.95 839.65 85.8 858.9 92.9 847.65 109.8 846.65 129.95 839 119.6 839.15 119.65 839.65 109.4 Q839.7 108.35 840.05 107.4 840.35 106.35 841 105.4 L846.65 96.9 836.9 93.3 834.9 92.25 833.4 90.8 826.95 82.75 M794.9 92.9 L807.2 96.9 812.85 105.35 813.85 107.4 814.2 109.45 814.65 119.65 814.75 119.6 807.1 129.95 806.2 109.8 794.9 92.9 M737.95 67.95 L750.75 87.15 769.95 99.95 755.55 99.95 746.3 93.8 745.1 92.8 744.1 91.6 737.95 82.4 737.95 67.95 M737.95 131.95 L725.15 112.75 705.95 99.95 720.4 99.95 729.6 106.1 730.8 107.1 731.8 108.3 737.95 117.55 737.95 131.95 M655.05 85.85 L655.05 67.95 686.95 131.95 674.05 123.95 655.05 85.85 M564.95 67.85 L587.55 77.25 596.95 99.95 588.3 99.95 581.45 83.35 564.95 76.5 564.95 67.85 M564.95 131.85 L542.25 122.55 532.95 99.95 541.6 99.95 548.4 116.45 564.95 123.2 564.95 131.85 M494.75 131.95 L488.85 123.95 497.7 95.35 475 78 475 67.95 506.95 92.35 494.75 131.95 M461.05 123.95 L455.15 131.95 442.95 92.35 452.25 95.35 461.05 123.95 M384.95 79.25 L384.95 67.95 416.95 99.95 405.65 99.95 384.95 79.25 M326.95 77.95 L326.95 121.95 318.95 113.95 318.95 85.95 326.95 77.95 M282.95 121.95 L282.95 77.95 290.95 85.95 290.95 113.95 282.95 121.95 M246.95 85.95 L254.95 77.95 254.95 121.95 246.95 113.95 246.95 85.95 M160.95 77.95 L168.95 85.95 168.95 113.95 160.95 121.95 160.95 77.95 M128.95 75.95 L136.95 67.95 136.95 131.95 128.95 123.95 128.95 75.95"/>
    <path stroke="none" fill="#FFFFFF" d="M128.95 75.95 L80.95 75.95 72.95 67.95 136.95 67.95 128.95 75.95 M927.35 81.95 L902.65 81.95 893.9 91.45 882.95 91.4 899.15 73.95 930.85 73.95 927.35 81.95 M826.95 82.75 L820.35 90.85 818.85 92.25 Q817.95 92.9 816.9 93.3 L807.2 96.9 794.9 92.9 814.1 85.8 826.95 69.95 826.95 82.75 M737.95 67.95 L737.95 82.4 731.8 91.6 730.8 92.8 729.6 93.8 720.4 99.95 705.95 99.95 725.15 87.15 737.95 67.95 M655.05 67.95 L655.05 85.85 635.9 123.95 622.95 131.95 655.05 67.95 M532.95 99.95 L542.25 77.25 564.95 67.85 564.95 76.5 548.4 83.4 541.6 99.95 532.95 99.95 M475 67.95 L475 78 452.25 95.35 442.95 92.35 475 67.95 M384.95 67.95 L384.95 79.25 364.25 99.95 352.95 99.95 384.95 67.95 M326.95 77.95 L318.95 85.95 290.95 85.95 282.95 77.95 326.95 77.95 M254.95 77.95 L246.95 85.95 168.95 85.95 160.95 77.95 254.95 77.95"/>
    <path stroke="none" fill="#C9C9C9" d="M1114.1 81 L1119.75 75.35 1119.95 75.55 Q1124.95 80.85 1125 88.35 1125 95 1121.05 99.95 L1120.4 100.7 1120.2 100.9 1120 101.1 1094.6 128.1 1093.25 128.9 1092.5 129.05 1091.7 128.9 1090.4 128.1 1079.05 116.05 1084.7 110.4 1092.5 118.7 1114.2 95.65 1114.35 95.45 1114.4 95.4 Q1117 92.45 1117 88.4 L1117 88.35 Q1117 84.05 1114.15 81.05 L1114.1 81 M982.3 122.6 L987.95 116.95 988 117 Q994.95 123.95 1004.95 123.95 L1005 123.95 Q1014.95 123.95 1021.9 117 1028.95 109.95 1028.95 99.95 1028.95 90.05 1021.9 83 L1027.55 77.35 Q1036.95 86.75 1036.95 99.95 1036.95 113.25 1027.55 122.65 1018.25 131.95 1005 131.95 L1004.95 131.95 Q991.65 131.95 982.35 122.65 L982.3 122.6 M914.95 114.2 L936.05 91.4 946.95 91.4 914.95 125.95 914.95 114.2 M814.75 119.6 L824.9 116.9 826.95 116.6 829.05 116.9 839 119.6 846.65 129.95 826.95 124.6 807.1 129.95 814.75 119.6 M755.55 99.95 L769.95 99.95 750.75 112.75 737.95 131.95 737.95 117.55 744.1 108.3 745.1 107.1 746.3 106.1 755.55 99.95 M674.05 123.95 L686.95 131.95 622.95 131.95 635.9 123.95 674.05 123.95 M596.95 99.95 L587.55 122.55 564.95 131.85 564.95 123.2 581.45 116.4 588.3 99.95 596.95 99.95 M488.85 123.95 L494.75 131.95 455.15 131.95 461.05 123.95 488.85 123.95 M352.95 99.95 L364.25 99.95 384.95 120.65 405.65 99.95 416.95 99.95 384.95 131.95 352.95 99.95 M318.95 113.95 L326.95 121.95 282.95 121.95 290.95 113.95 318.95 113.95 M246.95 113.95 L254.95 121.95 160.95 121.95 168.95 113.95 246.95 113.95 M128.95 123.95 L136.95 131.95 72.95 131.95 80.95 123.95 128.95 123.95"/>
    <path stroke="none" fill="#FFFFFF" d="M951.95 431.4 Q951.95 433.35 950.65 434.8 L918.65 469.35 Q917.65 470.35 916.3 470.75 914.95 471.15 913.6 470.75 912.25 470.35 911.3 469.35 L879.3 434.8 Q877.95 433.35 877.95 431.4 877.95 429.45 879.3 428 L895.5 410.55 Q896.2 409.8 897.15 409.4 898.1 408.95 899.15 408.95 L930.85 408.95 Q931.9 408.95 932.85 409.4 933.8 409.8 934.55 410.55 L950.65 428 Q951.95 429.45 951.95 431.4 M914.95 465.95 L946.95 431.4 930.85 413.95 927.35 421.95 902.65 421.95 893.9 431.45 882.95 431.4 899.15 413.95 930.85 413.95 899.15 413.95 882.95 431.4 914.95 465.95 M863.9 432.85 Q863.9 434.35 863.05 435.7 L852.6 451.4 851.65 470.2 Q851.6 471.7 850.65 472.95 849.7 474.2 848.25 474.7 L845.35 474.8 826.95 469.8 808.4 474.8 805.5 474.7 Q804.05 474.15 803.1 472.95 802.15 471.7 802.1 470.2 L801.25 451.4 790.75 435.7 Q789.9 434.4 789.9 432.85 789.9 431.3 790.85 430.05 791.7 428.75 793.2 428.2 L811.1 421.6 823.1 406.8 Q824.05 405.6 825.5 405.2 826.95 404.7 828.45 405.2 829.9 405.65 830.85 406.85 L842.7 421.6 860.65 428.2 Q862.05 428.75 863 430.05 863.9 431.3 863.9 432.85 M826.95 422.75 L820.35 430.85 818.85 432.25 Q817.95 432.9 816.9 433.3 L807.2 436.9 794.9 432.9 814.1 425.8 826.95 409.95 814.1 425.8 794.9 432.9 806.2 449.8 807.1 469.95 826.95 464.6 846.65 469.95 847.65 449.8 858.9 432.9 839.65 425.8 826.95 409.95 826.95 422.75 M774.7 441.55 Q774.15 443.15 772.75 444.1 L754.35 456.35 742.1 474.75 Q741.15 476.15 739.55 476.7 737.95 477.25 736.35 476.7 734.75 476.15 733.8 474.75 L721.55 456.35 703.2 444.1 Q701.75 443.15 701.25 441.55 700.65 439.95 701.25 438.35 701.75 436.75 703.2 435.8 L721.55 423.55 733.8 405.2 Q734.75 403.75 736.35 403.25 737.95 402.65 739.55 403.25 741.15 403.75 742.1 405.2 L754.35 423.55 772.75 435.8 Q774.15 436.75 774.7 438.35 775.25 439.95 774.7 441.55 M769.95 439.95 L750.75 427.15 737.95 407.95 737.95 422.4 731.8 431.6 730.8 432.8 729.6 433.8 720.4 439.95 705.95 439.95 725.15 427.15 737.95 407.95 725.15 427.15 705.95 439.95 725.15 452.75 737.95 471.95 750.75 452.75 769.95 439.95 M655.05 407.95 L655.05 425.85 635.9 463.95 622.95 471.95 655.05 407.95 622.95 471.95 686.95 471.95 655.05 407.95 M656.85 403.3 Q658.65 404 659.55 405.75 L691.45 469.75 Q692.2 471.3 691.85 473.05 691.45 474.75 690.1 475.85 688.7 476.95 686.95 476.95 L622.95 476.95 Q621.2 476.95 619.85 475.85 618.45 474.7 618.1 473 617.7 471.3 618.5 469.7 L650.6 405.7 Q651.45 403.95 653.25 403.3 655.05 402.6 656.85 403.3 M1123.35 411.9 L1123.5 412.05 1123.6 412.15 Q1129.9 418.85 1130 428.35 1129.95 436.7 1125.05 442.95 L1124.95 443.1 1123.95 444.25 1123.75 444.45 1123.65 444.55 1098.25 471.55 1098.15 471.65 Q1096.75 473.05 1094.75 473.7 L1094.65 473.7 1093.15 474 1092.5 474.05 1089.95 473.6 1090.2 473.7 Q1088.05 473 1086.75 471.55 L1061.45 444.65 1060.45 443.55 Q1055 437.1 1055 428.35 1055.1 418.85 1061.45 412.15 L1061.55 412.05 1061.75 411.85 1061.65 411.9 Q1068.3 405 1077.65 405.05 L1077.7 405.05 Q1086.2 405 1092.5 410.75 1098.65 405 1107.35 405.05 L1107.4 405.05 Q1116.6 405 1123.3 411.85 L1123.35 411.9 M1079.05 456.05 L1090.4 468.1 1091.7 468.9 1092.5 469.05 1093.25 468.9 1094.6 468.1 1120 441.1 1120.2 440.9 1120.4 440.7 1121.05 439.95 Q1125 435 1125 428.35 1124.95 420.85 1119.95 415.55 L1119.75 415.35 Q1114.55 410 1107.35 410.05 1099.85 410 1094.75 415.55 L1094.7 415.6 Q1093.45 416.9 1092.5 418.45 L1090.25 415.55 Q1085 410 1077.65 410.05 1070.4 410 1065.25 415.35 L1065.05 415.55 Q1060.05 420.85 1060 428.35 1060 435.5 1064.6 440.7 L1064.8 440.9 1065 441.1 1079.05 456.05 M1027.55 417.35 Q1018.25 407.95 1005 407.95 L1004.95 407.95 Q991.65 407.95 982.35 417.35 972.95 426.75 972.95 439.95 972.95 453.2 982.3 462.6 L982.35 462.65 Q991.65 471.95 1004.95 471.95 L1005 471.95 Q1018.25 471.95 1027.55 462.65 1036.95 453.25 1036.95 439.95 1036.95 426.75 1027.55 417.35 M1041.95 439.95 Q1041.95 455.3 1031.1 466.2 1020.3 476.95 1005 476.95 L1004.95 476.95 Q989.6 476.95 978.85 466.2 L978.8 466.15 978.75 466.15 Q967.95 455.25 967.95 439.95 967.95 424.7 978.85 413.85 L978.8 413.85 Q989.55 402.95 1004.95 402.95 L1005 402.95 Q1020.35 402.95 1031.1 413.85 1041.95 424.7 1041.95 439.95 M318.95 425.95 L290.95 425.95 282.95 417.95 326.95 417.95 282.95 417.95 282.95 461.95 326.95 461.95 326.95 417.95 318.95 425.95 M282.95 412.95 L326.95 412.95 Q329 412.95 330.5 414.45 331.95 415.9 331.95 417.95 L331.95 461.95 Q331.95 464 330.5 465.5 329 466.95 326.95 466.95 L282.95 466.95 Q280.9 466.95 279.45 465.5 277.95 464 277.95 461.95 L277.95 417.95 Q277.95 415.9 279.45 414.45 280.9 412.95 282.95 412.95 M259.95 417.95 L259.95 461.95 Q259.95 464 258.5 465.5 257 466.95 254.95 466.95 L160.95 466.95 Q158.9 466.95 157.45 465.5 155.95 464 155.95 461.95 L155.95 417.95 Q155.95 415.9 157.45 414.45 158.9 412.95 160.95 412.95 L254.95 412.95 Q257 412.95 258.5 414.45 259.95 415.9 259.95 417.95 M254.95 417.95 L246.95 425.95 168.95 425.95 160.95 417.95 254.95 417.95 160.95 417.95 160.95 461.95 254.95 461.95 254.95 417.95 M136.95 407.95 L128.95 415.95 80.95 415.95 72.95 407.95 136.95 407.95 72.95 407.95 72.95 471.95 136.95 471.95 136.95 407.95 M141.95 407.95 L141.95 471.95 Q141.95 474 140.5 475.5 139 476.95 136.95 476.95 L72.95 476.95 Q70.9 476.95 69.45 475.5 67.95 474 67.95 471.95 L67.95 407.95 Q67.95 405.9 69.45 404.45 70.9 402.95 72.95 402.95 L136.95 402.95 Q139 402.95 140.5 404.45 141.95 405.9 141.95 407.95 M601.6 441.9 L592.2 464.5 Q591.35 466.4 589.45 467.2 L566.85 476.5 Q564.95 477.25 563.05 476.5 L540.35 467.2 Q538.45 466.4 537.65 464.45 L528.35 441.85 Q527.55 439.95 528.35 438.05 L537.65 415.35 Q538.4 413.45 540.35 412.65 L563.05 403.25 Q564.95 402.4 566.9 403.25 L589.5 412.65 Q591.4 413.45 592.2 415.35 L601.6 438.05 Q602.4 439.95 601.6 441.9 M564.95 471.85 L587.55 462.55 596.95 439.95 587.55 417.25 564.95 407.85 564.95 416.5 548.4 423.4 541.6 439.95 532.95 439.95 542.25 417.25 564.95 407.85 542.25 417.25 532.95 439.95 542.25 462.55 564.95 471.85 M511.75 433.85 L499.55 473.45 Q499.05 475 497.7 476 496.4 476.95 494.75 476.95 L455.15 476.95 Q453.5 476.95 452.2 476 450.85 475 450.4 473.45 L438.2 433.85 Q437.7 432.35 438.2 430.85 438.7 429.35 439.95 428.4 L472 404 Q473.3 402.95 475 402.95 476.65 402.95 478.05 404 L510 428.4 Q511.2 429.35 511.7 430.85 512.2 432.3 511.75 433.85 M455.15 471.95 L494.75 471.95 506.95 432.35 475 407.95 475 418 452.25 435.35 442.95 432.35 455.15 471.95 M364.25 439.95 L352.95 439.95 384.95 471.95 416.95 439.95 384.95 407.95 384.95 419.25 364.25 439.95 M420.5 443.5 L388.5 475.5 Q387 476.95 384.95 476.95 382.9 476.95 381.45 475.5 L349.45 443.5 Q347.95 442 347.95 439.95 347.95 437.9 349.45 436.45 L381.45 404.45 Q382.9 402.95 384.95 402.95 387 402.95 388.5 404.45 L420.5 436.45 Q421.95 437.9 421.95 439.95 421.95 442 420.5 443.5 M442.95 432.35 L475 407.95 442.95 432.35 M352.95 439.95 L384.95 407.95 352.95 439.95"/>
    <path stroke="none" fill="#E5E5E5" d="M936.05 431.4 L914.95 454.2 893.9 431.45 902.65 421.95 927.35 421.95 936.05 431.4 M807.2 436.9 L816.9 433.3 Q817.95 432.9 818.85 432.25 L820.35 430.85 826.95 422.75 833.4 430.8 834.9 432.25 836.9 433.3 846.65 436.9 841 445.4 Q840.35 446.35 840.05 447.4 839.7 448.35 839.65 449.4 L839.15 459.65 839 459.6 829.05 456.9 826.95 456.6 824.9 456.9 814.75 459.6 814.65 459.65 814.2 449.45 813.85 447.4 812.85 445.35 807.2 436.9 M737.95 422.4 L744.1 431.6 745.1 432.8 746.3 433.8 755.55 439.95 746.3 446.1 745.1 447.1 744.1 448.3 737.95 457.55 731.8 448.3 730.8 447.1 729.6 446.1 720.4 439.95 729.6 433.8 730.8 432.8 731.8 431.6 737.95 422.4 M655.05 425.85 L674.05 463.95 635.9 463.95 655.05 425.85 M1114.1 421 L1114.15 421.05 Q1117 424.05 1117 428.35 L1117 428.4 Q1117 432.45 1114.4 435.4 L1114.35 435.45 1114.2 435.65 1092.5 458.7 1084.7 450.4 1070.85 435.65 1070.7 435.5 1070.65 435.45 1070.6 435.4 Q1068 432.45 1068 428.4 L1068 428.35 Q1068 424.05 1070.9 421.05 L1070.95 421.05 Q1073.65 418.05 1077.6 418.05 L1077.7 418.05 Q1081.6 418.05 1084.4 421 L1084.45 421.05 1085.8 422.8 Q1087.3 425.15 1089.95 426.05 L1092.5 426.5 1095.25 426 Q1097.85 425 1099.35 422.65 L1100.5 421.15 1100.35 421.25 1100.4 421.2 1100.65 421 Q1103.35 418.05 1107.3 418.05 L1107.4 418.05 Q1111.3 418.05 1114.1 421 M987.95 456.95 Q980.95 449.9 980.95 439.95 980.95 430.05 988 423 L988.05 423 Q995 415.95 1004.95 415.95 L1005 415.95 Q1014.9 415.95 1021.9 423 1028.95 430.05 1028.95 439.95 1028.95 449.95 1021.9 457 1014.95 463.95 1005 463.95 L1004.95 463.95 Q994.95 463.95 988 457 L987.95 456.95 M290.95 425.95 L318.95 425.95 318.95 453.95 290.95 453.95 290.95 425.95 M168.95 425.95 L246.95 425.95 246.95 453.95 168.95 453.95 168.95 425.95 M80.95 415.95 L128.95 415.95 128.95 463.95 80.95 463.95 80.95 415.95 M588.3 439.95 L581.45 456.4 564.95 463.2 548.4 456.45 541.6 439.95 548.4 423.4 564.95 416.5 581.45 423.35 588.3 439.95 M488.85 463.95 L461.05 463.95 452.25 435.35 475 418 497.7 435.35 488.85 463.95 M405.65 439.95 L384.95 460.65 364.25 439.95 384.95 419.25 405.65 439.95"/>
    <path stroke="none" fill="#F0F0F0" d="M405.65 439.95 L384.95 419.25 384.95 407.95 416.95 439.95 405.65 439.95 M946.95 431.4 L936.05 431.4 927.35 421.95 930.85 413.95 946.95 431.4 M914.95 454.2 L914.95 465.95 882.95 431.4 893.9 431.45 914.95 454.2 M826.95 422.75 L826.95 409.95 839.65 425.8 858.9 432.9 847.65 449.8 846.65 469.95 839 459.6 839.15 459.65 839.65 449.4 Q839.7 448.35 840.05 447.4 840.35 446.35 841 445.4 L846.65 436.9 836.9 433.3 834.9 432.25 833.4 430.8 826.95 422.75 M794.9 432.9 L807.2 436.9 812.85 445.35 813.85 447.4 814.2 449.45 814.65 459.65 814.75 459.6 807.1 469.95 806.2 449.8 794.9 432.9 M755.55 439.95 L746.3 433.8 745.1 432.8 744.1 431.6 737.95 422.4 737.95 407.95 750.75 427.15 769.95 439.95 755.55 439.95 M720.4 439.95 L729.6 446.1 730.8 447.1 731.8 448.3 737.95 457.55 737.95 471.95 725.15 452.75 705.95 439.95 720.4 439.95 M655.05 425.85 L655.05 407.95 686.95 471.95 674.05 463.95 655.05 425.85 M1079.05 456.05 L1065 441.1 1064.8 440.9 1064.6 440.7 Q1060 435.5 1060 428.35 1060.05 420.85 1065.05 415.55 L1065.25 415.35 Q1070.4 410 1077.65 410.05 1085 410 1090.25 415.55 L1092.5 418.45 Q1093.45 416.9 1094.7 415.6 L1094.75 415.55 Q1099.85 410 1107.35 410.05 1114.55 410 1119.75 415.35 L1114.1 421 Q1111.3 418.05 1107.4 418.05 L1107.3 418.05 Q1103.35 418.05 1100.65 421 L1100.4 421.2 1100.35 421.25 1100.5 421.15 1099.35 422.65 Q1097.85 425 1095.25 426 L1092.5 426.5 1089.95 426.05 Q1087.3 425.15 1085.8 422.8 L1084.45 421.05 1084.4 421 Q1081.6 418.05 1077.7 418.05 L1077.6 418.05 Q1073.65 418.05 1070.95 421.05 L1070.9 421.05 Q1068 424.05 1068 428.35 L1068 428.4 Q1068 432.45 1070.6 435.4 L1070.65 435.45 1070.7 435.5 1070.85 435.65 1084.7 450.4 1079.05 456.05 M1027.55 417.35 L1021.9 423 Q1014.9 415.95 1005 415.95 L1004.95 415.95 Q995 415.95 988.05 423 L988 423 Q980.95 430.05 980.95 439.95 980.95 449.9 987.95 456.95 L982.3 462.6 Q972.95 453.2 972.95 439.95 972.95 426.75 982.35 417.35 991.65 407.95 1004.95 407.95 L1005 407.95 Q1018.25 407.95 1027.55 417.35 M318.95 425.95 L326.95 417.95 326.95 461.95 318.95 453.95 318.95 425.95 M282.95 417.95 L290.95 425.95 290.95 453.95 282.95 461.95 282.95 417.95 M246.95 425.95 L254.95 417.95 254.95 461.95 246.95 453.95 246.95 425.95 M160.95 417.95 L168.95 425.95 168.95 453.95 160.95 461.95 160.95 417.95 M128.95 415.95 L136.95 407.95 136.95 471.95 128.95 463.95 128.95 415.95 M72.95 407.95 L80.95 415.95 80.95 463.95 72.95 471.95 72.95 407.95 M596.95 439.95 L588.3 439.95 581.45 423.35 564.95 416.5 564.95 407.85 587.55 417.25 596.95 439.95 M564.95 463.2 L564.95 471.85 542.25 462.55 532.95 439.95 541.6 439.95 548.4 456.45 564.95 463.2 M494.75 471.95 L488.85 463.95 497.7 435.35 475 418 475 407.95 506.95 432.35 494.75 471.95 M461.05 463.95 L455.15 471.95 442.95 432.35 452.25 435.35 461.05 463.95"/>
    <path stroke="none" fill="#C9C9C9" d="M936.05 431.4 L946.95 431.4 914.95 465.95 914.95 454.2 936.05 431.4 M814.75 459.6 L824.9 456.9 826.95 456.6 829.05 456.9 839 459.6 846.65 469.95 826.95 464.6 807.1 469.95 814.75 459.6 M755.55 439.95 L769.95 439.95 750.75 452.75 737.95 471.95 737.95 457.55 744.1 448.3 745.1 447.1 746.3 446.1 755.55 439.95 M674.05 463.95 L686.95 471.95 622.95 471.95 635.9 463.95 674.05 463.95 M1119.75 415.35 L1119.95 415.55 Q1124.95 420.85 1125 428.35 1125 435 1121.05 439.95 L1120.4 440.7 1120.2 440.9 1120 441.1 1094.6 468.1 1093.25 468.9 1092.5 469.05 1091.7 468.9 1090.4 468.1 1079.05 456.05 1084.7 450.4 1092.5 458.7 1114.2 435.65 1114.35 435.45 1114.4 435.4 Q1117 432.45 1117 428.4 L1117 428.35 Q1117 424.05 1114.15 421.05 L1114.1 421 1119.75 415.35 M1021.9 423 L1027.55 417.35 Q1036.95 426.75 1036.95 439.95 1036.95 453.25 1027.55 462.65 1018.25 471.95 1005 471.95 L1004.95 471.95 Q991.65 471.95 982.35 462.65 L982.3 462.6 987.95 456.95 988 457 Q994.95 463.95 1004.95 463.95 L1005 463.95 Q1014.95 463.95 1021.9 457 1028.95 449.95 1028.95 439.95 1028.95 430.05 1021.9 423 M290.95 453.95 L318.95 453.95 326.95 461.95 282.95 461.95 290.95 453.95 M246.95 453.95 L254.95 461.95 160.95 461.95 168.95 453.95 246.95 453.95 M128.95 463.95 L136.95 471.95 72.95 471.95 80.95 463.95 128.95 463.95 M588.3 439.95 L596.95 439.95 587.55 462.55 564.95 471.85 564.95 463.2 581.45 456.4 588.3 439.95 M488.85 463.95 L494.75 471.95 455.15 471.95 461.05 463.95 488.85 463.95 M405.65 439.95 L416.95 439.95 384.95 471.95 352.95 439.95 364.25 439.95 384.95 460.65 405.65 439.95"/>
    <path stroke="none" fill="#FFFFFF" d="M863.1 525.7 L855.5 537.15 855.25 537.45 852.6 541.45 851.65 560.2 Q851.6 561.7 850.65 562.95 849.7 564.2 848.25 564.7 L845.35 564.8 826.95 559.8 808.4 564.8 805.5 564.7 Q804.05 564.15 803.1 562.95 802.15 561.7 802.1 560.2 L801.25 541.4 790.75 525.7 Q789.9 524.4 789.9 522.85 789.9 521.3 790.85 520.05 791.7 518.75 793.2 518.2 L811.1 511.6 823.1 496.8 Q824.05 495.6 825.5 495.2 826.95 494.7 828.45 495.2 829.9 495.65 830.85 496.85 L842.7 511.6 860.65 518.2 Q862.05 518.75 863 520.05 863.9 521.3 863.9 522.85 863.95 524.35 863.1 525.7 M877.95 521.4 Q877.95 519.45 879.3 518 L895.5 500.55 Q896.2 499.8 897.15 499.4 898.1 498.95 899.15 498.95 L930.85 498.95 Q931.9 498.95 932.85 499.4 933.8 499.8 934.55 500.55 L950.65 518 Q951.95 519.45 951.95 521.4 951.95 523.35 950.65 524.8 L918.65 559.35 Q917.65 560.35 916.3 560.75 914.95 561.15 913.6 560.75 912.25 560.4 911.3 559.35 L881.85 527.55 881.75 527.45 881.25 526.95 881.25 526.9 879.3 524.8 Q877.95 523.35 877.95 521.4 M826.95 499.95 L826.95 512.75 820.35 520.85 818.85 522.25 Q817.95 522.9 816.9 523.3 L807.2 526.9 794.9 522.9 814.1 515.8 826.95 499.95 814.1 515.8 794.9 522.9 806.2 539.8 807.1 559.95 826.95 554.6 846.65 559.95 847.65 539.8 858.9 522.9 839.65 515.8 826.95 499.95 M946.95 521.4 L930.85 503.95 927.35 511.95 902.65 511.95 893.9 521.45 882.95 521.4 914.95 555.95 946.95 521.4 M967.95 529.4 Q968 525.8 968.7 522.45 L968.7 522.5 Q970.7 511.95 978.85 503.85 L978.8 503.85 Q989.55 492.95 1004.95 492.95 L1005 492.95 Q1020.35 492.95 1031.1 503.85 1039.2 511.95 1041.25 522.5 L1041.3 522.55 Q1041.9 525.85 1041.95 529.4 L1041.95 529.45 1041.95 529.95 Q1041.95 545.3 1031.1 556.2 1020.3 566.95 1005 566.95 L1004.95 566.95 Q989.6 566.95 978.85 556.2 L978.8 556.15 978.75 556.15 Q967.95 545.25 967.95 529.95 L967.95 529.45 967.95 529.4 M882.95 521.4 L899.15 503.95 930.85 503.95 899.15 503.95 882.95 521.4 M739.55 493.25 Q741.15 493.75 742.1 495.2 L754.35 513.55 772.75 525.8 Q774.15 526.75 774.7 528.35 775.25 529.95 774.7 531.55 774.15 533.15 772.75 534.1 L754.35 546.35 742.1 564.75 Q741.15 566.15 739.55 566.7 737.95 567.25 736.35 566.7 734.75 566.15 733.8 564.75 L721.55 546.35 703.2 534.1 Q701.75 533.15 701.25 531.55 700.65 529.95 701.25 528.35 701.75 526.75 703.2 525.8 L721.55 513.55 733.8 495.2 Q734.75 493.75 736.35 493.25 737.95 492.65 739.55 493.25 M656.85 493.3 Q658.65 494 659.55 495.75 L691.45 559.75 Q692.2 561.3 691.85 563.05 691.45 564.75 690.1 565.85 688.7 566.95 686.95 566.95 L622.95 566.95 Q621.2 566.95 619.85 565.85 618.45 564.7 618.1 563 617.7 561.3 618.5 559.7 L650.6 495.7 Q651.45 493.95 653.25 493.3 655.05 492.6 656.85 493.3 M705.95 529.95 L725.15 542.75 737.95 561.95 750.75 542.75 769.95 529.95 750.75 517.15 737.95 497.95 725.15 517.15 705.95 529.95 725.15 517.15 737.95 497.95 737.95 512.4 731.8 521.6 730.8 522.8 729.6 523.8 720.4 529.95 705.95 529.95 M655.05 497.95 L655.05 515.85 635.9 553.95 622.95 561.95 655.05 497.95 622.95 561.95 686.95 561.95 655.05 497.95 M982.3 552.6 L982.35 552.65 Q991.65 561.95 1004.95 561.95 L1005 561.95 Q1018.25 561.95 1027.55 552.65 1036.95 543.25 1036.95 529.95 L1036.95 529.45 Q1036.9 526.35 1036.35 523.45 1034.55 514.35 1027.55 507.35 1018.25 497.95 1005 497.95 L1004.95 497.95 Q991.65 497.95 982.35 507.35 975.35 514.35 973.6 523.45 973 526.35 972.95 529.45 L972.95 529.95 Q972.95 543.2 982.3 552.6 M1079.05 546.05 L1090.4 558.1 1091.7 558.9 1092.5 559.05 1093.25 558.9 1094.6 558.1 1120 531.1 1120.2 530.9 1120.4 530.7 1121.05 529.95 1121.45 529.45 1122.75 527.45 Q1123.8 525.55 1124.35 523.45 1125 521.05 1125 518.35 1124.95 510.85 1119.95 505.55 L1119.75 505.35 Q1114.55 500 1107.35 500.05 1099.85 500 1094.75 505.55 L1094.7 505.6 Q1093.45 506.9 1092.5 508.45 L1090.25 505.55 Q1085 500 1077.65 500.05 1070.4 500 1065.25 505.35 L1065.05 505.55 Q1060.05 510.85 1060 518.35 1060 521.05 1060.65 523.45 1061.2 525.55 1062.3 527.45 L1063.6 529.45 1064.6 530.7 1064.8 530.9 1065 531.1 1079.05 546.05 M1123.6 502.15 Q1129.9 508.85 1130 518.35 1130 521.75 1129.2 524.75 1128.45 527.45 1127.15 529.9 L1127.1 529.95 1125.5 532.45 1125.35 532.6 1125.05 532.95 1124.95 533.1 1123.95 534.25 1123.75 534.45 1123.65 534.55 1098.25 561.55 1098.15 561.65 Q1096.75 563.05 1094.75 563.7 L1094.65 563.7 1093.15 564 1092.5 564.05 1089.95 563.6 1090.2 563.7 Q1088.05 563 1086.75 561.55 L1061.45 534.65 Q1060.75 534.05 1060.4 533.45 L1059.7 532.55 Q1058.65 531.25 1057.9 529.8 1056.5 527.35 1055.85 524.75 1055 521.75 1055 518.35 1055.1 508.85 1061.45 502.15 L1061.55 502.05 1061.75 501.85 1061.65 501.9 Q1068.3 495 1077.65 495.05 L1077.7 495.05 Q1086.15 495 1092.5 500.75 1098.65 495 1107.35 495.05 L1107.4 495.05 Q1116.6 495 1123.3 501.85 L1123.35 501.9 1123.5 502.05 1123.6 502.15 M168.95 515.95 L160.95 507.95 160.95 551.95 254.95 551.95 254.95 507.95 246.95 515.95 168.95 515.95 M318.95 515.95 L290.95 515.95 282.95 507.95 326.95 507.95 282.95 507.95 282.95 551.95 326.95 551.95 326.95 507.95 318.95 515.95 M282.95 502.95 L326.95 502.95 Q329 502.95 330.5 504.45 331.95 505.9 331.95 507.95 L331.95 551.95 Q331.95 554 330.5 555.5 329 556.95 326.95 556.95 L282.95 556.95 Q280.9 556.95 279.45 555.5 277.95 554 277.95 551.95 L277.95 507.95 Q277.95 505.9 279.45 504.45 280.9 502.95 282.95 502.95 M259.95 507.95 L259.95 551.95 Q259.95 554 258.5 555.5 257 556.95 254.95 556.95 L160.95 556.95 Q158.9 556.95 157.45 555.5 155.95 554 155.95 551.95 L155.95 507.95 Q155.95 505.9 157.45 504.45 158.9 502.95 160.95 502.95 L254.95 502.95 Q257 502.95 258.5 504.45 259.95 505.9 259.95 507.95 M160.95 507.95 L254.95 507.95 160.95 507.95 M140.5 494.45 Q141.95 495.9 141.95 497.95 L141.95 561.95 Q141.95 564 140.5 565.5 139 566.95 136.95 566.95 L72.95 566.95 Q70.9 566.95 69.45 565.5 67.95 564 67.95 561.95 L67.95 497.95 Q67.95 495.9 69.45 494.45 70.9 492.95 72.95 492.95 L136.95 492.95 Q139 492.95 140.5 494.45 M80.95 505.95 L72.95 497.95 136.95 497.95 72.95 497.95 72.95 561.95 136.95 561.95 136.95 497.95 128.95 505.95 80.95 505.95 M566.9 493.25 L589.5 502.65 Q591.4 503.45 592.2 505.35 L601.6 528.05 Q602.4 529.95 601.6 531.9 L592.2 554.5 Q591.35 556.4 589.45 557.2 L566.85 566.5 Q564.95 567.25 563.05 566.5 L540.35 557.2 Q538.45 556.4 537.65 554.45 L528.35 531.85 Q527.55 529.95 528.35 528.05 L537.65 505.35 Q538.4 503.45 540.35 502.65 L563.05 493.25 Q564.95 492.4 566.9 493.25 M564.95 506.5 L548.4 513.4 541.6 529.95 532.95 529.95 542.25 507.25 564.95 497.85 542.25 507.25 532.95 529.95 542.25 552.55 564.95 561.85 587.55 552.55 596.95 529.95 587.55 507.25 564.95 497.85 564.95 506.5 M511.75 523.85 L499.55 563.45 Q499.05 565 497.7 566 496.4 566.95 494.75 566.95 L455.15 566.95 Q453.5 566.95 452.2 566 450.85 565 450.4 563.45 L438.2 523.85 Q437.7 522.35 438.2 520.85 438.7 519.35 439.95 518.4 L472 494 Q473.3 492.95 475 492.95 476.65 492.95 478.05 494 L510 518.4 Q511.2 519.35 511.7 520.85 512.2 522.3 511.75 523.85 M455.15 561.95 L494.75 561.95 506.95 522.35 475 497.95 475 508 452.25 525.35 442.95 522.35 455.15 561.95 M384.95 492.95 Q387 492.95 388.5 494.45 L420.5 526.45 Q421.95 527.9 421.95 529.95 421.95 532 420.5 533.5 L388.5 565.5 Q387 566.95 384.95 566.95 382.9 566.95 381.45 565.5 L349.45 533.5 Q347.95 532 347.95 529.95 347.95 527.9 349.45 526.45 L381.45 494.45 Q382.9 492.95 384.95 492.95 M384.95 497.95 L384.95 509.25 364.25 529.95 352.95 529.95 384.95 561.95 416.95 529.95 384.95 497.95 352.95 529.95 384.95 497.95 M442.95 522.35 L475 497.95 442.95 522.35"/>
    <path stroke="none" fill="#E5E5E5" d="M807.2 526.9 L816.9 523.3 Q817.95 522.9 818.85 522.25 L820.35 520.85 826.95 512.75 833.4 520.8 834.9 522.25 836.9 523.3 846.65 526.9 841.05 535.35 841 535.4 Q840.35 536.35 840.05 537.4 839.7 538.35 839.65 539.4 L839.15 549.65 839 549.6 829.05 546.9 826.95 546.6 824.9 546.9 814.75 549.6 814.65 549.65 814.2 539.45 813.85 537.4 812.85 535.35 807.2 526.9 M927.35 511.95 L936.05 521.4 914.95 544.2 893.9 521.45 902.65 511.95 927.35 511.95 M737.95 547.55 L731.8 538.3 730.8 537.1 729.6 536.1 720.4 529.95 729.6 523.8 730.8 522.8 731.8 521.6 737.95 512.4 744.1 521.6 745.1 522.8 746.3 523.8 755.55 529.95 746.3 536.1 745.1 537.1 744.1 538.3 737.95 547.55 M655.05 515.85 L674.05 553.95 635.9 553.95 655.05 515.85 M1021.9 513 Q1026.5 517.6 1028.1 523.45 1028.9 526.3 1028.95 529.45 L1028.95 529.95 Q1028.95 539.95 1021.9 547 1014.95 553.95 1005 553.95 L1004.95 553.95 Q994.95 553.95 988 547 L987.95 546.95 Q980.95 539.9 980.95 529.95 L980.95 529.45 Q981 526.3 981.8 523.45 983.4 517.6 988 513 L988.05 513 Q995 505.95 1004.95 505.95 L1005 505.95 Q1014.9 505.95 1021.9 513 M1114.1 511 L1114.15 511.05 Q1117 514.05 1117 518.35 L1117 518.4 Q1117 521.2 1115.8 523.45 L1114.4 525.4 1114.35 525.45 1114.2 525.65 1092.5 548.7 1084.7 540.4 1070.85 525.65 1070.7 525.5 1070.65 525.45 1070.6 525.4 1069.25 523.45 Q1068 521.2 1068 518.4 L1068 518.35 Q1068 514.05 1070.9 511.05 L1070.95 511.05 Q1073.65 508.05 1077.6 508.05 L1077.7 508.05 Q1081.6 508.05 1084.4 511 L1084.45 511.05 1085.8 512.8 Q1087.3 515.15 1089.95 516.05 L1092.5 516.5 1095.25 516 Q1097.85 515 1099.35 512.65 L1100.5 511.15 1100.35 511.25 1100.4 511.2 1100.65 511 Q1103.35 508.05 1107.3 508.05 L1107.4 508.05 Q1111.3 508.05 1114.1 511 M168.95 543.95 L168.95 515.95 246.95 515.95 246.95 543.95 168.95 543.95 M290.95 515.95 L318.95 515.95 318.95 543.95 290.95 543.95 290.95 515.95 M80.95 505.95 L128.95 505.95 128.95 553.95 80.95 553.95 80.95 505.95 M541.6 529.95 L548.4 513.4 564.95 506.5 581.45 513.35 588.3 529.95 581.45 546.4 564.95 553.2 548.4 546.45 541.6 529.95 M488.85 553.95 L461.05 553.95 452.25 525.35 475 508 497.7 525.35 488.85 553.95 M384.95 509.25 L405.65 529.95 384.95 550.65 364.25 529.95 384.95 509.25"/>
    <path stroke="none" fill="#F0F0F0" d="M384.95 509.25 L384.95 497.95 416.95 529.95 405.65 529.95 384.95 509.25 M826.95 512.75 L826.95 499.95 839.65 515.8 858.9 522.9 847.65 539.8 846.65 559.95 839 549.6 839.15 549.65 839.65 539.4 Q839.7 538.35 840.05 537.4 840.35 536.35 841 535.4 L841.05 535.35 846.65 526.9 836.9 523.3 834.9 522.25 833.4 520.8 826.95 512.75 M794.9 522.9 L807.2 526.9 812.85 535.35 813.85 537.4 814.2 539.45 814.65 549.65 814.75 549.6 807.1 559.95 806.2 539.8 794.9 522.9 M946.95 521.4 L936.05 521.4 927.35 511.95 930.85 503.95 946.95 521.4 M914.95 544.2 L914.95 555.95 882.95 521.4 893.9 521.45 914.95 544.2 M737.95 561.95 L725.15 542.75 705.95 529.95 720.4 529.95 729.6 536.1 730.8 537.1 731.8 538.3 737.95 547.55 737.95 561.95 M737.95 497.95 L750.75 517.15 769.95 529.95 755.55 529.95 746.3 523.8 745.1 522.8 744.1 521.6 737.95 512.4 737.95 497.95 M655.05 515.85 L655.05 497.95 686.95 561.95 674.05 553.95 655.05 515.85 M1027.55 507.35 L1021.9 513 Q1014.9 505.95 1005 505.95 L1004.95 505.95 Q995 505.95 988.05 513 L988 513 Q983.4 517.6 981.8 523.45 981 526.3 980.95 529.45 L980.95 529.95 Q980.95 539.9 987.95 546.95 L982.3 552.6 Q972.95 543.2 972.95 529.95 L972.95 529.45 Q973 526.35 973.6 523.45 975.35 514.35 982.35 507.35 991.65 497.95 1004.95 497.95 L1005 497.95 Q1018.25 497.95 1027.55 507.35 M1079.05 546.05 L1065 531.1 1064.8 530.9 1064.6 530.7 1063.6 529.45 1062.3 527.45 Q1061.2 525.55 1060.65 523.45 1060 521.05 1060 518.35 1060.05 510.85 1065.05 505.55 L1065.25 505.35 Q1070.4 500 1077.65 500.05 1085 500 1090.25 505.55 L1092.5 508.45 Q1093.45 506.9 1094.7 505.6 L1094.75 505.55 Q1099.85 500 1107.35 500.05 1114.55 500 1119.75 505.35 L1114.1 511 Q1111.3 508.05 1107.4 508.05 L1107.3 508.05 Q1103.35 508.05 1100.65 511 L1100.4 511.2 1100.35 511.25 1100.5 511.15 1099.35 512.65 Q1097.85 515 1095.25 516 L1092.5 516.5 1089.95 516.05 Q1087.3 515.15 1085.8 512.8 L1084.45 511.05 1084.4 511 Q1081.6 508.05 1077.7 508.05 L1077.6 508.05 Q1073.65 508.05 1070.95 511.05 L1070.9 511.05 Q1068 514.05 1068 518.35 L1068 518.4 Q1068 521.2 1069.25 523.45 L1070.6 525.4 1070.65 525.45 1070.7 525.5 1070.85 525.65 1084.7 540.4 1079.05 546.05 M168.95 515.95 L168.95 543.95 160.95 551.95 160.95 507.95 168.95 515.95 M246.95 543.95 L246.95 515.95 254.95 507.95 254.95 551.95 246.95 543.95 M318.95 515.95 L326.95 507.95 326.95 551.95 318.95 543.95 318.95 515.95 M282.95 507.95 L290.95 515.95 290.95 543.95 282.95 551.95 282.95 507.95 M72.95 497.95 L80.95 505.95 80.95 553.95 72.95 561.95 72.95 497.95 M128.95 505.95 L136.95 497.95 136.95 561.95 128.95 553.95 128.95 505.95 M564.95 506.5 L564.95 497.85 587.55 507.25 596.95 529.95 588.3 529.95 581.45 513.35 564.95 506.5 M532.95 529.95 L541.6 529.95 548.4 546.45 564.95 553.2 564.95 561.85 542.25 552.55 532.95 529.95 M494.75 561.95 L488.85 553.95 497.7 525.35 475 508 475 497.95 506.95 522.35 494.75 561.95 M461.05 553.95 L455.15 561.95 442.95 522.35 452.25 525.35 461.05 553.95"/>
    <path stroke="none" fill="#C9C9C9" d="M461.05 553.95 L488.85 553.95 494.75 561.95 455.15 561.95 461.05 553.95 M839 549.6 L846.65 559.95 826.95 554.6 807.1 559.95 814.75 549.6 824.9 546.9 826.95 546.6 829.05 546.9 839 549.6 M936.05 521.4 L946.95 521.4 914.95 555.95 914.95 544.2 936.05 521.4 M737.95 561.95 L737.95 547.55 744.1 538.3 745.1 537.1 746.3 536.1 755.55 529.95 769.95 529.95 750.75 542.75 737.95 561.95 M674.05 553.95 L686.95 561.95 622.95 561.95 635.9 553.95 674.05 553.95 M1021.9 513 L1027.55 507.35 Q1034.55 514.35 1036.35 523.45 1036.9 526.35 1036.95 529.45 L1036.95 529.95 Q1036.95 543.25 1027.55 552.65 1018.25 561.95 1005 561.95 L1004.95 561.95 Q991.65 561.95 982.35 552.65 L982.3 552.6 987.95 546.95 988 547 Q994.95 553.95 1004.95 553.95 L1005 553.95 Q1014.95 553.95 1021.9 547 1028.95 539.95 1028.95 529.95 L1028.95 529.45 Q1028.9 526.3 1028.1 523.45 1026.5 517.6 1021.9 513 M1119.75 505.35 L1119.95 505.55 Q1124.95 510.85 1125 518.35 1125 521.05 1124.35 523.45 1123.8 525.55 1122.75 527.45 L1121.45 529.45 1121.05 529.95 1120.4 530.7 1120.2 530.9 1120 531.1 1094.6 558.1 1093.25 558.9 1092.5 559.05 1091.7 558.9 1090.4 558.1 1079.05 546.05 1084.7 540.4 1092.5 548.7 1114.2 525.65 1114.35 525.45 1114.4 525.4 1115.8 523.45 Q1117 521.2 1117 518.4 L1117 518.35 Q1117 514.05 1114.15 511.05 L1114.1 511 1119.75 505.35 M160.95 551.95 L168.95 543.95 246.95 543.95 254.95 551.95 160.95 551.95 M290.95 543.95 L318.95 543.95 326.95 551.95 282.95 551.95 290.95 543.95 M72.95 561.95 L80.95 553.95 128.95 553.95 136.95 561.95 72.95 561.95 M564.95 553.2 L581.45 546.4 588.3 529.95 596.95 529.95 587.55 552.55 564.95 561.85 564.95 553.2 M405.65 529.95 L416.95 529.95 384.95 561.95 352.95 529.95 364.25 529.95 384.95 550.65 405.65 529.95"/>
    <path stroke="none" fill="#FFFFFF" fill-opacity="0.12156862745098039" d="M705.95 529.95 L725.15 517.15 737.95 497.95 750.75 517.15 769.95 529.95 705.95 529.95 M885.8 524.45 L882.95 521.4 899.15 503.95 930.85 503.95 946.95 521.4 944.15 524.45 885.8 524.45 M858.9 522.9 L851.3 534.35 802.55 534.35 794.9 522.9 814.1 515.8 826.95 499.95 839.65 515.8 858.9 522.9 M675.5 538.95 L634.5 538.95 655.05 497.95 675.5 538.95 M72.95 529.95 L72.95 497.95 136.95 497.95 136.95 529.95 72.95 529.95 M254.95 507.95 L254.95 529.95 160.95 529.95 160.95 507.95 254.95 507.95 M282.95 529.95 L282.95 507.95 326.95 507.95 326.95 529.95 282.95 529.95 M1125 518.35 Q1125 521.05 1124.35 523.45 1123.8 525.55 1122.75 527.45 L1062.3 527.45 Q1061.2 525.55 1060.65 523.45 1060 521.05 1060 518.35 1060.05 510.85 1065.05 505.55 L1065.25 505.35 Q1070.4 500 1077.65 500.05 1085 500 1090.25 505.55 L1092.5 508.45 Q1093.45 506.9 1094.7 505.6 L1094.75 505.55 Q1099.85 500 1107.35 500.05 1114.55 500 1119.75 505.35 L1119.95 505.55 Q1124.95 510.85 1125 518.35 M1027.55 507.35 Q1034.55 514.35 1036.35 523.45 1036.9 526.35 1036.95 529.45 L972.95 529.45 Q973 526.35 973.6 523.45 975.35 514.35 982.35 507.35 991.65 497.95 1004.95 497.95 L1005 497.95 Q1018.25 497.95 1027.55 507.35 M564.95 497.85 L587.55 507.25 596.95 529.95 532.95 529.95 542.25 507.25 564.95 497.85 M352.95 529.95 L384.95 497.95 416.95 529.95 352.95 529.95 M506.95 522.35 L504.6 529.95 445.3 529.95 442.95 522.35 475 497.95 506.95 522.35"/>
  </g>
</svg>